<?xml version="1.0" encoding="utf-8" standalone="no"?>
<!DOCTYPE svg PUBLIC "-//W3C//DTD SVG 1.1//EN"
  "http://www.w3.org/Graphics/SVG/1.1/DTD/svg11.dtd">
<svg xmlns:xlink="http://www.w3.org/1999/xlink" width="720pt" height="360pt" viewBox="0 0 720 360" xmlns="http://www.w3.org/2000/svg" version="1.1">
 <metadata>
  <rdf:RDF xmlns:dc="http://purl.org/dc/elements/1.1/" xmlns:cc="http://creativecommons.org/ns#" xmlns:rdf="http://www.w3.org/1999/02/22-rdf-syntax-ns#">
   <cc:Work>
    <dc:type rdf:resource="http://purl.org/dc/dcmitype/StillImage"/>
    <dc:date>2022-06-02T20:50:03.531990</dc:date>
    <dc:format>image/svg+xml</dc:format>
    <dc:creator>
     <cc:Agent>
      <dc:title>Matplotlib v3.5.1, https://matplotlib.org/</dc:title>
     </cc:Agent>
    </dc:creator>
   </cc:Work>
  </rdf:RDF>
 </metadata>
 <defs>
  <style type="text/css">*{stroke-linejoin: round; stroke-linecap: butt}</style>
 </defs>
 <g id="figure_1">
  <g id="patch_1">
   <path d="M 0 360 
L 720 360 
L 720 0 
L 0 0 
L 0 360 
z
" style="fill: none"/>
  </g>
  <g id="axes_1">
   <g id="patch_2">
    <path d="M 90 315 
L 648 315 
L 648 43.2 
L 90 43.2 
z
" style="fill: #ffffff"/>
   </g>
   <g id="PolyCollection_1">
    <defs>
     <path id="mbabd659865" d="M 121.073542 -116.83069 
L 120.926458 -116.83069 
L 120.892679 -118.725789 
L 120.847515 -120.620887 
L 120.788895 -122.515986 
L 120.715006 -124.411084 
L 120.624518 -126.306183 
L 120.516827 -128.201282 
L 120.392269 -130.09638 
L 120.252285 -131.991479 
L 120.099504 -133.886578 
L 119.937698 -135.781676 
L 119.771582 -137.676775 
L 119.606448 -139.571873 
L 119.447607 -141.466972 
L 119.299714 -143.362071 
L 119.166031 -145.257169 
L 119.047761 -147.152268 
L 118.94358 -149.047367 
L 118.849474 -150.942465 
L 118.758918 -152.837564 
L 118.663366 -154.732663 
L 118.552935 -156.627761 
L 118.417126 -158.52286 
L 118.245449 -160.417958 
L 118.027878 -162.313057 
L 117.755162 -164.208156 
L 117.419106 -166.103254 
L 117.012961 -167.998353 
L 116.532034 -169.893452 
L 115.974515 -171.78855 
L 115.342402 -173.683649 
L 114.642292 -175.578748 
L 113.885762 -177.473846 
L 113.089137 -179.368945 
L 112.272548 -181.264043 
L 111.458373 -183.159142 
L 110.669269 -185.054241 
L 109.926107 -186.949339 
L 109.246092 -188.844438 
L 108.641289 -190.739537 
L 108.117676 -192.634635 
L 107.674738 -194.529734 
L 107.305618 -196.424832 
L 106.997806 -198.319931 
L 106.734419 -200.21503 
L 106.496067 -202.110128 
L 106.263277 -204.005227 
L 106.019286 -205.900326 
L 105.752845 -207.795424 
L 105.460549 -209.690523 
L 105.14814 -211.585622 
L 104.830392 -213.48072 
L 104.529372 -215.375819 
L 104.2713 -217.270917 
L 104.082558 -219.166016 
L 103.985663 -221.061115 
L 103.996089 -222.956213 
L 104.12066 -224.851312 
L 104.357832 -226.746411 
L 104.699731 -228.641509 
L 105.135325 -230.536608 
L 105.653821 -232.431707 
L 106.247335 -234.326805 
L 106.912093 -236.221904 
L 107.647871 -238.117002 
L 108.455874 -240.012101 
L 109.335723 -241.9072 
L 110.282443 -243.802298 
L 111.284334 -245.697397 
L 112.322358 -247.592496 
L 113.371223 -249.487594 
L 114.401925 -251.382693 
L 115.38514 -253.277791 
L 116.294689 -255.17289 
L 117.110371 -257.067989 
L 117.819658 -258.963087 
L 118.418074 -260.858186 
L 118.908392 -262.753285 
L 119.299016 -264.648383 
L 119.601996 -266.543482 
L 119.831123 -268.438581 
L 120.000399 -270.333679 
L 120.123018 -272.228778 
L 120.210825 -274.123876 
L 120.274137 -276.018975 
L 120.321732 -277.914074 
L 120.360885 -279.809172 
L 120.397362 -281.704271 
L 120.435367 -283.59937 
L 120.477497 -285.494468 
L 120.524776 -287.389567 
L 120.576816 -289.284665 
L 120.632119 -291.179764 
L 120.688489 -293.074863 
L 120.743484 -294.969961 
L 120.794835 -296.86506 
L 120.840762 -298.760159 
L 120.880143 -300.655257 
L 120.912553 -302.550356 
L 120.938179 -304.445455 
L 121.061821 -304.445455 
L 121.061821 -304.445455 
L 121.087447 -302.550356 
L 121.119857 -300.655257 
L 121.159238 -298.760159 
L 121.205165 -296.86506 
L 121.256516 -294.969961 
L 121.311511 -293.074863 
L 121.367881 -291.179764 
L 121.423184 -289.284665 
L 121.475224 -287.389567 
L 121.522503 -285.494468 
L 121.564633 -283.59937 
L 121.602638 -281.704271 
L 121.639115 -279.809172 
L 121.678268 -277.914074 
L 121.725863 -276.018975 
L 121.789175 -274.123876 
L 121.876982 -272.228778 
L 121.999601 -270.333679 
L 122.168877 -268.438581 
L 122.398004 -266.543482 
L 122.700984 -264.648383 
L 123.091608 -262.753285 
L 123.581926 -260.858186 
L 124.180342 -258.963087 
L 124.889629 -257.067989 
L 125.705311 -255.17289 
L 126.61486 -253.277791 
L 127.598075 -251.382693 
L 128.628777 -249.487594 
L 129.677642 -247.592496 
L 130.715666 -245.697397 
L 131.717557 -243.802298 
L 132.664277 -241.9072 
L 133.544126 -240.012101 
L 134.352129 -238.117002 
L 135.087907 -236.221904 
L 135.752665 -234.326805 
L 136.346179 -232.431707 
L 136.864675 -230.536608 
L 137.300269 -228.641509 
L 137.642168 -226.746411 
L 137.87934 -224.851312 
L 138.003911 -222.956213 
L 138.014337 -221.061115 
L 137.917442 -219.166016 
L 137.7287 -217.270917 
L 137.470628 -215.375819 
L 137.169608 -213.48072 
L 136.85186 -211.585622 
L 136.539451 -209.690523 
L 136.247155 -207.795424 
L 135.980714 -205.900326 
L 135.736723 -204.005227 
L 135.503933 -202.110128 
L 135.265581 -200.21503 
L 135.002194 -198.319931 
L 134.694382 -196.424832 
L 134.325262 -194.529734 
L 133.882324 -192.634635 
L 133.358711 -190.739537 
L 132.753908 -188.844438 
L 132.073893 -186.949339 
L 131.330731 -185.054241 
L 130.541627 -183.159142 
L 129.727452 -181.264043 
L 128.910863 -179.368945 
L 128.114238 -177.473846 
L 127.357708 -175.578748 
L 126.657598 -173.683649 
L 126.025485 -171.78855 
L 125.467966 -169.893452 
L 124.987039 -167.998353 
L 124.580894 -166.103254 
L 124.244838 -164.208156 
L 123.972122 -162.313057 
L 123.754551 -160.417958 
L 123.582874 -158.52286 
L 123.447065 -156.627761 
L 123.336634 -154.732663 
L 123.241082 -152.837564 
L 123.150526 -150.942465 
L 123.05642 -149.047367 
L 122.952239 -147.152268 
L 122.833969 -145.257169 
L 122.700286 -143.362071 
L 122.552393 -141.466972 
L 122.393552 -139.571873 
L 122.228418 -137.676775 
L 122.062302 -135.781676 
L 121.900496 -133.886578 
L 121.747715 -131.991479 
L 121.607731 -130.09638 
L 121.483173 -128.201282 
L 121.375482 -126.306183 
L 121.284994 -124.411084 
L 121.211105 -122.515986 
L 121.152485 -120.620887 
L 121.107321 -118.725789 
L 121.073542 -116.83069 
z
" style="stroke: #3d3d3d; stroke-width: 2"/>
    </defs>
    <g clip-path="url(#pb2e1295613)">
     <use xlink:href="#mbabd659865" x="0" y="360" style="fill: #3274a1; stroke: #3d3d3d; stroke-width: 2"/>
    </g>
   </g>
   <g id="PolyCollection_2">
    <defs>
     <path id="m5b384a1af3" d="M 183.166403 -132.583244 
L 182.833597 -132.583244 
L 182.768252 -134.103719 
L 182.683654 -135.624193 
L 182.576669 -137.144667 
L 182.444524 -138.665142 
L 182.28513 -140.185616 
L 182.097413 -141.70609 
L 181.881607 -143.226565 
L 181.639484 -144.747039 
L 181.374449 -146.267513 
L 181.091498 -147.787988 
L 180.797004 -149.308462 
L 180.498348 -150.828936 
L 180.20342 -152.34941 
L 179.92003 -153.869885 
L 179.655299 -155.390359 
L 179.415082 -156.910833 
L 179.203461 -158.431308 
L 179.022381 -159.951782 
L 178.871412 -161.472256 
L 178.74768 -162.992731 
L 178.645954 -164.513205 
L 178.558878 -166.033679 
L 178.477364 -167.554154 
L 178.391099 -169.074628 
L 178.289188 -170.595102 
L 178.160875 -172.115577 
L 177.996309 -173.636051 
L 177.787294 -175.156525 
L 177.527954 -176.677 
L 177.215227 -178.197474 
L 176.849122 -179.717948 
L 176.432706 -181.238423 
L 175.971791 -182.758897 
L 175.47436 -184.279371 
L 174.949789 -185.799845 
L 174.407974 -187.32032 
L 173.85845 -188.840794 
L 173.309636 -190.361268 
L 172.768283 -191.881743 
L 172.239185 -193.402217 
L 171.725175 -194.922691 
L 171.227383 -196.443166 
L 170.745689 -197.96364 
L 170.279297 -199.484114 
L 169.827319 -201.004589 
L 169.389294 -202.525063 
L 168.96556 -204.045537 
L 168.557446 -205.566012 
L 168.167262 -207.086486 
L 167.798115 -208.60696 
L 167.453604 -210.127435 
L 167.137432 -211.647909 
L 166.853012 -213.168383 
L 166.603114 -214.688857 
L 166.389605 -216.209332 
L 166.213303 -217.729806 
L 166.073978 -219.25028 
L 165.970498 -220.770755 
L 165.901126 -222.291229 
L 165.863947 -223.811703 
L 165.857412 -225.332178 
L 165.880923 -226.852652 
L 165.935411 -228.373126 
L 166.023798 -229.893601 
L 166.151261 -231.414075 
L 166.325191 -232.934549 
L 166.554799 -234.455024 
L 166.850346 -235.975498 
L 167.222054 -237.495972 
L 167.6788 -239.016447 
L 168.226763 -240.536921 
L 168.868206 -242.057395 
L 169.600593 -243.57787 
L 170.416175 -245.098344 
L 171.302147 -246.618818 
L 172.241362 -248.139292 
L 173.213529 -249.659767 
L 174.196737 -251.180241 
L 175.169097 -252.700715 
L 176.110312 -254.22119 
L 177.002975 -255.741664 
L 177.833467 -257.262138 
L 178.592401 -258.782613 
L 179.274614 -260.303087 
L 179.878772 -261.823561 
L 180.406719 -263.344036 
L 180.862677 -264.86451 
L 181.252426 -266.384984 
L 181.582575 -267.905459 
L 181.85996 -269.425933 
L 182.091224 -270.946407 
L 182.282554 -272.466882 
L 182.439556 -273.987356 
L 182.567228 -275.50783 
L 182.669991 -277.028304 
L 182.751753 -278.548779 
L 182.815964 -280.069253 
L 182.865668 -281.589727 
L 182.903541 -283.110202 
L 183.096459 -283.110202 
L 183.096459 -283.110202 
L 183.134332 -281.589727 
L 183.184036 -280.069253 
L 183.248247 -278.548779 
L 183.330009 -277.028304 
L 183.432772 -275.50783 
L 183.560444 -273.987356 
L 183.717446 -272.466882 
L 183.908776 -270.946407 
L 184.14004 -269.425933 
L 184.417425 -267.905459 
L 184.747574 -266.384984 
L 185.137323 -264.86451 
L 185.593281 -263.344036 
L 186.121228 -261.823561 
L 186.725386 -260.303087 
L 187.407599 -258.782613 
L 188.166533 -257.262138 
L 188.997025 -255.741664 
L 189.889688 -254.22119 
L 190.830903 -252.700715 
L 191.803263 -251.180241 
L 192.786471 -249.659767 
L 193.758638 -248.139292 
L 194.697853 -246.618818 
L 195.583825 -245.098344 
L 196.399407 -243.57787 
L 197.131794 -242.057395 
L 197.773237 -240.536921 
L 198.3212 -239.016447 
L 198.777946 -237.495972 
L 199.149654 -235.975498 
L 199.445201 -234.455024 
L 199.674809 -232.934549 
L 199.848739 -231.414075 
L 199.976202 -229.893601 
L 200.064589 -228.373126 
L 200.119077 -226.852652 
L 200.142588 -225.332178 
L 200.136053 -223.811703 
L 200.098874 -222.291229 
L 200.029502 -220.770755 
L 199.926022 -219.25028 
L 199.786697 -217.729806 
L 199.610395 -216.209332 
L 199.396886 -214.688857 
L 199.146988 -213.168383 
L 198.862568 -211.647909 
L 198.546396 -210.127435 
L 198.201885 -208.60696 
L 197.832738 -207.086486 
L 197.442554 -205.566012 
L 197.03444 -204.045537 
L 196.610706 -202.525063 
L 196.172681 -201.004589 
L 195.720703 -199.484114 
L 195.254311 -197.96364 
L 194.772617 -196.443166 
L 194.274825 -194.922691 
L 193.760815 -193.402217 
L 193.231717 -191.881743 
L 192.690364 -190.361268 
L 192.14155 -188.840794 
L 191.592026 -187.32032 
L 191.050211 -185.799845 
L 190.52564 -184.279371 
L 190.028209 -182.758897 
L 189.567294 -181.238423 
L 189.150878 -179.717948 
L 188.784773 -178.197474 
L 188.472046 -176.677 
L 188.212706 -175.156525 
L 188.003691 -173.636051 
L 187.839125 -172.115577 
L 187.710812 -170.595102 
L 187.608901 -169.074628 
L 187.522636 -167.554154 
L 187.441122 -166.033679 
L 187.354046 -164.513205 
L 187.25232 -162.992731 
L 187.128588 -161.472256 
L 186.977619 -159.951782 
L 186.796539 -158.431308 
L 186.584918 -156.910833 
L 186.344701 -155.390359 
L 186.07997 -153.869885 
L 185.79658 -152.34941 
L 185.501652 -150.828936 
L 185.202996 -149.308462 
L 184.908502 -147.787988 
L 184.625551 -146.267513 
L 184.360516 -144.747039 
L 184.118393 -143.226565 
L 183.902587 -141.70609 
L 183.71487 -140.185616 
L 183.555476 -138.665142 
L 183.423331 -137.144667 
L 183.316346 -135.624193 
L 183.231748 -134.103719 
L 183.166403 -132.583244 
z
" style="stroke: #3d3d3d; stroke-width: 2"/>
    </defs>
    <g clip-path="url(#pb2e1295613)">
     <use xlink:href="#m5b384a1af3" x="0" y="360" style="fill: #e1812c; stroke: #3d3d3d; stroke-width: 2"/>
    </g>
   </g>
   <g id="PolyCollection_3">
    <defs>
     <path id="m03c3f0ba0d" d="M 245.067892 -100.424898 
L 244.932108 -100.424898 
L 244.90717 -101.974437 
L 244.876364 -103.523975 
L 244.839587 -105.073514 
L 244.797207 -106.623052 
L 244.750137 -108.17259 
L 244.699828 -109.722129 
L 244.648169 -111.271667 
L 244.597271 -112.821206 
L 244.549148 -114.370744 
L 244.505311 -115.920283 
L 244.46633 -117.469821 
L 244.431416 -119.01936 
L 244.398092 -120.568898 
L 244.362002 -122.118437 
L 244.316906 -123.667975 
L 244.254866 -125.217514 
L 244.166609 -126.767052 
L 244.04204 -128.31659 
L 243.870822 -129.866129 
L 243.64299 -131.415667 
L 243.349516 -132.965206 
L 242.9828 -134.514744 
L 242.537058 -136.064283 
L 242.008635 -137.613821 
L 241.396251 -139.16336 
L 240.701237 -140.712898 
L 239.927767 -142.262437 
L 239.083112 -143.811975 
L 238.177866 -145.361514 
L 237.226077 -146.911052 
L 236.245191 -148.46059 
L 235.255707 -150.010129 
L 234.28047 -151.559667 
L 233.34357 -153.109206 
L 232.468899 -154.658744 
L 231.678473 -156.208283 
L 230.9907 -157.757821 
L 230.418784 -159.30736 
L 229.96948 -160.856898 
L 229.642368 -162.406437 
L 229.429742 -163.955975 
L 229.317169 -165.505513 
L 229.284658 -167.055052 
L 229.308359 -168.60459 
L 229.362602 -170.154129 
L 229.422111 -171.703667 
L 229.464192 -173.253206 
L 229.470682 -174.802744 
L 229.429521 -176.352283 
L 229.335795 -177.901821 
L 229.192163 -179.45136 
L 229.00864 -181.000898 
L 228.80171 -182.550437 
L 228.592847 -184.099975 
L 228.406542 -185.649513 
L 228.267982 -187.199052 
L 228.200599 -188.74859 
L 228.223711 -190.298129 
L 228.350533 -191.847667 
L 228.586756 -193.397206 
L 228.929912 -194.946744 
L 229.369589 -196.496283 
L 229.888517 -198.045821 
L 230.464383 -199.59536 
L 231.072174 -201.144898 
L 231.686782 -202.694437 
L 232.285531 -204.243975 
L 232.850368 -205.793513 
L 233.369451 -207.343052 
L 233.837983 -208.89259 
L 234.258207 -210.442129 
L 234.638607 -211.991667 
L 234.992435 -213.541206 
L 235.335765 -215.090744 
L 235.685333 -216.640283 
L 236.056449 -218.189821 
L 236.461221 -219.73936 
L 236.907313 -221.288898 
L 237.397326 -222.838437 
L 237.928848 -224.387975 
L 238.495067 -225.937513 
L 239.085807 -227.487052 
L 239.688787 -229.03659 
L 240.290915 -230.586129 
L 240.879441 -232.135667 
L 241.442878 -233.685206 
L 241.971631 -235.234744 
L 242.458343 -236.784283 
L 242.898001 -238.333821 
L 243.287858 -239.88336 
L 243.627225 -241.432898 
L 243.917195 -242.982437 
L 244.160316 -244.531975 
L 244.360248 -246.081513 
L 244.521425 -247.631052 
L 244.648725 -249.18059 
L 244.747169 -250.730129 
L 244.821666 -252.279667 
L 244.876798 -253.829206 
L 245.123202 -253.829206 
L 245.123202 -253.829206 
L 245.178334 -252.279667 
L 245.252831 -250.730129 
L 245.351275 -249.18059 
L 245.478575 -247.631052 
L 245.639752 -246.081513 
L 245.839684 -244.531975 
L 246.082805 -242.982437 
L 246.372775 -241.432898 
L 246.712142 -239.88336 
L 247.101999 -238.333821 
L 247.541657 -236.784283 
L 248.028369 -235.234744 
L 248.557122 -233.685206 
L 249.120559 -232.135667 
L 249.709085 -230.586129 
L 250.311213 -229.03659 
L 250.914193 -227.487052 
L 251.504933 -225.937513 
L 252.071152 -224.387975 
L 252.602674 -222.838437 
L 253.092687 -221.288898 
L 253.538779 -219.73936 
L 253.943551 -218.189821 
L 254.314667 -216.640283 
L 254.664235 -215.090744 
L 255.007565 -213.541206 
L 255.361393 -211.991667 
L 255.741793 -210.442129 
L 256.162017 -208.89259 
L 256.630549 -207.343052 
L 257.149632 -205.793513 
L 257.714469 -204.243975 
L 258.313218 -202.694437 
L 258.927826 -201.144898 
L 259.535617 -199.59536 
L 260.111483 -198.045821 
L 260.630411 -196.496283 
L 261.070088 -194.946744 
L 261.413244 -193.397206 
L 261.649467 -191.847667 
L 261.776289 -190.298129 
L 261.799401 -188.74859 
L 261.732018 -187.199052 
L 261.593458 -185.649513 
L 261.407153 -184.099975 
L 261.19829 -182.550437 
L 260.99136 -181.000898 
L 260.807837 -179.45136 
L 260.664205 -177.901821 
L 260.570479 -176.352283 
L 260.529318 -174.802744 
L 260.535808 -173.253206 
L 260.577889 -171.703667 
L 260.637398 -170.154129 
L 260.691641 -168.60459 
L 260.715342 -167.055052 
L 260.682831 -165.505513 
L 260.570258 -163.955975 
L 260.357632 -162.406437 
L 260.03052 -160.856898 
L 259.581216 -159.30736 
L 259.0093 -157.757821 
L 258.321527 -156.208283 
L 257.531101 -154.658744 
L 256.65643 -153.109206 
L 255.71953 -151.559667 
L 254.744293 -150.010129 
L 253.754809 -148.46059 
L 252.773923 -146.911052 
L 251.822134 -145.361514 
L 250.916888 -143.811975 
L 250.072233 -142.262437 
L 249.298763 -140.712898 
L 248.603749 -139.16336 
L 247.991365 -137.613821 
L 247.462942 -136.064283 
L 247.0172 -134.514744 
L 246.650484 -132.965206 
L 246.35701 -131.415667 
L 246.129178 -129.866129 
L 245.95796 -128.31659 
L 245.833391 -126.767052 
L 245.745134 -125.217514 
L 245.683094 -123.667975 
L 245.637998 -122.118437 
L 245.601908 -120.568898 
L 245.568584 -119.01936 
L 245.53367 -117.469821 
L 245.494689 -115.920283 
L 245.450852 -114.370744 
L 245.402729 -112.821206 
L 245.351831 -111.271667 
L 245.300172 -109.722129 
L 245.249863 -108.17259 
L 245.202793 -106.623052 
L 245.160413 -105.073514 
L 245.123636 -103.523975 
L 245.09283 -101.974437 
L 245.067892 -100.424898 
z
" style="stroke: #3d3d3d; stroke-width: 2"/>
    </defs>
    <g clip-path="url(#pb2e1295613)">
     <use xlink:href="#m03c3f0ba0d" x="0" y="360" style="fill: #3a923a; stroke: #3d3d3d; stroke-width: 2"/>
    </g>
   </g>
   <g id="PolyCollection_4">
    <defs>
     <path id="med15c186e5" d="M 307.092014 -97.163221 
L 306.907986 -97.163221 
L 306.870223 -98.566318 
L 306.82122 -99.969415 
L 306.75936 -101.372511 
L 306.683402 -102.775608 
L 306.592705 -104.178705 
L 306.487437 -105.581802 
L 306.368736 -106.984898 
L 306.238777 -108.387995 
L 306.100727 -109.791092 
L 305.958523 -111.194188 
L 305.81649 -112.597285 
L 305.678767 -114.000382 
L 305.548597 -115.403479 
L 305.427526 -116.806575 
L 305.314603 -118.209672 
L 305.205729 -119.612769 
L 305.093265 -121.015866 
L 304.966062 -122.418962 
L 304.810016 -123.822059 
L 304.609179 -125.225156 
L 304.347392 -126.628253 
L 304.010295 -128.031349 
L 303.587461 -129.434446 
L 303.074348 -130.837543 
L 302.47372 -132.24064 
L 301.796252 -133.643736 
L 301.060107 -135.046833 
L 300.289453 -136.44993 
L 299.512045 -137.853026 
L 298.756168 -139.256123 
L 298.047366 -140.65922 
L 297.405411 -142.062317 
L 296.841951 -143.465413 
L 296.359146 -144.86851 
L 295.949479 -146.271607 
L 295.59671 -147.674704 
L 295.277843 -149.0778 
L 294.965827 -150.480897 
L 294.632674 -151.883994 
L 294.252631 -153.287091 
L 293.805109 -154.690187 
L 293.277041 -156.093284 
L 292.664437 -157.496381 
L 291.972968 -158.899478 
L 291.217468 -160.302574 
L 290.420421 -161.705671 
L 289.609582 -163.108768 
L 288.815055 -164.511864 
L 288.066236 -165.914961 
L 287.389074 -167.318058 
L 286.804037 -168.721155 
L 286.325062 -170.124251 
L 285.959558 -171.527348 
L 285.709324 -172.930445 
L 285.572072 -174.333542 
L 285.543168 -175.736638 
L 285.617161 -177.139735 
L 285.788838 -178.542832 
L 286.053649 -179.945929 
L 286.407572 -181.349025 
L 286.846601 -182.752122 
L 287.366141 -184.155219 
L 287.960545 -185.558316 
L 288.622969 -186.961412 
L 289.34556 -188.364509 
L 290.119888 -189.767606 
L 290.937446 -191.170702 
L 291.790024 -192.573799 
L 292.669841 -193.976896 
L 293.569372 -195.379993 
L 294.480971 -196.783089 
L 295.396416 -198.186186 
L 296.306566 -199.589283 
L 297.201289 -200.99238 
L 298.069738 -202.395476 
L 298.900982 -203.798573 
L 299.68489 -205.20167 
L 300.413105 -206.604767 
L 301.079932 -208.007863 
L 301.682957 -209.41096 
L 302.22326 -210.814057 
L 302.705185 -212.217154 
L 303.135669 -213.62025 
L 303.523252 -215.023347 
L 303.87691 -216.426444 
L 304.204913 -217.829541 
L 304.51388 -219.232637 
L 304.808175 -220.635734 
L 305.089718 -222.038831 
L 305.358197 -223.441927 
L 305.611604 -224.845024 
L 305.846974 -226.248121 
L 306.061155 -227.651218 
L 306.2515 -229.054314 
L 306.416345 -230.457411 
L 306.555269 -231.860508 
L 306.669093 -233.263605 
L 306.759713 -234.666701 
L 306.829796 -236.069798 
L 307.170204 -236.069798 
L 307.170204 -236.069798 
L 307.240287 -234.666701 
L 307.330907 -233.263605 
L 307.444731 -231.860508 
L 307.583655 -230.457411 
L 307.7485 -229.054314 
L 307.938845 -227.651218 
L 308.153026 -226.248121 
L 308.388396 -224.845024 
L 308.641803 -223.441927 
L 308.910282 -222.038831 
L 309.191825 -220.635734 
L 309.48612 -219.232637 
L 309.795087 -217.829541 
L 310.12309 -216.426444 
L 310.476748 -215.023347 
L 310.864331 -213.62025 
L 311.294815 -212.217154 
L 311.77674 -210.814057 
L 312.317043 -209.41096 
L 312.920068 -208.007863 
L 313.586895 -206.604767 
L 314.31511 -205.20167 
L 315.099018 -203.798573 
L 315.930262 -202.395476 
L 316.798711 -200.99238 
L 317.693434 -199.589283 
L 318.603584 -198.186186 
L 319.519029 -196.783089 
L 320.430628 -195.379993 
L 321.330159 -193.976896 
L 322.209976 -192.573799 
L 323.062554 -191.170702 
L 323.880112 -189.767606 
L 324.65444 -188.364509 
L 325.377031 -186.961412 
L 326.039455 -185.558316 
L 326.633859 -184.155219 
L 327.153399 -182.752122 
L 327.592428 -181.349025 
L 327.946351 -179.945929 
L 328.211162 -178.542832 
L 328.382839 -177.139735 
L 328.456832 -175.736638 
L 328.427928 -174.333542 
L 328.290676 -172.930445 
L 328.040442 -171.527348 
L 327.674938 -170.124251 
L 327.195963 -168.721155 
L 326.610926 -167.318058 
L 325.933764 -165.914961 
L 325.184945 -164.511864 
L 324.390418 -163.108768 
L 323.579579 -161.705671 
L 322.782532 -160.302574 
L 322.027032 -158.899478 
L 321.335563 -157.496381 
L 320.722959 -156.093284 
L 320.194891 -154.690187 
L 319.747369 -153.287091 
L 319.367326 -151.883994 
L 319.034173 -150.480897 
L 318.722157 -149.0778 
L 318.40329 -147.674704 
L 318.050521 -146.271607 
L 317.640854 -144.86851 
L 317.158049 -143.465413 
L 316.594589 -142.062317 
L 315.952634 -140.65922 
L 315.243832 -139.256123 
L 314.487955 -137.853026 
L 313.710547 -136.44993 
L 312.939893 -135.046833 
L 312.203748 -133.643736 
L 311.52628 -132.24064 
L 310.925652 -130.837543 
L 310.412539 -129.434446 
L 309.989705 -128.031349 
L 309.652608 -126.628253 
L 309.390821 -125.225156 
L 309.189984 -123.822059 
L 309.033938 -122.418962 
L 308.906735 -121.015866 
L 308.794271 -119.612769 
L 308.685397 -118.209672 
L 308.572474 -116.806575 
L 308.451403 -115.403479 
L 308.321233 -114.000382 
L 308.18351 -112.597285 
L 308.041477 -111.194188 
L 307.899273 -109.791092 
L 307.761223 -108.387995 
L 307.631264 -106.984898 
L 307.512563 -105.581802 
L 307.407295 -104.178705 
L 307.316598 -102.775608 
L 307.24064 -101.372511 
L 307.17878 -99.969415 
L 307.129777 -98.566318 
L 307.092014 -97.163221 
z
" style="stroke: #3d3d3d; stroke-width: 2"/>
    </defs>
    <g clip-path="url(#pb2e1295613)">
     <use xlink:href="#med15c186e5" x="0" y="360" style="fill: #c03d3e; stroke: #3d3d3d; stroke-width: 2"/>
    </g>
   </g>
   <g id="PolyCollection_5">
    <defs>
     <path id="m5683ad9151" d="M 369.174767 -120.306121 
L 368.825233 -120.306121 
L 368.755264 -121.698818 
L 368.663894 -123.091514 
L 368.547143 -124.484211 
L 368.401115 -125.876908 
L 368.222256 -127.269604 
L 368.007605 -128.662301 
L 367.755032 -130.054998 
L 367.463398 -131.447694 
L 367.132645 -132.840391 
L 366.763768 -134.233088 
L 366.358703 -135.625784 
L 365.920138 -137.018481 
L 365.451309 -138.411178 
L 364.955812 -139.803874 
L 364.437497 -141.196571 
L 363.900478 -142.589268 
L 363.34924 -143.981964 
L 362.788847 -145.374661 
L 362.225158 -146.767357 
L 361.664978 -148.160054 
L 361.116057 -149.552751 
L 360.586853 -150.945447 
L 360.086032 -152.338144 
L 359.621714 -153.730841 
L 359.200536 -155.123537 
L 358.826662 -156.516234 
L 358.500886 -157.908931 
L 358.219991 -159.301627 
L 357.976522 -160.694324 
L 357.759044 -162.087021 
L 357.552935 -163.479717 
L 357.341668 -164.872414 
L 357.10845 -166.265111 
L 356.838052 -167.657807 
L 356.518598 -169.050504 
L 356.143097 -170.443201 
L 355.710493 -171.835897 
L 355.226097 -173.228594 
L 354.701308 -174.62129 
L 354.152642 -176.013987 
L 353.600176 -177.406684 
L 353.065598 -178.79938 
L 352.570089 -180.192077 
L 352.132318 -181.584774 
L 351.766762 -182.97747 
L 351.482567 -184.370167 
L 351.283027 -185.762864 
L 351.165722 -187.15556 
L 351.123248 -188.548257 
L 351.144395 -189.940954 
L 351.215634 -191.33365 
L 351.322701 -192.726347 
L 351.452134 -194.119044 
L 351.592623 -195.51174 
L 351.73607 -196.904437 
L 351.8783 -198.297134 
L 352.019405 -199.68983 
L 352.163699 -201.082527 
L 352.319309 -202.475223 
L 352.497426 -203.86792 
L 352.711254 -205.260617 
L 352.974734 -206.653313 
L 353.301138 -208.04601 
L 353.701649 -209.438707 
L 354.184074 -210.831403 
L 354.751838 -212.2241 
L 355.403381 -213.616797 
L 356.132047 -215.009493 
L 356.926476 -216.40219 
L 357.771464 -217.794887 
L 358.64918 -219.187583 
L 359.540571 -220.58028 
L 360.42679 -221.972977 
L 361.290488 -223.365673 
L 362.116818 -224.75837 
L 362.894107 -226.151067 
L 363.614145 -227.543763 
L 364.27215 -228.93646 
L 364.866454 -230.329156 
L 365.398015 -231.721853 
L 365.869818 -233.11455 
L 366.286262 -234.507246 
L 366.65258 -235.899943 
L 366.974328 -237.29264 
L 367.256977 -238.685336 
L 367.505599 -240.078033 
L 367.724672 -241.47073 
L 367.917979 -242.863426 
L 368.088595 -244.256123 
L 368.238945 -245.64882 
L 368.370921 -247.041516 
L 368.486017 -248.434213 
L 368.585479 -249.82691 
L 368.670434 -251.219606 
L 368.741995 -252.612303 
L 368.801321 -254.005 
L 368.849647 -255.397696 
L 368.888272 -256.790393 
L 368.918531 -258.18309 
L 369.081469 -258.18309 
L 369.081469 -258.18309 
L 369.111728 -256.790393 
L 369.150353 -255.397696 
L 369.198679 -254.005 
L 369.258005 -252.612303 
L 369.329566 -251.219606 
L 369.414521 -249.82691 
L 369.513983 -248.434213 
L 369.629079 -247.041516 
L 369.761055 -245.64882 
L 369.911405 -244.256123 
L 370.082021 -242.863426 
L 370.275328 -241.47073 
L 370.494401 -240.078033 
L 370.743023 -238.685336 
L 371.025672 -237.29264 
L 371.34742 -235.899943 
L 371.713738 -234.507246 
L 372.130182 -233.11455 
L 372.601985 -231.721853 
L 373.133546 -230.329156 
L 373.72785 -228.93646 
L 374.385855 -227.543763 
L 375.105893 -226.151067 
L 375.883182 -224.75837 
L 376.709512 -223.365673 
L 377.57321 -221.972977 
L 378.459429 -220.58028 
L 379.35082 -219.187583 
L 380.228536 -217.794887 
L 381.073524 -216.40219 
L 381.867953 -215.009493 
L 382.596619 -213.616797 
L 383.248162 -212.2241 
L 383.815926 -210.831403 
L 384.298351 -209.438707 
L 384.698862 -208.04601 
L 385.025266 -206.653313 
L 385.288746 -205.260617 
L 385.502574 -203.86792 
L 385.680691 -202.475223 
L 385.836301 -201.082527 
L 385.980595 -199.68983 
L 386.1217 -198.297134 
L 386.26393 -196.904437 
L 386.407377 -195.51174 
L 386.547866 -194.119044 
L 386.677299 -192.726347 
L 386.784366 -191.33365 
L 386.855605 -189.940954 
L 386.876752 -188.548257 
L 386.834278 -187.15556 
L 386.716973 -185.762864 
L 386.517433 -184.370167 
L 386.233238 -182.97747 
L 385.867682 -181.584774 
L 385.429911 -180.192077 
L 384.934402 -178.79938 
L 384.399824 -177.406684 
L 383.847358 -176.013987 
L 383.298692 -174.62129 
L 382.773903 -173.228594 
L 382.289507 -171.835897 
L 381.856903 -170.443201 
L 381.481402 -169.050504 
L 381.161948 -167.657807 
L 380.89155 -166.265111 
L 380.658332 -164.872414 
L 380.447065 -163.479717 
L 380.240956 -162.087021 
L 380.023478 -160.694324 
L 379.780009 -159.301627 
L 379.499114 -157.908931 
L 379.173338 -156.516234 
L 378.799464 -155.123537 
L 378.378286 -153.730841 
L 377.913968 -152.338144 
L 377.413147 -150.945447 
L 376.883943 -149.552751 
L 376.335022 -148.160054 
L 375.774842 -146.767357 
L 375.211153 -145.374661 
L 374.65076 -143.981964 
L 374.099522 -142.589268 
L 373.562503 -141.196571 
L 373.044188 -139.803874 
L 372.548691 -138.411178 
L 372.079862 -137.018481 
L 371.641297 -135.625784 
L 371.236232 -134.233088 
L 370.867355 -132.840391 
L 370.536602 -131.447694 
L 370.244968 -130.054998 
L 369.992395 -128.662301 
L 369.777744 -127.269604 
L 369.598885 -125.876908 
L 369.452857 -124.484211 
L 369.336106 -123.091514 
L 369.244736 -121.698818 
L 369.174767 -120.306121 
z
" style="stroke: #3d3d3d; stroke-width: 2"/>
    </defs>
    <g clip-path="url(#pb2e1295613)">
     <use xlink:href="#m5683ad9151" x="0" y="360" style="fill: #9372b2; stroke: #3d3d3d; stroke-width: 2"/>
    </g>
   </g>
   <g id="PolyCollection_6">
    <defs>
     <path id="mfd77994eac" d="M 431.153856 -116.176467 
L 430.846144 -116.176467 
L 430.782824 -117.811024 
L 430.700975 -119.445581 
L 430.598232 -121.080138 
L 430.472962 -122.714695 
L 430.324547 -124.349252 
L 430.153544 -125.98381 
L 429.961664 -127.618367 
L 429.751502 -129.252924 
L 429.526019 -130.887481 
L 429.287819 -132.522038 
L 429.03832 -134.156595 
L 428.776983 -135.791152 
L 428.500767 -137.425709 
L 428.203997 -139.060266 
L 427.878745 -140.694823 
L 427.515756 -142.32938 
L 427.105835 -143.963937 
L 426.641512 -145.598494 
L 426.118695 -147.233051 
L 425.538027 -148.867608 
L 424.905663 -150.502165 
L 424.233274 -152.136722 
L 423.537221 -153.771279 
L 422.836974 -155.405836 
L 422.152999 -157.040393 
L 421.504425 -158.674951 
L 420.906823 -160.309508 
L 420.370443 -161.944065 
L 419.899136 -163.578622 
L 419.4901 -165.213179 
L 419.13444 -166.847736 
L 418.818444 -168.482293 
L 418.525355 -170.11685 
L 418.237404 -171.751407 
L 417.937858 -173.385964 
L 417.612844 -175.020521 
L 417.252813 -176.655078 
L 416.853516 -178.289635 
L 416.416464 -179.924192 
L 415.948871 -181.558749 
L 415.463112 -183.193306 
L 414.975763 -184.827863 
L 414.506298 -186.46242 
L 414.075532 -188.096977 
L 413.703934 -189.731534 
L 413.409941 -191.366092 
L 413.208424 -193.000649 
L 413.10946 -194.635206 
L 413.117569 -196.269763 
L 413.231502 -197.90432 
L 413.44466 -199.538877 
L 413.74611 -201.173434 
L 414.122092 -202.807991 
L 414.557853 -204.442548 
L 415.039539 -206.077105 
L 415.555876 -207.711662 
L 416.099356 -209.346219 
L 416.666731 -210.980776 
L 417.258693 -212.615333 
L 417.878796 -214.24989 
L 418.531788 -215.884447 
L 419.221665 -217.519004 
L 419.949807 -219.153561 
L 420.713569 -220.788118 
L 421.505581 -222.422675 
L 422.313909 -224.057233 
L 423.123023 -225.69179 
L 423.915396 -227.326347 
L 424.673424 -228.960904 
L 425.381326 -230.595461 
L 426.026719 -232.230018 
L 426.601642 -233.864575 
L 427.102927 -235.499132 
L 427.531952 -237.133689 
L 427.893887 -238.768246 
L 428.196642 -240.402803 
L 428.4497 -242.03736 
L 428.663027 -243.671917 
L 428.84617 -245.306474 
L 429.007628 -246.941031 
L 429.15448 -248.575588 
L 429.292245 -250.210145 
L 429.424914 -251.844702 
L 429.555087 -253.479259 
L 429.684158 -255.113816 
L 429.812522 -256.748374 
L 429.939771 -258.382931 
L 430.064886 -260.017488 
L 430.186428 -261.652045 
L 430.302726 -263.286602 
L 430.412062 -264.921159 
L 430.512854 -266.555716 
L 430.603811 -268.190273 
L 430.684051 -269.82483 
L 430.753169 -271.459387 
L 430.81125 -273.093944 
L 430.858827 -274.728501 
L 430.896793 -276.363058 
L 430.926293 -277.997615 
L 431.073707 -277.997615 
L 431.073707 -277.997615 
L 431.103207 -276.363058 
L 431.141173 -274.728501 
L 431.18875 -273.093944 
L 431.246831 -271.459387 
L 431.315949 -269.82483 
L 431.396189 -268.190273 
L 431.487146 -266.555716 
L 431.587938 -264.921159 
L 431.697274 -263.286602 
L 431.813572 -261.652045 
L 431.935114 -260.017488 
L 432.060229 -258.382931 
L 432.187478 -256.748374 
L 432.315842 -255.113816 
L 432.444913 -253.479259 
L 432.575086 -251.844702 
L 432.707755 -250.210145 
L 432.84552 -248.575588 
L 432.992372 -246.941031 
L 433.15383 -245.306474 
L 433.336973 -243.671917 
L 433.5503 -242.03736 
L 433.803358 -240.402803 
L 434.106113 -238.768246 
L 434.468048 -237.133689 
L 434.897073 -235.499132 
L 435.398358 -233.864575 
L 435.973281 -232.230018 
L 436.618674 -230.595461 
L 437.326576 -228.960904 
L 438.084604 -227.326347 
L 438.876977 -225.69179 
L 439.686091 -224.057233 
L 440.494419 -222.422675 
L 441.286431 -220.788118 
L 442.050193 -219.153561 
L 442.778335 -217.519004 
L 443.468212 -215.884447 
L 444.121204 -214.24989 
L 444.741307 -212.615333 
L 445.333269 -210.980776 
L 445.900644 -209.346219 
L 446.444124 -207.711662 
L 446.960461 -206.077105 
L 447.442147 -204.442548 
L 447.877908 -202.807991 
L 448.25389 -201.173434 
L 448.55534 -199.538877 
L 448.768498 -197.90432 
L 448.882431 -196.269763 
L 448.89054 -194.635206 
L 448.791576 -193.000649 
L 448.590059 -191.366092 
L 448.296066 -189.731534 
L 447.924468 -188.096977 
L 447.493702 -186.46242 
L 447.024237 -184.827863 
L 446.536888 -183.193306 
L 446.051129 -181.558749 
L 445.583536 -179.924192 
L 445.146484 -178.289635 
L 444.747187 -176.655078 
L 444.387156 -175.020521 
L 444.062142 -173.385964 
L 443.762596 -171.751407 
L 443.474645 -170.11685 
L 443.181556 -168.482293 
L 442.86556 -166.847736 
L 442.5099 -165.213179 
L 442.100864 -163.578622 
L 441.629557 -161.944065 
L 441.093177 -160.309508 
L 440.495575 -158.674951 
L 439.847001 -157.040393 
L 439.163026 -155.405836 
L 438.462779 -153.771279 
L 437.766726 -152.136722 
L 437.094337 -150.502165 
L 436.461973 -148.867608 
L 435.881305 -147.233051 
L 435.358488 -145.598494 
L 434.894165 -143.963937 
L 434.484244 -142.32938 
L 434.121255 -140.694823 
L 433.796003 -139.060266 
L 433.499233 -137.425709 
L 433.223017 -135.791152 
L 432.96168 -134.156595 
L 432.712181 -132.522038 
L 432.473981 -130.887481 
L 432.248498 -129.252924 
L 432.038336 -127.618367 
L 431.846456 -125.98381 
L 431.675453 -124.349252 
L 431.527038 -122.714695 
L 431.401768 -121.080138 
L 431.299025 -119.445581 
L 431.217176 -117.811024 
L 431.153856 -116.176467 
z
" style="stroke: #3d3d3d; stroke-width: 2"/>
    </defs>
    <g clip-path="url(#pb2e1295613)">
     <use xlink:href="#mfd77994eac" x="0" y="360" style="fill: #845b53; stroke: #3d3d3d; stroke-width: 2"/>
    </g>
   </g>
   <g id="PolyCollection_7">
    <defs>
     <path id="m9b6465a29d" d="M 493.153398 -152.096637 
L 492.846602 -152.096637 
L 492.781057 -153.453005 
L 492.693615 -154.809374 
L 492.579593 -156.165742 
L 492.434301 -157.52211 
L 492.25345 -158.878479 
L 492.033628 -160.234847 
L 491.772832 -161.591216 
L 491.470969 -162.947584 
L 491.130261 -164.303952 
L 490.755464 -165.660321 
L 490.353807 -167.016689 
L 489.934625 -168.373058 
L 489.50865 -169.729426 
L 489.087018 -171.085794 
L 488.68009 -172.442163 
L 488.296229 -173.798531 
L 487.940725 -175.154899 
L 487.615018 -176.511268 
L 487.316375 -177.867636 
L 487.038078 -179.224005 
L 486.770122 -180.580373 
L 486.500334 -181.936741 
L 486.215737 -183.29311 
L 485.90399 -184.649478 
L 485.554677 -186.005847 
L 485.160297 -187.362215 
L 484.716818 -188.718583 
L 484.223765 -190.074952 
L 483.683854 -191.43132 
L 483.102245 -192.787689 
L 482.485561 -194.144057 
L 481.840804 -195.500425 
L 481.174366 -196.856794 
L 480.49127 -198.213162 
L 479.794802 -199.56953 
L 479.086591 -200.925899 
L 478.367181 -202.282267 
L 477.636997 -203.638636 
L 476.897567 -204.995004 
L 476.152775 -206.351372 
L 475.409888 -207.707741 
L 474.680129 -209.064109 
L 473.978611 -210.420478 
L 473.3236 -211.776846 
L 472.735157 -213.133214 
L 472.233375 -214.489583 
L 471.836486 -215.845951 
L 471.559166 -217.20232 
L 471.411305 -218.558688 
L 471.397426 -219.915056 
L 471.516803 -221.271425 
L 471.764181 -222.627793 
L 472.130884 -223.984162 
L 472.606054 -225.34053 
L 473.177744 -226.696898 
L 473.833673 -228.053267 
L 474.561552 -229.409635 
L 475.348997 -230.766003 
L 476.18318 -232.122372 
L 477.050399 -233.47874 
L 477.935787 -234.835109 
L 478.82333 -236.191477 
L 479.696282 -237.547845 
L 480.537964 -238.904214 
L 481.332864 -240.260582 
L 482.067862 -241.616951 
L 482.733386 -242.973319 
L 483.324309 -244.329687 
L 483.840444 -245.686056 
L 484.286548 -247.042424 
L 484.671824 -248.398793 
L 485.008995 -249.755161 
L 485.313031 -251.111529 
L 485.599721 -252.467898 
L 485.884215 -253.824266 
L 486.179724 -255.180635 
L 486.496478 -256.537003 
L 486.841062 -257.893371 
L 487.216137 -259.24974 
L 487.620573 -260.606108 
L 488.049911 -261.962476 
L 488.497089 -263.318845 
L 488.95332 -264.675213 
L 489.409014 -266.031582 
L 489.85464 -267.38795 
L 490.281461 -268.744318 
L 490.682077 -270.100687 
L 491.050777 -271.457055 
L 491.383682 -272.813424 
L 491.678723 -274.169792 
L 491.935487 -275.52616 
L 492.154968 -276.882529 
L 492.339278 -278.238897 
L 492.491337 -279.595266 
L 492.61458 -280.951634 
L 492.712694 -282.308002 
L 492.789396 -283.664371 
L 492.848262 -285.020739 
L 492.892594 -286.377107 
L 493.107406 -286.377107 
L 493.107406 -286.377107 
L 493.151738 -285.020739 
L 493.210604 -283.664371 
L 493.287306 -282.308002 
L 493.38542 -280.951634 
L 493.508663 -279.595266 
L 493.660722 -278.238897 
L 493.845032 -276.882529 
L 494.064513 -275.52616 
L 494.321277 -274.169792 
L 494.616318 -272.813424 
L 494.949223 -271.457055 
L 495.317923 -270.100687 
L 495.718539 -268.744318 
L 496.14536 -267.38795 
L 496.590986 -266.031582 
L 497.04668 -264.675213 
L 497.502911 -263.318845 
L 497.950089 -261.962476 
L 498.379427 -260.606108 
L 498.783863 -259.24974 
L 499.158938 -257.893371 
L 499.503522 -256.537003 
L 499.820276 -255.180635 
L 500.115785 -253.824266 
L 500.400279 -252.467898 
L 500.686969 -251.111529 
L 500.991005 -249.755161 
L 501.328176 -248.398793 
L 501.713452 -247.042424 
L 502.159556 -245.686056 
L 502.675691 -244.329687 
L 503.266614 -242.973319 
L 503.932138 -241.616951 
L 504.667136 -240.260582 
L 505.462036 -238.904214 
L 506.303718 -237.547845 
L 507.17667 -236.191477 
L 508.064213 -234.835109 
L 508.949601 -233.47874 
L 509.81682 -232.122372 
L 510.651003 -230.766003 
L 511.438448 -229.409635 
L 512.166327 -228.053267 
L 512.822256 -226.696898 
L 513.393946 -225.34053 
L 513.869116 -223.984162 
L 514.235819 -222.627793 
L 514.483197 -221.271425 
L 514.602574 -219.915056 
L 514.588695 -218.558688 
L 514.440834 -217.20232 
L 514.163514 -215.845951 
L 513.766625 -214.489583 
L 513.264843 -213.133214 
L 512.6764 -211.776846 
L 512.021389 -210.420478 
L 511.319871 -209.064109 
L 510.590112 -207.707741 
L 509.847225 -206.351372 
L 509.102433 -204.995004 
L 508.363003 -203.638636 
L 507.632819 -202.282267 
L 506.913409 -200.925899 
L 506.205198 -199.56953 
L 505.50873 -198.213162 
L 504.825634 -196.856794 
L 504.159196 -195.500425 
L 503.514439 -194.144057 
L 502.897755 -192.787689 
L 502.316146 -191.43132 
L 501.776235 -190.074952 
L 501.283182 -188.718583 
L 500.839703 -187.362215 
L 500.445323 -186.005847 
L 500.09601 -184.649478 
L 499.784263 -183.29311 
L 499.499666 -181.936741 
L 499.229878 -180.580373 
L 498.961922 -179.224005 
L 498.683625 -177.867636 
L 498.384982 -176.511268 
L 498.059275 -175.154899 
L 497.703771 -173.798531 
L 497.31991 -172.442163 
L 496.912982 -171.085794 
L 496.49135 -169.729426 
L 496.065375 -168.373058 
L 495.646193 -167.016689 
L 495.244536 -165.660321 
L 494.869739 -164.303952 
L 494.529031 -162.947584 
L 494.227168 -161.591216 
L 493.966372 -160.234847 
L 493.74655 -158.878479 
L 493.565699 -157.52211 
L 493.420407 -156.165742 
L 493.306385 -154.809374 
L 493.218943 -153.453005 
L 493.153398 -152.096637 
z
" style="stroke: #3d3d3d; stroke-width: 2"/>
    </defs>
    <g clip-path="url(#pb2e1295613)">
     <use xlink:href="#m9b6465a29d" x="0" y="360" style="fill: #d684bd; stroke: #3d3d3d; stroke-width: 2"/>
    </g>
   </g>
   <g id="PolyCollection_8">
    <defs>
     <path id="m0cc43d5f55" d="M 555.072421 -94.659216 
L 554.927579 -94.659216 
L 554.900677 -96.125926 
L 554.867356 -97.592636 
L 554.827472 -99.059347 
L 554.781373 -100.526057 
L 554.72997 -101.992767 
L 554.6747 -103.459478 
L 554.617389 -104.926188 
L 554.559972 -106.392898 
L 554.504099 -107.859608 
L 554.45066 -109.326319 
L 554.399294 -110.793029 
L 554.347967 -112.259739 
L 554.292706 -113.72645 
L 554.227587 -115.19316 
L 554.145007 -116.65987 
L 554.036277 -118.126581 
L 553.892484 -119.593291 
L 553.705526 -121.060001 
L 553.469186 -122.526712 
L 553.180063 -123.993422 
L 552.838183 -125.460132 
L 552.447149 -126.926842 
L 552.013725 -128.393553 
L 551.546885 -129.860263 
L 551.056412 -131.326973 
L 550.551274 -132.793684 
L 550.038049 -134.260394 
L 549.519709 -135.727104 
L 548.995022 -137.193815 
L 548.458756 -138.660525 
L 547.902704 -140.127235 
L 547.317395 -141.593945 
L 546.694207 -143.060656 
L 546.027502 -144.527366 
L 545.316356 -145.994076 
L 544.565522 -147.460787 
L 543.785401 -148.927497 
L 542.990977 -150.394207 
L 542.199884 -151.860918 
L 541.429942 -153.327628 
L 540.696645 -154.794338 
L 540.011058 -156.261048 
L 539.378537 -157.727759 
L 538.798507 -159.194469 
L 538.265338 -160.661179 
L 537.770112 -162.12789 
L 537.302977 -163.5946 
L 536.855618 -165.06131 
L 536.423435 -166.528021 
L 536.007067 -167.994731 
L 535.61304 -169.461441 
L 535.253473 -170.928152 
L 534.944929 -172.394862 
L 534.706618 -173.861572 
L 534.558213 -175.328282 
L 534.517586 -176.794993 
L 534.598758 -178.261703 
L 534.810283 -179.728413 
L 535.154247 -181.195124 
L 535.625958 -182.661834 
L 536.214329 -184.128544 
L 536.902883 -185.595255 
L 537.671224 -187.061965 
L 538.496793 -188.528675 
L 539.356692 -189.995385 
L 540.229364 -191.462096 
L 541.095945 -192.928806 
L 541.941158 -194.395516 
L 542.753685 -195.862227 
L 543.526039 -197.328937 
L 544.254018 -198.795647 
L 544.935904 -200.262358 
L 545.571586 -201.729068 
L 546.161788 -203.195778 
L 546.707555 -204.662488 
L 547.210072 -206.129199 
L 547.670827 -207.595909 
L 548.092013 -209.062619 
L 548.477041 -210.52933 
L 548.830954 -211.99604 
L 549.160595 -213.46275 
L 549.474379 -214.929461 
L 549.781662 -216.396171 
L 550.091751 -217.862881 
L 550.412735 -219.329592 
L 550.750343 -220.796302 
L 551.107054 -222.263012 
L 551.481657 -223.729722 
L 551.869352 -225.196433 
L 552.262379 -226.663143 
L 552.65106 -228.129853 
L 553.025077 -229.596564 
L 553.37474 -231.063274 
L 553.69206 -232.529984 
L 553.971479 -233.996695 
L 554.210184 -235.463405 
L 554.408027 -236.930115 
L 554.567131 -238.396825 
L 554.691297 -239.863536 
L 555.308703 -239.863536 
L 555.308703 -239.863536 
L 555.432869 -238.396825 
L 555.591973 -236.930115 
L 555.789816 -235.463405 
L 556.028521 -233.996695 
L 556.30794 -232.529984 
L 556.62526 -231.063274 
L 556.974923 -229.596564 
L 557.34894 -228.129853 
L 557.737621 -226.663143 
L 558.130648 -225.196433 
L 558.518343 -223.729722 
L 558.892946 -222.263012 
L 559.249657 -220.796302 
L 559.587265 -219.329592 
L 559.908249 -217.862881 
L 560.218338 -216.396171 
L 560.525621 -214.929461 
L 560.839405 -213.46275 
L 561.169046 -211.99604 
L 561.522959 -210.52933 
L 561.907987 -209.062619 
L 562.329173 -207.595909 
L 562.789928 -206.129199 
L 563.292445 -204.662488 
L 563.838212 -203.195778 
L 564.428414 -201.729068 
L 565.064096 -200.262358 
L 565.745982 -198.795647 
L 566.473961 -197.328937 
L 567.246315 -195.862227 
L 568.058842 -194.395516 
L 568.904055 -192.928806 
L 569.770636 -191.462096 
L 570.643308 -189.995385 
L 571.503207 -188.528675 
L 572.328776 -187.061965 
L 573.097117 -185.595255 
L 573.785671 -184.128544 
L 574.374042 -182.661834 
L 574.845753 -181.195124 
L 575.189717 -179.728413 
L 575.401242 -178.261703 
L 575.482414 -176.794993 
L 575.441787 -175.328282 
L 575.293382 -173.861572 
L 575.055071 -172.394862 
L 574.746527 -170.928152 
L 574.38696 -169.461441 
L 573.992933 -167.994731 
L 573.576565 -166.528021 
L 573.144382 -165.06131 
L 572.697023 -163.5946 
L 572.229888 -162.12789 
L 571.734662 -160.661179 
L 571.201493 -159.194469 
L 570.621463 -157.727759 
L 569.988942 -156.261048 
L 569.303355 -154.794338 
L 568.570058 -153.327628 
L 567.800116 -151.860918 
L 567.009023 -150.394207 
L 566.214599 -148.927497 
L 565.434478 -147.460787 
L 564.683644 -145.994076 
L 563.972498 -144.527366 
L 563.305793 -143.060656 
L 562.682605 -141.593945 
L 562.097296 -140.127235 
L 561.541244 -138.660525 
L 561.004978 -137.193815 
L 560.480291 -135.727104 
L 559.961951 -134.260394 
L 559.448726 -132.793684 
L 558.943588 -131.326973 
L 558.453115 -129.860263 
L 557.986275 -128.393553 
L 557.552851 -126.926842 
L 557.161817 -125.460132 
L 556.819937 -123.993422 
L 556.530814 -122.526712 
L 556.294474 -121.060001 
L 556.107516 -119.593291 
L 555.963723 -118.126581 
L 555.854993 -116.65987 
L 555.772413 -115.19316 
L 555.707294 -113.72645 
L 555.652033 -112.259739 
L 555.600706 -110.793029 
L 555.54934 -109.326319 
L 555.495901 -107.859608 
L 555.440028 -106.392898 
L 555.382611 -104.926188 
L 555.3253 -103.459478 
L 555.27003 -101.992767 
L 555.218627 -100.526057 
L 555.172528 -99.059347 
L 555.132644 -97.592636 
L 555.099323 -96.125926 
L 555.072421 -94.659216 
z
" style="stroke: #3d3d3d; stroke-width: 2"/>
    </defs>
    <g clip-path="url(#pb2e1295613)">
     <use xlink:href="#m0cc43d5f55" x="0" y="360" style="fill: #7f7f7f; stroke: #3d3d3d; stroke-width: 2"/>
    </g>
   </g>
   <g id="PolyCollection_9">
    <defs>
     <path id="mc1e61f83c0" d="M 617.098021 -57.354545 
L 616.901979 -57.354545 
L 616.856371 -58.783917 
L 616.79479 -60.213289 
L 616.713801 -61.642661 
L 616.609908 -63.072033 
L 616.479721 -64.501405 
L 616.320133 -65.930777 
L 616.128488 -67.360149 
L 615.902743 -68.789521 
L 615.641624 -70.218893 
L 615.344761 -71.648265 
L 615.012777 -73.077637 
L 614.647305 -74.507009 
L 614.250873 -75.936381 
L 613.826627 -77.365753 
L 613.377894 -78.795125 
L 612.907611 -80.224497 
L 612.417729 -81.653869 
L 611.908695 -83.083241 
L 611.379157 -84.512613 
L 610.82597 -85.941985 
L 610.244529 -87.371357 
L 609.629351 -88.800729 
L 608.974786 -90.230101 
L 608.275681 -91.659473 
L 607.527848 -93.088845 
L 606.728277 -94.518217 
L 605.875122 -95.947589 
L 604.967595 -97.376961 
L 604.005973 -98.806333 
L 602.991905 -100.235705 
L 601.929118 -101.665077 
L 600.824483 -103.094449 
L 599.689229 -104.523821 
L 598.539982 -105.953193 
L 597.399248 -107.382565 
L 596.295047 -108.811936 
L 595.259579 -110.241308 
L 594.327007 -111.67068 
L 593.530692 -113.100052 
L 592.900331 -114.529424 
L 592.459456 -115.958796 
L 592.223706 -117.388168 
L 592.2 -118.81754 
L 592.386616 -120.246912 
L 592.773936 -121.676284 
L 593.345568 -123.105656 
L 594.079572 -124.535028 
L 594.94962 -125.9644 
L 595.926059 -127.393772 
L 596.976969 -128.823144 
L 598.069368 -130.252516 
L 599.170705 -131.681888 
L 600.250663 -133.11126 
L 601.283206 -134.540632 
L 602.248625 -135.970004 
L 603.135244 -137.399376 
L 603.940438 -138.828748 
L 604.670614 -140.25812 
L 605.340008 -141.687492 
L 605.96831 -143.116864 
L 606.577418 -144.546236 
L 607.187817 -145.975608 
L 607.815219 -147.40498 
L 608.468077 -148.834352 
L 609.146455 -150.263724 
L 609.842431 -151.693096 
L 610.541904 -153.122468 
L 611.227361 -154.55184 
L 611.880995 -155.981212 
L 612.487525 -157.410584 
L 613.036208 -158.839956 
L 613.521753 -160.269328 
L 613.94413 -161.698699 
L 614.30751 -163.128071 
L 614.618684 -164.557443 
L 614.885404 -165.986815 
L 615.114981 -167.416187 
L 615.313384 -168.845559 
L 615.484917 -170.274931 
L 615.632425 -171.704303 
L 615.757857 -173.133675 
L 615.862981 -174.563047 
L 615.950018 -175.992419 
L 616.022026 -177.421791 
L 616.082946 -178.851163 
L 616.137298 -180.280535 
L 616.18964 -181.709907 
L 616.243914 -183.139279 
L 616.302876 -184.568651 
L 616.367736 -185.998023 
L 616.438094 -187.427395 
L 616.512169 -188.856767 
L 616.587252 -190.286139 
L 616.660272 -191.715511 
L 616.728336 -193.144883 
L 616.789155 -194.574255 
L 616.841285 -196.003627 
L 616.884184 -197.432999 
L 616.918105 -198.862371 
L 617.081895 -198.862371 
L 617.081895 -198.862371 
L 617.115816 -197.432999 
L 617.158715 -196.003627 
L 617.210845 -194.574255 
L 617.271664 -193.144883 
L 617.339728 -191.715511 
L 617.412748 -190.286139 
L 617.487831 -188.856767 
L 617.561906 -187.427395 
L 617.632264 -185.998023 
L 617.697124 -184.568651 
L 617.756086 -183.139279 
L 617.81036 -181.709907 
L 617.862702 -180.280535 
L 617.917054 -178.851163 
L 617.977974 -177.421791 
L 618.049982 -175.992419 
L 618.137019 -174.563047 
L 618.242143 -173.133675 
L 618.367575 -171.704303 
L 618.515083 -170.274931 
L 618.686616 -168.845559 
L 618.885019 -167.416187 
L 619.114596 -165.986815 
L 619.381316 -164.557443 
L 619.69249 -163.128071 
L 620.05587 -161.698699 
L 620.478247 -160.269328 
L 620.963792 -158.839956 
L 621.512475 -157.410584 
L 622.119005 -155.981212 
L 622.772639 -154.55184 
L 623.458096 -153.122468 
L 624.157569 -151.693096 
L 624.853545 -150.263724 
L 625.531923 -148.834352 
L 626.184781 -147.40498 
L 626.812183 -145.975608 
L 627.422582 -144.546236 
L 628.03169 -143.116864 
L 628.659992 -141.687492 
L 629.329386 -140.25812 
L 630.059562 -138.828748 
L 630.864756 -137.399376 
L 631.751375 -135.970004 
L 632.716794 -134.540632 
L 633.749337 -133.11126 
L 634.829295 -131.681888 
L 635.930632 -130.252516 
L 637.023031 -128.823144 
L 638.073941 -127.393772 
L 639.05038 -125.9644 
L 639.920428 -124.535028 
L 640.654432 -123.105656 
L 641.226064 -121.676284 
L 641.613384 -120.246912 
L 641.8 -118.81754 
L 641.776294 -117.388168 
L 641.540544 -115.958796 
L 641.099669 -114.529424 
L 640.469308 -113.100052 
L 639.672993 -111.67068 
L 638.740421 -110.241308 
L 637.704953 -108.811936 
L 636.600752 -107.382565 
L 635.460018 -105.953193 
L 634.310771 -104.523821 
L 633.175517 -103.094449 
L 632.070882 -101.665077 
L 631.008095 -100.235705 
L 629.994027 -98.806333 
L 629.032405 -97.376961 
L 628.124878 -95.947589 
L 627.271723 -94.518217 
L 626.472152 -93.088845 
L 625.724319 -91.659473 
L 625.025214 -90.230101 
L 624.370649 -88.800729 
L 623.755471 -87.371357 
L 623.17403 -85.941985 
L 622.620843 -84.512613 
L 622.091305 -83.083241 
L 621.582271 -81.653869 
L 621.092389 -80.224497 
L 620.622106 -78.795125 
L 620.173373 -77.365753 
L 619.749127 -75.936381 
L 619.352695 -74.507009 
L 618.987223 -73.077637 
L 618.655239 -71.648265 
L 618.358376 -70.218893 
L 618.097257 -68.789521 
L 617.871512 -67.360149 
L 617.679867 -65.930777 
L 617.520279 -64.501405 
L 617.390092 -63.072033 
L 617.286199 -61.642661 
L 617.20521 -60.213289 
L 617.143629 -58.783917 
L 617.098021 -57.354545 
z
" style="stroke: #3d3d3d; stroke-width: 2"/>
    </defs>
    <g clip-path="url(#pb2e1295613)">
     <use xlink:href="#mc1e61f83c0" x="0" y="360" style="fill: #a9aa35; stroke: #3d3d3d; stroke-width: 2"/>
    </g>
   </g>
   <g id="matplotlib.axis_1">
    <g id="xtick_1">
     <g id="line2d_1">
      <defs>
       <path id="m53ffe9e98b" d="M 0 0 
L 0 3.5 
" style="stroke: #000000; stroke-width: 2"/>
      </defs>
      <g>
       <use xlink:href="#m53ffe9e98b" x="121" y="315" style="stroke: #000000; stroke-width: 2"/>
      </g>
     </g>
     <g id="text_1">
      <!-- onehot -->
      <g transform="translate(96.509844 332.637812)scale(0.14 -0.14)">
       <defs>
        <path id="DejaVuSans-6f" d="M 1959 3097 
Q 1497 3097 1228 2736 
Q 959 2375 959 1747 
Q 959 1119 1226 758 
Q 1494 397 1959 397 
Q 2419 397 2687 759 
Q 2956 1122 2956 1747 
Q 2956 2369 2687 2733 
Q 2419 3097 1959 3097 
z
M 1959 3584 
Q 2709 3584 3137 3096 
Q 3566 2609 3566 1747 
Q 3566 888 3137 398 
Q 2709 -91 1959 -91 
Q 1206 -91 779 398 
Q 353 888 353 1747 
Q 353 2609 779 3096 
Q 1206 3584 1959 3584 
z
" transform="scale(0.015625)"/>
        <path id="DejaVuSans-6e" d="M 3513 2113 
L 3513 0 
L 2938 0 
L 2938 2094 
Q 2938 2591 2744 2837 
Q 2550 3084 2163 3084 
Q 1697 3084 1428 2787 
Q 1159 2491 1159 1978 
L 1159 0 
L 581 0 
L 581 3500 
L 1159 3500 
L 1159 2956 
Q 1366 3272 1645 3428 
Q 1925 3584 2291 3584 
Q 2894 3584 3203 3211 
Q 3513 2838 3513 2113 
z
" transform="scale(0.015625)"/>
        <path id="DejaVuSans-65" d="M 3597 1894 
L 3597 1613 
L 953 1613 
Q 991 1019 1311 708 
Q 1631 397 2203 397 
Q 2534 397 2845 478 
Q 3156 559 3463 722 
L 3463 178 
Q 3153 47 2828 -22 
Q 2503 -91 2169 -91 
Q 1331 -91 842 396 
Q 353 884 353 1716 
Q 353 2575 817 3079 
Q 1281 3584 2069 3584 
Q 2775 3584 3186 3129 
Q 3597 2675 3597 1894 
z
M 3022 2063 
Q 3016 2534 2758 2815 
Q 2500 3097 2075 3097 
Q 1594 3097 1305 2825 
Q 1016 2553 972 2059 
L 3022 2063 
z
" transform="scale(0.015625)"/>
        <path id="DejaVuSans-68" d="M 3513 2113 
L 3513 0 
L 2938 0 
L 2938 2094 
Q 2938 2591 2744 2837 
Q 2550 3084 2163 3084 
Q 1697 3084 1428 2787 
Q 1159 2491 1159 1978 
L 1159 0 
L 581 0 
L 581 4863 
L 1159 4863 
L 1159 2956 
Q 1366 3272 1645 3428 
Q 1925 3584 2291 3584 
Q 2894 3584 3203 3211 
Q 3513 2838 3513 2113 
z
" transform="scale(0.015625)"/>
        <path id="DejaVuSans-74" d="M 1172 4494 
L 1172 3500 
L 2356 3500 
L 2356 3053 
L 1172 3053 
L 1172 1153 
Q 1172 725 1289 603 
Q 1406 481 1766 481 
L 2356 481 
L 2356 0 
L 1766 0 
Q 1100 0 847 248 
Q 594 497 594 1153 
L 594 3053 
L 172 3053 
L 172 3500 
L 594 3500 
L 594 4494 
L 1172 4494 
z
" transform="scale(0.015625)"/>
       </defs>
       <use xlink:href="#DejaVuSans-6f"/>
       <use xlink:href="#DejaVuSans-6e" x="61.181641"/>
       <use xlink:href="#DejaVuSans-65" x="124.560547"/>
       <use xlink:href="#DejaVuSans-68" x="186.083984"/>
       <use xlink:href="#DejaVuSans-6f" x="249.462891"/>
       <use xlink:href="#DejaVuSans-74" x="310.644531"/>
      </g>
     </g>
    </g>
    <g id="xtick_2">
     <g id="line2d_2">
      <g>
       <use xlink:href="#m53ffe9e98b" x="183" y="315" style="stroke: #000000; stroke-width: 2"/>
      </g>
     </g>
     <g id="text_2">
      <!-- ESM -->
      <g transform="translate(168.093281 332.637812)scale(0.14 -0.14)">
       <defs>
        <path id="DejaVuSans-45" d="M 628 4666 
L 3578 4666 
L 3578 4134 
L 1259 4134 
L 1259 2753 
L 3481 2753 
L 3481 2222 
L 1259 2222 
L 1259 531 
L 3634 531 
L 3634 0 
L 628 0 
L 628 4666 
z
" transform="scale(0.015625)"/>
        <path id="DejaVuSans-53" d="M 3425 4513 
L 3425 3897 
Q 3066 4069 2747 4153 
Q 2428 4238 2131 4238 
Q 1616 4238 1336 4038 
Q 1056 3838 1056 3469 
Q 1056 3159 1242 3001 
Q 1428 2844 1947 2747 
L 2328 2669 
Q 3034 2534 3370 2195 
Q 3706 1856 3706 1288 
Q 3706 609 3251 259 
Q 2797 -91 1919 -91 
Q 1588 -91 1214 -16 
Q 841 59 441 206 
L 441 856 
Q 825 641 1194 531 
Q 1563 422 1919 422 
Q 2459 422 2753 634 
Q 3047 847 3047 1241 
Q 3047 1584 2836 1778 
Q 2625 1972 2144 2069 
L 1759 2144 
Q 1053 2284 737 2584 
Q 422 2884 422 3419 
Q 422 4038 858 4394 
Q 1294 4750 2059 4750 
Q 2388 4750 2728 4690 
Q 3069 4631 3425 4513 
z
" transform="scale(0.015625)"/>
        <path id="DejaVuSans-4d" d="M 628 4666 
L 1569 4666 
L 2759 1491 
L 3956 4666 
L 4897 4666 
L 4897 0 
L 4281 0 
L 4281 4097 
L 3078 897 
L 2444 897 
L 1241 4097 
L 1241 0 
L 628 0 
L 628 4666 
z
" transform="scale(0.015625)"/>
       </defs>
       <use xlink:href="#DejaVuSans-45"/>
       <use xlink:href="#DejaVuSans-53" x="63.183594"/>
       <use xlink:href="#DejaVuSans-4d" x="126.660156"/>
      </g>
     </g>
    </g>
    <g id="xtick_3">
     <g id="line2d_3">
      <g>
       <use xlink:href="#m53ffe9e98b" x="245" y="315" style="stroke: #000000; stroke-width: 2"/>
      </g>
     </g>
     <g id="text_3">
      <!-- GAE (orig) -->
      <g transform="translate(209.128281 332.637812)scale(0.14 -0.14)">
       <defs>
        <path id="DejaVuSans-47" d="M 3809 666 
L 3809 1919 
L 2778 1919 
L 2778 2438 
L 4434 2438 
L 4434 434 
Q 4069 175 3628 42 
Q 3188 -91 2688 -91 
Q 1594 -91 976 548 
Q 359 1188 359 2328 
Q 359 3472 976 4111 
Q 1594 4750 2688 4750 
Q 3144 4750 3555 4637 
Q 3966 4525 4313 4306 
L 4313 3634 
Q 3963 3931 3569 4081 
Q 3175 4231 2741 4231 
Q 1884 4231 1454 3753 
Q 1025 3275 1025 2328 
Q 1025 1384 1454 906 
Q 1884 428 2741 428 
Q 3075 428 3337 486 
Q 3600 544 3809 666 
z
" transform="scale(0.015625)"/>
        <path id="DejaVuSans-41" d="M 2188 4044 
L 1331 1722 
L 3047 1722 
L 2188 4044 
z
M 1831 4666 
L 2547 4666 
L 4325 0 
L 3669 0 
L 3244 1197 
L 1141 1197 
L 716 0 
L 50 0 
L 1831 4666 
z
" transform="scale(0.015625)"/>
        <path id="DejaVuSans-20" transform="scale(0.015625)"/>
        <path id="DejaVuSans-28" d="M 1984 4856 
Q 1566 4138 1362 3434 
Q 1159 2731 1159 2009 
Q 1159 1288 1364 580 
Q 1569 -128 1984 -844 
L 1484 -844 
Q 1016 -109 783 600 
Q 550 1309 550 2009 
Q 550 2706 781 3412 
Q 1013 4119 1484 4856 
L 1984 4856 
z
" transform="scale(0.015625)"/>
        <path id="DejaVuSans-72" d="M 2631 2963 
Q 2534 3019 2420 3045 
Q 2306 3072 2169 3072 
Q 1681 3072 1420 2755 
Q 1159 2438 1159 1844 
L 1159 0 
L 581 0 
L 581 3500 
L 1159 3500 
L 1159 2956 
Q 1341 3275 1631 3429 
Q 1922 3584 2338 3584 
Q 2397 3584 2469 3576 
Q 2541 3569 2628 3553 
L 2631 2963 
z
" transform="scale(0.015625)"/>
        <path id="DejaVuSans-69" d="M 603 3500 
L 1178 3500 
L 1178 0 
L 603 0 
L 603 3500 
z
M 603 4863 
L 1178 4863 
L 1178 4134 
L 603 4134 
L 603 4863 
z
" transform="scale(0.015625)"/>
        <path id="DejaVuSans-67" d="M 2906 1791 
Q 2906 2416 2648 2759 
Q 2391 3103 1925 3103 
Q 1463 3103 1205 2759 
Q 947 2416 947 1791 
Q 947 1169 1205 825 
Q 1463 481 1925 481 
Q 2391 481 2648 825 
Q 2906 1169 2906 1791 
z
M 3481 434 
Q 3481 -459 3084 -895 
Q 2688 -1331 1869 -1331 
Q 1566 -1331 1297 -1286 
Q 1028 -1241 775 -1147 
L 775 -588 
Q 1028 -725 1275 -790 
Q 1522 -856 1778 -856 
Q 2344 -856 2625 -561 
Q 2906 -266 2906 331 
L 2906 616 
Q 2728 306 2450 153 
Q 2172 0 1784 0 
Q 1141 0 747 490 
Q 353 981 353 1791 
Q 353 2603 747 3093 
Q 1141 3584 1784 3584 
Q 2172 3584 2450 3431 
Q 2728 3278 2906 2969 
L 2906 3500 
L 3481 3500 
L 3481 434 
z
" transform="scale(0.015625)"/>
        <path id="DejaVuSans-29" d="M 513 4856 
L 1013 4856 
Q 1481 4119 1714 3412 
Q 1947 2706 1947 2009 
Q 1947 1309 1714 600 
Q 1481 -109 1013 -844 
L 513 -844 
Q 928 -128 1133 580 
Q 1338 1288 1338 2009 
Q 1338 2731 1133 3434 
Q 928 4138 513 4856 
z
" transform="scale(0.015625)"/>
       </defs>
       <use xlink:href="#DejaVuSans-47"/>
       <use xlink:href="#DejaVuSans-41" x="77.490234"/>
       <use xlink:href="#DejaVuSans-45" x="145.898438"/>
       <use xlink:href="#DejaVuSans-20" x="209.082031"/>
       <use xlink:href="#DejaVuSans-28" x="240.869141"/>
       <use xlink:href="#DejaVuSans-6f" x="279.882812"/>
       <use xlink:href="#DejaVuSans-72" x="341.064453"/>
       <use xlink:href="#DejaVuSans-69" x="382.177734"/>
       <use xlink:href="#DejaVuSans-67" x="409.960938"/>
       <use xlink:href="#DejaVuSans-29" x="473.4375"/>
      </g>
     </g>
    </g>
    <g id="xtick_4">
     <g id="line2d_4">
      <g>
       <use xlink:href="#m53ffe9e98b" x="307" y="315" style="stroke: #000000; stroke-width: 2"/>
      </g>
     </g>
     <g id="text_4">
      <!-- 4lay -->
      <g transform="translate(292.16875 332.637812)scale(0.14 -0.14)">
       <defs>
        <path id="DejaVuSans-34" d="M 2419 4116 
L 825 1625 
L 2419 1625 
L 2419 4116 
z
M 2253 4666 
L 3047 4666 
L 3047 1625 
L 3713 1625 
L 3713 1100 
L 3047 1100 
L 3047 0 
L 2419 0 
L 2419 1100 
L 313 1100 
L 313 1709 
L 2253 4666 
z
" transform="scale(0.015625)"/>
        <path id="DejaVuSans-6c" d="M 603 4863 
L 1178 4863 
L 1178 0 
L 603 0 
L 603 4863 
z
" transform="scale(0.015625)"/>
        <path id="DejaVuSans-61" d="M 2194 1759 
Q 1497 1759 1228 1600 
Q 959 1441 959 1056 
Q 959 750 1161 570 
Q 1363 391 1709 391 
Q 2188 391 2477 730 
Q 2766 1069 2766 1631 
L 2766 1759 
L 2194 1759 
z
M 3341 1997 
L 3341 0 
L 2766 0 
L 2766 531 
Q 2569 213 2275 61 
Q 1981 -91 1556 -91 
Q 1019 -91 701 211 
Q 384 513 384 1019 
Q 384 1609 779 1909 
Q 1175 2209 1959 2209 
L 2766 2209 
L 2766 2266 
Q 2766 2663 2505 2880 
Q 2244 3097 1772 3097 
Q 1472 3097 1187 3025 
Q 903 2953 641 2809 
L 641 3341 
Q 956 3463 1253 3523 
Q 1550 3584 1831 3584 
Q 2591 3584 2966 3190 
Q 3341 2797 3341 1997 
z
" transform="scale(0.015625)"/>
        <path id="DejaVuSans-79" d="M 2059 -325 
Q 1816 -950 1584 -1140 
Q 1353 -1331 966 -1331 
L 506 -1331 
L 506 -850 
L 844 -850 
Q 1081 -850 1212 -737 
Q 1344 -625 1503 -206 
L 1606 56 
L 191 3500 
L 800 3500 
L 1894 763 
L 2988 3500 
L 3597 3500 
L 2059 -325 
z
" transform="scale(0.015625)"/>
       </defs>
       <use xlink:href="#DejaVuSans-34"/>
       <use xlink:href="#DejaVuSans-6c" x="63.623047"/>
       <use xlink:href="#DejaVuSans-61" x="91.40625"/>
       <use xlink:href="#DejaVuSans-79" x="152.685547"/>
      </g>
     </g>
    </g>
    <g id="xtick_5">
     <g id="line2d_5">
      <g>
       <use xlink:href="#m53ffe9e98b" x="369" y="315" style="stroke: #000000; stroke-width: 2"/>
      </g>
     </g>
     <g id="text_5">
      <!-- edge -->
      <g transform="translate(351.497813 332.637812)scale(0.14 -0.14)">
       <defs>
        <path id="DejaVuSans-64" d="M 2906 2969 
L 2906 4863 
L 3481 4863 
L 3481 0 
L 2906 0 
L 2906 525 
Q 2725 213 2448 61 
Q 2172 -91 1784 -91 
Q 1150 -91 751 415 
Q 353 922 353 1747 
Q 353 2572 751 3078 
Q 1150 3584 1784 3584 
Q 2172 3584 2448 3432 
Q 2725 3281 2906 2969 
z
M 947 1747 
Q 947 1113 1208 752 
Q 1469 391 1925 391 
Q 2381 391 2643 752 
Q 2906 1113 2906 1747 
Q 2906 2381 2643 2742 
Q 2381 3103 1925 3103 
Q 1469 3103 1208 2742 
Q 947 2381 947 1747 
z
" transform="scale(0.015625)"/>
       </defs>
       <use xlink:href="#DejaVuSans-65"/>
       <use xlink:href="#DejaVuSans-64" x="61.523438"/>
       <use xlink:href="#DejaVuSans-67" x="125"/>
       <use xlink:href="#DejaVuSans-65" x="188.476562"/>
      </g>
     </g>
    </g>
    <g id="xtick_6">
     <g id="line2d_6">
      <g>
       <use xlink:href="#m53ffe9e98b" x="431" y="315" style="stroke: #000000; stroke-width: 2"/>
      </g>
     </g>
     <g id="text_6">
      <!-- GCN -->
      <g transform="translate(415.45125 332.637812)scale(0.14 -0.14)">
       <defs>
        <path id="DejaVuSans-43" d="M 4122 4306 
L 4122 3641 
Q 3803 3938 3442 4084 
Q 3081 4231 2675 4231 
Q 1875 4231 1450 3742 
Q 1025 3253 1025 2328 
Q 1025 1406 1450 917 
Q 1875 428 2675 428 
Q 3081 428 3442 575 
Q 3803 722 4122 1019 
L 4122 359 
Q 3791 134 3420 21 
Q 3050 -91 2638 -91 
Q 1578 -91 968 557 
Q 359 1206 359 2328 
Q 359 3453 968 4101 
Q 1578 4750 2638 4750 
Q 3056 4750 3426 4639 
Q 3797 4528 4122 4306 
z
" transform="scale(0.015625)"/>
        <path id="DejaVuSans-4e" d="M 628 4666 
L 1478 4666 
L 3547 763 
L 3547 4666 
L 4159 4666 
L 4159 0 
L 3309 0 
L 1241 3903 
L 1241 0 
L 628 0 
L 628 4666 
z
" transform="scale(0.015625)"/>
       </defs>
       <use xlink:href="#DejaVuSans-47"/>
       <use xlink:href="#DejaVuSans-43" x="77.490234"/>
       <use xlink:href="#DejaVuSans-4e" x="147.314453"/>
      </g>
     </g>
    </g>
    <g id="xtick_7">
     <g id="line2d_7">
      <g>
       <use xlink:href="#m53ffe9e98b" x="493" y="315" style="stroke: #000000; stroke-width: 2"/>
      </g>
     </g>
     <g id="text_7">
      <!-- hdim512 -->
      <g transform="translate(461.995469 332.637812)scale(0.14 -0.14)">
       <defs>
        <path id="DejaVuSans-6d" d="M 3328 2828 
Q 3544 3216 3844 3400 
Q 4144 3584 4550 3584 
Q 5097 3584 5394 3201 
Q 5691 2819 5691 2113 
L 5691 0 
L 5113 0 
L 5113 2094 
Q 5113 2597 4934 2840 
Q 4756 3084 4391 3084 
Q 3944 3084 3684 2787 
Q 3425 2491 3425 1978 
L 3425 0 
L 2847 0 
L 2847 2094 
Q 2847 2600 2669 2842 
Q 2491 3084 2119 3084 
Q 1678 3084 1418 2786 
Q 1159 2488 1159 1978 
L 1159 0 
L 581 0 
L 581 3500 
L 1159 3500 
L 1159 2956 
Q 1356 3278 1631 3431 
Q 1906 3584 2284 3584 
Q 2666 3584 2933 3390 
Q 3200 3197 3328 2828 
z
" transform="scale(0.015625)"/>
        <path id="DejaVuSans-35" d="M 691 4666 
L 3169 4666 
L 3169 4134 
L 1269 4134 
L 1269 2991 
Q 1406 3038 1543 3061 
Q 1681 3084 1819 3084 
Q 2600 3084 3056 2656 
Q 3513 2228 3513 1497 
Q 3513 744 3044 326 
Q 2575 -91 1722 -91 
Q 1428 -91 1123 -41 
Q 819 9 494 109 
L 494 744 
Q 775 591 1075 516 
Q 1375 441 1709 441 
Q 2250 441 2565 725 
Q 2881 1009 2881 1497 
Q 2881 1984 2565 2268 
Q 2250 2553 1709 2553 
Q 1456 2553 1204 2497 
Q 953 2441 691 2322 
L 691 4666 
z
" transform="scale(0.015625)"/>
        <path id="DejaVuSans-31" d="M 794 531 
L 1825 531 
L 1825 4091 
L 703 3866 
L 703 4441 
L 1819 4666 
L 2450 4666 
L 2450 531 
L 3481 531 
L 3481 0 
L 794 0 
L 794 531 
z
" transform="scale(0.015625)"/>
        <path id="DejaVuSans-32" d="M 1228 531 
L 3431 531 
L 3431 0 
L 469 0 
L 469 531 
Q 828 903 1448 1529 
Q 2069 2156 2228 2338 
Q 2531 2678 2651 2914 
Q 2772 3150 2772 3378 
Q 2772 3750 2511 3984 
Q 2250 4219 1831 4219 
Q 1534 4219 1204 4116 
Q 875 4013 500 3803 
L 500 4441 
Q 881 4594 1212 4672 
Q 1544 4750 1819 4750 
Q 2544 4750 2975 4387 
Q 3406 4025 3406 3419 
Q 3406 3131 3298 2873 
Q 3191 2616 2906 2266 
Q 2828 2175 2409 1742 
Q 1991 1309 1228 531 
z
" transform="scale(0.015625)"/>
       </defs>
       <use xlink:href="#DejaVuSans-68"/>
       <use xlink:href="#DejaVuSans-64" x="63.378906"/>
       <use xlink:href="#DejaVuSans-69" x="126.855469"/>
       <use xlink:href="#DejaVuSans-6d" x="154.638672"/>
       <use xlink:href="#DejaVuSans-35" x="252.050781"/>
       <use xlink:href="#DejaVuSans-31" x="315.673828"/>
       <use xlink:href="#DejaVuSans-32" x="379.296875"/>
      </g>
     </g>
    </g>
    <g id="xtick_8">
     <g id="line2d_8">
      <g>
       <use xlink:href="#m53ffe9e98b" x="555" y="315" style="stroke: #000000; stroke-width: 2"/>
      </g>
     </g>
     <g id="text_8">
      <!-- onehot -->
      <g transform="translate(530.509844 332.637812)scale(0.14 -0.14)">
       <use xlink:href="#DejaVuSans-6f"/>
       <use xlink:href="#DejaVuSans-6e" x="61.181641"/>
       <use xlink:href="#DejaVuSans-65" x="124.560547"/>
       <use xlink:href="#DejaVuSans-68" x="186.083984"/>
       <use xlink:href="#DejaVuSans-6f" x="249.462891"/>
       <use xlink:href="#DejaVuSans-74" x="310.644531"/>
      </g>
     </g>
    </g>
    <g id="xtick_9">
     <g id="line2d_9">
      <g>
       <use xlink:href="#m53ffe9e98b" x="617" y="315" style="stroke: #000000; stroke-width: 2"/>
      </g>
     </g>
     <g id="text_9">
      <!-- VGAE -->
      <g transform="translate(597.576094 332.637812)scale(0.14 -0.14)">
       <defs>
        <path id="DejaVuSans-56" d="M 1831 0 
L 50 4666 
L 709 4666 
L 2188 738 
L 3669 4666 
L 4325 4666 
L 2547 0 
L 1831 0 
z
" transform="scale(0.015625)"/>
       </defs>
       <use xlink:href="#DejaVuSans-56"/>
       <use xlink:href="#DejaVuSans-47" x="68.408203"/>
       <use xlink:href="#DejaVuSans-41" x="145.898438"/>
       <use xlink:href="#DejaVuSans-45" x="214.306641"/>
      </g>
     </g>
    </g>
   </g>
   <g id="matplotlib.axis_2">
    <g id="ytick_1">
     <g id="line2d_10">
      <path d="M 90 312.095695 
L 648 312.095695 
" clip-path="url(#pb2e1295613)" style="fill: none; stroke: #b0b0b0; stroke-width: 0.8; stroke-linecap: square"/>
     </g>
     <g id="line2d_11">
      <defs>
       <path id="m62123598f2" d="M 0 0 
L -3.5 0 
" style="stroke: #000000; stroke-width: 2"/>
      </defs>
      <g>
       <use xlink:href="#m62123598f2" x="90" y="312.095695" style="stroke: #000000; stroke-width: 2"/>
      </g>
     </g>
     <g id="text_10">
      <!-- 0.65 -->
      <g transform="translate(51.828125 317.414601)scale(0.14 -0.14)">
       <defs>
        <path id="DejaVuSans-30" d="M 2034 4250 
Q 1547 4250 1301 3770 
Q 1056 3291 1056 2328 
Q 1056 1369 1301 889 
Q 1547 409 2034 409 
Q 2525 409 2770 889 
Q 3016 1369 3016 2328 
Q 3016 3291 2770 3770 
Q 2525 4250 2034 4250 
z
M 2034 4750 
Q 2819 4750 3233 4129 
Q 3647 3509 3647 2328 
Q 3647 1150 3233 529 
Q 2819 -91 2034 -91 
Q 1250 -91 836 529 
Q 422 1150 422 2328 
Q 422 3509 836 4129 
Q 1250 4750 2034 4750 
z
" transform="scale(0.015625)"/>
        <path id="DejaVuSans-2e" d="M 684 794 
L 1344 794 
L 1344 0 
L 684 0 
L 684 794 
z
" transform="scale(0.015625)"/>
        <path id="DejaVuSans-36" d="M 2113 2584 
Q 1688 2584 1439 2293 
Q 1191 2003 1191 1497 
Q 1191 994 1439 701 
Q 1688 409 2113 409 
Q 2538 409 2786 701 
Q 3034 994 3034 1497 
Q 3034 2003 2786 2293 
Q 2538 2584 2113 2584 
z
M 3366 4563 
L 3366 3988 
Q 3128 4100 2886 4159 
Q 2644 4219 2406 4219 
Q 1781 4219 1451 3797 
Q 1122 3375 1075 2522 
Q 1259 2794 1537 2939 
Q 1816 3084 2150 3084 
Q 2853 3084 3261 2657 
Q 3669 2231 3669 1497 
Q 3669 778 3244 343 
Q 2819 -91 2113 -91 
Q 1303 -91 875 529 
Q 447 1150 447 2328 
Q 447 3434 972 4092 
Q 1497 4750 2381 4750 
Q 2619 4750 2861 4703 
Q 3103 4656 3366 4563 
z
" transform="scale(0.015625)"/>
       </defs>
       <use xlink:href="#DejaVuSans-30"/>
       <use xlink:href="#DejaVuSans-2e" x="63.623047"/>
       <use xlink:href="#DejaVuSans-36" x="95.410156"/>
       <use xlink:href="#DejaVuSans-35" x="159.033203"/>
      </g>
     </g>
    </g>
    <g id="ytick_2">
     <g id="line2d_12">
      <path d="M 90 253.732552 
L 648 253.732552 
" clip-path="url(#pb2e1295613)" style="fill: none; stroke: #b0b0b0; stroke-width: 0.8; stroke-linecap: square"/>
     </g>
     <g id="line2d_13">
      <g>
       <use xlink:href="#m62123598f2" x="90" y="253.732552" style="stroke: #000000; stroke-width: 2"/>
      </g>
     </g>
     <g id="text_11">
      <!-- 0.70 -->
      <g transform="translate(51.828125 259.051458)scale(0.14 -0.14)">
       <defs>
        <path id="DejaVuSans-37" d="M 525 4666 
L 3525 4666 
L 3525 4397 
L 1831 0 
L 1172 0 
L 2766 4134 
L 525 4134 
L 525 4666 
z
" transform="scale(0.015625)"/>
       </defs>
       <use xlink:href="#DejaVuSans-30"/>
       <use xlink:href="#DejaVuSans-2e" x="63.623047"/>
       <use xlink:href="#DejaVuSans-37" x="95.410156"/>
       <use xlink:href="#DejaVuSans-30" x="159.033203"/>
      </g>
     </g>
    </g>
    <g id="ytick_3">
     <g id="line2d_14">
      <path d="M 90 195.369409 
L 648 195.369409 
" clip-path="url(#pb2e1295613)" style="fill: none; stroke: #b0b0b0; stroke-width: 0.8; stroke-linecap: square"/>
     </g>
     <g id="line2d_15">
      <g>
       <use xlink:href="#m62123598f2" x="90" y="195.369409" style="stroke: #000000; stroke-width: 2"/>
      </g>
     </g>
     <g id="text_12">
      <!-- 0.75 -->
      <g transform="translate(51.828125 200.688315)scale(0.14 -0.14)">
       <use xlink:href="#DejaVuSans-30"/>
       <use xlink:href="#DejaVuSans-2e" x="63.623047"/>
       <use xlink:href="#DejaVuSans-37" x="95.410156"/>
       <use xlink:href="#DejaVuSans-35" x="159.033203"/>
      </g>
     </g>
    </g>
    <g id="ytick_4">
     <g id="line2d_16">
      <path d="M 90 137.006266 
L 648 137.006266 
" clip-path="url(#pb2e1295613)" style="fill: none; stroke: #b0b0b0; stroke-width: 0.8; stroke-linecap: square"/>
     </g>
     <g id="line2d_17">
      <g>
       <use xlink:href="#m62123598f2" x="90" y="137.006266" style="stroke: #000000; stroke-width: 2"/>
      </g>
     </g>
     <g id="text_13">
      <!-- 0.80 -->
      <g transform="translate(51.828125 142.325172)scale(0.14 -0.14)">
       <defs>
        <path id="DejaVuSans-38" d="M 2034 2216 
Q 1584 2216 1326 1975 
Q 1069 1734 1069 1313 
Q 1069 891 1326 650 
Q 1584 409 2034 409 
Q 2484 409 2743 651 
Q 3003 894 3003 1313 
Q 3003 1734 2745 1975 
Q 2488 2216 2034 2216 
z
M 1403 2484 
Q 997 2584 770 2862 
Q 544 3141 544 3541 
Q 544 4100 942 4425 
Q 1341 4750 2034 4750 
Q 2731 4750 3128 4425 
Q 3525 4100 3525 3541 
Q 3525 3141 3298 2862 
Q 3072 2584 2669 2484 
Q 3125 2378 3379 2068 
Q 3634 1759 3634 1313 
Q 3634 634 3220 271 
Q 2806 -91 2034 -91 
Q 1263 -91 848 271 
Q 434 634 434 1313 
Q 434 1759 690 2068 
Q 947 2378 1403 2484 
z
M 1172 3481 
Q 1172 3119 1398 2916 
Q 1625 2713 2034 2713 
Q 2441 2713 2670 2916 
Q 2900 3119 2900 3481 
Q 2900 3844 2670 4047 
Q 2441 4250 2034 4250 
Q 1625 4250 1398 4047 
Q 1172 3844 1172 3481 
z
" transform="scale(0.015625)"/>
       </defs>
       <use xlink:href="#DejaVuSans-30"/>
       <use xlink:href="#DejaVuSans-2e" x="63.623047"/>
       <use xlink:href="#DejaVuSans-38" x="95.410156"/>
       <use xlink:href="#DejaVuSans-30" x="159.033203"/>
      </g>
     </g>
    </g>
    <g id="ytick_5">
     <g id="line2d_18">
      <path d="M 90 78.643123 
L 648 78.643123 
" clip-path="url(#pb2e1295613)" style="fill: none; stroke: #b0b0b0; stroke-width: 0.8; stroke-linecap: square"/>
     </g>
     <g id="line2d_19">
      <g>
       <use xlink:href="#m62123598f2" x="90" y="78.643123" style="stroke: #000000; stroke-width: 2"/>
      </g>
     </g>
     <g id="text_14">
      <!-- 0.85 -->
      <g transform="translate(51.828125 83.962029)scale(0.14 -0.14)">
       <use xlink:href="#DejaVuSans-30"/>
       <use xlink:href="#DejaVuSans-2e" x="63.623047"/>
       <use xlink:href="#DejaVuSans-38" x="95.410156"/>
       <use xlink:href="#DejaVuSans-35" x="159.033203"/>
      </g>
     </g>
    </g>
    <g id="text_15">
     <!-- NDCG -->
     <g transform="translate(44.916562 200.03875)rotate(-90)scale(0.14 -0.14)">
      <defs>
       <path id="DejaVuSans-44" d="M 1259 4147 
L 1259 519 
L 2022 519 
Q 2988 519 3436 956 
Q 3884 1394 3884 2338 
Q 3884 3275 3436 3711 
Q 2988 4147 2022 4147 
L 1259 4147 
z
M 628 4666 
L 1925 4666 
Q 3281 4666 3915 4102 
Q 4550 3538 4550 2338 
Q 4550 1131 3912 565 
Q 3275 0 1925 0 
L 628 0 
L 628 4666 
z
" transform="scale(0.015625)"/>
      </defs>
      <use xlink:href="#DejaVuSans-4e"/>
      <use xlink:href="#DejaVuSans-44" x="74.804688"/>
      <use xlink:href="#DejaVuSans-43" x="151.806641"/>
      <use xlink:href="#DejaVuSans-47" x="221.630859"/>
     </g>
    </g>
   </g>
   <g id="line2d_20">
    <path d="M 121 212.514309 
L 121 94.777059 
" clip-path="url(#pb2e1295613)" style="fill: none; stroke: #3d3d3d; stroke-width: 2; stroke-linecap: square"/>
   </g>
   <g id="line2d_21">
    <path d="M 121 164.417412 
L 121 131.205565 
" clip-path="url(#pb2e1295613)" style="fill: none; stroke: #3d3d3d; stroke-width: 6; stroke-linecap: square"/>
   </g>
   <g id="line2d_22">
    <path d="M 183 207.031244 
L 183 97.27531 
" clip-path="url(#pb2e1295613)" style="fill: none; stroke: #3d3d3d; stroke-width: 2; stroke-linecap: square"/>
   </g>
   <g id="line2d_23">
    <path d="M 183 161.967718 
L 183 124.652652 
" clip-path="url(#pb2e1295613)" style="fill: none; stroke: #3d3d3d; stroke-width: 6; stroke-linecap: square"/>
   </g>
   <g id="line2d_24">
    <path d="M 245 240.542196 
L 245 125.2037 
" clip-path="url(#pb2e1295613)" style="fill: none; stroke: #3d3d3d; stroke-width: 2; stroke-linecap: square"/>
   </g>
   <g id="line2d_25">
    <path d="M 245 194.808042 
L 245 160.816791 
" clip-path="url(#pb2e1295613)" style="fill: none; stroke: #3d3d3d; stroke-width: 6; stroke-linecap: square"/>
   </g>
   <g id="line2d_26">
    <path d="M 307 238.645125 
L 307 140.960234 
" clip-path="url(#pb2e1295613)" style="fill: none; stroke: #3d3d3d; stroke-width: 2; stroke-linecap: square"/>
   </g>
   <g id="line2d_27">
    <path d="M 307 201.054311 
L 307 173.72411 
" clip-path="url(#pb2e1295613)" style="fill: none; stroke: #3d3d3d; stroke-width: 6; stroke-linecap: square"/>
   </g>
   <g id="line2d_28">
    <path d="M 369 221.326312 
L 369 120.184478 
" clip-path="url(#pb2e1295613)" style="fill: none; stroke: #3d3d3d; stroke-width: 2; stroke-linecap: square"/>
   </g>
   <g id="line2d_29">
    <path d="M 369 189.469983 
L 369 154.367208 
" clip-path="url(#pb2e1295613)" style="fill: none; stroke: #3d3d3d; stroke-width: 6; stroke-linecap: square"/>
   </g>
   <g id="line2d_30">
    <path d="M 431 223.930247 
L 431 101.895671 
" clip-path="url(#pb2e1295613)" style="fill: none; stroke: #3d3d3d; stroke-width: 2; stroke-linecap: square"/>
   </g>
   <g id="line2d_31">
    <path d="M 431 187.84865 
L 431 152.423149 
" clip-path="url(#pb2e1295613)" style="fill: none; stroke: #3d3d3d; stroke-width: 6; stroke-linecap: square"/>
   </g>
   <g id="line2d_32">
    <path d="M 493 190.226064 
L 493 91.300192 
" clip-path="url(#pb2e1295613)" style="fill: none; stroke: #3d3d3d; stroke-width: 2; stroke-linecap: square"/>
   </g>
   <g id="line2d_33">
    <path d="M 493 157.558992 
L 493 127.96045 
" clip-path="url(#pb2e1295613)" style="fill: none; stroke: #3d3d3d; stroke-width: 6; stroke-linecap: square"/>
   </g>
   <g id="line2d_34">
    <path d="M 555 226.617655 
L 555 137.991282 
" clip-path="url(#pb2e1295613)" style="fill: none; stroke: #3d3d3d; stroke-width: 2; stroke-linecap: square"/>
   </g>
   <g id="line2d_35">
    <path d="M 555 202.114445 
L 555 172.070858 
" clip-path="url(#pb2e1295613)" style="fill: none; stroke: #3d3d3d; stroke-width: 6; stroke-linecap: square"/>
   </g>
   <g id="line2d_36">
    <path d="M 617 286.773177 
L 617 197.186905 
" clip-path="url(#pb2e1295613)" style="fill: none; stroke: #3d3d3d; stroke-width: 2; stroke-linecap: square"/>
   </g>
   <g id="line2d_37">
    <path d="M 617 251.874818 
L 617 228.373378 
" clip-path="url(#pb2e1295613)" style="fill: none; stroke: #3d3d3d; stroke-width: 6; stroke-linecap: square"/>
   </g>
   <g id="patch_3">
    <path d="M 90 315 
L 90 43.2 
" style="fill: none; stroke: #000000; stroke-width: 2; stroke-linejoin: miter; stroke-linecap: square"/>
   </g>
   <g id="patch_4">
    <path d="M 648 315 
L 648 43.2 
" style="fill: none; stroke: #000000; stroke-width: 2; stroke-linejoin: miter; stroke-linecap: square"/>
   </g>
   <g id="patch_5">
    <path d="M 90 315 
L 648 315 
" style="fill: none; stroke: #000000; stroke-width: 2; stroke-linejoin: miter; stroke-linecap: square"/>
   </g>
   <g id="patch_6">
    <path d="M 90 43.2 
L 648 43.2 
" style="fill: none; stroke: #000000; stroke-width: 2; stroke-linejoin: miter; stroke-linecap: square"/>
   </g>
   <g id="PathCollection_1">
    <defs>
     <path id="mb8c3f12f13" d="M 0 2 
C 0.530406 2 1.03916 1.789267 1.414214 1.414214 
C 1.789267 1.03916 2 0.530406 2 0 
C 2 -0.530406 1.789267 -1.03916 1.414214 -1.414214 
C 1.03916 -1.789267 0.530406 -2 0 -2 
C -0.530406 -2 -1.03916 -1.789267 -1.414214 -1.414214 
C -1.789267 -1.03916 -2 -0.530406 -2 0 
C -2 0.530406 -1.789267 1.03916 -1.414214 1.414214 
C -1.03916 1.789267 -0.530406 2 0 2 
z
" style="stroke: #3d3d3d"/>
    </defs>
    <g clip-path="url(#pb2e1295613)">
     <use xlink:href="#mb8c3f12f13" x="121" y="143.25342" style="fill: #ffffff; stroke: #3d3d3d"/>
    </g>
   </g>
   <g id="PathCollection_2">
    <g clip-path="url(#pb2e1295613)">
     <use xlink:href="#mb8c3f12f13" x="183" y="142.455492" style="fill: #ffffff; stroke: #3d3d3d"/>
    </g>
   </g>
   <g id="PathCollection_3">
    <g clip-path="url(#pb2e1295613)">
     <use xlink:href="#mb8c3f12f13" x="245" y="177.203538" style="fill: #ffffff; stroke: #3d3d3d"/>
    </g>
   </g>
   <g id="PathCollection_4">
    <g clip-path="url(#pb2e1295613)">
     <use xlink:href="#mb8c3f12f13" x="307" y="187.637341" style="fill: #ffffff; stroke: #3d3d3d"/>
    </g>
   </g>
   <g id="PathCollection_5">
    <g clip-path="url(#pb2e1295613)">
     <use xlink:href="#mb8c3f12f13" x="369" y="171.875178" style="fill: #ffffff; stroke: #3d3d3d"/>
    </g>
   </g>
   <g id="PathCollection_6">
    <g clip-path="url(#pb2e1295613)">
     <use xlink:href="#mb8c3f12f13" x="431" y="167.514058" style="fill: #ffffff; stroke: #3d3d3d"/>
    </g>
   </g>
   <g id="PathCollection_7">
    <g clip-path="url(#pb2e1295613)">
     <use xlink:href="#mb8c3f12f13" x="493" y="141.815003" style="fill: #ffffff; stroke: #3d3d3d"/>
    </g>
   </g>
   <g id="PathCollection_8">
    <g clip-path="url(#pb2e1295613)">
     <use xlink:href="#mb8c3f12f13" x="555" y="184.232507" style="fill: #ffffff; stroke: #3d3d3d"/>
    </g>
   </g>
   <g id="PathCollection_9">
    <g clip-path="url(#pb2e1295613)">
     <use xlink:href="#mb8c3f12f13" x="617" y="241.250746" style="fill: #ffffff; stroke: #3d3d3d"/>
    </g>
   </g>
  </g>
 </g>
 <defs>
  <clipPath id="pb2e1295613">
   <rect x="90" y="43.2" width="558" height="271.8"/>
  </clipPath>
 </defs>
</svg>
