<?xml version="1.0" encoding="utf-8" standalone="no"?>
<!DOCTYPE svg PUBLIC "-//W3C//DTD SVG 1.1//EN"
  "http://www.w3.org/Graphics/SVG/1.1/DTD/svg11.dtd">
<svg xmlns:xlink="http://www.w3.org/1999/xlink" width="720pt" height="360pt" viewBox="0 0 720 360" xmlns="http://www.w3.org/2000/svg" version="1.1">
 <metadata>
  <rdf:RDF xmlns:dc="http://purl.org/dc/elements/1.1/" xmlns:cc="http://creativecommons.org/ns#" xmlns:rdf="http://www.w3.org/1999/02/22-rdf-syntax-ns#">
   <cc:Work>
    <dc:type rdf:resource="http://purl.org/dc/dcmitype/StillImage"/>
    <dc:date>2022-06-01T12:26:21.178449</dc:date>
    <dc:format>image/svg+xml</dc:format>
    <dc:creator>
     <cc:Agent>
      <dc:title>Matplotlib v3.5.1, https://matplotlib.org/</dc:title>
     </cc:Agent>
    </dc:creator>
   </cc:Work>
  </rdf:RDF>
 </metadata>
 <defs>
  <style type="text/css">*{stroke-linejoin: round; stroke-linecap: butt}</style>
 </defs>
 <g id="figure_1">
  <g id="patch_1">
   <path d="M 0 360 
L 720 360 
L 720 0 
L 0 0 
L 0 360 
z
" style="fill: none"/>
  </g>
  <g id="axes_1">
   <g id="patch_2">
    <path d="M 90 315 
L 648 315 
L 648 43.2 
L 90 43.2 
z
" style="fill: #ffffff"/>
   </g>
   <g id="PolyCollection_1">
    <defs>
     <path id="m28e172dc59" d="M 121.098216 -94.723547 
L 120.901784 -94.723547 
L 120.862783 -96.84195 
L 120.81349 -98.960353 
L 120.753257 -101.078756 
L 120.682112 -103.19716 
L 120.60087 -105.315563 
L 120.511133 -107.433966 
L 120.415114 -109.552369 
L 120.315297 -111.670772 
L 120.213948 -113.789175 
L 120.112543 -115.907578 
L 120.011209 -118.025981 
L 119.908291 -120.144384 
L 119.800125 -122.262788 
L 119.681107 -124.381191 
L 119.544036 -126.499594 
L 119.380708 -128.617997 
L 119.18265 -130.7364 
L 118.941891 -132.854803 
L 118.651653 -134.973206 
L 118.306879 -137.091609 
L 117.904573 -139.210012 
L 117.443966 -141.328415 
L 116.926564 -143.446819 
L 116.356148 -145.565222 
L 115.738777 -147.683625 
L 115.082807 -149.802028 
L 114.398898 -151.920431 
L 113.699925 -154.038834 
L 113.000702 -156.157237 
L 112.317431 -158.27564 
L 111.666846 -160.394043 
L 111.065067 -162.512447 
L 110.526281 -164.63085 
L 110.061398 -166.749253 
L 109.676891 -168.867656 
L 109.374001 -170.986059 
L 109.148463 -173.104462 
L 108.990828 -175.222865 
L 108.887391 -177.341268 
L 108.821632 -179.459671 
L 108.776027 -181.578074 
L 108.734017 -183.696478 
L 108.681925 -185.814881 
L 108.610561 -187.933284 
L 108.516324 -190.051687 
L 108.401623 -192.17009 
L 108.274533 -194.288493 
L 108.147693 -196.406896 
L 108.036581 -198.525299 
L 107.957398 -200.643702 
L 107.924892 -202.762106 
L 107.950464 -204.880509 
L 108.040877 -206.998912 
L 108.197764 -209.117315 
L 108.417986 -211.235718 
L 108.694718 -213.354121 
L 109.018996 -215.472524 
L 109.381406 -217.590927 
L 109.773553 -219.70933 
L 110.189073 -221.827733 
L 110.624053 -223.946137 
L 111.076846 -226.06454 
L 111.547427 -228.182943 
L 112.036468 -230.301346 
L 112.544372 -232.419749 
L 113.070438 -234.538152 
L 113.612319 -236.656555 
L 114.16581 -238.774958 
L 114.724994 -240.893361 
L 115.282652 -243.011765 
L 115.830862 -245.130168 
L 116.361664 -247.248571 
L 116.867687 -249.366974 
L 117.342659 -251.485377 
L 117.781742 -253.60378 
L 118.181694 -255.722183 
L 118.54087 -257.840586 
L 118.859103 -259.958989 
L 119.137523 -262.077392 
L 119.378346 -264.195796 
L 119.584654 -266.314199 
L 119.760191 -268.432602 
L 119.909147 -270.551005 
L 120.035933 -272.669408 
L 120.144937 -274.787811 
L 120.240265 -276.906214 
L 120.325504 -279.024617 
L 120.403521 -281.14302 
L 120.476344 -283.261423 
L 120.545139 -285.379827 
L 120.610294 -287.49823 
L 120.671592 -289.616633 
L 120.728433 -291.735036 
L 120.780083 -293.853439 
L 120.825876 -295.971842 
L 120.865382 -298.090245 
L 120.898483 -300.208648 
L 120.925388 -302.327051 
L 120.946589 -304.445455 
L 121.053411 -304.445455 
L 121.053411 -304.445455 
L 121.074612 -302.327051 
L 121.101517 -300.208648 
L 121.134618 -298.090245 
L 121.174124 -295.971842 
L 121.219917 -293.853439 
L 121.271567 -291.735036 
L 121.328408 -289.616633 
L 121.389706 -287.49823 
L 121.454861 -285.379827 
L 121.523656 -283.261423 
L 121.596479 -281.14302 
L 121.674496 -279.024617 
L 121.759735 -276.906214 
L 121.855063 -274.787811 
L 121.964067 -272.669408 
L 122.090853 -270.551005 
L 122.239809 -268.432602 
L 122.415346 -266.314199 
L 122.621654 -264.195796 
L 122.862477 -262.077392 
L 123.140897 -259.958989 
L 123.45913 -257.840586 
L 123.818306 -255.722183 
L 124.218258 -253.60378 
L 124.657341 -251.485377 
L 125.132313 -249.366974 
L 125.638336 -247.248571 
L 126.169138 -245.130168 
L 126.717348 -243.011765 
L 127.275006 -240.893361 
L 127.83419 -238.774958 
L 128.387681 -236.656555 
L 128.929562 -234.538152 
L 129.455628 -232.419749 
L 129.963532 -230.301346 
L 130.452573 -228.182943 
L 130.923154 -226.06454 
L 131.375947 -223.946137 
L 131.810927 -221.827733 
L 132.226447 -219.70933 
L 132.618594 -217.590927 
L 132.981004 -215.472524 
L 133.305282 -213.354121 
L 133.582014 -211.235718 
L 133.802236 -209.117315 
L 133.959123 -206.998912 
L 134.049536 -204.880509 
L 134.075108 -202.762106 
L 134.042602 -200.643702 
L 133.963419 -198.525299 
L 133.852307 -196.406896 
L 133.725467 -194.288493 
L 133.598377 -192.17009 
L 133.483676 -190.051687 
L 133.389439 -187.933284 
L 133.318075 -185.814881 
L 133.265983 -183.696478 
L 133.223973 -181.578074 
L 133.178368 -179.459671 
L 133.112609 -177.341268 
L 133.009172 -175.222865 
L 132.851537 -173.104462 
L 132.625999 -170.986059 
L 132.323109 -168.867656 
L 131.938602 -166.749253 
L 131.473719 -164.63085 
L 130.934933 -162.512447 
L 130.333154 -160.394043 
L 129.682569 -158.27564 
L 128.999298 -156.157237 
L 128.300075 -154.038834 
L 127.601102 -151.920431 
L 126.917193 -149.802028 
L 126.261223 -147.683625 
L 125.643852 -145.565222 
L 125.073436 -143.446819 
L 124.556034 -141.328415 
L 124.095427 -139.210012 
L 123.693121 -137.091609 
L 123.348347 -134.973206 
L 123.058109 -132.854803 
L 122.81735 -130.7364 
L 122.619292 -128.617997 
L 122.455964 -126.499594 
L 122.318893 -124.381191 
L 122.199875 -122.262788 
L 122.091709 -120.144384 
L 121.988791 -118.025981 
L 121.887457 -115.907578 
L 121.786052 -113.789175 
L 121.684703 -111.670772 
L 121.584886 -109.552369 
L 121.488867 -107.433966 
L 121.39913 -105.315563 
L 121.317888 -103.19716 
L 121.246743 -101.078756 
L 121.18651 -98.960353 
L 121.137217 -96.84195 
L 121.098216 -94.723547 
z
" style="stroke: #3d3d3d; stroke-width: 2"/>
    </defs>
    <g clip-path="url(#p93bb8e9c3c)">
     <use xlink:href="#m28e172dc59" x="0" y="360" style="fill: #3274a1; stroke: #3d3d3d; stroke-width: 2"/>
    </g>
   </g>
   <g id="PolyCollection_2">
    <defs>
     <path id="me85a1a4ab7" d="M 183.139727 -101.281528 
L 182.860273 -101.281528 
L 182.805402 -103.085321 
L 182.734365 -104.889114 
L 182.644528 -106.692906 
L 182.533563 -108.496699 
L 182.399717 -110.300492 
L 182.242086 -112.104285 
L 182.060867 -113.908078 
L 181.857548 -115.711871 
L 181.634988 -117.515663 
L 181.397381 -119.319456 
L 181.15008 -121.123249 
L 180.899284 -122.927042 
L 180.651616 -124.730835 
L 180.413637 -126.534628 
L 180.191327 -128.338421 
L 179.989602 -130.142213 
L 179.811893 -131.946006 
L 179.659831 -133.749799 
L 179.533057 -135.553592 
L 179.429158 -137.357385 
L 179.34374 -139.161178 
L 179.270629 -140.964971 
L 179.202189 -142.768763 
L 179.129761 -144.572556 
L 179.044196 -146.376349 
L 178.936459 -148.180142 
L 178.798276 -149.983935 
L 178.622767 -151.787728 
L 178.404994 -153.59152 
L 178.142384 -155.395313 
L 177.834947 -157.199106 
L 177.485256 -159.002899 
L 177.098193 -160.806692 
L 176.680459 -162.610485 
L 176.239932 -164.414278 
L 175.78492 -166.21807 
L 175.323432 -168.021863 
L 174.862538 -169.825656 
L 174.407907 -171.629449 
L 173.963565 -173.433242 
L 173.531892 -175.237035 
L 173.113835 -177.040828 
L 172.709294 -178.84462 
L 172.317598 -180.648413 
L 171.938 -182.452206 
L 171.570114 -184.255999 
L 171.214224 -186.059792 
L 170.871446 -187.863585 
L 170.543725 -189.667377 
L 170.233675 -191.47117 
L 169.944325 -193.274963 
L 169.678793 -195.078756 
L 169.439951 -196.882549 
L 169.230134 -198.686342 
L 169.050915 -200.490135 
L 168.902984 -202.293927 
L 168.786145 -204.09772 
L 168.699442 -205.901513 
L 168.641405 -207.705306 
L 168.610415 -209.509099 
L 168.605155 -211.312892 
L 168.625106 -213.116685 
L 168.671035 -214.920477 
L 168.745387 -216.72427 
L 168.852502 -218.528063 
L 168.998583 -220.331856 
L 169.191367 -222.135649 
L 169.439479 -223.939442 
L 169.75151 -225.743234 
L 170.134928 -227.547027 
L 170.594932 -229.35082 
L 171.133435 -231.154613 
L 171.748315 -232.958406 
L 172.433072 -234.762199 
L 173.176958 -236.565992 
L 173.965575 -238.369784 
L 174.781884 -240.173577 
L 175.607483 -241.97737 
L 176.423988 -243.781163 
L 177.214353 -245.584956 
L 177.963956 -247.388749 
L 178.661358 -249.192542 
L 179.298673 -250.996334 
L 179.871564 -252.800127 
L 180.37891 -254.60392 
L 180.822258 -256.407713 
L 181.205153 -258.211506 
L 181.532449 -260.015299 
L 181.809695 -261.819091 
L 182.042632 -263.622884 
L 182.236839 -265.426677 
L 182.397512 -267.23047 
L 182.529356 -269.034263 
L 182.63657 -270.838056 
L 182.722868 -272.641849 
L 182.791529 -274.445641 
L 182.845452 -276.249434 
L 182.887192 -278.053227 
L 182.918996 -279.85702 
L 183.081004 -279.85702 
L 183.081004 -279.85702 
L 183.112808 -278.053227 
L 183.154548 -276.249434 
L 183.208471 -274.445641 
L 183.277132 -272.641849 
L 183.36343 -270.838056 
L 183.470644 -269.034263 
L 183.602488 -267.23047 
L 183.763161 -265.426677 
L 183.957368 -263.622884 
L 184.190305 -261.819091 
L 184.467551 -260.015299 
L 184.794847 -258.211506 
L 185.177742 -256.407713 
L 185.62109 -254.60392 
L 186.128436 -252.800127 
L 186.701327 -250.996334 
L 187.338642 -249.192542 
L 188.036044 -247.388749 
L 188.785647 -245.584956 
L 189.576012 -243.781163 
L 190.392517 -241.97737 
L 191.218116 -240.173577 
L 192.034425 -238.369784 
L 192.823042 -236.565992 
L 193.566928 -234.762199 
L 194.251685 -232.958406 
L 194.866565 -231.154613 
L 195.405068 -229.35082 
L 195.865072 -227.547027 
L 196.24849 -225.743234 
L 196.560521 -223.939442 
L 196.808633 -222.135649 
L 197.001417 -220.331856 
L 197.147498 -218.528063 
L 197.254613 -216.72427 
L 197.328965 -214.920477 
L 197.374894 -213.116685 
L 197.394845 -211.312892 
L 197.389585 -209.509099 
L 197.358595 -207.705306 
L 197.300558 -205.901513 
L 197.213855 -204.09772 
L 197.097016 -202.293927 
L 196.949085 -200.490135 
L 196.769866 -198.686342 
L 196.560049 -196.882549 
L 196.321207 -195.078756 
L 196.055675 -193.274963 
L 195.766325 -191.47117 
L 195.456275 -189.667377 
L 195.128554 -187.863585 
L 194.785776 -186.059792 
L 194.429886 -184.255999 
L 194.062 -182.452206 
L 193.682402 -180.648413 
L 193.290706 -178.84462 
L 192.886165 -177.040828 
L 192.468108 -175.237035 
L 192.036435 -173.433242 
L 191.592093 -171.629449 
L 191.137462 -169.825656 
L 190.676568 -168.021863 
L 190.21508 -166.21807 
L 189.760068 -164.414278 
L 189.319541 -162.610485 
L 188.901807 -160.806692 
L 188.514744 -159.002899 
L 188.165053 -157.199106 
L 187.857616 -155.395313 
L 187.595006 -153.59152 
L 187.377233 -151.787728 
L 187.201724 -149.983935 
L 187.063541 -148.180142 
L 186.955804 -146.376349 
L 186.870239 -144.572556 
L 186.797811 -142.768763 
L 186.729371 -140.964971 
L 186.65626 -139.161178 
L 186.570842 -137.357385 
L 186.466943 -135.553592 
L 186.340169 -133.749799 
L 186.188107 -131.946006 
L 186.010398 -130.142213 
L 185.808673 -128.338421 
L 185.586363 -126.534628 
L 185.348384 -124.730835 
L 185.100716 -122.927042 
L 184.84992 -121.123249 
L 184.602619 -119.319456 
L 184.365012 -117.515663 
L 184.142452 -115.711871 
L 183.939133 -113.908078 
L 183.757914 -112.104285 
L 183.600283 -110.300492 
L 183.466437 -108.496699 
L 183.355472 -106.692906 
L 183.265635 -104.889114 
L 183.194598 -103.085321 
L 183.139727 -101.281528 
z
" style="stroke: #3d3d3d; stroke-width: 2"/>
    </defs>
    <g clip-path="url(#p93bb8e9c3c)">
     <use xlink:href="#me85a1a4ab7" x="0" y="360" style="fill: #e1812c; stroke: #3d3d3d; stroke-width: 2"/>
    </g>
   </g>
   <g id="PolyCollection_3">
    <defs>
     <path id="m0c65a2c1eb" d="M 245.070715 -107.945784 
L 244.929285 -107.945784 
L 244.899459 -109.768312 
L 244.860981 -111.59084 
L 244.813017 -113.413368 
L 244.755296 -115.235896 
L 244.688323 -117.058424 
L 244.61353 -118.880952 
L 244.533336 -120.70348 
L 244.45107 -122.526008 
L 244.370748 -124.348536 
L 244.296695 -126.171064 
L 244.233049 -127.993592 
L 244.183186 -129.81612 
L 244.149124 -131.638648 
L 244.130996 -133.461175 
L 244.126631 -135.283703 
L 244.131325 -137.106231 
L 244.137818 -138.928759 
L 244.136526 -140.751287 
L 244.115995 -142.573815 
L 244.063589 -144.396343 
L 243.966341 -146.218871 
L 243.811904 -148.041399 
L 243.589512 -149.863927 
L 243.290837 -151.686455 
L 242.910616 -153.508983 
L 242.446974 -155.331511 
L 241.901346 -157.154039 
L 241.278043 -158.976567 
L 240.5835 -160.799095 
L 239.825378 -162.621623 
L 239.011683 -164.444151 
L 238.150096 -166.266678 
L 237.247667 -168.089206 
L 236.310903 -169.911734 
L 235.346245 -171.734262 
L 234.360771 -173.55679 
L 233.362962 -175.379318 
L 232.363321 -177.201846 
L 231.374707 -179.024374 
L 230.412306 -180.846902 
L 229.493239 -182.66943 
L 228.635888 -184.491958 
L 227.859019 -186.314486 
L 227.180819 -188.137014 
L 226.617903 -189.959542 
L 226.184346 -191.78207 
L 225.890798 -193.604598 
L 225.743742 -195.427126 
L 225.744975 -197.249654 
L 225.891434 -199.072181 
L 226.175423 -200.894709 
L 226.585269 -202.717237 
L 227.106359 -204.539765 
L 227.722385 -206.362293 
L 228.416599 -208.184821 
L 229.172843 -210.007349 
L 229.976179 -211.829877 
L 230.813017 -213.652405 
L 231.670772 -215.474933 
L 232.537199 -217.297461 
L 233.399634 -219.119989 
L 234.244399 -220.942517 
L 235.056624 -222.765045 
L 235.820629 -224.587573 
L 236.520918 -226.410101 
L 237.143646 -228.232629 
L 237.67835 -230.055157 
L 238.119588 -231.877684 
L 238.468147 -233.700212 
L 238.731508 -235.52274 
L 238.923399 -237.345268 
L 239.062428 -239.167796 
L 239.169995 -240.990324 
L 239.267806 -242.812852 
L 239.375431 -244.63538 
L 239.508321 -246.457908 
L 239.67658 -248.280436 
L 239.884658 -250.102964 
L 240.13189 -251.925492 
L 240.413668 -253.74802 
L 240.722924 -255.570548 
L 241.051585 -257.393076 
L 241.391725 -259.215604 
L 241.736277 -261.038132 
L 242.079287 -262.860659 
L 242.415811 -264.683187 
L 242.741633 -266.505715 
L 243.05296 -268.328243 
L 243.346235 -270.150771 
L 243.618129 -271.973299 
L 243.865686 -273.795827 
L 244.086573 -275.618355 
L 244.279333 -277.440883 
L 244.443564 -279.263411 
L 244.579981 -281.085939 
L 244.690326 -282.908467 
L 244.777166 -284.730995 
L 244.843611 -286.553523 
L 244.893015 -288.376051 
L 245.106985 -288.376051 
L 245.106985 -288.376051 
L 245.156389 -286.553523 
L 245.222834 -284.730995 
L 245.309674 -282.908467 
L 245.420019 -281.085939 
L 245.556436 -279.263411 
L 245.720667 -277.440883 
L 245.913427 -275.618355 
L 246.134314 -273.795827 
L 246.381871 -271.973299 
L 246.653765 -270.150771 
L 246.94704 -268.328243 
L 247.258367 -266.505715 
L 247.584189 -264.683187 
L 247.920713 -262.860659 
L 248.263723 -261.038132 
L 248.608275 -259.215604 
L 248.948415 -257.393076 
L 249.277076 -255.570548 
L 249.586332 -253.74802 
L 249.86811 -251.925492 
L 250.115342 -250.102964 
L 250.32342 -248.280436 
L 250.491679 -246.457908 
L 250.624569 -244.63538 
L 250.732194 -242.812852 
L 250.830005 -240.990324 
L 250.937572 -239.167796 
L 251.076601 -237.345268 
L 251.268492 -235.52274 
L 251.531853 -233.700212 
L 251.880412 -231.877684 
L 252.32165 -230.055157 
L 252.856354 -228.232629 
L 253.479082 -226.410101 
L 254.179371 -224.587573 
L 254.943376 -222.765045 
L 255.755601 -220.942517 
L 256.600366 -219.119989 
L 257.462801 -217.297461 
L 258.329228 -215.474933 
L 259.186983 -213.652405 
L 260.023821 -211.829877 
L 260.827157 -210.007349 
L 261.583401 -208.184821 
L 262.277615 -206.362293 
L 262.893641 -204.539765 
L 263.414731 -202.717237 
L 263.824577 -200.894709 
L 264.108566 -199.072181 
L 264.255025 -197.249654 
L 264.256258 -195.427126 
L 264.109202 -193.604598 
L 263.815654 -191.78207 
L 263.382097 -189.959542 
L 262.819181 -188.137014 
L 262.140981 -186.314486 
L 261.364112 -184.491958 
L 260.506761 -182.66943 
L 259.587694 -180.846902 
L 258.625293 -179.024374 
L 257.636679 -177.201846 
L 256.637038 -175.379318 
L 255.639229 -173.55679 
L 254.653755 -171.734262 
L 253.689097 -169.911734 
L 252.752333 -168.089206 
L 251.849904 -166.266678 
L 250.988317 -164.444151 
L 250.174622 -162.621623 
L 249.4165 -160.799095 
L 248.721957 -158.976567 
L 248.098654 -157.154039 
L 247.553026 -155.331511 
L 247.089384 -153.508983 
L 246.709163 -151.686455 
L 246.410488 -149.863927 
L 246.188096 -148.041399 
L 246.033659 -146.218871 
L 245.936411 -144.396343 
L 245.884005 -142.573815 
L 245.863474 -140.751287 
L 245.862182 -138.928759 
L 245.868675 -137.106231 
L 245.873369 -135.283703 
L 245.869004 -133.461175 
L 245.850876 -131.638648 
L 245.816814 -129.81612 
L 245.766951 -127.993592 
L 245.703305 -126.171064 
L 245.629252 -124.348536 
L 245.54893 -122.526008 
L 245.466664 -120.70348 
L 245.38647 -118.880952 
L 245.311677 -117.058424 
L 245.244704 -115.235896 
L 245.186983 -113.413368 
L 245.139019 -111.59084 
L 245.100541 -109.768312 
L 245.070715 -107.945784 
z
" style="stroke: #3d3d3d; stroke-width: 2"/>
    </defs>
    <g clip-path="url(#p93bb8e9c3c)">
     <use xlink:href="#m0c65a2c1eb" x="0" y="360" style="fill: #3a923a; stroke: #3d3d3d; stroke-width: 2"/>
    </g>
   </g>
   <g id="PolyCollection_4">
    <defs>
     <path id="m7c6fad18c6" d="M 307.16441 -111.03318 
L 306.83559 -111.03318 
L 306.769525 -112.646669 
L 306.685765 -114.260158 
L 306.583252 -115.873647 
L 306.462281 -117.487136 
L 306.324841 -119.100626 
L 306.174764 -120.714115 
L 306.017607 -122.327604 
L 305.860195 -123.941093 
L 305.709855 -125.554583 
L 305.573408 -127.168072 
L 305.456084 -128.781561 
L 305.360551 -130.39505 
L 305.28628 -132.00854 
L 305.2294 -133.622029 
L 305.183134 -135.235518 
L 305.138776 -136.849007 
L 305.087059 -138.462497 
L 305.019653 -140.075986 
L 304.93052 -141.689475 
L 304.816816 -143.302964 
L 304.67918 -144.916454 
L 304.5213 -146.529943 
L 304.348865 -148.143432 
L 304.16809 -149.756921 
L 303.984108 -151.370411 
L 303.799559 -152.9839 
L 303.613643 -154.597389 
L 303.421802 -156.210878 
L 303.216062 -157.824367 
L 302.985931 -159.437857 
L 302.719619 -161.051346 
L 302.405316 -162.664835 
L 302.032266 -164.278324 
L 301.591452 -165.891814 
L 301.075842 -167.505303 
L 300.480266 -169.118792 
L 299.801116 -170.732281 
L 299.036122 -172.345771 
L 298.184439 -173.95926 
L 297.24721 -175.572749 
L 296.228621 -177.186238 
L 295.137289 -178.799728 
L 293.987693 -180.413217 
L 292.801209 -182.026706 
L 291.606379 -183.640195 
L 290.43806 -185.253685 
L 289.335369 -186.867174 
L 288.338532 -188.480663 
L 287.485054 -190.094152 
L 286.805782 -191.707642 
L 286.321536 -193.321131 
L 286.040905 -194.93462 
L 285.959637 -196.548109 
L 286.061719 -198.161598 
L 286.321959 -199.775088 
L 286.709586 -201.388577 
L 287.192223 -203.002066 
L 287.739547 -204.615555 
L 288.326089 -206.229045 
L 288.932818 -207.842534 
L 289.547444 -209.456023 
L 290.163635 -211.069512 
L 290.77951 -212.683002 
L 291.395864 -214.296491 
L 292.014544 -215.90998 
L 292.637278 -217.523469 
L 293.26509 -219.136959 
L 293.89825 -220.750448 
L 294.536609 -222.363937 
L 295.180055 -223.977426 
L 295.828871 -225.590916 
L 296.483817 -227.204405 
L 297.145872 -228.817894 
L 297.815698 -230.431383 
L 298.492952 -232.044872 
L 299.175654 -233.658362 
L 299.859793 -235.271851 
L 300.53929 -236.88534 
L 301.206377 -238.498829 
L 301.85231 -240.112319 
L 302.4683 -241.725808 
L 303.04646 -243.339297 
L 303.580598 -244.952786 
L 304.066719 -246.566276 
L 304.503177 -248.179765 
L 304.890483 -249.793254 
L 305.230871 -251.406743 
L 305.527718 -253.020233 
L 305.784976 -254.633722 
L 306.00668 -256.247211 
L 306.196631 -257.8607 
L 306.35823 -259.47419 
L 306.494471 -261.087679 
L 306.608012 -262.701168 
L 306.701296 -264.314657 
L 306.77665 -265.928147 
L 306.836354 -267.541636 
L 306.882654 -269.155125 
L 306.917734 -270.768614 
L 307.082266 -270.768614 
L 307.082266 -270.768614 
L 307.117346 -269.155125 
L 307.163646 -267.541636 
L 307.22335 -265.928147 
L 307.298704 -264.314657 
L 307.391988 -262.701168 
L 307.505529 -261.087679 
L 307.64177 -259.47419 
L 307.803369 -257.8607 
L 307.99332 -256.247211 
L 308.215024 -254.633722 
L 308.472282 -253.020233 
L 308.769129 -251.406743 
L 309.109517 -249.793254 
L 309.496823 -248.179765 
L 309.933281 -246.566276 
L 310.419402 -244.952786 
L 310.95354 -243.339297 
L 311.5317 -241.725808 
L 312.14769 -240.112319 
L 312.793623 -238.498829 
L 313.46071 -236.88534 
L 314.140207 -235.271851 
L 314.824346 -233.658362 
L 315.507048 -232.044872 
L 316.184302 -230.431383 
L 316.854128 -228.817894 
L 317.516183 -227.204405 
L 318.171129 -225.590916 
L 318.819945 -223.977426 
L 319.463391 -222.363937 
L 320.10175 -220.750448 
L 320.73491 -219.136959 
L 321.362722 -217.523469 
L 321.985456 -215.90998 
L 322.604136 -214.296491 
L 323.22049 -212.683002 
L 323.836365 -211.069512 
L 324.452556 -209.456023 
L 325.067182 -207.842534 
L 325.673911 -206.229045 
L 326.260453 -204.615555 
L 326.807777 -203.002066 
L 327.290414 -201.388577 
L 327.678041 -199.775088 
L 327.938281 -198.161598 
L 328.040363 -196.548109 
L 327.959095 -194.93462 
L 327.678464 -193.321131 
L 327.194218 -191.707642 
L 326.514946 -190.094152 
L 325.661468 -188.480663 
L 324.664631 -186.867174 
L 323.56194 -185.253685 
L 322.393621 -183.640195 
L 321.198791 -182.026706 
L 320.012307 -180.413217 
L 318.862711 -178.799728 
L 317.771379 -177.186238 
L 316.75279 -175.572749 
L 315.815561 -173.95926 
L 314.963878 -172.345771 
L 314.198884 -170.732281 
L 313.519734 -169.118792 
L 312.924158 -167.505303 
L 312.408548 -165.891814 
L 311.967734 -164.278324 
L 311.594684 -162.664835 
L 311.280381 -161.051346 
L 311.014069 -159.437857 
L 310.783938 -157.824367 
L 310.578198 -156.210878 
L 310.386357 -154.597389 
L 310.200441 -152.9839 
L 310.015892 -151.370411 
L 309.83191 -149.756921 
L 309.651135 -148.143432 
L 309.4787 -146.529943 
L 309.32082 -144.916454 
L 309.183184 -143.302964 
L 309.06948 -141.689475 
L 308.980347 -140.075986 
L 308.912941 -138.462497 
L 308.861224 -136.849007 
L 308.816866 -135.235518 
L 308.7706 -133.622029 
L 308.71372 -132.00854 
L 308.639449 -130.39505 
L 308.543916 -128.781561 
L 308.426592 -127.168072 
L 308.290145 -125.554583 
L 308.139805 -123.941093 
L 307.982393 -122.327604 
L 307.825236 -120.714115 
L 307.675159 -119.100626 
L 307.537719 -117.487136 
L 307.416748 -115.873647 
L 307.314235 -114.260158 
L 307.230475 -112.646669 
L 307.16441 -111.03318 
z
" style="stroke: #3d3d3d; stroke-width: 2"/>
    </defs>
    <g clip-path="url(#p93bb8e9c3c)">
     <use xlink:href="#m7c6fad18c6" x="0" y="360" style="fill: #c03d3e; stroke: #3d3d3d; stroke-width: 2"/>
    </g>
   </g>
   <g id="PolyCollection_5">
    <defs>
     <path id="m54a7f8a4ea" d="M 369.058301 -85.037512 
L 368.941699 -85.037512 
L 368.915263 -87.206284 
L 368.881508 -89.375056 
L 368.840583 -91.543827 
L 368.793642 -93.712599 
L 368.742975 -95.88137 
L 368.691937 -98.050142 
L 368.644624 -100.218914 
L 368.605306 -102.387685 
L 368.577722 -104.556457 
L 368.564356 -106.725229 
L 368.565877 -108.894 
L 368.58087 -111.062772 
L 368.605949 -113.231544 
L 368.636235 -115.400315 
L 368.666106 -117.569087 
L 368.690076 -119.737858 
L 368.703628 -121.90663 
L 368.703862 -124.075402 
L 368.689821 -126.244173 
L 368.662465 -128.412945 
L 368.624264 -130.581717 
L 368.578491 -132.750488 
L 368.528321 -134.91926 
L 368.475912 -137.088031 
L 368.421646 -139.256803 
L 368.363717 -141.425575 
L 368.298179 -143.594346 
L 368.219462 -145.763118 
L 368.121273 -147.93189 
L 367.997688 -150.100661 
L 367.84419 -152.269433 
L 367.658435 -154.438204 
L 367.440547 -156.606976 
L 367.192856 -158.775748 
L 366.919067 -160.944519 
L 366.622969 -163.113291 
L 366.306854 -165.282063 
L 365.96993 -167.450834 
L 365.607084 -169.619606 
L 365.208387 -171.788378 
L 364.759682 -173.957149 
L 364.244453 -176.125921 
L 363.646874 -178.294692 
L 362.955602 -180.463464 
L 362.167531 -182.632236 
L 361.290576 -184.801007 
L 360.344619 -186.969779 
L 359.3601 -189.138551 
L 358.374336 -191.307322 
L 357.426199 -193.476094 
L 356.550306 -195.644865 
L 355.771961 -197.813637 
L 355.103956 -199.982409 
L 354.545821 -202.15118 
L 354.08554 -204.319952 
L 353.703223 -206.488724 
L 353.375887 -208.657495 
L 353.082454 -210.826267 
L 352.808152 -212.995038 
L 352.547736 -215.16381 
L 352.307164 -217.332582 
L 352.103498 -219.501353 
L 351.962977 -221.670125 
L 351.917376 -223.838897 
L 351.999012 -226.007668 
L 352.235071 -228.17644 
L 352.6422 -230.345212 
L 353.222447 -232.513983 
L 353.961488 -234.682755 
L 354.829712 -236.851526 
L 355.786105 -239.020298 
L 356.784234 -241.18907 
L 357.779125 -243.357841 
L 358.733564 -245.526613 
L 359.622565 -247.695385 
L 360.435142 -249.864156 
L 361.173259 -252.032928 
L 361.848446 -254.201699 
L 362.477087 -256.370471 
L 363.075589 -258.539243 
L 363.656488 -260.708014 
L 364.226219 -262.876786 
L 364.784732 -265.045558 
L 365.326692 -267.214329 
L 365.84366 -269.383101 
L 366.326515 -271.551872 
L 366.767511 -273.720644 
L 367.161556 -275.889416 
L 367.506627 -278.058187 
L 367.803465 -280.226959 
L 368.054843 -282.395731 
L 368.264724 -284.564502 
L 368.437551 -286.733274 
L 368.577778 -288.902046 
L 368.68965 -291.070817 
L 368.777154 -293.239589 
L 368.844038 -295.40836 
L 368.893835 -297.577132 
L 368.929841 -299.745904 
L 369.070159 -299.745904 
L 369.070159 -299.745904 
L 369.106165 -297.577132 
L 369.155962 -295.40836 
L 369.222846 -293.239589 
L 369.31035 -291.070817 
L 369.422222 -288.902046 
L 369.562449 -286.733274 
L 369.735276 -284.564502 
L 369.945157 -282.395731 
L 370.196535 -280.226959 
L 370.493373 -278.058187 
L 370.838444 -275.889416 
L 371.232489 -273.720644 
L 371.673485 -271.551872 
L 372.15634 -269.383101 
L 372.673308 -267.214329 
L 373.215268 -265.045558 
L 373.773781 -262.876786 
L 374.343512 -260.708014 
L 374.924411 -258.539243 
L 375.522913 -256.370471 
L 376.151554 -254.201699 
L 376.826741 -252.032928 
L 377.564858 -249.864156 
L 378.377435 -247.695385 
L 379.266436 -245.526613 
L 380.220875 -243.357841 
L 381.215766 -241.18907 
L 382.213895 -239.020298 
L 383.170288 -236.851526 
L 384.038512 -234.682755 
L 384.777553 -232.513983 
L 385.3578 -230.345212 
L 385.764929 -228.17644 
L 386.000988 -226.007668 
L 386.082624 -223.838897 
L 386.037023 -221.670125 
L 385.896502 -219.501353 
L 385.692836 -217.332582 
L 385.452264 -215.16381 
L 385.191848 -212.995038 
L 384.917546 -210.826267 
L 384.624113 -208.657495 
L 384.296777 -206.488724 
L 383.91446 -204.319952 
L 383.454179 -202.15118 
L 382.896044 -199.982409 
L 382.228039 -197.813637 
L 381.449694 -195.644865 
L 380.573801 -193.476094 
L 379.625664 -191.307322 
L 378.6399 -189.138551 
L 377.655381 -186.969779 
L 376.709424 -184.801007 
L 375.832469 -182.632236 
L 375.044398 -180.463464 
L 374.353126 -178.294692 
L 373.755547 -176.125921 
L 373.240318 -173.957149 
L 372.791613 -171.788378 
L 372.392916 -169.619606 
L 372.03007 -167.450834 
L 371.693146 -165.282063 
L 371.377031 -163.113291 
L 371.080933 -160.944519 
L 370.807144 -158.775748 
L 370.559453 -156.606976 
L 370.341565 -154.438204 
L 370.15581 -152.269433 
L 370.002312 -150.100661 
L 369.878727 -147.93189 
L 369.780538 -145.763118 
L 369.701821 -143.594346 
L 369.636283 -141.425575 
L 369.578354 -139.256803 
L 369.524088 -137.088031 
L 369.471679 -134.91926 
L 369.421509 -132.750488 
L 369.375736 -130.581717 
L 369.337535 -128.412945 
L 369.310179 -126.244173 
L 369.296138 -124.075402 
L 369.296372 -121.90663 
L 369.309924 -119.737858 
L 369.333894 -117.569087 
L 369.363765 -115.400315 
L 369.394051 -113.231544 
L 369.41913 -111.062772 
L 369.434123 -108.894 
L 369.435644 -106.725229 
L 369.422278 -104.556457 
L 369.394694 -102.387685 
L 369.355376 -100.218914 
L 369.308063 -98.050142 
L 369.257025 -95.88137 
L 369.206358 -93.712599 
L 369.159417 -91.543827 
L 369.118492 -89.375056 
L 369.084737 -87.206284 
L 369.058301 -85.037512 
z
" style="stroke: #3d3d3d; stroke-width: 2"/>
    </defs>
    <g clip-path="url(#p93bb8e9c3c)">
     <use xlink:href="#m54a7f8a4ea" x="0" y="360" style="fill: #9372b2; stroke: #3d3d3d; stroke-width: 2"/>
    </g>
   </g>
   <g id="PolyCollection_6">
    <defs>
     <path id="m67218dce3d" d="M 431.067601 -105.828878 
L 430.932399 -105.828878 
L 430.902897 -107.674829 
L 430.864585 -109.52078 
L 430.81652 -111.366732 
L 430.758233 -113.212683 
L 430.689852 -115.058634 
L 430.612158 -116.904585 
L 430.526535 -118.750537 
L 430.43484 -120.596488 
L 430.339204 -122.442439 
L 430.241815 -124.28839 
L 430.144737 -126.134342 
L 430.049801 -127.980293 
L 429.958573 -129.826244 
L 429.872369 -131.672195 
L 429.792276 -133.518147 
L 429.719112 -135.364098 
L 429.653278 -137.210049 
L 429.594492 -139.056 
L 429.541439 -140.901952 
L 429.491397 -142.747903 
L 429.43992 -144.593854 
L 429.380658 -146.439805 
L 429.305345 -148.285757 
L 429.203964 -150.131708 
L 429.065042 -151.977659 
L 428.876022 -153.82361 
L 428.623674 -155.669562 
L 428.29456 -157.515513 
L 427.875593 -159.361464 
L 427.354821 -161.207415 
L 426.722511 -163.053367 
L 425.972567 -164.899318 
L 425.104196 -166.745269 
L 424.123559 -168.59122 
L 423.045053 -170.437172 
L 421.891801 -172.283123 
L 420.695026 -174.129074 
L 419.492141 -175.975026 
L 418.323688 -177.820977 
L 417.22949 -179.666928 
L 416.244603 -181.512879 
L 415.395718 -183.358831 
L 414.698595 -185.204782 
L 414.156916 -187.050733 
L 413.762727 -188.896684 
L 413.498346 -190.742636 
L 413.339449 -192.588587 
L 413.258892 -194.434538 
L 413.230757 -196.280489 
L 413.234079 -198.126441 
L 413.25576 -199.972392 
L 413.292204 -201.818343 
L 413.349416 -203.664294 
L 413.441464 -205.510246 
L 413.587547 -207.356197 
L 413.808145 -209.202148 
L 414.120978 -211.048099 
L 414.537527 -212.894051 
L 415.060791 -214.740002 
L 415.684633 -216.585953 
L 416.394745 -218.431904 
L 417.170872 -220.277856 
L 417.989719 -222.123807 
L 418.827887 -223.969758 
L 419.66428 -225.815709 
L 420.481654 -227.661661 
L 421.267224 -229.507612 
L 422.012496 -231.353563 
L 422.71261 -233.199514 
L 423.365525 -235.045466 
L 423.971284 -236.891417 
L 424.531483 -238.737368 
L 425.048934 -240.583319 
L 425.527416 -242.429271 
L 425.971394 -244.275222 
L 426.385623 -246.121173 
L 426.774645 -247.967124 
L 427.142268 -249.813076 
L 427.491165 -251.659027 
L 427.822702 -253.504978 
L 428.137072 -255.350929 
L 428.433676 -257.196881 
L 428.711645 -259.042832 
L 428.970343 -260.888783 
L 429.209698 -262.734734 
L 429.430305 -264.580686 
L 429.633277 -266.426637 
L 429.819945 -268.272588 
L 429.991517 -270.118539 
L 430.148808 -271.964491 
L 430.292133 -273.810442 
L 430.421364 -275.656393 
L 430.536123 -277.502345 
L 430.636052 -279.348296 
L 430.721056 -281.194247 
L 430.79148 -283.040198 
L 430.848174 -284.88615 
L 430.892447 -286.732101 
L 430.925941 -288.578052 
L 431.074059 -288.578052 
L 431.074059 -288.578052 
L 431.107553 -286.732101 
L 431.151826 -284.88615 
L 431.20852 -283.040198 
L 431.278944 -281.194247 
L 431.363948 -279.348296 
L 431.463877 -277.502345 
L 431.578636 -275.656393 
L 431.707867 -273.810442 
L 431.851192 -271.964491 
L 432.008483 -270.118539 
L 432.180055 -268.272588 
L 432.366723 -266.426637 
L 432.569695 -264.580686 
L 432.790302 -262.734734 
L 433.029657 -260.888783 
L 433.288355 -259.042832 
L 433.566324 -257.196881 
L 433.862928 -255.350929 
L 434.177298 -253.504978 
L 434.508835 -251.659027 
L 434.857732 -249.813076 
L 435.225355 -247.967124 
L 435.614377 -246.121173 
L 436.028606 -244.275222 
L 436.472584 -242.429271 
L 436.951066 -240.583319 
L 437.468517 -238.737368 
L 438.028716 -236.891417 
L 438.634475 -235.045466 
L 439.28739 -233.199514 
L 439.987504 -231.353563 
L 440.732776 -229.507612 
L 441.518346 -227.661661 
L 442.33572 -225.815709 
L 443.172113 -223.969758 
L 444.010281 -222.123807 
L 444.829128 -220.277856 
L 445.605255 -218.431904 
L 446.315367 -216.585953 
L 446.939209 -214.740002 
L 447.462473 -212.894051 
L 447.879022 -211.048099 
L 448.191855 -209.202148 
L 448.412453 -207.356197 
L 448.558536 -205.510246 
L 448.650584 -203.664294 
L 448.707796 -201.818343 
L 448.74424 -199.972392 
L 448.765921 -198.126441 
L 448.769243 -196.280489 
L 448.741108 -194.434538 
L 448.660551 -192.588587 
L 448.501654 -190.742636 
L 448.237273 -188.896684 
L 447.843084 -187.050733 
L 447.301405 -185.204782 
L 446.604282 -183.358831 
L 445.755397 -181.512879 
L 444.77051 -179.666928 
L 443.676312 -177.820977 
L 442.507859 -175.975026 
L 441.304974 -174.129074 
L 440.108199 -172.283123 
L 438.954947 -170.437172 
L 437.876441 -168.59122 
L 436.895804 -166.745269 
L 436.027433 -164.899318 
L 435.277489 -163.053367 
L 434.645179 -161.207415 
L 434.124407 -159.361464 
L 433.70544 -157.515513 
L 433.376326 -155.669562 
L 433.123978 -153.82361 
L 432.934958 -151.977659 
L 432.796036 -150.131708 
L 432.694655 -148.285757 
L 432.619342 -146.439805 
L 432.56008 -144.593854 
L 432.508603 -142.747903 
L 432.458561 -140.901952 
L 432.405508 -139.056 
L 432.346722 -137.210049 
L 432.280888 -135.364098 
L 432.207724 -133.518147 
L 432.127631 -131.672195 
L 432.041427 -129.826244 
L 431.950199 -127.980293 
L 431.855263 -126.134342 
L 431.758185 -124.28839 
L 431.660796 -122.442439 
L 431.56516 -120.596488 
L 431.473465 -118.750537 
L 431.387842 -116.904585 
L 431.310148 -115.058634 
L 431.241767 -113.212683 
L 431.18348 -111.366732 
L 431.135415 -109.52078 
L 431.097103 -107.674829 
L 431.067601 -105.828878 
z
" style="stroke: #3d3d3d; stroke-width: 2"/>
    </defs>
    <g clip-path="url(#p93bb8e9c3c)">
     <use xlink:href="#m67218dce3d" x="0" y="360" style="fill: #845b53; stroke: #3d3d3d; stroke-width: 2"/>
    </g>
   </g>
   <g id="PolyCollection_7">
    <defs>
     <path id="ma9965cbd09" d="M 493.084434 -73.95388 
L 492.915566 -73.95388 
L 492.87594 -75.838087 
L 492.823344 -77.722294 
L 492.756103 -79.606501 
L 492.673338 -81.490708 
L 492.575287 -83.374915 
L 492.463528 -85.259122 
L 492.340986 -87.143329 
L 492.2117 -89.027536 
L 492.080296 -90.911743 
L 491.95124 -92.79595 
L 491.827945 -94.680157 
L 491.711879 -96.564364 
L 491.60184 -98.448571 
L 491.493545 -100.332778 
L 491.379643 -102.216985 
L 491.250224 -104.101192 
L 491.093804 -105.985399 
L 490.898711 -107.869606 
L 490.654711 -109.753813 
L 490.354658 -111.63802 
L 489.995899 -113.522227 
L 489.581161 -115.406434 
L 489.118663 -117.290641 
L 488.621328 -119.174848 
L 488.105076 -121.059055 
L 487.586396 -122.943262 
L 487.079559 -124.827469 
L 486.593942 -126.711676 
L 486.131994 -128.595883 
L 485.688265 -130.480089 
L 485.249741 -132.364296 
L 484.797492 -134.248503 
L 484.309387 -136.13271 
L 483.763462 -138.016917 
L 483.141387 -139.901124 
L 482.431548 -141.785331 
L 481.631304 -143.669538 
L 480.748173 -145.553745 
L 479.799839 -147.437952 
L 478.813046 -149.322159 
L 477.821572 -151.206366 
L 476.863502 -153.090573 
L 475.978113 -154.97478 
L 475.202609 -156.858987 
L 474.568991 -158.743194 
L 474.101293 -160.627401 
L 473.81347 -162.511608 
L 473.708193 -164.395815 
L 473.776825 -166.280022 
L 474.000736 -168.164229 
L 474.353949 -170.048436 
L 474.806836 -171.932643 
L 475.330333 -173.81685 
L 475.899929 -175.701057 
L 476.498659 -177.585264 
L 477.118505 -179.469471 
L 477.759956 -181.353678 
L 478.429908 -183.237885 
L 479.138458 -185.122092 
L 479.895359 -187.006299 
L 480.706902 -188.890506 
L 481.573769 -190.774713 
L 482.490099 -192.65892 
L 483.443703 -194.543127 
L 484.417153 -196.427334 
L 485.389411 -198.311541 
L 486.337705 -200.195748 
L 487.239464 -202.079955 
L 488.074192 -203.964162 
L 488.825184 -205.848369 
L 489.480955 -207.732576 
L 490.036212 -209.616783 
L 490.492162 -211.50099 
L 490.856043 -213.385197 
L 491.139863 -215.269404 
L 491.35855 -217.153611 
L 491.527804 -219.037818 
L 491.662095 -220.922024 
L 491.773161 -222.806231 
L 491.869265 -224.690438 
L 491.955264 -226.574645 
L 492.03335 -228.458852 
L 492.104157 -230.343059 
L 492.167898 -232.227266 
L 492.225222 -234.111473 
L 492.277609 -235.99568 
L 492.327285 -237.879887 
L 492.376774 -239.764094 
L 492.428287 -241.648301 
L 492.483189 -243.532508 
L 492.541671 -245.416715 
L 492.602749 -247.300922 
L 492.664519 -249.185129 
L 492.724603 -251.069336 
L 492.780634 -252.953543 
L 492.830671 -254.83775 
L 492.873458 -256.721957 
L 492.908507 -258.606164 
L 492.936029 -260.490371 
L 493.063971 -260.490371 
L 493.063971 -260.490371 
L 493.091493 -258.606164 
L 493.126542 -256.721957 
L 493.169329 -254.83775 
L 493.219366 -252.953543 
L 493.275397 -251.069336 
L 493.335481 -249.185129 
L 493.397251 -247.300922 
L 493.458329 -245.416715 
L 493.516811 -243.532508 
L 493.571713 -241.648301 
L 493.623226 -239.764094 
L 493.672715 -237.879887 
L 493.722391 -235.99568 
L 493.774778 -234.111473 
L 493.832102 -232.227266 
L 493.895843 -230.343059 
L 493.96665 -228.458852 
L 494.044736 -226.574645 
L 494.130735 -224.690438 
L 494.226839 -222.806231 
L 494.337905 -220.922024 
L 494.472196 -219.037818 
L 494.64145 -217.153611 
L 494.860137 -215.269404 
L 495.143957 -213.385197 
L 495.507838 -211.50099 
L 495.963788 -209.616783 
L 496.519045 -207.732576 
L 497.174816 -205.848369 
L 497.925808 -203.964162 
L 498.760536 -202.079955 
L 499.662295 -200.195748 
L 500.610589 -198.311541 
L 501.582847 -196.427334 
L 502.556297 -194.543127 
L 503.509901 -192.65892 
L 504.426231 -190.774713 
L 505.293098 -188.890506 
L 506.104641 -187.006299 
L 506.861542 -185.122092 
L 507.570092 -183.237885 
L 508.240044 -181.353678 
L 508.881495 -179.469471 
L 509.501341 -177.585264 
L 510.100071 -175.701057 
L 510.669667 -173.81685 
L 511.193164 -171.932643 
L 511.646051 -170.048436 
L 511.999264 -168.164229 
L 512.223175 -166.280022 
L 512.291807 -164.395815 
L 512.18653 -162.511608 
L 511.898707 -160.627401 
L 511.431009 -158.743194 
L 510.797391 -156.858987 
L 510.021887 -154.97478 
L 509.136498 -153.090573 
L 508.178428 -151.206366 
L 507.186954 -149.322159 
L 506.200161 -147.437952 
L 505.251827 -145.553745 
L 504.368696 -143.669538 
L 503.568452 -141.785331 
L 502.858613 -139.901124 
L 502.236538 -138.016917 
L 501.690613 -136.13271 
L 501.202508 -134.248503 
L 500.750259 -132.364296 
L 500.311735 -130.480089 
L 499.868006 -128.595883 
L 499.406058 -126.711676 
L 498.920441 -124.827469 
L 498.413604 -122.943262 
L 497.894924 -121.059055 
L 497.378672 -119.174848 
L 496.881337 -117.290641 
L 496.418839 -115.406434 
L 496.004101 -113.522227 
L 495.645342 -111.63802 
L 495.345289 -109.753813 
L 495.101289 -107.869606 
L 494.906196 -105.985399 
L 494.749776 -104.101192 
L 494.620357 -102.216985 
L 494.506455 -100.332778 
L 494.39816 -98.448571 
L 494.288121 -96.564364 
L 494.172055 -94.680157 
L 494.04876 -92.79595 
L 493.919704 -90.911743 
L 493.7883 -89.027536 
L 493.659014 -87.143329 
L 493.536472 -85.259122 
L 493.424713 -83.374915 
L 493.326662 -81.490708 
L 493.243897 -79.606501 
L 493.176656 -77.722294 
L 493.12406 -75.838087 
L 493.084434 -73.95388 
z
" style="stroke: #3d3d3d; stroke-width: 2"/>
    </defs>
    <g clip-path="url(#p93bb8e9c3c)">
     <use xlink:href="#ma9965cbd09" x="0" y="360" style="fill: #d684bd; stroke: #3d3d3d; stroke-width: 2"/>
    </g>
   </g>
   <g id="PolyCollection_8">
    <defs>
     <path id="m27cb9d55b1" d="M 555.086051 -57.354545 
L 554.913949 -57.354545 
L 554.876451 -58.804762 
L 554.827997 -60.254978 
L 554.767695 -61.705195 
L 554.695461 -63.155411 
L 554.612245 -64.605627 
L 554.520162 -66.055844 
L 554.422469 -67.50606 
L 554.323398 -68.956277 
L 554.227825 -70.406493 
L 554.14085 -71.856709 
L 554.067313 -73.306926 
L 554.011325 -74.757142 
L 553.97583 -76.207358 
L 553.962238 -77.657575 
L 553.970113 -79.107791 
L 553.996914 -80.558008 
L 554.037796 -82.008224 
L 554.085471 -83.45844 
L 554.130173 -84.908657 
L 554.159756 -86.358873 
L 554.159985 -87.80909 
L 554.115055 -89.259306 
L 554.008358 -90.709522 
L 553.823521 -92.159739 
L 553.545661 -93.609955 
L 553.162787 -95.060171 
L 552.667214 -96.510388 
L 552.056822 -97.960604 
L 551.335929 -99.410821 
L 550.51562 -100.861037 
L 549.613355 -102.311253 
L 548.651835 -103.76147 
L 547.657165 -105.211686 
L 546.656486 -106.661902 
L 545.675332 -108.112119 
L 544.734987 -109.562335 
L 543.850157 -111.012552 
L 543.027218 -112.462768 
L 542.263297 -113.912984 
L 541.546369 -115.363201 
L 540.856513 -116.813417 
L 540.168341 -118.263634 
L 539.454492 -119.71385 
L 538.689871 -121.164066 
L 537.856129 -122.614283 
L 536.945759 -124.064499 
L 535.965088 -125.514715 
L 534.935604 -126.964932 
L 533.893242 -128.415148 
L 532.885581 -129.865365 
L 531.967267 -131.315581 
L 531.194246 -132.765797 
L 530.617587 -134.216014 
L 530.277741 -135.66623 
L 530.2 -137.116447 
L 530.391747 -138.566663 
L 530.841841 -140.016879 
L 531.522187 -141.467096 
L 532.391254 -142.917312 
L 533.399026 -144.367528 
L 534.492677 -145.817745 
L 535.622176 -147.267961 
L 536.745027 -148.718178 
L 537.829541 -150.168394 
L 538.856256 -151.61861 
L 539.817484 -153.068827 
L 540.715255 -154.519043 
L 541.558207 -155.96926 
L 542.358078 -157.419476 
L 543.126494 -158.869692 
L 543.87256 -160.319909 
L 544.601565 -161.770125 
L 545.314835 -163.220341 
L 546.010495 -164.670558 
L 546.684805 -166.120774 
L 547.333608 -167.570991 
L 547.953547 -169.021207 
L 548.542803 -170.471423 
L 549.101284 -171.92164 
L 549.630339 -173.371856 
L 550.132178 -174.822072 
L 550.609203 -176.272289 
L 551.063428 -177.722505 
L 551.496097 -179.172722 
L 551.907531 -180.622938 
L 552.297172 -182.073154 
L 552.663769 -183.523371 
L 553.005625 -184.973587 
L 553.320871 -186.423804 
L 553.607731 -187.87402 
L 553.864762 -189.324236 
L 554.091065 -190.774453 
L 554.286453 -192.224669 
L 554.451554 -193.674885 
L 554.587836 -195.125102 
L 554.697539 -196.575318 
L 554.783521 -198.025535 
L 554.849049 -199.475751 
L 554.897552 -200.925967 
L 555.102448 -200.925967 
L 555.102448 -200.925967 
L 555.150951 -199.475751 
L 555.216479 -198.025535 
L 555.302461 -196.575318 
L 555.412164 -195.125102 
L 555.548446 -193.674885 
L 555.713547 -192.224669 
L 555.908935 -190.774453 
L 556.135238 -189.324236 
L 556.392269 -187.87402 
L 556.679129 -186.423804 
L 556.994375 -184.973587 
L 557.336231 -183.523371 
L 557.702828 -182.073154 
L 558.092469 -180.622938 
L 558.503903 -179.172722 
L 558.936572 -177.722505 
L 559.390797 -176.272289 
L 559.867822 -174.822072 
L 560.369661 -173.371856 
L 560.898716 -171.92164 
L 561.457197 -170.471423 
L 562.046453 -169.021207 
L 562.666392 -167.570991 
L 563.315195 -166.120774 
L 563.989505 -164.670558 
L 564.685165 -163.220341 
L 565.398435 -161.770125 
L 566.12744 -160.319909 
L 566.873506 -158.869692 
L 567.641922 -157.419476 
L 568.441793 -155.96926 
L 569.284745 -154.519043 
L 570.182516 -153.068827 
L 571.143744 -151.61861 
L 572.170459 -150.168394 
L 573.254973 -148.718178 
L 574.377824 -147.267961 
L 575.507323 -145.817745 
L 576.600974 -144.367528 
L 577.608746 -142.917312 
L 578.477813 -141.467096 
L 579.158159 -140.016879 
L 579.608253 -138.566663 
L 579.8 -137.116447 
L 579.722259 -135.66623 
L 579.382413 -134.216014 
L 578.805754 -132.765797 
L 578.032733 -131.315581 
L 577.114419 -129.865365 
L 576.106758 -128.415148 
L 575.064396 -126.964932 
L 574.034912 -125.514715 
L 573.054241 -124.064499 
L 572.143871 -122.614283 
L 571.310129 -121.164066 
L 570.545508 -119.71385 
L 569.831659 -118.263634 
L 569.143487 -116.813417 
L 568.453631 -115.363201 
L 567.736703 -113.912984 
L 566.972782 -112.462768 
L 566.149843 -111.012552 
L 565.265013 -109.562335 
L 564.324668 -108.112119 
L 563.343514 -106.661902 
L 562.342835 -105.211686 
L 561.348165 -103.76147 
L 560.386645 -102.311253 
L 559.48438 -100.861037 
L 558.664071 -99.410821 
L 557.943178 -97.960604 
L 557.332786 -96.510388 
L 556.837213 -95.060171 
L 556.454339 -93.609955 
L 556.176479 -92.159739 
L 555.991642 -90.709522 
L 555.884945 -89.259306 
L 555.840015 -87.80909 
L 555.840244 -86.358873 
L 555.869827 -84.908657 
L 555.914529 -83.45844 
L 555.962204 -82.008224 
L 556.003086 -80.558008 
L 556.029887 -79.107791 
L 556.037762 -77.657575 
L 556.02417 -76.207358 
L 555.988675 -74.757142 
L 555.932687 -73.306926 
L 555.85915 -71.856709 
L 555.772175 -70.406493 
L 555.676602 -68.956277 
L 555.577531 -67.50606 
L 555.479838 -66.055844 
L 555.387755 -64.605627 
L 555.304539 -63.155411 
L 555.232305 -61.705195 
L 555.172003 -60.254978 
L 555.123549 -58.804762 
L 555.086051 -57.354545 
z
" style="stroke: #3d3d3d; stroke-width: 2"/>
    </defs>
    <g clip-path="url(#p93bb8e9c3c)">
     <use xlink:href="#m27cb9d55b1" x="0" y="360" style="fill: #7f7f7f; stroke: #3d3d3d; stroke-width: 2"/>
    </g>
   </g>
   <g id="PolyCollection_9">
    <defs>
     <path id="mb651c5fa45" d="M 617.124559 -103.147361 
L 616.875441 -103.147361 
L 616.821603 -104.781487 
L 616.750413 -106.415613 
L 616.658721 -108.04974 
L 616.543638 -109.683866 
L 616.402819 -111.317993 
L 616.234741 -112.952119 
L 616.038936 -114.586246 
L 615.816144 -116.220372 
L 615.56835 -117.854499 
L 615.298686 -119.488625 
L 615.011193 -121.122751 
L 614.710448 -122.756878 
L 614.401071 -124.391004 
L 614.08715 -126.025131 
L 613.771633 -127.659257 
L 613.455736 -129.293384 
L 613.138451 -130.92751 
L 612.816234 -132.561637 
L 612.48295 -134.195763 
L 612.130157 -135.829889 
L 611.74775 -137.464016 
L 611.324969 -139.098142 
L 610.851686 -140.732269 
L 610.319859 -142.366395 
L 609.724965 -144.000522 
L 609.067203 -145.634648 
L 608.352287 -147.268775 
L 607.591622 -148.902901 
L 606.801768 -150.537027 
L 606.003165 -152.171154 
L 605.218177 -153.80528 
L 604.468658 -155.439407 
L 603.773346 -157.073533 
L 603.145442 -158.70766 
L 602.590807 -160.341786 
L 602.107115 -161.975913 
L 601.684212 -163.610039 
L 601.305731 -165.244165 
L 600.951792 -166.878292 
L 600.60242 -168.512418 
L 600.24115 -170.146545 
L 599.858264 -171.780671 
L 599.453141 -173.414798 
L 599.035346 -175.048924 
L 598.62432 -176.683051 
L 598.247697 -178.317177 
L 597.938523 -179.951303 
L 597.731716 -181.58543 
L 597.660229 -183.219556 
L 597.751354 -184.853683 
L 598.023567 -186.487809 
L 598.484261 -188.121936 
L 599.128593 -189.756062 
L 599.939556 -191.390189 
L 600.889279 -193.024315 
L 601.941382 -194.658441 
L 603.054123 -196.292568 
L 604.183974 -197.926694 
L 605.289214 -199.560821 
L 606.333155 -201.194947 
L 607.286687 -202.829074 
L 608.129923 -204.4632 
L 608.852872 -206.097327 
L 609.455166 -207.731453 
L 609.944968 -209.365579 
L 610.337267 -210.999706 
L 610.651772 -212.633832 
L 610.910654 -214.267959 
L 611.13633 -215.902085 
L 611.349501 -217.536212 
L 611.567571 -219.170338 
L 611.803551 -220.804465 
L 612.065494 -222.438591 
L 612.356449 -224.072718 
L 612.674884 -225.706844 
L 613.015485 -227.34097 
L 613.370224 -228.975097 
L 613.729545 -230.609223 
L 614.083571 -232.24335 
L 614.423178 -233.877476 
L 614.740857 -235.511603 
L 615.03129 -237.145729 
L 615.291583 -238.779856 
L 615.521191 -240.413982 
L 615.721559 -242.048108 
L 615.895566 -243.682235 
L 616.046886 -245.316361 
L 616.17936 -246.950488 
L 616.296483 -248.584614 
L 616.401063 -250.218741 
L 616.495073 -251.852867 
L 616.57969 -253.486994 
L 616.655459 -255.12112 
L 616.722534 -256.755246 
L 616.780923 -258.389373 
L 616.830692 -260.023499 
L 616.872102 -261.657626 
L 616.905662 -263.291752 
L 616.932115 -264.925879 
L 617.067885 -264.925879 
L 617.067885 -264.925879 
L 617.094338 -263.291752 
L 617.127898 -261.657626 
L 617.169308 -260.023499 
L 617.219077 -258.389373 
L 617.277466 -256.755246 
L 617.344541 -255.12112 
L 617.42031 -253.486994 
L 617.504927 -251.852867 
L 617.598937 -250.218741 
L 617.703517 -248.584614 
L 617.82064 -246.950488 
L 617.953114 -245.316361 
L 618.104434 -243.682235 
L 618.278441 -242.048108 
L 618.478809 -240.413982 
L 618.708417 -238.779856 
L 618.96871 -237.145729 
L 619.259143 -235.511603 
L 619.576822 -233.877476 
L 619.916429 -232.24335 
L 620.270455 -230.609223 
L 620.629776 -228.975097 
L 620.984515 -227.34097 
L 621.325116 -225.706844 
L 621.643551 -224.072718 
L 621.934506 -222.438591 
L 622.196449 -220.804465 
L 622.432429 -219.170338 
L 622.650499 -217.536212 
L 622.86367 -215.902085 
L 623.089346 -214.267959 
L 623.348228 -212.633832 
L 623.662733 -210.999706 
L 624.055032 -209.365579 
L 624.544834 -207.731453 
L 625.147128 -206.097327 
L 625.870077 -204.4632 
L 626.713313 -202.829074 
L 627.666845 -201.194947 
L 628.710786 -199.560821 
L 629.816026 -197.926694 
L 630.945877 -196.292568 
L 632.058618 -194.658441 
L 633.110721 -193.024315 
L 634.060444 -191.390189 
L 634.871407 -189.756062 
L 635.515739 -188.121936 
L 635.976433 -186.487809 
L 636.248646 -184.853683 
L 636.339771 -183.219556 
L 636.268284 -181.58543 
L 636.061477 -179.951303 
L 635.752303 -178.317177 
L 635.37568 -176.683051 
L 634.964654 -175.048924 
L 634.546859 -173.414798 
L 634.141736 -171.780671 
L 633.75885 -170.146545 
L 633.39758 -168.512418 
L 633.048208 -166.878292 
L 632.694269 -165.244165 
L 632.315788 -163.610039 
L 631.892885 -161.975913 
L 631.409193 -160.341786 
L 630.854558 -158.70766 
L 630.226654 -157.073533 
L 629.531342 -155.439407 
L 628.781823 -153.80528 
L 627.996835 -152.171154 
L 627.198232 -150.537027 
L 626.408378 -148.902901 
L 625.647713 -147.268775 
L 624.932797 -145.634648 
L 624.275035 -144.000522 
L 623.680141 -142.366395 
L 623.148314 -140.732269 
L 622.675031 -139.098142 
L 622.25225 -137.464016 
L 621.869843 -135.829889 
L 621.51705 -134.195763 
L 621.183766 -132.561637 
L 620.861549 -130.92751 
L 620.544264 -129.293384 
L 620.228367 -127.659257 
L 619.91285 -126.025131 
L 619.598929 -124.391004 
L 619.289552 -122.756878 
L 618.988807 -121.122751 
L 618.701314 -119.488625 
L 618.43165 -117.854499 
L 618.183856 -116.220372 
L 617.961064 -114.586246 
L 617.765259 -112.952119 
L 617.597181 -111.317993 
L 617.456362 -109.683866 
L 617.341279 -108.04974 
L 617.249587 -106.415613 
L 617.178397 -104.781487 
L 617.124559 -103.147361 
z
" style="stroke: #3d3d3d; stroke-width: 2"/>
    </defs>
    <g clip-path="url(#p93bb8e9c3c)">
     <use xlink:href="#mb651c5fa45" x="0" y="360" style="fill: #a9aa35; stroke: #3d3d3d; stroke-width: 2"/>
    </g>
   </g>
   <g id="matplotlib.axis_1">
    <g id="xtick_1">
     <g id="line2d_1">
      <defs>
       <path id="m8b9abda61e" d="M 0 0 
L 0 3.5 
" style="stroke: #000000; stroke-width: 2"/>
      </defs>
      <g>
       <use xlink:href="#m8b9abda61e" x="121" y="315" style="stroke: #000000; stroke-width: 2"/>
      </g>
     </g>
     <g id="text_1">
      <!-- onehot -->
      <g transform="translate(96.509844 332.637812)scale(0.14 -0.14)">
       <defs>
        <path id="DejaVuSans-6f" d="M 1959 3097 
Q 1497 3097 1228 2736 
Q 959 2375 959 1747 
Q 959 1119 1226 758 
Q 1494 397 1959 397 
Q 2419 397 2687 759 
Q 2956 1122 2956 1747 
Q 2956 2369 2687 2733 
Q 2419 3097 1959 3097 
z
M 1959 3584 
Q 2709 3584 3137 3096 
Q 3566 2609 3566 1747 
Q 3566 888 3137 398 
Q 2709 -91 1959 -91 
Q 1206 -91 779 398 
Q 353 888 353 1747 
Q 353 2609 779 3096 
Q 1206 3584 1959 3584 
z
" transform="scale(0.015625)"/>
        <path id="DejaVuSans-6e" d="M 3513 2113 
L 3513 0 
L 2938 0 
L 2938 2094 
Q 2938 2591 2744 2837 
Q 2550 3084 2163 3084 
Q 1697 3084 1428 2787 
Q 1159 2491 1159 1978 
L 1159 0 
L 581 0 
L 581 3500 
L 1159 3500 
L 1159 2956 
Q 1366 3272 1645 3428 
Q 1925 3584 2291 3584 
Q 2894 3584 3203 3211 
Q 3513 2838 3513 2113 
z
" transform="scale(0.015625)"/>
        <path id="DejaVuSans-65" d="M 3597 1894 
L 3597 1613 
L 953 1613 
Q 991 1019 1311 708 
Q 1631 397 2203 397 
Q 2534 397 2845 478 
Q 3156 559 3463 722 
L 3463 178 
Q 3153 47 2828 -22 
Q 2503 -91 2169 -91 
Q 1331 -91 842 396 
Q 353 884 353 1716 
Q 353 2575 817 3079 
Q 1281 3584 2069 3584 
Q 2775 3584 3186 3129 
Q 3597 2675 3597 1894 
z
M 3022 2063 
Q 3016 2534 2758 2815 
Q 2500 3097 2075 3097 
Q 1594 3097 1305 2825 
Q 1016 2553 972 2059 
L 3022 2063 
z
" transform="scale(0.015625)"/>
        <path id="DejaVuSans-68" d="M 3513 2113 
L 3513 0 
L 2938 0 
L 2938 2094 
Q 2938 2591 2744 2837 
Q 2550 3084 2163 3084 
Q 1697 3084 1428 2787 
Q 1159 2491 1159 1978 
L 1159 0 
L 581 0 
L 581 4863 
L 1159 4863 
L 1159 2956 
Q 1366 3272 1645 3428 
Q 1925 3584 2291 3584 
Q 2894 3584 3203 3211 
Q 3513 2838 3513 2113 
z
" transform="scale(0.015625)"/>
        <path id="DejaVuSans-74" d="M 1172 4494 
L 1172 3500 
L 2356 3500 
L 2356 3053 
L 1172 3053 
L 1172 1153 
Q 1172 725 1289 603 
Q 1406 481 1766 481 
L 2356 481 
L 2356 0 
L 1766 0 
Q 1100 0 847 248 
Q 594 497 594 1153 
L 594 3053 
L 172 3053 
L 172 3500 
L 594 3500 
L 594 4494 
L 1172 4494 
z
" transform="scale(0.015625)"/>
       </defs>
       <use xlink:href="#DejaVuSans-6f"/>
       <use xlink:href="#DejaVuSans-6e" x="61.181641"/>
       <use xlink:href="#DejaVuSans-65" x="124.560547"/>
       <use xlink:href="#DejaVuSans-68" x="186.083984"/>
       <use xlink:href="#DejaVuSans-6f" x="249.462891"/>
       <use xlink:href="#DejaVuSans-74" x="310.644531"/>
      </g>
     </g>
    </g>
    <g id="xtick_2">
     <g id="line2d_2">
      <g>
       <use xlink:href="#m8b9abda61e" x="183" y="315" style="stroke: #000000; stroke-width: 2"/>
      </g>
     </g>
     <g id="text_2">
      <!-- ESM -->
      <g transform="translate(168.093281 332.637812)scale(0.14 -0.14)">
       <defs>
        <path id="DejaVuSans-45" d="M 628 4666 
L 3578 4666 
L 3578 4134 
L 1259 4134 
L 1259 2753 
L 3481 2753 
L 3481 2222 
L 1259 2222 
L 1259 531 
L 3634 531 
L 3634 0 
L 628 0 
L 628 4666 
z
" transform="scale(0.015625)"/>
        <path id="DejaVuSans-53" d="M 3425 4513 
L 3425 3897 
Q 3066 4069 2747 4153 
Q 2428 4238 2131 4238 
Q 1616 4238 1336 4038 
Q 1056 3838 1056 3469 
Q 1056 3159 1242 3001 
Q 1428 2844 1947 2747 
L 2328 2669 
Q 3034 2534 3370 2195 
Q 3706 1856 3706 1288 
Q 3706 609 3251 259 
Q 2797 -91 1919 -91 
Q 1588 -91 1214 -16 
Q 841 59 441 206 
L 441 856 
Q 825 641 1194 531 
Q 1563 422 1919 422 
Q 2459 422 2753 634 
Q 3047 847 3047 1241 
Q 3047 1584 2836 1778 
Q 2625 1972 2144 2069 
L 1759 2144 
Q 1053 2284 737 2584 
Q 422 2884 422 3419 
Q 422 4038 858 4394 
Q 1294 4750 2059 4750 
Q 2388 4750 2728 4690 
Q 3069 4631 3425 4513 
z
" transform="scale(0.015625)"/>
        <path id="DejaVuSans-4d" d="M 628 4666 
L 1569 4666 
L 2759 1491 
L 3956 4666 
L 4897 4666 
L 4897 0 
L 4281 0 
L 4281 4097 
L 3078 897 
L 2444 897 
L 1241 4097 
L 1241 0 
L 628 0 
L 628 4666 
z
" transform="scale(0.015625)"/>
       </defs>
       <use xlink:href="#DejaVuSans-45"/>
       <use xlink:href="#DejaVuSans-53" x="63.183594"/>
       <use xlink:href="#DejaVuSans-4d" x="126.660156"/>
      </g>
     </g>
    </g>
    <g id="xtick_3">
     <g id="line2d_3">
      <g>
       <use xlink:href="#m8b9abda61e" x="245" y="315" style="stroke: #000000; stroke-width: 2"/>
      </g>
     </g>
     <g id="text_3">
      <!-- GAE (orig) -->
      <g transform="translate(209.128281 332.637812)scale(0.14 -0.14)">
       <defs>
        <path id="DejaVuSans-47" d="M 3809 666 
L 3809 1919 
L 2778 1919 
L 2778 2438 
L 4434 2438 
L 4434 434 
Q 4069 175 3628 42 
Q 3188 -91 2688 -91 
Q 1594 -91 976 548 
Q 359 1188 359 2328 
Q 359 3472 976 4111 
Q 1594 4750 2688 4750 
Q 3144 4750 3555 4637 
Q 3966 4525 4313 4306 
L 4313 3634 
Q 3963 3931 3569 4081 
Q 3175 4231 2741 4231 
Q 1884 4231 1454 3753 
Q 1025 3275 1025 2328 
Q 1025 1384 1454 906 
Q 1884 428 2741 428 
Q 3075 428 3337 486 
Q 3600 544 3809 666 
z
" transform="scale(0.015625)"/>
        <path id="DejaVuSans-41" d="M 2188 4044 
L 1331 1722 
L 3047 1722 
L 2188 4044 
z
M 1831 4666 
L 2547 4666 
L 4325 0 
L 3669 0 
L 3244 1197 
L 1141 1197 
L 716 0 
L 50 0 
L 1831 4666 
z
" transform="scale(0.015625)"/>
        <path id="DejaVuSans-20" transform="scale(0.015625)"/>
        <path id="DejaVuSans-28" d="M 1984 4856 
Q 1566 4138 1362 3434 
Q 1159 2731 1159 2009 
Q 1159 1288 1364 580 
Q 1569 -128 1984 -844 
L 1484 -844 
Q 1016 -109 783 600 
Q 550 1309 550 2009 
Q 550 2706 781 3412 
Q 1013 4119 1484 4856 
L 1984 4856 
z
" transform="scale(0.015625)"/>
        <path id="DejaVuSans-72" d="M 2631 2963 
Q 2534 3019 2420 3045 
Q 2306 3072 2169 3072 
Q 1681 3072 1420 2755 
Q 1159 2438 1159 1844 
L 1159 0 
L 581 0 
L 581 3500 
L 1159 3500 
L 1159 2956 
Q 1341 3275 1631 3429 
Q 1922 3584 2338 3584 
Q 2397 3584 2469 3576 
Q 2541 3569 2628 3553 
L 2631 2963 
z
" transform="scale(0.015625)"/>
        <path id="DejaVuSans-69" d="M 603 3500 
L 1178 3500 
L 1178 0 
L 603 0 
L 603 3500 
z
M 603 4863 
L 1178 4863 
L 1178 4134 
L 603 4134 
L 603 4863 
z
" transform="scale(0.015625)"/>
        <path id="DejaVuSans-67" d="M 2906 1791 
Q 2906 2416 2648 2759 
Q 2391 3103 1925 3103 
Q 1463 3103 1205 2759 
Q 947 2416 947 1791 
Q 947 1169 1205 825 
Q 1463 481 1925 481 
Q 2391 481 2648 825 
Q 2906 1169 2906 1791 
z
M 3481 434 
Q 3481 -459 3084 -895 
Q 2688 -1331 1869 -1331 
Q 1566 -1331 1297 -1286 
Q 1028 -1241 775 -1147 
L 775 -588 
Q 1028 -725 1275 -790 
Q 1522 -856 1778 -856 
Q 2344 -856 2625 -561 
Q 2906 -266 2906 331 
L 2906 616 
Q 2728 306 2450 153 
Q 2172 0 1784 0 
Q 1141 0 747 490 
Q 353 981 353 1791 
Q 353 2603 747 3093 
Q 1141 3584 1784 3584 
Q 2172 3584 2450 3431 
Q 2728 3278 2906 2969 
L 2906 3500 
L 3481 3500 
L 3481 434 
z
" transform="scale(0.015625)"/>
        <path id="DejaVuSans-29" d="M 513 4856 
L 1013 4856 
Q 1481 4119 1714 3412 
Q 1947 2706 1947 2009 
Q 1947 1309 1714 600 
Q 1481 -109 1013 -844 
L 513 -844 
Q 928 -128 1133 580 
Q 1338 1288 1338 2009 
Q 1338 2731 1133 3434 
Q 928 4138 513 4856 
z
" transform="scale(0.015625)"/>
       </defs>
       <use xlink:href="#DejaVuSans-47"/>
       <use xlink:href="#DejaVuSans-41" x="77.490234"/>
       <use xlink:href="#DejaVuSans-45" x="145.898438"/>
       <use xlink:href="#DejaVuSans-20" x="209.082031"/>
       <use xlink:href="#DejaVuSans-28" x="240.869141"/>
       <use xlink:href="#DejaVuSans-6f" x="279.882812"/>
       <use xlink:href="#DejaVuSans-72" x="341.064453"/>
       <use xlink:href="#DejaVuSans-69" x="382.177734"/>
       <use xlink:href="#DejaVuSans-67" x="409.960938"/>
       <use xlink:href="#DejaVuSans-29" x="473.4375"/>
      </g>
     </g>
    </g>
    <g id="xtick_4">
     <g id="line2d_4">
      <g>
       <use xlink:href="#m8b9abda61e" x="307" y="315" style="stroke: #000000; stroke-width: 2"/>
      </g>
     </g>
     <g id="text_4">
      <!-- 4lay -->
      <g transform="translate(292.16875 332.637812)scale(0.14 -0.14)">
       <defs>
        <path id="DejaVuSans-34" d="M 2419 4116 
L 825 1625 
L 2419 1625 
L 2419 4116 
z
M 2253 4666 
L 3047 4666 
L 3047 1625 
L 3713 1625 
L 3713 1100 
L 3047 1100 
L 3047 0 
L 2419 0 
L 2419 1100 
L 313 1100 
L 313 1709 
L 2253 4666 
z
" transform="scale(0.015625)"/>
        <path id="DejaVuSans-6c" d="M 603 4863 
L 1178 4863 
L 1178 0 
L 603 0 
L 603 4863 
z
" transform="scale(0.015625)"/>
        <path id="DejaVuSans-61" d="M 2194 1759 
Q 1497 1759 1228 1600 
Q 959 1441 959 1056 
Q 959 750 1161 570 
Q 1363 391 1709 391 
Q 2188 391 2477 730 
Q 2766 1069 2766 1631 
L 2766 1759 
L 2194 1759 
z
M 3341 1997 
L 3341 0 
L 2766 0 
L 2766 531 
Q 2569 213 2275 61 
Q 1981 -91 1556 -91 
Q 1019 -91 701 211 
Q 384 513 384 1019 
Q 384 1609 779 1909 
Q 1175 2209 1959 2209 
L 2766 2209 
L 2766 2266 
Q 2766 2663 2505 2880 
Q 2244 3097 1772 3097 
Q 1472 3097 1187 3025 
Q 903 2953 641 2809 
L 641 3341 
Q 956 3463 1253 3523 
Q 1550 3584 1831 3584 
Q 2591 3584 2966 3190 
Q 3341 2797 3341 1997 
z
" transform="scale(0.015625)"/>
        <path id="DejaVuSans-79" d="M 2059 -325 
Q 1816 -950 1584 -1140 
Q 1353 -1331 966 -1331 
L 506 -1331 
L 506 -850 
L 844 -850 
Q 1081 -850 1212 -737 
Q 1344 -625 1503 -206 
L 1606 56 
L 191 3500 
L 800 3500 
L 1894 763 
L 2988 3500 
L 3597 3500 
L 2059 -325 
z
" transform="scale(0.015625)"/>
       </defs>
       <use xlink:href="#DejaVuSans-34"/>
       <use xlink:href="#DejaVuSans-6c" x="63.623047"/>
       <use xlink:href="#DejaVuSans-61" x="91.40625"/>
       <use xlink:href="#DejaVuSans-79" x="152.685547"/>
      </g>
     </g>
    </g>
    <g id="xtick_5">
     <g id="line2d_5">
      <g>
       <use xlink:href="#m8b9abda61e" x="369" y="315" style="stroke: #000000; stroke-width: 2"/>
      </g>
     </g>
     <g id="text_5">
      <!-- edge -->
      <g transform="translate(351.497813 332.637812)scale(0.14 -0.14)">
       <defs>
        <path id="DejaVuSans-64" d="M 2906 2969 
L 2906 4863 
L 3481 4863 
L 3481 0 
L 2906 0 
L 2906 525 
Q 2725 213 2448 61 
Q 2172 -91 1784 -91 
Q 1150 -91 751 415 
Q 353 922 353 1747 
Q 353 2572 751 3078 
Q 1150 3584 1784 3584 
Q 2172 3584 2448 3432 
Q 2725 3281 2906 2969 
z
M 947 1747 
Q 947 1113 1208 752 
Q 1469 391 1925 391 
Q 2381 391 2643 752 
Q 2906 1113 2906 1747 
Q 2906 2381 2643 2742 
Q 2381 3103 1925 3103 
Q 1469 3103 1208 2742 
Q 947 2381 947 1747 
z
" transform="scale(0.015625)"/>
       </defs>
       <use xlink:href="#DejaVuSans-65"/>
       <use xlink:href="#DejaVuSans-64" x="61.523438"/>
       <use xlink:href="#DejaVuSans-67" x="125"/>
       <use xlink:href="#DejaVuSans-65" x="188.476562"/>
      </g>
     </g>
    </g>
    <g id="xtick_6">
     <g id="line2d_6">
      <g>
       <use xlink:href="#m8b9abda61e" x="431" y="315" style="stroke: #000000; stroke-width: 2"/>
      </g>
     </g>
     <g id="text_6">
      <!-- GCN -->
      <g transform="translate(415.45125 332.637812)scale(0.14 -0.14)">
       <defs>
        <path id="DejaVuSans-43" d="M 4122 4306 
L 4122 3641 
Q 3803 3938 3442 4084 
Q 3081 4231 2675 4231 
Q 1875 4231 1450 3742 
Q 1025 3253 1025 2328 
Q 1025 1406 1450 917 
Q 1875 428 2675 428 
Q 3081 428 3442 575 
Q 3803 722 4122 1019 
L 4122 359 
Q 3791 134 3420 21 
Q 3050 -91 2638 -91 
Q 1578 -91 968 557 
Q 359 1206 359 2328 
Q 359 3453 968 4101 
Q 1578 4750 2638 4750 
Q 3056 4750 3426 4639 
Q 3797 4528 4122 4306 
z
" transform="scale(0.015625)"/>
        <path id="DejaVuSans-4e" d="M 628 4666 
L 1478 4666 
L 3547 763 
L 3547 4666 
L 4159 4666 
L 4159 0 
L 3309 0 
L 1241 3903 
L 1241 0 
L 628 0 
L 628 4666 
z
" transform="scale(0.015625)"/>
       </defs>
       <use xlink:href="#DejaVuSans-47"/>
       <use xlink:href="#DejaVuSans-43" x="77.490234"/>
       <use xlink:href="#DejaVuSans-4e" x="147.314453"/>
      </g>
     </g>
    </g>
    <g id="xtick_7">
     <g id="line2d_7">
      <g>
       <use xlink:href="#m8b9abda61e" x="493" y="315" style="stroke: #000000; stroke-width: 2"/>
      </g>
     </g>
     <g id="text_7">
      <!-- hdim512 -->
      <g transform="translate(461.995469 332.637812)scale(0.14 -0.14)">
       <defs>
        <path id="DejaVuSans-6d" d="M 3328 2828 
Q 3544 3216 3844 3400 
Q 4144 3584 4550 3584 
Q 5097 3584 5394 3201 
Q 5691 2819 5691 2113 
L 5691 0 
L 5113 0 
L 5113 2094 
Q 5113 2597 4934 2840 
Q 4756 3084 4391 3084 
Q 3944 3084 3684 2787 
Q 3425 2491 3425 1978 
L 3425 0 
L 2847 0 
L 2847 2094 
Q 2847 2600 2669 2842 
Q 2491 3084 2119 3084 
Q 1678 3084 1418 2786 
Q 1159 2488 1159 1978 
L 1159 0 
L 581 0 
L 581 3500 
L 1159 3500 
L 1159 2956 
Q 1356 3278 1631 3431 
Q 1906 3584 2284 3584 
Q 2666 3584 2933 3390 
Q 3200 3197 3328 2828 
z
" transform="scale(0.015625)"/>
        <path id="DejaVuSans-35" d="M 691 4666 
L 3169 4666 
L 3169 4134 
L 1269 4134 
L 1269 2991 
Q 1406 3038 1543 3061 
Q 1681 3084 1819 3084 
Q 2600 3084 3056 2656 
Q 3513 2228 3513 1497 
Q 3513 744 3044 326 
Q 2575 -91 1722 -91 
Q 1428 -91 1123 -41 
Q 819 9 494 109 
L 494 744 
Q 775 591 1075 516 
Q 1375 441 1709 441 
Q 2250 441 2565 725 
Q 2881 1009 2881 1497 
Q 2881 1984 2565 2268 
Q 2250 2553 1709 2553 
Q 1456 2553 1204 2497 
Q 953 2441 691 2322 
L 691 4666 
z
" transform="scale(0.015625)"/>
        <path id="DejaVuSans-31" d="M 794 531 
L 1825 531 
L 1825 4091 
L 703 3866 
L 703 4441 
L 1819 4666 
L 2450 4666 
L 2450 531 
L 3481 531 
L 3481 0 
L 794 0 
L 794 531 
z
" transform="scale(0.015625)"/>
        <path id="DejaVuSans-32" d="M 1228 531 
L 3431 531 
L 3431 0 
L 469 0 
L 469 531 
Q 828 903 1448 1529 
Q 2069 2156 2228 2338 
Q 2531 2678 2651 2914 
Q 2772 3150 2772 3378 
Q 2772 3750 2511 3984 
Q 2250 4219 1831 4219 
Q 1534 4219 1204 4116 
Q 875 4013 500 3803 
L 500 4441 
Q 881 4594 1212 4672 
Q 1544 4750 1819 4750 
Q 2544 4750 2975 4387 
Q 3406 4025 3406 3419 
Q 3406 3131 3298 2873 
Q 3191 2616 2906 2266 
Q 2828 2175 2409 1742 
Q 1991 1309 1228 531 
z
" transform="scale(0.015625)"/>
       </defs>
       <use xlink:href="#DejaVuSans-68"/>
       <use xlink:href="#DejaVuSans-64" x="63.378906"/>
       <use xlink:href="#DejaVuSans-69" x="126.855469"/>
       <use xlink:href="#DejaVuSans-6d" x="154.638672"/>
       <use xlink:href="#DejaVuSans-35" x="252.050781"/>
       <use xlink:href="#DejaVuSans-31" x="315.673828"/>
       <use xlink:href="#DejaVuSans-32" x="379.296875"/>
      </g>
     </g>
    </g>
    <g id="xtick_8">
     <g id="line2d_8">
      <g>
       <use xlink:href="#m8b9abda61e" x="555" y="315" style="stroke: #000000; stroke-width: 2"/>
      </g>
     </g>
     <g id="text_8">
      <!-- onehot -->
      <g transform="translate(530.509844 332.637812)scale(0.14 -0.14)">
       <use xlink:href="#DejaVuSans-6f"/>
       <use xlink:href="#DejaVuSans-6e" x="61.181641"/>
       <use xlink:href="#DejaVuSans-65" x="124.560547"/>
       <use xlink:href="#DejaVuSans-68" x="186.083984"/>
       <use xlink:href="#DejaVuSans-6f" x="249.462891"/>
       <use xlink:href="#DejaVuSans-74" x="310.644531"/>
      </g>
     </g>
    </g>
    <g id="xtick_9">
     <g id="line2d_9">
      <g>
       <use xlink:href="#m8b9abda61e" x="617" y="315" style="stroke: #000000; stroke-width: 2"/>
      </g>
     </g>
     <g id="text_9">
      <!-- VGAE -->
      <g transform="translate(597.576094 332.637812)scale(0.14 -0.14)">
       <defs>
        <path id="DejaVuSans-56" d="M 1831 0 
L 50 4666 
L 709 4666 
L 2188 738 
L 3669 4666 
L 4325 4666 
L 2547 0 
L 1831 0 
z
" transform="scale(0.015625)"/>
       </defs>
       <use xlink:href="#DejaVuSans-56"/>
       <use xlink:href="#DejaVuSans-47" x="68.408203"/>
       <use xlink:href="#DejaVuSans-41" x="145.898438"/>
       <use xlink:href="#DejaVuSans-45" x="214.306641"/>
      </g>
     </g>
    </g>
   </g>
   <g id="matplotlib.axis_2">
    <g id="ytick_1">
     <g id="line2d_10">
      <path d="M 90 289.93739 
L 648 289.93739 
" clip-path="url(#p93bb8e9c3c)" style="fill: none; stroke: #b0b0b0; stroke-width: 0.8; stroke-linecap: square"/>
     </g>
     <g id="line2d_11">
      <defs>
       <path id="m40d67550e1" d="M 0 0 
L -3.5 0 
" style="stroke: #000000; stroke-width: 2"/>
      </defs>
      <g>
       <use xlink:href="#m40d67550e1" x="90" y="289.93739" style="stroke: #000000; stroke-width: 2"/>
      </g>
     </g>
     <g id="text_10">
      <!-- 0.700 -->
      <g transform="translate(42.920625 295.256297)scale(0.14 -0.14)">
       <defs>
        <path id="DejaVuSans-30" d="M 2034 4250 
Q 1547 4250 1301 3770 
Q 1056 3291 1056 2328 
Q 1056 1369 1301 889 
Q 1547 409 2034 409 
Q 2525 409 2770 889 
Q 3016 1369 3016 2328 
Q 3016 3291 2770 3770 
Q 2525 4250 2034 4250 
z
M 2034 4750 
Q 2819 4750 3233 4129 
Q 3647 3509 3647 2328 
Q 3647 1150 3233 529 
Q 2819 -91 2034 -91 
Q 1250 -91 836 529 
Q 422 1150 422 2328 
Q 422 3509 836 4129 
Q 1250 4750 2034 4750 
z
" transform="scale(0.015625)"/>
        <path id="DejaVuSans-2e" d="M 684 794 
L 1344 794 
L 1344 0 
L 684 0 
L 684 794 
z
" transform="scale(0.015625)"/>
        <path id="DejaVuSans-37" d="M 525 4666 
L 3525 4666 
L 3525 4397 
L 1831 0 
L 1172 0 
L 2766 4134 
L 525 4134 
L 525 4666 
z
" transform="scale(0.015625)"/>
       </defs>
       <use xlink:href="#DejaVuSans-30"/>
       <use xlink:href="#DejaVuSans-2e" x="63.623047"/>
       <use xlink:href="#DejaVuSans-37" x="95.410156"/>
       <use xlink:href="#DejaVuSans-30" x="159.033203"/>
       <use xlink:href="#DejaVuSans-30" x="222.65625"/>
      </g>
     </g>
    </g>
    <g id="ytick_2">
     <g id="line2d_12">
      <path d="M 90 255.318331 
L 648 255.318331 
" clip-path="url(#p93bb8e9c3c)" style="fill: none; stroke: #b0b0b0; stroke-width: 0.8; stroke-linecap: square"/>
     </g>
     <g id="line2d_13">
      <g>
       <use xlink:href="#m40d67550e1" x="90" y="255.318331" style="stroke: #000000; stroke-width: 2"/>
      </g>
     </g>
     <g id="text_11">
      <!-- 0.725 -->
      <g transform="translate(42.920625 260.637237)scale(0.14 -0.14)">
       <use xlink:href="#DejaVuSans-30"/>
       <use xlink:href="#DejaVuSans-2e" x="63.623047"/>
       <use xlink:href="#DejaVuSans-37" x="95.410156"/>
       <use xlink:href="#DejaVuSans-32" x="159.033203"/>
       <use xlink:href="#DejaVuSans-35" x="222.65625"/>
      </g>
     </g>
    </g>
    <g id="ytick_3">
     <g id="line2d_14">
      <path d="M 90 220.699271 
L 648 220.699271 
" clip-path="url(#p93bb8e9c3c)" style="fill: none; stroke: #b0b0b0; stroke-width: 0.8; stroke-linecap: square"/>
     </g>
     <g id="line2d_15">
      <g>
       <use xlink:href="#m40d67550e1" x="90" y="220.699271" style="stroke: #000000; stroke-width: 2"/>
      </g>
     </g>
     <g id="text_12">
      <!-- 0.750 -->
      <g transform="translate(42.920625 226.018178)scale(0.14 -0.14)">
       <use xlink:href="#DejaVuSans-30"/>
       <use xlink:href="#DejaVuSans-2e" x="63.623047"/>
       <use xlink:href="#DejaVuSans-37" x="95.410156"/>
       <use xlink:href="#DejaVuSans-35" x="159.033203"/>
       <use xlink:href="#DejaVuSans-30" x="222.65625"/>
      </g>
     </g>
    </g>
    <g id="ytick_4">
     <g id="line2d_16">
      <path d="M 90 186.080212 
L 648 186.080212 
" clip-path="url(#p93bb8e9c3c)" style="fill: none; stroke: #b0b0b0; stroke-width: 0.8; stroke-linecap: square"/>
     </g>
     <g id="line2d_17">
      <g>
       <use xlink:href="#m40d67550e1" x="90" y="186.080212" style="stroke: #000000; stroke-width: 2"/>
      </g>
     </g>
     <g id="text_13">
      <!-- 0.775 -->
      <g transform="translate(42.920625 191.399118)scale(0.14 -0.14)">
       <use xlink:href="#DejaVuSans-30"/>
       <use xlink:href="#DejaVuSans-2e" x="63.623047"/>
       <use xlink:href="#DejaVuSans-37" x="95.410156"/>
       <use xlink:href="#DejaVuSans-37" x="159.033203"/>
       <use xlink:href="#DejaVuSans-35" x="222.65625"/>
      </g>
     </g>
    </g>
    <g id="ytick_5">
     <g id="line2d_18">
      <path d="M 90 151.461152 
L 648 151.461152 
" clip-path="url(#p93bb8e9c3c)" style="fill: none; stroke: #b0b0b0; stroke-width: 0.8; stroke-linecap: square"/>
     </g>
     <g id="line2d_19">
      <g>
       <use xlink:href="#m40d67550e1" x="90" y="151.461152" style="stroke: #000000; stroke-width: 2"/>
      </g>
     </g>
     <g id="text_14">
      <!-- 0.800 -->
      <g transform="translate(42.920625 156.780058)scale(0.14 -0.14)">
       <defs>
        <path id="DejaVuSans-38" d="M 2034 2216 
Q 1584 2216 1326 1975 
Q 1069 1734 1069 1313 
Q 1069 891 1326 650 
Q 1584 409 2034 409 
Q 2484 409 2743 651 
Q 3003 894 3003 1313 
Q 3003 1734 2745 1975 
Q 2488 2216 2034 2216 
z
M 1403 2484 
Q 997 2584 770 2862 
Q 544 3141 544 3541 
Q 544 4100 942 4425 
Q 1341 4750 2034 4750 
Q 2731 4750 3128 4425 
Q 3525 4100 3525 3541 
Q 3525 3141 3298 2862 
Q 3072 2584 2669 2484 
Q 3125 2378 3379 2068 
Q 3634 1759 3634 1313 
Q 3634 634 3220 271 
Q 2806 -91 2034 -91 
Q 1263 -91 848 271 
Q 434 634 434 1313 
Q 434 1759 690 2068 
Q 947 2378 1403 2484 
z
M 1172 3481 
Q 1172 3119 1398 2916 
Q 1625 2713 2034 2713 
Q 2441 2713 2670 2916 
Q 2900 3119 2900 3481 
Q 2900 3844 2670 4047 
Q 2441 4250 2034 4250 
Q 1625 4250 1398 4047 
Q 1172 3844 1172 3481 
z
" transform="scale(0.015625)"/>
       </defs>
       <use xlink:href="#DejaVuSans-30"/>
       <use xlink:href="#DejaVuSans-2e" x="63.623047"/>
       <use xlink:href="#DejaVuSans-38" x="95.410156"/>
       <use xlink:href="#DejaVuSans-30" x="159.033203"/>
       <use xlink:href="#DejaVuSans-30" x="222.65625"/>
      </g>
     </g>
    </g>
    <g id="ytick_6">
     <g id="line2d_20">
      <path d="M 90 116.842093 
L 648 116.842093 
" clip-path="url(#p93bb8e9c3c)" style="fill: none; stroke: #b0b0b0; stroke-width: 0.8; stroke-linecap: square"/>
     </g>
     <g id="line2d_21">
      <g>
       <use xlink:href="#m40d67550e1" x="90" y="116.842093" style="stroke: #000000; stroke-width: 2"/>
      </g>
     </g>
     <g id="text_15">
      <!-- 0.825 -->
      <g transform="translate(42.920625 122.160999)scale(0.14 -0.14)">
       <use xlink:href="#DejaVuSans-30"/>
       <use xlink:href="#DejaVuSans-2e" x="63.623047"/>
       <use xlink:href="#DejaVuSans-38" x="95.410156"/>
       <use xlink:href="#DejaVuSans-32" x="159.033203"/>
       <use xlink:href="#DejaVuSans-35" x="222.65625"/>
      </g>
     </g>
    </g>
    <g id="ytick_7">
     <g id="line2d_22">
      <path d="M 90 82.223033 
L 648 82.223033 
" clip-path="url(#p93bb8e9c3c)" style="fill: none; stroke: #b0b0b0; stroke-width: 0.8; stroke-linecap: square"/>
     </g>
     <g id="line2d_23">
      <g>
       <use xlink:href="#m40d67550e1" x="90" y="82.223033" style="stroke: #000000; stroke-width: 2"/>
      </g>
     </g>
     <g id="text_16">
      <!-- 0.850 -->
      <g transform="translate(42.920625 87.541939)scale(0.14 -0.14)">
       <use xlink:href="#DejaVuSans-30"/>
       <use xlink:href="#DejaVuSans-2e" x="63.623047"/>
       <use xlink:href="#DejaVuSans-38" x="95.410156"/>
       <use xlink:href="#DejaVuSans-35" x="159.033203"/>
       <use xlink:href="#DejaVuSans-30" x="222.65625"/>
      </g>
     </g>
    </g>
    <g id="ytick_8">
     <g id="line2d_24">
      <path d="M 90 47.603973 
L 648 47.603973 
" clip-path="url(#p93bb8e9c3c)" style="fill: none; stroke: #b0b0b0; stroke-width: 0.8; stroke-linecap: square"/>
     </g>
     <g id="line2d_25">
      <g>
       <use xlink:href="#m40d67550e1" x="90" y="47.603973" style="stroke: #000000; stroke-width: 2"/>
      </g>
     </g>
     <g id="text_17">
      <!-- 0.875 -->
      <g transform="translate(42.920625 52.92288)scale(0.14 -0.14)">
       <use xlink:href="#DejaVuSans-30"/>
       <use xlink:href="#DejaVuSans-2e" x="63.623047"/>
       <use xlink:href="#DejaVuSans-38" x="95.410156"/>
       <use xlink:href="#DejaVuSans-37" x="159.033203"/>
       <use xlink:href="#DejaVuSans-35" x="222.65625"/>
      </g>
     </g>
    </g>
    <g id="text_18">
     <!-- NDCG -->
     <g transform="translate(36.009062 200.03875)rotate(-90)scale(0.14 -0.14)">
      <defs>
       <path id="DejaVuSans-44" d="M 1259 4147 
L 1259 519 
L 2022 519 
Q 2988 519 3436 956 
Q 3884 1394 3884 2338 
Q 3884 3275 3436 3711 
Q 2988 4147 2022 4147 
L 1259 4147 
z
M 628 4666 
L 1925 4666 
Q 3281 4666 3915 4102 
Q 4550 3538 4550 2338 
Q 4550 1131 3912 565 
Q 3275 0 1925 0 
L 628 0 
L 628 4666 
z
" transform="scale(0.015625)"/>
      </defs>
      <use xlink:href="#DejaVuSans-4e"/>
      <use xlink:href="#DejaVuSans-44" x="74.804688"/>
      <use xlink:href="#DejaVuSans-43" x="151.806641"/>
      <use xlink:href="#DejaVuSans-47" x="221.630859"/>
     </g>
    </g>
   </g>
   <g id="line2d_26">
    <path d="M 121 240.312399 
L 121 80.518599 
" clip-path="url(#p93bb8e9c3c)" style="fill: none; stroke: #3d3d3d; stroke-width: 2; stroke-linecap: square"/>
   </g>
   <g id="line2d_27">
    <path d="M 121 187.432428 
L 121 141.508019 
" clip-path="url(#p93bb8e9c3c)" style="fill: none; stroke: #3d3d3d; stroke-width: 6; stroke-linecap: square"/>
   </g>
   <g id="line2d_28">
    <path d="M 183 234.534489 
L 183 104.326963 
" clip-path="url(#p93bb8e9c3c)" style="fill: none; stroke: #3d3d3d; stroke-width: 2; stroke-linecap: square"/>
   </g>
   <g id="line2d_29">
    <path d="M 183 181.073812 
L 183 136.805965 
" clip-path="url(#p93bb8e9c3c)" style="fill: none; stroke: #3d3d3d; stroke-width: 6; stroke-linecap: square"/>
   </g>
   <g id="line2d_30">
    <path d="M 245 222.856048 
L 245 96.498738 
" clip-path="url(#p93bb8e9c3c)" style="fill: none; stroke: #3d3d3d; stroke-width: 2; stroke-linecap: square"/>
   </g>
   <g id="line2d_31">
    <path d="M 245 175.232115 
L 245 143.174634 
" clip-path="url(#p93bb8e9c3c)" style="fill: none; stroke: #3d3d3d; stroke-width: 6; stroke-linecap: square"/>
   </g>
   <g id="line2d_32">
    <path d="M 307 209.6935 
L 307 115.596239 
" clip-path="url(#p93bb8e9c3c)" style="fill: none; stroke: #3d3d3d; stroke-width: 2; stroke-linecap: square"/>
   </g>
   <g id="line2d_33">
    <path d="M 307 172.466408 
L 307 146.940906 
" clip-path="url(#p93bb8e9c3c)" style="fill: none; stroke: #3d3d3d; stroke-width: 6; stroke-linecap: square"/>
   </g>
   <g id="line2d_34">
    <path d="M 369 201.529906 
L 369 82.315169 
" clip-path="url(#p93bb8e9c3c)" style="fill: none; stroke: #3d3d3d; stroke-width: 2; stroke-linecap: square"/>
   </g>
   <g id="line2d_35">
    <path d="M 369 160.234592 
L 369 126.965277 
" clip-path="url(#p93bb8e9c3c)" style="fill: none; stroke: #3d3d3d; stroke-width: 6; stroke-linecap: square"/>
   </g>
   <g id="line2d_36">
    <path d="M 431 222.638586 
L 431 99.779025 
" clip-path="url(#p93bb8e9c3c)" style="fill: none; stroke: #3d3d3d; stroke-width: 2; stroke-linecap: square"/>
   </g>
   <g id="line2d_37">
    <path d="M 431 175.262576 
L 431 142.021704 
" clip-path="url(#p93bb8e9c3c)" style="fill: none; stroke: #3d3d3d; stroke-width: 6; stroke-linecap: square"/>
   </g>
   <g id="line2d_38">
    <path d="M 493 252.456893 
L 493 138.213792 
" clip-path="url(#p93bb8e9c3c)" style="fill: none; stroke: #3d3d3d; stroke-width: 2; stroke-linecap: square"/>
   </g>
   <g id="line2d_39">
    <path d="M 493 209.612616 
L 493 177.96999 
" clip-path="url(#p93bb8e9c3c)" style="fill: none; stroke: #3d3d3d; stroke-width: 6; stroke-linecap: square"/>
   </g>
   <g id="line2d_40">
    <path d="M 555 255.759258 
L 555 180.896413 
" clip-path="url(#p93bb8e9c3c)" style="fill: none; stroke: #3d3d3d; stroke-width: 2; stroke-linecap: square"/>
   </g>
   <g id="line2d_41">
    <path d="M 555 234.590315 
L 555 212.02581 
" clip-path="url(#p93bb8e9c3c)" style="fill: none; stroke: #3d3d3d; stroke-width: 6; stroke-linecap: square"/>
   </g>
   <g id="line2d_42">
    <path d="M 617 237.201496 
L 617 127.942299 
" clip-path="url(#p93bb8e9c3c)" style="fill: none; stroke: #3d3d3d; stroke-width: 2; stroke-linecap: square"/>
   </g>
   <g id="line2d_43">
    <path d="M 617 198.947863 
L 617 168.460959 
" clip-path="url(#p93bb8e9c3c)" style="fill: none; stroke: #3d3d3d; stroke-width: 6; stroke-linecap: square"/>
   </g>
   <g id="patch_3">
    <path d="M 90 315 
L 90 43.2 
" style="fill: none; stroke: #000000; stroke-width: 2; stroke-linejoin: miter; stroke-linecap: square"/>
   </g>
   <g id="patch_4">
    <path d="M 648 315 
L 648 43.2 
" style="fill: none; stroke: #000000; stroke-width: 2; stroke-linejoin: miter; stroke-linecap: square"/>
   </g>
   <g id="patch_5">
    <path d="M 90 315 
L 648 315 
" style="fill: none; stroke: #000000; stroke-width: 2; stroke-linejoin: miter; stroke-linecap: square"/>
   </g>
   <g id="patch_6">
    <path d="M 90 43.2 
L 648 43.2 
" style="fill: none; stroke: #000000; stroke-width: 2; stroke-linejoin: miter; stroke-linecap: square"/>
   </g>
   <g id="PathCollection_1">
    <defs>
     <path id="m824a412913" d="M 0 2 
C 0.530406 2 1.03916 1.789267 1.414214 1.414214 
C 1.789267 1.03916 2 0.530406 2 0 
C 2 -0.530406 1.789267 -1.03916 1.414214 -1.414214 
C 1.03916 -1.789267 0.530406 -2 0 -2 
C -0.530406 -2 -1.03916 -1.789267 -1.414214 -1.414214 
C -1.789267 -1.03916 -2 -0.530406 -2 0 
C -2 0.530406 -1.789267 1.03916 -1.414214 1.414214 
C -1.03916 1.789267 -0.530406 2 0 2 
z
" style="stroke: #3d3d3d"/>
    </defs>
    <g clip-path="url(#p93bb8e9c3c)">
     <use xlink:href="#m824a412913" x="121" y="163.798015" style="fill: #ffffff; stroke: #3d3d3d"/>
    </g>
   </g>
   <g id="PathCollection_2">
    <g clip-path="url(#p93bb8e9c3c)">
     <use xlink:href="#m824a412913" x="183" y="157.925839" style="fill: #ffffff; stroke: #3d3d3d"/>
    </g>
   </g>
   <g id="PathCollection_3">
    <g clip-path="url(#p93bb8e9c3c)">
     <use xlink:href="#m824a412913" x="245" y="160.915619" style="fill: #ffffff; stroke: #3d3d3d"/>
    </g>
   </g>
   <g id="PathCollection_4">
    <g clip-path="url(#p93bb8e9c3c)">
     <use xlink:href="#m824a412913" x="307" y="161.477965" style="fill: #ffffff; stroke: #3d3d3d"/>
    </g>
   </g>
   <g id="PathCollection_5">
    <g clip-path="url(#p93bb8e9c3c)">
     <use xlink:href="#m824a412913" x="369" y="141.475554" style="fill: #ffffff; stroke: #3d3d3d"/>
    </g>
   </g>
   <g id="PathCollection_6">
    <g clip-path="url(#p93bb8e9c3c)">
     <use xlink:href="#m824a412913" x="431" y="159.068875" style="fill: #ffffff; stroke: #3d3d3d"/>
    </g>
   </g>
   <g id="PathCollection_7">
    <g clip-path="url(#p93bb8e9c3c)">
     <use xlink:href="#m824a412913" x="493" y="195.036633" style="fill: #ffffff; stroke: #3d3d3d"/>
    </g>
   </g>
   <g id="PathCollection_8">
    <g clip-path="url(#p93bb8e9c3c)">
     <use xlink:href="#m824a412913" x="555" y="222.996406" style="fill: #ffffff; stroke: #3d3d3d"/>
    </g>
   </g>
   <g id="PathCollection_9">
    <g clip-path="url(#p93bb8e9c3c)">
     <use xlink:href="#m824a412913" x="617" y="180.055477" style="fill: #ffffff; stroke: #3d3d3d"/>
    </g>
   </g>
  </g>
 </g>
 <defs>
  <clipPath id="p93bb8e9c3c">
   <rect x="90" y="43.2" width="558" height="271.8"/>
  </clipPath>
 </defs>
</svg>
