<?xml version="1.0" encoding="utf-8" standalone="no"?>
<!DOCTYPE svg PUBLIC "-//W3C//DTD SVG 1.1//EN"
  "http://www.w3.org/Graphics/SVG/1.1/DTD/svg11.dtd">
<svg xmlns:xlink="http://www.w3.org/1999/xlink" width="720pt" height="360pt" viewBox="0 0 720 360" xmlns="http://www.w3.org/2000/svg" version="1.1">
 <metadata>
  <rdf:RDF xmlns:dc="http://purl.org/dc/elements/1.1/" xmlns:cc="http://creativecommons.org/ns#" xmlns:rdf="http://www.w3.org/1999/02/22-rdf-syntax-ns#">
   <cc:Work>
    <dc:type rdf:resource="http://purl.org/dc/dcmitype/StillImage"/>
    <dc:date>2022-06-02T20:49:43.197933</dc:date>
    <dc:format>image/svg+xml</dc:format>
    <dc:creator>
     <cc:Agent>
      <dc:title>Matplotlib v3.5.1, https://matplotlib.org/</dc:title>
     </cc:Agent>
    </dc:creator>
   </cc:Work>
  </rdf:RDF>
 </metadata>
 <defs>
  <style type="text/css">*{stroke-linejoin: round; stroke-linecap: butt}</style>
 </defs>
 <g id="figure_1">
  <g id="patch_1">
   <path d="M 0 360 
L 720 360 
L 720 0 
L 0 0 
L 0 360 
z
" style="fill: none"/>
  </g>
  <g id="axes_1">
   <g id="patch_2">
    <path d="M 90 315 
L 648 315 
L 648 43.2 
L 90 43.2 
z
" style="fill: #ffffff"/>
   </g>
   <g id="PolyCollection_1">
    <defs>
     <path id="m992b5223c1" d="M 121.206021 -86.871964 
L 120.793979 -86.871964 
L 120.704995 -88.579015 
L 120.585896 -90.286066 
L 120.42984 -91.993117 
L 120.229538 -93.700168 
L 119.977543 -95.407219 
L 119.666602 -97.11427 
L 119.290045 -98.821321 
L 118.842208 -100.528372 
L 118.318854 -102.235423 
L 117.717585 -103.942474 
L 117.038229 -105.649525 
L 116.2832 -107.356576 
L 115.457803 -109.063627 
L 114.570475 -110.770678 
L 113.632918 -112.477729 
L 112.660078 -114.18478 
L 111.669904 -115.891831 
L 110.682837 -117.598882 
L 109.720978 -119.305933 
L 108.806935 -121.012984 
L 107.962386 -122.720035 
L 107.206462 -124.427086 
L 106.554088 -126.134137 
L 106.014498 -127.841188 
L 105.590096 -129.548239 
L 105.275874 -131.25529 
L 105.059493 -132.962341 
L 104.922086 -134.669392 
L 104.839748 -136.376444 
L 104.785573 -138.083495 
L 104.732036 -139.790546 
L 104.653495 -141.497597 
L 104.528528 -143.204648 
L 104.341899 -144.911699 
L 104.085942 -146.61875 
L 103.761263 -148.325801 
L 103.376703 -150.032852 
L 102.948602 -151.739903 
L 102.499449 -153.446954 
L 102.056089 -155.154005 
L 101.647637 -156.861056 
L 101.303298 -158.568107 
L 101.050264 -160.275158 
L 100.911834 -161.982209 
L 100.905883 -163.68926 
L 101.043758 -165.396311 
L 101.329665 -167.103362 
L 101.760573 -168.810413 
L 102.326615 -170.517464 
L 103.011974 -172.224515 
L 103.796153 -173.931566 
L 104.65554 -175.638617 
L 105.565126 -177.345668 
L 106.500208 -179.052719 
L 107.437948 -180.75977 
L 108.358622 -182.466821 
L 109.246472 -184.173872 
L 110.090113 -185.880923 
L 110.882495 -187.587974 
L 111.620486 -189.295025 
L 112.304179 -191.002076 
L 112.936047 -192.709127 
L 113.520071 -194.416178 
L 114.060944 -196.123229 
L 114.563435 -197.83028 
L 115.031926 -199.537331 
L 115.47014 -201.244382 
L 115.881023 -202.951433 
L 116.266741 -204.658484 
L 116.628747 -206.365535 
L 116.967895 -208.072586 
L 117.284569 -209.779637 
L 117.578831 -211.486688 
L 117.850583 -213.193739 
L 118.099749 -214.90079 
L 118.326461 -216.607841 
L 118.531255 -218.314892 
L 118.71523 -220.021943 
L 118.880151 -221.728994 
L 119.028468 -223.436045 
L 119.163218 -225.143096 
L 119.287826 -226.850147 
L 119.405808 -228.557198 
L 119.520432 -230.264249 
L 119.63438 -231.9713 
L 119.749471 -233.678351 
L 119.866495 -235.385402 
L 119.985185 -237.092453 
L 120.104327 -238.799504 
L 120.221994 -240.506555 
L 120.33585 -242.213606 
L 120.443486 -243.920657 
L 120.542724 -245.627708 
L 120.63186 -247.334759 
L 120.709811 -249.04181 
L 120.77616 -250.748861 
L 120.83112 -252.455912 
L 120.875424 -254.162963 
L 120.910183 -255.870014 
L 121.089817 -255.870014 
L 121.089817 -255.870014 
L 121.124576 -254.162963 
L 121.16888 -252.455912 
L 121.22384 -250.748861 
L 121.290189 -249.04181 
L 121.36814 -247.334759 
L 121.457276 -245.627708 
L 121.556514 -243.920657 
L 121.66415 -242.213606 
L 121.778006 -240.506555 
L 121.895673 -238.799504 
L 122.014815 -237.092453 
L 122.133505 -235.385402 
L 122.250529 -233.678351 
L 122.36562 -231.9713 
L 122.479568 -230.264249 
L 122.594192 -228.557198 
L 122.712174 -226.850147 
L 122.836782 -225.143096 
L 122.971532 -223.436045 
L 123.119849 -221.728994 
L 123.28477 -220.021943 
L 123.468745 -218.314892 
L 123.673539 -216.607841 
L 123.900251 -214.90079 
L 124.149417 -213.193739 
L 124.421169 -211.486688 
L 124.715431 -209.779637 
L 125.032105 -208.072586 
L 125.371253 -206.365535 
L 125.733259 -204.658484 
L 126.118977 -202.951433 
L 126.52986 -201.244382 
L 126.968074 -199.537331 
L 127.436565 -197.83028 
L 127.939056 -196.123229 
L 128.479929 -194.416178 
L 129.063953 -192.709127 
L 129.695821 -191.002076 
L 130.379514 -189.295025 
L 131.117505 -187.587974 
L 131.909887 -185.880923 
L 132.753528 -184.173872 
L 133.641378 -182.466821 
L 134.562052 -180.75977 
L 135.499792 -179.052719 
L 136.434874 -177.345668 
L 137.34446 -175.638617 
L 138.203847 -173.931566 
L 138.988026 -172.224515 
L 139.673385 -170.517464 
L 140.239427 -168.810413 
L 140.670335 -167.103362 
L 140.956242 -165.396311 
L 141.094117 -163.68926 
L 141.088166 -161.982209 
L 140.949736 -160.275158 
L 140.696702 -158.568107 
L 140.352363 -156.861056 
L 139.943911 -155.154005 
L 139.500551 -153.446954 
L 139.051398 -151.739903 
L 138.623297 -150.032852 
L 138.238737 -148.325801 
L 137.914058 -146.61875 
L 137.658101 -144.911699 
L 137.471472 -143.204648 
L 137.346505 -141.497597 
L 137.267964 -139.790546 
L 137.214427 -138.083495 
L 137.160252 -136.376444 
L 137.077914 -134.669392 
L 136.940507 -132.962341 
L 136.724126 -131.25529 
L 136.409904 -129.548239 
L 135.985502 -127.841188 
L 135.445912 -126.134137 
L 134.793538 -124.427086 
L 134.037614 -122.720035 
L 133.193065 -121.012984 
L 132.279022 -119.305933 
L 131.317163 -117.598882 
L 130.330096 -115.891831 
L 129.339922 -114.18478 
L 128.367082 -112.477729 
L 127.429525 -110.770678 
L 126.542197 -109.063627 
L 125.7168 -107.356576 
L 124.961771 -105.649525 
L 124.282415 -103.942474 
L 123.681146 -102.235423 
L 123.157792 -100.528372 
L 122.709955 -98.821321 
L 122.333398 -97.11427 
L 122.022457 -95.407219 
L 121.770462 -93.700168 
L 121.57016 -91.993117 
L 121.414104 -90.286066 
L 121.295005 -88.579015 
L 121.206021 -86.871964 
z
" style="stroke: #3d3d3d; stroke-width: 2"/>
    </defs>
    <g clip-path="url(#pb08652c9d5)">
     <use xlink:href="#m992b5223c1" x="0" y="360" style="fill: #3274a1; stroke: #3d3d3d; stroke-width: 2"/>
    </g>
   </g>
   <g id="PolyCollection_2">
    <defs>
     <path id="mcc1bc9ccb0" d="M 183.269074 -93.793484 
L 182.730926 -93.793484 
L 182.629349 -95.698339 
L 182.498856 -97.603194 
L 182.334709 -99.508049 
L 182.132496 -101.412903 
L 181.888478 -103.317758 
L 181.599956 -105.222613 
L 181.265593 -107.127468 
L 180.885674 -109.032323 
L 180.462244 -110.937178 
L 179.999116 -112.842033 
L 179.501709 -114.746887 
L 178.976742 -116.651742 
L 178.431792 -118.556597 
L 177.874748 -120.461452 
L 177.313215 -122.366307 
L 176.753913 -124.271162 
L 176.202126 -126.176017 
L 175.661242 -128.080871 
L 175.132442 -129.985726 
L 174.614555 -131.890581 
L 174.104119 -133.795436 
L 173.595658 -135.700291 
L 173.082189 -137.605146 
L 172.555944 -139.510001 
L 172.00927 -141.414855 
L 171.435665 -143.31971 
L 170.830858 -145.224565 
L 170.193823 -147.12942 
L 169.527612 -149.034275 
L 168.839874 -150.93913 
L 168.142962 -152.843984 
L 167.453547 -154.748839 
L 166.791733 -156.653694 
L 166.179719 -158.558549 
L 165.640122 -160.463404 
L 165.19413 -162.368259 
L 164.859695 -164.273114 
L 164.649969 -166.177968 
L 164.572179 -168.082823 
L 164.627062 -169.987678 
L 164.80893 -171.892533 
L 165.106352 -173.797388 
L 165.503338 -175.702243 
L 165.980886 -177.607098 
L 166.518682 -179.511952 
L 167.096757 -181.416807 
L 167.696905 -183.321662 
L 168.303732 -185.226517 
L 168.905241 -187.131372 
L 169.49296 -189.036227 
L 170.061659 -190.941082 
L 170.608759 -192.845936 
L 171.13358 -194.750791 
L 171.636572 -196.655646 
L 172.118647 -198.560501 
L 172.580706 -200.465356 
L 173.023397 -202.370211 
L 173.447097 -204.275066 
L 173.85206 -206.17992 
L 174.238647 -208.084775 
L 174.607563 -209.98963 
L 174.960019 -211.894485 
L 175.297766 -213.79934 
L 175.623001 -215.704195 
L 175.938152 -217.60905 
L 176.245585 -219.513904 
L 176.547312 -221.418759 
L 176.844722 -223.323614 
L 177.138425 -225.228469 
L 177.4282 -227.133324 
L 177.713082 -229.038179 
L 177.991552 -230.943034 
L 178.261816 -232.847888 
L 178.522112 -234.752743 
L 178.771023 -236.657598 
L 179.007729 -238.562453 
L 179.232192 -240.467308 
L 179.445216 -242.372163 
L 179.648409 -244.277018 
L 179.844017 -246.181872 
L 180.034674 -248.086727 
L 180.223084 -249.991582 
L 180.411678 -251.896437 
L 180.602291 -253.801292 
L 180.795913 -255.706147 
L 180.992524 -257.611002 
L 181.191074 -259.515856 
L 181.38957 -261.420711 
L 181.585297 -263.325566 
L 181.775102 -265.230421 
L 181.955735 -267.135276 
L 182.124175 -269.040131 
L 182.277912 -270.944985 
L 182.415151 -272.84984 
L 182.534911 -274.754695 
L 182.63704 -276.65955 
L 182.722135 -278.564405 
L 182.791401 -280.46926 
L 182.846481 -282.374115 
L 183.153519 -282.374115 
L 183.153519 -282.374115 
L 183.208599 -280.46926 
L 183.277865 -278.564405 
L 183.36296 -276.65955 
L 183.465089 -274.754695 
L 183.584849 -272.84984 
L 183.722088 -270.944985 
L 183.875825 -269.040131 
L 184.044265 -267.135276 
L 184.224898 -265.230421 
L 184.414703 -263.325566 
L 184.61043 -261.420711 
L 184.808926 -259.515856 
L 185.007476 -257.611002 
L 185.204087 -255.706147 
L 185.397709 -253.801292 
L 185.588322 -251.896437 
L 185.776916 -249.991582 
L 185.965326 -248.086727 
L 186.155983 -246.181872 
L 186.351591 -244.277018 
L 186.554784 -242.372163 
L 186.767808 -240.467308 
L 186.992271 -238.562453 
L 187.228977 -236.657598 
L 187.477888 -234.752743 
L 187.738184 -232.847888 
L 188.008448 -230.943034 
L 188.286918 -229.038179 
L 188.5718 -227.133324 
L 188.861575 -225.228469 
L 189.155278 -223.323614 
L 189.452688 -221.418759 
L 189.754415 -219.513904 
L 190.061848 -217.60905 
L 190.376999 -215.704195 
L 190.702234 -213.79934 
L 191.039981 -211.894485 
L 191.392437 -209.98963 
L 191.761353 -208.084775 
L 192.14794 -206.17992 
L 192.552903 -204.275066 
L 192.976603 -202.370211 
L 193.419294 -200.465356 
L 193.881353 -198.560501 
L 194.363428 -196.655646 
L 194.86642 -194.750791 
L 195.391241 -192.845936 
L 195.938341 -190.941082 
L 196.50704 -189.036227 
L 197.094759 -187.131372 
L 197.696268 -185.226517 
L 198.303095 -183.321662 
L 198.903243 -181.416807 
L 199.481318 -179.511952 
L 200.019114 -177.607098 
L 200.496662 -175.702243 
L 200.893648 -173.797388 
L 201.19107 -171.892533 
L 201.372938 -169.987678 
L 201.427821 -168.082823 
L 201.350031 -166.177968 
L 201.140305 -164.273114 
L 200.80587 -162.368259 
L 200.359878 -160.463404 
L 199.820281 -158.558549 
L 199.208267 -156.653694 
L 198.546453 -154.748839 
L 197.857038 -152.843984 
L 197.160126 -150.93913 
L 196.472388 -149.034275 
L 195.806177 -147.12942 
L 195.169142 -145.224565 
L 194.564335 -143.31971 
L 193.99073 -141.414855 
L 193.444056 -139.510001 
L 192.917811 -137.605146 
L 192.404342 -135.700291 
L 191.895881 -133.795436 
L 191.385445 -131.890581 
L 190.867558 -129.985726 
L 190.338758 -128.080871 
L 189.797874 -126.176017 
L 189.246087 -124.271162 
L 188.686785 -122.366307 
L 188.125252 -120.461452 
L 187.568208 -118.556597 
L 187.023258 -116.651742 
L 186.498291 -114.746887 
L 186.000884 -112.842033 
L 185.537756 -110.937178 
L 185.114326 -109.032323 
L 184.734407 -107.127468 
L 184.400044 -105.222613 
L 184.111522 -103.317758 
L 183.867504 -101.412903 
L 183.665291 -99.508049 
L 183.501144 -97.603194 
L 183.370651 -95.698339 
L 183.269074 -93.793484 
z
" style="stroke: #3d3d3d; stroke-width: 2"/>
    </defs>
    <g clip-path="url(#pb08652c9d5)">
     <use xlink:href="#mcc1bc9ccb0" x="0" y="360" style="fill: #e1812c; stroke: #3d3d3d; stroke-width: 2"/>
    </g>
   </g>
   <g id="PolyCollection_3">
    <defs>
     <path id="m55a426896b" d="M 245.193701 -88.860104 
L 244.806299 -88.860104 
L 244.73069 -90.614793 
L 244.632291 -92.369481 
L 244.506653 -94.12417 
L 244.349133 -95.878858 
L 244.155024 -97.633547 
L 243.919688 -99.388236 
L 243.638671 -101.142924 
L 243.307805 -102.897613 
L 242.923307 -104.652301 
L 242.481876 -106.40699 
L 241.980838 -108.161678 
L 241.418333 -109.916367 
L 240.793584 -111.671055 
L 240.107234 -113.425744 
L 239.36172 -115.180432 
L 238.561642 -116.935121 
L 237.714033 -118.689809 
L 236.82847 -120.444498 
L 235.916923 -122.199186 
L 234.993321 -123.953875 
L 234.07281 -125.708563 
L 233.170775 -127.463252 
L 232.301713 -129.21794 
L 231.478108 -130.972629 
L 230.70947 -132.727317 
L 230.001677 -134.482006 
L 229.35674 -136.236694 
L 228.773029 -137.991383 
L 228.245955 -139.746071 
L 227.769008 -141.50076 
L 227.335018 -143.255448 
L 226.937457 -145.010137 
L 226.571624 -146.764825 
L 226.235561 -148.519514 
L 225.930583 -150.274202 
L 225.6614 -152.028891 
L 225.435812 -153.783579 
L 225.264063 -155.538268 
L 225.157928 -157.292956 
L 225.129649 -159.047645 
L 225.190846 -160.802333 
L 225.351468 -162.557022 
L 225.618892 -164.31171 
L 225.997192 -166.066399 
L 226.486614 -167.821088 
L 227.083264 -169.575776 
L 227.779 -171.330465 
L 228.561531 -173.085153 
L 229.414736 -174.839842 
L 230.319187 -176.59453 
L 231.2529 -178.349219 
L 232.192291 -180.103907 
L 233.113315 -181.858596 
L 233.99273 -183.613284 
L 234.809401 -185.367973 
L 235.545539 -187.122661 
L 236.187771 -188.87735 
L 236.727934 -190.632038 
L 237.16351 -192.386727 
L 237.49767 -194.141415 
L 237.738924 -195.896104 
L 237.900403 -197.650792 
L 237.998851 -199.405481 
L 238.053406 -201.160169 
L 238.084261 -202.914858 
L 238.111304 -204.669546 
L 238.152812 -206.424235 
L 238.22429 -208.178923 
L 238.337516 -209.933612 
L 238.499884 -211.6883 
L 238.71407 -213.442989 
L 238.978098 -215.197677 
L 239.285789 -216.952366 
L 239.627586 -218.707054 
L 239.991679 -220.461743 
L 240.365311 -222.216431 
L 240.73613 -223.97112 
L 241.09341 -225.725808 
L 241.429004 -227.480497 
L 241.737901 -229.235185 
L 242.018348 -230.989874 
L 242.271533 -232.744562 
L 242.500913 -234.499251 
L 242.711324 -236.25394 
L 242.90801 -238.008628 
L 243.095742 -239.763317 
L 243.278143 -241.518005 
L 243.457295 -243.272694 
L 243.633647 -245.027382 
L 243.806203 -246.782071 
L 243.972902 -248.536759 
L 244.131106 -250.291448 
L 244.278102 -252.046136 
L 244.411526 -253.800825 
L 244.529676 -255.555513 
L 244.631675 -257.310202 
L 244.717489 -259.06489 
L 244.787842 -260.819579 
L 244.84405 -262.574267 
L 245.15595 -262.574267 
L 245.15595 -262.574267 
L 245.212158 -260.819579 
L 245.282511 -259.06489 
L 245.368325 -257.310202 
L 245.470324 -255.555513 
L 245.588474 -253.800825 
L 245.721898 -252.046136 
L 245.868894 -250.291448 
L 246.027098 -248.536759 
L 246.193797 -246.782071 
L 246.366353 -245.027382 
L 246.542705 -243.272694 
L 246.721857 -241.518005 
L 246.904258 -239.763317 
L 247.09199 -238.008628 
L 247.288676 -236.25394 
L 247.499087 -234.499251 
L 247.728467 -232.744562 
L 247.981652 -230.989874 
L 248.262099 -229.235185 
L 248.570996 -227.480497 
L 248.90659 -225.725808 
L 249.26387 -223.97112 
L 249.634689 -222.216431 
L 250.008321 -220.461743 
L 250.372414 -218.707054 
L 250.714211 -216.952366 
L 251.021902 -215.197677 
L 251.28593 -213.442989 
L 251.500116 -211.6883 
L 251.662484 -209.933612 
L 251.77571 -208.178923 
L 251.847188 -206.424235 
L 251.888696 -204.669546 
L 251.915739 -202.914858 
L 251.946594 -201.160169 
L 252.001149 -199.405481 
L 252.099597 -197.650792 
L 252.261076 -195.896104 
L 252.50233 -194.141415 
L 252.83649 -192.386727 
L 253.272066 -190.632038 
L 253.812229 -188.87735 
L 254.454461 -187.122661 
L 255.190599 -185.367973 
L 256.00727 -183.613284 
L 256.886685 -181.858596 
L 257.807709 -180.103907 
L 258.7471 -178.349219 
L 259.680813 -176.59453 
L 260.585264 -174.839842 
L 261.438469 -173.085153 
L 262.221 -171.330465 
L 262.916736 -169.575776 
L 263.513386 -167.821088 
L 264.002808 -166.066399 
L 264.381108 -164.31171 
L 264.648532 -162.557022 
L 264.809154 -160.802333 
L 264.870351 -159.047645 
L 264.842072 -157.292956 
L 264.735937 -155.538268 
L 264.564188 -153.783579 
L 264.3386 -152.028891 
L 264.069417 -150.274202 
L 263.764439 -148.519514 
L 263.428376 -146.764825 
L 263.062543 -145.010137 
L 262.664982 -143.255448 
L 262.230992 -141.50076 
L 261.754045 -139.746071 
L 261.226971 -137.991383 
L 260.64326 -136.236694 
L 259.998323 -134.482006 
L 259.29053 -132.727317 
L 258.521892 -130.972629 
L 257.698287 -129.21794 
L 256.829225 -127.463252 
L 255.92719 -125.708563 
L 255.006679 -123.953875 
L 254.083077 -122.199186 
L 253.17153 -120.444498 
L 252.285967 -118.689809 
L 251.438358 -116.935121 
L 250.63828 -115.180432 
L 249.892766 -113.425744 
L 249.206416 -111.671055 
L 248.581667 -109.916367 
L 248.019162 -108.161678 
L 247.518124 -106.40699 
L 247.076693 -104.652301 
L 246.692195 -102.897613 
L 246.361329 -101.142924 
L 246.080312 -99.388236 
L 245.844976 -97.633547 
L 245.650867 -95.878858 
L 245.493347 -94.12417 
L 245.367709 -92.369481 
L 245.26931 -90.614793 
L 245.193701 -88.860104 
z
" style="stroke: #3d3d3d; stroke-width: 2"/>
    </defs>
    <g clip-path="url(#pb08652c9d5)">
     <use xlink:href="#m55a426896b" x="0" y="360" style="fill: #3a923a; stroke: #3d3d3d; stroke-width: 2"/>
    </g>
   </g>
   <g id="PolyCollection_4">
    <defs>
     <path id="mf5a7c69806" d="M 307.070791 -58.801414 
L 306.929209 -58.801414 
L 306.901173 -60.916103 
L 306.864602 -63.030791 
L 306.817791 -65.145479 
L 306.758917 -67.260167 
L 306.686049 -69.374855 
L 306.597154 -71.489544 
L 306.49008 -73.604232 
L 306.362531 -75.71892 
L 306.212038 -77.833608 
L 306.035939 -79.948296 
L 305.831387 -82.062985 
L 305.595391 -84.177673 
L 305.324915 -86.292361 
L 305.017028 -88.407049 
L 304.669101 -90.521737 
L 304.279025 -92.636426 
L 303.845448 -94.751114 
L 303.367984 -96.865802 
L 302.847383 -98.98049 
L 302.285639 -101.095178 
L 301.686038 -103.209867 
L 301.053121 -105.324555 
L 300.392593 -107.439243 
L 299.71117 -109.553931 
L 299.01637 -111.66862 
L 298.316279 -113.783308 
L 297.619274 -115.897996 
L 296.93374 -118.012684 
L 296.267773 -120.127372 
L 295.628898 -122.242061 
L 295.023815 -124.356749 
L 294.458189 -126.471437 
L 293.936517 -128.586125 
L 293.462077 -130.700813 
L 293.036977 -132.815502 
L 292.66231 -134.93019 
L 292.33838 -137.044878 
L 292.065001 -139.159566 
L 291.841793 -141.274254 
L 291.668447 -143.388943 
L 291.544908 -145.503631 
L 291.47142 -147.618319 
L 291.448431 -149.733007 
L 291.476365 -151.847695 
L 291.55529 -153.962384 
L 291.68455 -156.077072 
L 291.862431 -158.19176 
L 292.085941 -160.306448 
L 292.350762 -162.421137 
L 292.651394 -164.535825 
L 292.981508 -166.650513 
L 293.334432 -168.765201 
L 293.703726 -170.879889 
L 294.083715 -172.994578 
L 294.469911 -175.109266 
L 294.859223 -177.223954 
L 295.249922 -179.338642 
L 295.641365 -181.45333 
L 296.033541 -183.568019 
L 296.426528 -185.682707 
L 296.819998 -187.797395 
L 297.212883 -189.912083 
L 297.603284 -192.026771 
L 297.988658 -194.14146 
L 298.366244 -196.256148 
L 298.733624 -198.370836 
L 299.089291 -200.485524 
L 299.43307 -202.600212 
L 299.766286 -204.714901 
L 300.091618 -206.829589 
L 300.41266 -208.944277 
L 300.73327 -211.058965 
L 301.056864 -213.173654 
L 301.385779 -215.288342 
L 301.720858 -217.40303 
L 302.061328 -219.517718 
L 302.404975 -221.632406 
L 302.748562 -223.747095 
L 303.088386 -225.861783 
L 303.420843 -227.976471 
L 303.742881 -230.091159 
L 304.052268 -232.205847 
L 304.347647 -234.320536 
L 304.6284 -236.435224 
L 304.894379 -238.549912 
L 305.145609 -240.6646 
L 305.38202 -242.779288 
L 305.60328 -244.893977 
L 305.808757 -247.008665 
L 305.997593 -249.123353 
L 306.168872 -251.238041 
L 306.321822 -253.352729 
L 306.455999 -255.467418 
L 306.571433 -257.582106 
L 306.668684 -259.696794 
L 306.748833 -261.811482 
L 306.813396 -263.92617 
L 306.864202 -266.040859 
L 306.90324 -268.155547 
L 307.09676 -268.155547 
L 307.09676 -268.155547 
L 307.135798 -266.040859 
L 307.186604 -263.92617 
L 307.251167 -261.811482 
L 307.331316 -259.696794 
L 307.428567 -257.582106 
L 307.544001 -255.467418 
L 307.678178 -253.352729 
L 307.831128 -251.238041 
L 308.002407 -249.123353 
L 308.191243 -247.008665 
L 308.39672 -244.893977 
L 308.61798 -242.779288 
L 308.854391 -240.6646 
L 309.105621 -238.549912 
L 309.3716 -236.435224 
L 309.652353 -234.320536 
L 309.947732 -232.205847 
L 310.257119 -230.091159 
L 310.579157 -227.976471 
L 310.911614 -225.861783 
L 311.251438 -223.747095 
L 311.595025 -221.632406 
L 311.938672 -219.517718 
L 312.279142 -217.40303 
L 312.614221 -215.288342 
L 312.943136 -213.173654 
L 313.26673 -211.058965 
L 313.58734 -208.944277 
L 313.908382 -206.829589 
L 314.233714 -204.714901 
L 314.56693 -202.600212 
L 314.910709 -200.485524 
L 315.266376 -198.370836 
L 315.633756 -196.256148 
L 316.011342 -194.14146 
L 316.396716 -192.026771 
L 316.787117 -189.912083 
L 317.180002 -187.797395 
L 317.573472 -185.682707 
L 317.966459 -183.568019 
L 318.358635 -181.45333 
L 318.750078 -179.338642 
L 319.140777 -177.223954 
L 319.530089 -175.109266 
L 319.916285 -172.994578 
L 320.296274 -170.879889 
L 320.665568 -168.765201 
L 321.018492 -166.650513 
L 321.348606 -164.535825 
L 321.649238 -162.421137 
L 321.914059 -160.306448 
L 322.137569 -158.19176 
L 322.31545 -156.077072 
L 322.44471 -153.962384 
L 322.523635 -151.847695 
L 322.551569 -149.733007 
L 322.52858 -147.618319 
L 322.455092 -145.503631 
L 322.331553 -143.388943 
L 322.158207 -141.274254 
L 321.934999 -139.159566 
L 321.66162 -137.044878 
L 321.33769 -134.93019 
L 320.963023 -132.815502 
L 320.537923 -130.700813 
L 320.063483 -128.586125 
L 319.541811 -126.471437 
L 318.976185 -124.356749 
L 318.371102 -122.242061 
L 317.732227 -120.127372 
L 317.06626 -118.012684 
L 316.380726 -115.897996 
L 315.683721 -113.783308 
L 314.98363 -111.66862 
L 314.28883 -109.553931 
L 313.607407 -107.439243 
L 312.946879 -105.324555 
L 312.313962 -103.209867 
L 311.714361 -101.095178 
L 311.152617 -98.98049 
L 310.632016 -96.865802 
L 310.154552 -94.751114 
L 309.720975 -92.636426 
L 309.330899 -90.521737 
L 308.982972 -88.407049 
L 308.675085 -86.292361 
L 308.404609 -84.177673 
L 308.168613 -82.062985 
L 307.964061 -79.948296 
L 307.787962 -77.833608 
L 307.637469 -75.71892 
L 307.50992 -73.604232 
L 307.402846 -71.489544 
L 307.313951 -69.374855 
L 307.241083 -67.260167 
L 307.182209 -65.145479 
L 307.135398 -63.030791 
L 307.098827 -60.916103 
L 307.070791 -58.801414 
z
" style="stroke: #3d3d3d; stroke-width: 2"/>
    </defs>
    <g clip-path="url(#pb08652c9d5)">
     <use xlink:href="#mf5a7c69806" x="0" y="360" style="fill: #c03d3e; stroke: #3d3d3d; stroke-width: 2"/>
    </g>
   </g>
   <g id="PolyCollection_5">
    <defs>
     <path id="m841bd7a65b" d="M 369.099911 -81.598336 
L 368.900089 -81.598336 
L 368.856446 -83.658442 
L 368.798254 -85.718547 
L 368.722446 -87.778653 
L 368.625842 -89.838759 
L 368.505243 -91.898865 
L 368.357509 -93.95897 
L 368.17959 -96.019076 
L 367.968529 -98.079182 
L 367.72143 -100.139288 
L 367.435438 -102.199394 
L 367.107775 -104.259499 
L 366.735877 -106.319605 
L 366.317669 -108.379711 
L 365.851975 -110.439817 
L 365.339028 -112.499922 
L 364.780984 -114.560028 
L 364.182325 -116.620134 
L 363.550019 -118.68024 
L 362.893339 -120.740346 
L 362.223287 -122.800451 
L 361.551665 -124.860557 
L 360.889925 -126.920663 
L 360.247969 -128.980769 
L 359.633148 -131.040874 
L 359.049635 -133.10098 
L 358.498332 -135.161086 
L 357.977293 -137.221192 
L 357.482598 -139.281298 
L 357.009458 -141.341403 
L 356.553304 -143.401509 
L 356.110618 -145.461615 
L 355.679353 -147.521721 
L 355.258872 -149.581826 
L 354.84951 -151.641932 
L 354.451936 -153.702038 
L 354.066554 -155.762144 
L 353.693183 -157.82225 
L 353.331148 -159.882355 
L 352.979827 -161.942461 
L 352.639547 -164.002567 
L 352.31263 -166.062673 
L 352.004342 -168.122778 
L 351.723487 -170.182884 
L 351.482469 -172.24299 
L 351.296745 -174.303096 
L 351.183696 -176.363202 
L 351.161052 -178.423307 
L 351.245083 -180.483413 
L 351.448793 -182.543519 
L 351.780336 -184.603625 
L 352.241865 -186.66373 
L 352.828929 -188.723836 
L 353.530483 -190.783942 
L 354.329494 -192.844048 
L 355.204087 -194.904154 
L 356.129084 -196.964259 
L 357.077796 -199.024365 
L 358.023869 -201.084471 
L 358.943013 -203.144577 
L 359.814437 -205.204682 
L 360.621879 -207.264788 
L 361.354151 -209.324894 
L 362.005205 -211.385 
L 362.57379 -213.445106 
L 363.062808 -215.505211 
L 363.478505 -217.565317 
L 363.829635 -219.625423 
L 364.12667 -221.685529 
L 364.381107 -223.745634 
L 364.604833 -225.80574 
L 364.809536 -227.865846 
L 365.006074 -229.925952 
L 365.203832 -231.986058 
L 365.410075 -234.046163 
L 365.629402 -236.106269 
L 365.86341 -238.166375 
L 366.110683 -240.226481 
L 366.367145 -242.286586 
L 366.62677 -244.346692 
L 366.882556 -246.406798 
L 367.127577 -248.466904 
L 367.355954 -250.52701 
L 367.563562 -252.587115 
L 367.748381 -254.647221 
L 367.910451 -256.707327 
L 368.051502 -258.767433 
L 368.174361 -260.827538 
L 368.282295 -262.887644 
L 368.378414 -264.94775 
L 368.465239 -267.007856 
L 368.54449 -269.067962 
L 368.617072 -271.128067 
L 368.68323 -273.188173 
L 368.742792 -275.248279 
L 368.795432 -277.308385 
L 368.840897 -279.368491 
L 368.879149 -281.428596 
L 368.91044 -283.488702 
L 368.935293 -285.548808 
L 369.064707 -285.548808 
L 369.064707 -285.548808 
L 369.08956 -283.488702 
L 369.120851 -281.428596 
L 369.159103 -279.368491 
L 369.204568 -277.308385 
L 369.257208 -275.248279 
L 369.31677 -273.188173 
L 369.382928 -271.128067 
L 369.45551 -269.067962 
L 369.534761 -267.007856 
L 369.621586 -264.94775 
L 369.717705 -262.887644 
L 369.825639 -260.827538 
L 369.948498 -258.767433 
L 370.089549 -256.707327 
L 370.251619 -254.647221 
L 370.436438 -252.587115 
L 370.644046 -250.52701 
L 370.872423 -248.466904 
L 371.117444 -246.406798 
L 371.37323 -244.346692 
L 371.632855 -242.286586 
L 371.889317 -240.226481 
L 372.13659 -238.166375 
L 372.370598 -236.106269 
L 372.589925 -234.046163 
L 372.796168 -231.986058 
L 372.993926 -229.925952 
L 373.190464 -227.865846 
L 373.395167 -225.80574 
L 373.618893 -223.745634 
L 373.87333 -221.685529 
L 374.170365 -219.625423 
L 374.521495 -217.565317 
L 374.937192 -215.505211 
L 375.42621 -213.445106 
L 375.994795 -211.385 
L 376.645849 -209.324894 
L 377.378121 -207.264788 
L 378.185563 -205.204682 
L 379.056987 -203.144577 
L 379.976131 -201.084471 
L 380.922204 -199.024365 
L 381.870916 -196.964259 
L 382.795913 -194.904154 
L 383.670506 -192.844048 
L 384.469517 -190.783942 
L 385.171071 -188.723836 
L 385.758135 -186.66373 
L 386.219664 -184.603625 
L 386.551207 -182.543519 
L 386.754917 -180.483413 
L 386.838948 -178.423307 
L 386.816304 -176.363202 
L 386.703255 -174.303096 
L 386.517531 -172.24299 
L 386.276513 -170.182884 
L 385.995658 -168.122778 
L 385.68737 -166.062673 
L 385.360453 -164.002567 
L 385.020173 -161.942461 
L 384.668852 -159.882355 
L 384.306817 -157.82225 
L 383.933446 -155.762144 
L 383.548064 -153.702038 
L 383.15049 -151.641932 
L 382.741128 -149.581826 
L 382.320647 -147.521721 
L 381.889382 -145.461615 
L 381.446696 -143.401509 
L 380.990542 -141.341403 
L 380.517402 -139.281298 
L 380.022707 -137.221192 
L 379.501668 -135.161086 
L 378.950365 -133.10098 
L 378.366852 -131.040874 
L 377.752031 -128.980769 
L 377.110075 -126.920663 
L 376.448335 -124.860557 
L 375.776713 -122.800451 
L 375.106661 -120.740346 
L 374.449981 -118.68024 
L 373.817675 -116.620134 
L 373.219016 -114.560028 
L 372.660972 -112.499922 
L 372.148025 -110.439817 
L 371.682331 -108.379711 
L 371.264123 -106.319605 
L 370.892225 -104.259499 
L 370.564562 -102.199394 
L 370.27857 -100.139288 
L 370.031471 -98.079182 
L 369.82041 -96.019076 
L 369.642491 -93.95897 
L 369.494757 -91.898865 
L 369.374158 -89.838759 
L 369.277554 -87.778653 
L 369.201746 -85.718547 
L 369.143554 -83.658442 
L 369.099911 -81.598336 
z
" style="stroke: #3d3d3d; stroke-width: 2"/>
    </defs>
    <g clip-path="url(#pb08652c9d5)">
     <use xlink:href="#m841bd7a65b" x="0" y="360" style="fill: #9372b2; stroke: #3d3d3d; stroke-width: 2"/>
    </g>
   </g>
   <g id="PolyCollection_6">
    <defs>
     <path id="md6230b230b" d="M 431.178361 -90.866388 
L 430.821639 -90.866388 
L 430.751675 -92.95348 
L 430.662078 -95.040572 
L 430.550246 -97.127664 
L 430.414077 -99.214756 
L 430.252145 -101.301848 
L 430.06378 -103.38894 
L 429.849035 -105.476032 
L 429.608516 -107.563124 
L 429.343108 -109.650216 
L 429.053631 -111.737308 
L 428.74051 -113.8244 
L 428.403514 -115.911492 
L 428.041636 -117.998584 
L 427.653131 -120.085676 
L 427.235702 -122.172768 
L 426.786793 -124.25986 
L 426.303908 -126.346952 
L 425.78491 -128.434044 
L 425.22823 -130.521136 
L 424.633005 -132.608228 
L 423.999173 -134.69532 
L 423.327579 -136.782412 
L 422.620169 -138.869504 
L 421.880304 -140.956596 
L 421.113196 -143.043688 
L 420.326406 -145.13078 
L 419.530278 -147.217872 
L 418.738199 -149.304964 
L 417.966507 -151.392056 
L 417.233985 -153.479148 
L 416.560864 -155.56624 
L 415.9674 -157.653332 
L 415.472122 -159.740424 
L 415.089956 -161.827517 
L 414.830441 -163.914609 
L 414.696303 -166.001701 
L 414.682599 -168.088793 
L 414.776629 -170.175885 
L 414.958691 -172.262977 
L 415.203692 -174.350069 
L 415.483462 -176.437161 
L 415.769539 -178.524253 
L 416.036094 -180.611345 
L 416.262622 -182.698437 
L 416.436034 -184.785529 
L 416.551883 -186.872621 
L 416.614581 -188.959713 
L 416.636585 -191.046805 
L 416.636738 -193.133897 
L 416.638015 -195.220989 
L 416.664995 -197.308081 
L 416.741385 -199.395173 
L 416.887849 -201.482265 
L 417.120325 -203.569357 
L 417.448899 -205.656449 
L 417.877251 -207.743541 
L 418.402617 -209.830633 
L 419.016212 -211.917725 
L 419.704023 -214.004817 
L 420.447924 -216.091909 
L 421.227024 -218.179001 
L 422.019184 -220.266093 
L 422.802591 -222.353185 
L 423.557272 -224.440277 
L 424.266418 -226.527369 
L 424.917385 -228.614461 
L 425.502275 -230.701553 
L 426.018034 -232.788645 
L 426.466081 -234.875737 
L 426.851534 -236.962829 
L 427.18215 -239.049921 
L 427.467135 -241.137013 
L 427.715994 -243.224105 
L 427.937561 -245.311197 
L 428.13931 -247.398289 
L 428.326996 -249.485381 
L 428.504616 -251.572473 
L 428.67463 -253.659565 
L 428.838341 -255.746657 
L 428.996333 -257.833749 
L 429.14887 -259.920841 
L 429.296185 -262.007933 
L 429.438626 -264.095025 
L 429.576656 -266.182117 
L 429.710753 -268.269209 
L 429.841257 -270.356301 
L 429.968216 -272.443394 
L 430.091291 -274.530486 
L 430.209734 -276.617578 
L 430.322462 -278.70467 
L 430.428188 -280.791762 
L 430.525609 -282.878854 
L 430.613585 -284.965946 
L 430.691297 -287.053038 
L 430.758344 -289.14013 
L 430.814784 -291.227222 
L 430.861104 -293.314314 
L 430.898146 -295.401406 
L 430.926998 -297.488498 
L 431.073002 -297.488498 
L 431.073002 -297.488498 
L 431.101854 -295.401406 
L 431.138896 -293.314314 
L 431.185216 -291.227222 
L 431.241656 -289.14013 
L 431.308703 -287.053038 
L 431.386415 -284.965946 
L 431.474391 -282.878854 
L 431.571812 -280.791762 
L 431.677538 -278.70467 
L 431.790266 -276.617578 
L 431.908709 -274.530486 
L 432.031784 -272.443394 
L 432.158743 -270.356301 
L 432.289247 -268.269209 
L 432.423344 -266.182117 
L 432.561374 -264.095025 
L 432.703815 -262.007933 
L 432.85113 -259.920841 
L 433.003667 -257.833749 
L 433.161659 -255.746657 
L 433.32537 -253.659565 
L 433.495384 -251.572473 
L 433.673004 -249.485381 
L 433.86069 -247.398289 
L 434.062439 -245.311197 
L 434.284006 -243.224105 
L 434.532865 -241.137013 
L 434.81785 -239.049921 
L 435.148466 -236.962829 
L 435.533919 -234.875737 
L 435.981966 -232.788645 
L 436.497725 -230.701553 
L 437.082615 -228.614461 
L 437.733582 -226.527369 
L 438.442728 -224.440277 
L 439.197409 -222.353185 
L 439.980816 -220.266093 
L 440.772976 -218.179001 
L 441.552076 -216.091909 
L 442.295977 -214.004817 
L 442.983788 -211.917725 
L 443.597383 -209.830633 
L 444.122749 -207.743541 
L 444.551101 -205.656449 
L 444.879675 -203.569357 
L 445.112151 -201.482265 
L 445.258615 -199.395173 
L 445.335005 -197.308081 
L 445.361985 -195.220989 
L 445.363262 -193.133897 
L 445.363415 -191.046805 
L 445.385419 -188.959713 
L 445.448117 -186.872621 
L 445.563966 -184.785529 
L 445.737378 -182.698437 
L 445.963906 -180.611345 
L 446.230461 -178.524253 
L 446.516538 -176.437161 
L 446.796308 -174.350069 
L 447.041309 -172.262977 
L 447.223371 -170.175885 
L 447.317401 -168.088793 
L 447.303697 -166.001701 
L 447.169559 -163.914609 
L 446.910044 -161.827517 
L 446.527878 -159.740424 
L 446.0326 -157.653332 
L 445.439136 -155.56624 
L 444.766015 -153.479148 
L 444.033493 -151.392056 
L 443.261801 -149.304964 
L 442.469722 -147.217872 
L 441.673594 -145.13078 
L 440.886804 -143.043688 
L 440.119696 -140.956596 
L 439.379831 -138.869504 
L 438.672421 -136.782412 
L 438.000827 -134.69532 
L 437.366995 -132.608228 
L 436.77177 -130.521136 
L 436.21509 -128.434044 
L 435.696092 -126.346952 
L 435.213207 -124.25986 
L 434.764298 -122.172768 
L 434.346869 -120.085676 
L 433.958364 -117.998584 
L 433.596486 -115.911492 
L 433.25949 -113.8244 
L 432.946369 -111.737308 
L 432.656892 -109.650216 
L 432.391484 -107.563124 
L 432.150965 -105.476032 
L 431.93622 -103.38894 
L 431.747855 -101.301848 
L 431.585923 -99.214756 
L 431.449754 -97.127664 
L 431.337922 -95.040572 
L 431.248325 -92.95348 
L 431.178361 -90.866388 
z
" style="stroke: #3d3d3d; stroke-width: 2"/>
    </defs>
    <g clip-path="url(#pb08652c9d5)">
     <use xlink:href="#md6230b230b" x="0" y="360" style="fill: #845b53; stroke: #3d3d3d; stroke-width: 2"/>
    </g>
   </g>
   <g id="PolyCollection_7">
    <defs>
     <path id="mb4bf507263" d="M 493.077237 -82.654503 
L 492.922763 -82.654503 
L 492.888863 -84.894816 
L 492.84368 -87.135128 
L 492.784891 -89.375441 
L 492.710128 -91.615754 
L 492.617068 -93.856066 
L 492.503501 -96.096379 
L 492.367346 -98.336692 
L 492.206616 -100.577004 
L 492.019299 -102.817317 
L 491.803184 -105.05763 
L 491.55565 -107.297942 
L 491.273451 -109.538255 
L 490.952584 -111.778567 
L 490.588274 -114.01888 
L 490.175185 -116.259193 
L 489.707856 -118.499505 
L 489.181412 -120.739818 
L 488.59247 -122.980131 
L 487.940158 -125.220443 
L 487.227085 -127.460756 
L 486.460063 -129.701069 
L 485.650426 -131.941381 
L 484.813799 -134.181694 
L 483.969274 -136.422007 
L 483.138062 -138.662319 
L 482.341769 -140.902632 
L 481.600555 -143.142944 
L 480.931412 -145.383257 
L 480.346836 -147.62357 
L 479.854027 -149.863882 
L 479.454709 -152.104195 
L 479.145506 -154.344508 
L 478.918762 -156.58482 
L 478.763615 -158.825133 
L 478.667159 -161.065446 
L 478.61554 -163.305758 
L 478.59491 -165.546071 
L 478.592213 -167.786383 
L 478.595835 -170.026696 
L 478.596147 -172.267009 
L 478.58598 -174.507321 
L 478.561036 -176.747634 
L 478.520175 -178.987947 
L 478.465552 -181.228259 
L 478.402527 -183.468572 
L 478.339332 -185.708885 
L 478.286517 -187.949197 
L 478.256227 -190.18951 
L 478.261409 -192.429823 
L 478.31501 -194.670135 
L 478.429244 -196.910448 
L 478.614922 -199.15076 
L 478.88083 -201.391073 
L 479.233128 -203.631386 
L 479.674752 -205.871698 
L 480.204853 -208.112011 
L 480.818346 -210.352324 
L 481.505691 -212.592636 
L 482.253016 -214.832949 
L 483.04267 -217.073262 
L 483.854212 -219.313574 
L 484.665789 -221.553887 
L 485.455749 -223.794199 
L 486.204317 -226.034512 
L 486.895126 -228.274825 
L 487.516429 -230.515137 
L 488.061842 -232.75545 
L 488.530554 -234.995763 
L 488.926975 -237.236075 
L 489.259874 -239.476388 
L 489.541102 -241.716701 
L 489.784051 -243.957013 
L 490.00203 -246.197326 
L 490.206759 -248.437639 
L 490.40719 -250.677951 
L 490.608783 -252.918264 
L 490.813353 -255.158576 
L 491.019462 -257.398889 
L 491.223278 -259.639202 
L 491.419704 -261.879514 
L 491.603577 -264.119827 
L 491.770708 -266.36014 
L 491.91859 -268.600452 
L 492.046697 -270.840765 
L 492.156355 -273.081078 
L 492.250286 -275.32139 
L 492.331957 -277.561703 
L 492.404897 -279.802016 
L 492.472117 -282.042328 
L 492.535738 -284.282641 
L 492.596853 -286.522953 
L 492.655615 -288.763266 
L 492.711471 -291.003579 
L 492.763488 -293.243891 
L 492.810662 -295.484204 
L 492.852177 -297.724517 
L 492.887559 -299.964829 
L 492.916734 -302.205142 
L 492.940003 -304.445455 
L 493.059997 -304.445455 
L 493.059997 -304.445455 
L 493.083266 -302.205142 
L 493.112441 -299.964829 
L 493.147823 -297.724517 
L 493.189338 -295.484204 
L 493.236512 -293.243891 
L 493.288529 -291.003579 
L 493.344385 -288.763266 
L 493.403147 -286.522953 
L 493.464262 -284.282641 
L 493.527883 -282.042328 
L 493.595103 -279.802016 
L 493.668043 -277.561703 
L 493.749714 -275.32139 
L 493.843645 -273.081078 
L 493.953303 -270.840765 
L 494.08141 -268.600452 
L 494.229292 -266.36014 
L 494.396423 -264.119827 
L 494.580296 -261.879514 
L 494.776722 -259.639202 
L 494.980538 -257.398889 
L 495.186647 -255.158576 
L 495.391217 -252.918264 
L 495.59281 -250.677951 
L 495.793241 -248.437639 
L 495.99797 -246.197326 
L 496.215949 -243.957013 
L 496.458898 -241.716701 
L 496.740126 -239.476388 
L 497.073025 -237.236075 
L 497.469446 -234.995763 
L 497.938158 -232.75545 
L 498.483571 -230.515137 
L 499.104874 -228.274825 
L 499.795683 -226.034512 
L 500.544251 -223.794199 
L 501.334211 -221.553887 
L 502.145788 -219.313574 
L 502.95733 -217.073262 
L 503.746984 -214.832949 
L 504.494309 -212.592636 
L 505.181654 -210.352324 
L 505.795147 -208.112011 
L 506.325248 -205.871698 
L 506.766872 -203.631386 
L 507.11917 -201.391073 
L 507.385078 -199.15076 
L 507.570756 -196.910448 
L 507.68499 -194.670135 
L 507.738591 -192.429823 
L 507.743773 -190.18951 
L 507.713483 -187.949197 
L 507.660668 -185.708885 
L 507.597473 -183.468572 
L 507.534448 -181.228259 
L 507.479825 -178.987947 
L 507.438964 -176.747634 
L 507.41402 -174.507321 
L 507.403853 -172.267009 
L 507.404165 -170.026696 
L 507.407787 -167.786383 
L 507.40509 -165.546071 
L 507.38446 -163.305758 
L 507.332841 -161.065446 
L 507.236385 -158.825133 
L 507.081238 -156.58482 
L 506.854494 -154.344508 
L 506.545291 -152.104195 
L 506.145973 -149.863882 
L 505.653164 -147.62357 
L 505.068588 -145.383257 
L 504.399445 -143.142944 
L 503.658231 -140.902632 
L 502.861938 -138.662319 
L 502.030726 -136.422007 
L 501.186201 -134.181694 
L 500.349574 -131.941381 
L 499.539937 -129.701069 
L 498.772915 -127.460756 
L 498.059842 -125.220443 
L 497.40753 -122.980131 
L 496.818588 -120.739818 
L 496.292144 -118.499505 
L 495.824815 -116.259193 
L 495.411726 -114.01888 
L 495.047416 -111.778567 
L 494.726549 -109.538255 
L 494.44435 -107.297942 
L 494.196816 -105.05763 
L 493.980701 -102.817317 
L 493.793384 -100.577004 
L 493.632654 -98.336692 
L 493.496499 -96.096379 
L 493.382932 -93.856066 
L 493.289872 -91.615754 
L 493.215109 -89.375441 
L 493.15632 -87.135128 
L 493.111137 -84.894816 
L 493.077237 -82.654503 
z
" style="stroke: #3d3d3d; stroke-width: 2"/>
    </defs>
    <g clip-path="url(#pb08652c9d5)">
     <use xlink:href="#mb4bf507263" x="0" y="360" style="fill: #d684bd; stroke: #3d3d3d; stroke-width: 2"/>
    </g>
   </g>
   <g id="PolyCollection_8">
    <defs>
     <path id="m68cb2e1a30" d="M 555.130047 -57.354545 
L 554.869953 -57.354545 
L 554.818604 -59.000983 
L 554.751813 -60.64742 
L 554.666786 -62.293857 
L 554.560817 -63.940295 
L 554.431467 -65.586732 
L 554.276735 -67.233169 
L 554.095216 -68.879607 
L 553.886187 -70.526044 
L 553.649619 -72.172481 
L 553.386093 -73.818918 
L 553.09661 -75.465356 
L 552.782326 -77.111793 
L 552.444244 -78.75823 
L 552.082906 -80.404668 
L 551.69817 -82.051105 
L 551.289117 -83.697542 
L 550.854145 -85.34398 
L 550.391282 -86.990417 
L 549.898695 -88.636854 
L 549.375349 -90.283291 
L 548.821722 -91.929729 
L 548.240455 -93.576166 
L 547.636804 -95.222603 
L 547.018772 -96.869041 
L 546.396847 -98.515478 
L 545.783321 -100.161915 
L 545.191247 -101.808353 
L 544.633159 -103.45479 
L 544.119725 -105.101227 
L 543.658548 -106.747664 
L 543.2533 -108.394102 
L 542.903326 -110.040539 
L 542.603778 -111.686976 
L 542.346257 -113.333414 
L 542.119832 -114.979851 
L 541.912269 -116.626288 
L 541.711273 -118.272726 
L 541.505552 -119.919163 
L 541.285602 -121.5656 
L 541.044148 -123.212037 
L 540.776286 -124.858475 
L 540.479413 -126.504912 
L 540.153062 -128.151349 
L 539.798735 -129.797787 
L 539.419818 -131.444224 
L 539.02156 -133.090661 
L 538.611078 -134.737099 
L 538.197296 -136.383536 
L 537.79073 -138.029973 
L 537.403056 -139.676411 
L 537.046446 -141.322848 
L 536.732739 -142.969285 
L 536.472537 -144.615722 
L 536.274391 -146.26216 
L 536.144206 -147.908597 
L 536.084984 -149.555034 
L 536.096963 -151.201472 
L 536.178128 -152.847909 
L 536.325021 -154.494346 
L 536.533692 -156.140784 
L 536.800628 -157.787221 
L 537.123489 -159.433658 
L 537.501516 -161.080095 
L 537.935532 -162.726533 
L 538.427523 -164.37297 
L 538.979878 -166.019407 
L 539.594395 -167.665845 
L 540.271242 -169.312282 
L 541.008034 -170.958719 
L 541.799198 -172.605157 
L 542.635741 -174.251594 
L 543.505467 -175.898031 
L 544.393643 -177.544468 
L 545.284017 -179.190906 
L 546.160062 -180.837343 
L 547.006274 -182.48378 
L 547.809357 -184.130218 
L 548.559141 -185.776655 
L 549.249127 -187.423092 
L 549.876609 -189.06953 
L 550.442382 -190.715967 
L 550.950107 -192.362404 
L 551.405443 -194.008841 
L 551.815086 -195.655279 
L 552.185841 -197.301716 
L 552.523861 -198.948153 
L 552.834114 -200.594591 
L 553.120125 -202.241028 
L 553.38398 -203.887465 
L 553.626545 -205.533903 
L 553.847818 -207.18034 
L 554.047352 -208.826777 
L 554.224651 -210.473214 
L 554.379498 -212.119652 
L 554.512165 -213.766089 
L 554.623511 -215.412526 
L 554.714961 -217.058964 
L 554.788409 -218.705401 
L 554.846064 -220.351838 
L 555.153936 -220.351838 
L 555.153936 -220.351838 
L 555.211591 -218.705401 
L 555.285039 -217.058964 
L 555.376489 -215.412526 
L 555.487835 -213.766089 
L 555.620502 -212.119652 
L 555.775349 -210.473214 
L 555.952648 -208.826777 
L 556.152182 -207.18034 
L 556.373455 -205.533903 
L 556.61602 -203.887465 
L 556.879875 -202.241028 
L 557.165886 -200.594591 
L 557.476139 -198.948153 
L 557.814159 -197.301716 
L 558.184914 -195.655279 
L 558.594557 -194.008841 
L 559.049893 -192.362404 
L 559.557618 -190.715967 
L 560.123391 -189.06953 
L 560.750873 -187.423092 
L 561.440859 -185.776655 
L 562.190643 -184.130218 
L 562.993726 -182.48378 
L 563.839938 -180.837343 
L 564.715983 -179.190906 
L 565.606357 -177.544468 
L 566.494533 -175.898031 
L 567.364259 -174.251594 
L 568.200802 -172.605157 
L 568.991966 -170.958719 
L 569.728758 -169.312282 
L 570.405605 -167.665845 
L 571.020122 -166.019407 
L 571.572477 -164.37297 
L 572.064468 -162.726533 
L 572.498484 -161.080095 
L 572.876511 -159.433658 
L 573.199372 -157.787221 
L 573.466308 -156.140784 
L 573.674979 -154.494346 
L 573.821872 -152.847909 
L 573.903037 -151.201472 
L 573.915016 -149.555034 
L 573.855794 -147.908597 
L 573.725609 -146.26216 
L 573.527463 -144.615722 
L 573.267261 -142.969285 
L 572.953554 -141.322848 
L 572.596944 -139.676411 
L 572.20927 -138.029973 
L 571.802704 -136.383536 
L 571.388922 -134.737099 
L 570.97844 -133.090661 
L 570.580182 -131.444224 
L 570.201265 -129.797787 
L 569.846938 -128.151349 
L 569.520587 -126.504912 
L 569.223714 -124.858475 
L 568.955852 -123.212037 
L 568.714398 -121.5656 
L 568.494448 -119.919163 
L 568.288727 -118.272726 
L 568.087731 -116.626288 
L 567.880168 -114.979851 
L 567.653743 -113.333414 
L 567.396222 -111.686976 
L 567.096674 -110.040539 
L 566.7467 -108.394102 
L 566.341452 -106.747664 
L 565.880275 -105.101227 
L 565.366841 -103.45479 
L 564.808753 -101.808353 
L 564.216679 -100.161915 
L 563.603153 -98.515478 
L 562.981228 -96.869041 
L 562.363196 -95.222603 
L 561.759545 -93.576166 
L 561.178278 -91.929729 
L 560.624651 -90.283291 
L 560.101305 -88.636854 
L 559.608718 -86.990417 
L 559.145855 -85.34398 
L 558.710883 -83.697542 
L 558.30183 -82.051105 
L 557.917094 -80.404668 
L 557.555756 -78.75823 
L 557.217674 -77.111793 
L 556.90339 -75.465356 
L 556.613907 -73.818918 
L 556.350381 -72.172481 
L 556.113813 -70.526044 
L 555.904784 -68.879607 
L 555.723265 -67.233169 
L 555.568533 -65.586732 
L 555.439183 -63.940295 
L 555.333214 -62.293857 
L 555.248187 -60.64742 
L 555.181396 -59.000983 
L 555.130047 -57.354545 
z
" style="stroke: #3d3d3d; stroke-width: 2"/>
    </defs>
    <g clip-path="url(#pb08652c9d5)">
     <use xlink:href="#m68cb2e1a30" x="0" y="360" style="fill: #7f7f7f; stroke: #3d3d3d; stroke-width: 2"/>
    </g>
   </g>
   <g id="PolyCollection_9">
    <defs>
     <path id="m2032b2d94b" d="M 617.297642 -80.502522 
L 616.702358 -80.502522 
L 616.588993 -81.909202 
L 616.442831 -83.315883 
L 616.258212 -84.722563 
L 616.029665 -86.129244 
L 615.752258 -87.535924 
L 615.421936 -88.942605 
L 615.035846 -90.349285 
L 614.592593 -91.755966 
L 614.092409 -93.162646 
L 613.537233 -94.569327 
L 612.930698 -95.976007 
L 612.27805 -97.382688 
L 611.58602 -98.789368 
L 610.862671 -100.196049 
L 610.117233 -101.602729 
L 609.359909 -103.00941 
L 608.601635 -104.41609 
L 607.853747 -105.822771 
L 607.127528 -107.229451 
L 606.433593 -108.636132 
L 605.781139 -110.042812 
L 605.177087 -111.449493 
L 604.625204 -112.856173 
L 604.125323 -114.262854 
L 603.672783 -115.669534 
L 603.25822 -117.076215 
L 602.867802 -118.482895 
L 602.48397 -119.889576 
L 602.086674 -121.296256 
L 601.655056 -122.702937 
L 601.169442 -124.109617 
L 600.613495 -125.516298 
L 599.976308 -126.922978 
L 599.254237 -128.329659 
L 598.452241 -129.736339 
L 597.584556 -131.14302 
L 596.674564 -132.5497 
L 595.753784 -133.956381 
L 594.860018 -135.363061 
L 594.034764 -136.769742 
L 593.320104 -138.176422 
L 592.755356 -139.583103 
L 592.373828 -140.989783 
L 592.2 -142.396464 
L 592.247454 -143.803144 
L 592.517768 -145.209825 
L 593.000495 -146.616505 
L 593.674214 -148.023186 
L 594.508526 -149.429866 
L 595.466727 -150.836547 
L 596.508876 -152.243227 
L 597.594873 -153.649908 
L 598.687252 -155.056588 
L 599.753393 -156.463269 
L 600.766997 -157.869949 
L 601.708745 -159.27663 
L 602.566195 -160.68331 
L 603.333058 -162.089991 
L 604.008066 -163.496672 
L 604.593676 -164.903352 
L 605.094847 -166.310033 
L 605.51807 -167.716713 
L 605.870765 -169.123394 
L 606.161061 -170.530074 
L 606.397889 -171.936755 
L 606.591254 -173.343435 
L 606.752508 -174.750116 
L 606.894456 -176.156796 
L 607.031175 -177.563477 
L 607.177477 -178.970157 
L 607.348053 -180.376838 
L 607.556386 -181.783518 
L 607.813612 -183.190199 
L 608.127486 -184.596879 
L 608.501646 -186.00356 
L 608.935277 -187.41024 
L 609.423237 -188.816921 
L 609.956627 -190.223601 
L 610.523704 -191.630282 
L 611.111005 -193.036962 
L 611.704537 -194.443643 
L 612.290862 -195.850323 
L 612.85799 -197.257004 
L 613.395993 -198.663684 
L 613.89732 -200.070365 
L 614.356851 -201.477045 
L 614.771734 -202.883726 
L 615.141079 -204.290406 
L 615.465578 -205.697087 
L 615.747116 -207.103767 
L 615.988414 -208.510448 
L 616.192728 -209.917128 
L 616.363606 -211.323809 
L 616.504712 -212.730489 
L 616.619694 -214.13717 
L 616.712086 -215.54385 
L 616.785237 -216.950531 
L 616.842261 -218.357211 
L 616.885991 -219.763892 
L 617.114009 -219.763892 
L 617.114009 -219.763892 
L 617.157739 -218.357211 
L 617.214763 -216.950531 
L 617.287914 -215.54385 
L 617.380306 -214.13717 
L 617.495288 -212.730489 
L 617.636394 -211.323809 
L 617.807272 -209.917128 
L 618.011586 -208.510448 
L 618.252884 -207.103767 
L 618.534422 -205.697087 
L 618.858921 -204.290406 
L 619.228266 -202.883726 
L 619.643149 -201.477045 
L 620.10268 -200.070365 
L 620.604007 -198.663684 
L 621.14201 -197.257004 
L 621.709138 -195.850323 
L 622.295463 -194.443643 
L 622.888995 -193.036962 
L 623.476296 -191.630282 
L 624.043373 -190.223601 
L 624.576763 -188.816921 
L 625.064723 -187.41024 
L 625.498354 -186.00356 
L 625.872514 -184.596879 
L 626.186388 -183.190199 
L 626.443614 -181.783518 
L 626.651947 -180.376838 
L 626.822523 -178.970157 
L 626.968825 -177.563477 
L 627.105544 -176.156796 
L 627.247492 -174.750116 
L 627.408746 -173.343435 
L 627.602111 -171.936755 
L 627.838939 -170.530074 
L 628.129235 -169.123394 
L 628.48193 -167.716713 
L 628.905153 -166.310033 
L 629.406324 -164.903352 
L 629.991934 -163.496672 
L 630.666942 -162.089991 
L 631.433805 -160.68331 
L 632.291255 -159.27663 
L 633.233003 -157.869949 
L 634.246607 -156.463269 
L 635.312748 -155.056588 
L 636.405127 -153.649908 
L 637.491124 -152.243227 
L 638.533273 -150.836547 
L 639.491474 -149.429866 
L 640.325786 -148.023186 
L 640.999505 -146.616505 
L 641.482232 -145.209825 
L 641.752546 -143.803144 
L 641.8 -142.396464 
L 641.626172 -140.989783 
L 641.244644 -139.583103 
L 640.679896 -138.176422 
L 639.965236 -136.769742 
L 639.139982 -135.363061 
L 638.246216 -133.956381 
L 637.325436 -132.5497 
L 636.415444 -131.14302 
L 635.547759 -129.736339 
L 634.745763 -128.329659 
L 634.023692 -126.922978 
L 633.386505 -125.516298 
L 632.830558 -124.109617 
L 632.344944 -122.702937 
L 631.913326 -121.296256 
L 631.51603 -119.889576 
L 631.132198 -118.482895 
L 630.74178 -117.076215 
L 630.327217 -115.669534 
L 629.874677 -114.262854 
L 629.374796 -112.856173 
L 628.822913 -111.449493 
L 628.218861 -110.042812 
L 627.566407 -108.636132 
L 626.872472 -107.229451 
L 626.146253 -105.822771 
L 625.398365 -104.41609 
L 624.640091 -103.00941 
L 623.882767 -101.602729 
L 623.137329 -100.196049 
L 622.41398 -98.789368 
L 621.72195 -97.382688 
L 621.069302 -95.976007 
L 620.462767 -94.569327 
L 619.907591 -93.162646 
L 619.407407 -91.755966 
L 618.964154 -90.349285 
L 618.578064 -88.942605 
L 618.247742 -87.535924 
L 617.970335 -86.129244 
L 617.741788 -84.722563 
L 617.557169 -83.315883 
L 617.411007 -81.909202 
L 617.297642 -80.502522 
z
" style="stroke: #3d3d3d; stroke-width: 2"/>
    </defs>
    <g clip-path="url(#pb08652c9d5)">
     <use xlink:href="#m2032b2d94b" x="0" y="360" style="fill: #a9aa35; stroke: #3d3d3d; stroke-width: 2"/>
    </g>
   </g>
   <g id="matplotlib.axis_1">
    <g id="xtick_1">
     <g id="line2d_1">
      <defs>
       <path id="mb1d5efeeb1" d="M 0 0 
L 0 3.5 
" style="stroke: #000000; stroke-width: 2"/>
      </defs>
      <g>
       <use xlink:href="#mb1d5efeeb1" x="121" y="315" style="stroke: #000000; stroke-width: 2"/>
      </g>
     </g>
     <g id="text_1">
      <!-- onehot -->
      <g transform="translate(96.509844 332.637812)scale(0.14 -0.14)">
       <defs>
        <path id="DejaVuSans-6f" d="M 1959 3097 
Q 1497 3097 1228 2736 
Q 959 2375 959 1747 
Q 959 1119 1226 758 
Q 1494 397 1959 397 
Q 2419 397 2687 759 
Q 2956 1122 2956 1747 
Q 2956 2369 2687 2733 
Q 2419 3097 1959 3097 
z
M 1959 3584 
Q 2709 3584 3137 3096 
Q 3566 2609 3566 1747 
Q 3566 888 3137 398 
Q 2709 -91 1959 -91 
Q 1206 -91 779 398 
Q 353 888 353 1747 
Q 353 2609 779 3096 
Q 1206 3584 1959 3584 
z
" transform="scale(0.015625)"/>
        <path id="DejaVuSans-6e" d="M 3513 2113 
L 3513 0 
L 2938 0 
L 2938 2094 
Q 2938 2591 2744 2837 
Q 2550 3084 2163 3084 
Q 1697 3084 1428 2787 
Q 1159 2491 1159 1978 
L 1159 0 
L 581 0 
L 581 3500 
L 1159 3500 
L 1159 2956 
Q 1366 3272 1645 3428 
Q 1925 3584 2291 3584 
Q 2894 3584 3203 3211 
Q 3513 2838 3513 2113 
z
" transform="scale(0.015625)"/>
        <path id="DejaVuSans-65" d="M 3597 1894 
L 3597 1613 
L 953 1613 
Q 991 1019 1311 708 
Q 1631 397 2203 397 
Q 2534 397 2845 478 
Q 3156 559 3463 722 
L 3463 178 
Q 3153 47 2828 -22 
Q 2503 -91 2169 -91 
Q 1331 -91 842 396 
Q 353 884 353 1716 
Q 353 2575 817 3079 
Q 1281 3584 2069 3584 
Q 2775 3584 3186 3129 
Q 3597 2675 3597 1894 
z
M 3022 2063 
Q 3016 2534 2758 2815 
Q 2500 3097 2075 3097 
Q 1594 3097 1305 2825 
Q 1016 2553 972 2059 
L 3022 2063 
z
" transform="scale(0.015625)"/>
        <path id="DejaVuSans-68" d="M 3513 2113 
L 3513 0 
L 2938 0 
L 2938 2094 
Q 2938 2591 2744 2837 
Q 2550 3084 2163 3084 
Q 1697 3084 1428 2787 
Q 1159 2491 1159 1978 
L 1159 0 
L 581 0 
L 581 4863 
L 1159 4863 
L 1159 2956 
Q 1366 3272 1645 3428 
Q 1925 3584 2291 3584 
Q 2894 3584 3203 3211 
Q 3513 2838 3513 2113 
z
" transform="scale(0.015625)"/>
        <path id="DejaVuSans-74" d="M 1172 4494 
L 1172 3500 
L 2356 3500 
L 2356 3053 
L 1172 3053 
L 1172 1153 
Q 1172 725 1289 603 
Q 1406 481 1766 481 
L 2356 481 
L 2356 0 
L 1766 0 
Q 1100 0 847 248 
Q 594 497 594 1153 
L 594 3053 
L 172 3053 
L 172 3500 
L 594 3500 
L 594 4494 
L 1172 4494 
z
" transform="scale(0.015625)"/>
       </defs>
       <use xlink:href="#DejaVuSans-6f"/>
       <use xlink:href="#DejaVuSans-6e" x="61.181641"/>
       <use xlink:href="#DejaVuSans-65" x="124.560547"/>
       <use xlink:href="#DejaVuSans-68" x="186.083984"/>
       <use xlink:href="#DejaVuSans-6f" x="249.462891"/>
       <use xlink:href="#DejaVuSans-74" x="310.644531"/>
      </g>
     </g>
    </g>
    <g id="xtick_2">
     <g id="line2d_2">
      <g>
       <use xlink:href="#mb1d5efeeb1" x="183" y="315" style="stroke: #000000; stroke-width: 2"/>
      </g>
     </g>
     <g id="text_2">
      <!-- ESM -->
      <g transform="translate(168.093281 332.637812)scale(0.14 -0.14)">
       <defs>
        <path id="DejaVuSans-45" d="M 628 4666 
L 3578 4666 
L 3578 4134 
L 1259 4134 
L 1259 2753 
L 3481 2753 
L 3481 2222 
L 1259 2222 
L 1259 531 
L 3634 531 
L 3634 0 
L 628 0 
L 628 4666 
z
" transform="scale(0.015625)"/>
        <path id="DejaVuSans-53" d="M 3425 4513 
L 3425 3897 
Q 3066 4069 2747 4153 
Q 2428 4238 2131 4238 
Q 1616 4238 1336 4038 
Q 1056 3838 1056 3469 
Q 1056 3159 1242 3001 
Q 1428 2844 1947 2747 
L 2328 2669 
Q 3034 2534 3370 2195 
Q 3706 1856 3706 1288 
Q 3706 609 3251 259 
Q 2797 -91 1919 -91 
Q 1588 -91 1214 -16 
Q 841 59 441 206 
L 441 856 
Q 825 641 1194 531 
Q 1563 422 1919 422 
Q 2459 422 2753 634 
Q 3047 847 3047 1241 
Q 3047 1584 2836 1778 
Q 2625 1972 2144 2069 
L 1759 2144 
Q 1053 2284 737 2584 
Q 422 2884 422 3419 
Q 422 4038 858 4394 
Q 1294 4750 2059 4750 
Q 2388 4750 2728 4690 
Q 3069 4631 3425 4513 
z
" transform="scale(0.015625)"/>
        <path id="DejaVuSans-4d" d="M 628 4666 
L 1569 4666 
L 2759 1491 
L 3956 4666 
L 4897 4666 
L 4897 0 
L 4281 0 
L 4281 4097 
L 3078 897 
L 2444 897 
L 1241 4097 
L 1241 0 
L 628 0 
L 628 4666 
z
" transform="scale(0.015625)"/>
       </defs>
       <use xlink:href="#DejaVuSans-45"/>
       <use xlink:href="#DejaVuSans-53" x="63.183594"/>
       <use xlink:href="#DejaVuSans-4d" x="126.660156"/>
      </g>
     </g>
    </g>
    <g id="xtick_3">
     <g id="line2d_3">
      <g>
       <use xlink:href="#mb1d5efeeb1" x="245" y="315" style="stroke: #000000; stroke-width: 2"/>
      </g>
     </g>
     <g id="text_3">
      <!-- GAE (orig) -->
      <g transform="translate(209.128281 332.637812)scale(0.14 -0.14)">
       <defs>
        <path id="DejaVuSans-47" d="M 3809 666 
L 3809 1919 
L 2778 1919 
L 2778 2438 
L 4434 2438 
L 4434 434 
Q 4069 175 3628 42 
Q 3188 -91 2688 -91 
Q 1594 -91 976 548 
Q 359 1188 359 2328 
Q 359 3472 976 4111 
Q 1594 4750 2688 4750 
Q 3144 4750 3555 4637 
Q 3966 4525 4313 4306 
L 4313 3634 
Q 3963 3931 3569 4081 
Q 3175 4231 2741 4231 
Q 1884 4231 1454 3753 
Q 1025 3275 1025 2328 
Q 1025 1384 1454 906 
Q 1884 428 2741 428 
Q 3075 428 3337 486 
Q 3600 544 3809 666 
z
" transform="scale(0.015625)"/>
        <path id="DejaVuSans-41" d="M 2188 4044 
L 1331 1722 
L 3047 1722 
L 2188 4044 
z
M 1831 4666 
L 2547 4666 
L 4325 0 
L 3669 0 
L 3244 1197 
L 1141 1197 
L 716 0 
L 50 0 
L 1831 4666 
z
" transform="scale(0.015625)"/>
        <path id="DejaVuSans-20" transform="scale(0.015625)"/>
        <path id="DejaVuSans-28" d="M 1984 4856 
Q 1566 4138 1362 3434 
Q 1159 2731 1159 2009 
Q 1159 1288 1364 580 
Q 1569 -128 1984 -844 
L 1484 -844 
Q 1016 -109 783 600 
Q 550 1309 550 2009 
Q 550 2706 781 3412 
Q 1013 4119 1484 4856 
L 1984 4856 
z
" transform="scale(0.015625)"/>
        <path id="DejaVuSans-72" d="M 2631 2963 
Q 2534 3019 2420 3045 
Q 2306 3072 2169 3072 
Q 1681 3072 1420 2755 
Q 1159 2438 1159 1844 
L 1159 0 
L 581 0 
L 581 3500 
L 1159 3500 
L 1159 2956 
Q 1341 3275 1631 3429 
Q 1922 3584 2338 3584 
Q 2397 3584 2469 3576 
Q 2541 3569 2628 3553 
L 2631 2963 
z
" transform="scale(0.015625)"/>
        <path id="DejaVuSans-69" d="M 603 3500 
L 1178 3500 
L 1178 0 
L 603 0 
L 603 3500 
z
M 603 4863 
L 1178 4863 
L 1178 4134 
L 603 4134 
L 603 4863 
z
" transform="scale(0.015625)"/>
        <path id="DejaVuSans-67" d="M 2906 1791 
Q 2906 2416 2648 2759 
Q 2391 3103 1925 3103 
Q 1463 3103 1205 2759 
Q 947 2416 947 1791 
Q 947 1169 1205 825 
Q 1463 481 1925 481 
Q 2391 481 2648 825 
Q 2906 1169 2906 1791 
z
M 3481 434 
Q 3481 -459 3084 -895 
Q 2688 -1331 1869 -1331 
Q 1566 -1331 1297 -1286 
Q 1028 -1241 775 -1147 
L 775 -588 
Q 1028 -725 1275 -790 
Q 1522 -856 1778 -856 
Q 2344 -856 2625 -561 
Q 2906 -266 2906 331 
L 2906 616 
Q 2728 306 2450 153 
Q 2172 0 1784 0 
Q 1141 0 747 490 
Q 353 981 353 1791 
Q 353 2603 747 3093 
Q 1141 3584 1784 3584 
Q 2172 3584 2450 3431 
Q 2728 3278 2906 2969 
L 2906 3500 
L 3481 3500 
L 3481 434 
z
" transform="scale(0.015625)"/>
        <path id="DejaVuSans-29" d="M 513 4856 
L 1013 4856 
Q 1481 4119 1714 3412 
Q 1947 2706 1947 2009 
Q 1947 1309 1714 600 
Q 1481 -109 1013 -844 
L 513 -844 
Q 928 -128 1133 580 
Q 1338 1288 1338 2009 
Q 1338 2731 1133 3434 
Q 928 4138 513 4856 
z
" transform="scale(0.015625)"/>
       </defs>
       <use xlink:href="#DejaVuSans-47"/>
       <use xlink:href="#DejaVuSans-41" x="77.490234"/>
       <use xlink:href="#DejaVuSans-45" x="145.898438"/>
       <use xlink:href="#DejaVuSans-20" x="209.082031"/>
       <use xlink:href="#DejaVuSans-28" x="240.869141"/>
       <use xlink:href="#DejaVuSans-6f" x="279.882812"/>
       <use xlink:href="#DejaVuSans-72" x="341.064453"/>
       <use xlink:href="#DejaVuSans-69" x="382.177734"/>
       <use xlink:href="#DejaVuSans-67" x="409.960938"/>
       <use xlink:href="#DejaVuSans-29" x="473.4375"/>
      </g>
     </g>
    </g>
    <g id="xtick_4">
     <g id="line2d_4">
      <g>
       <use xlink:href="#mb1d5efeeb1" x="307" y="315" style="stroke: #000000; stroke-width: 2"/>
      </g>
     </g>
     <g id="text_4">
      <!-- 4lay -->
      <g transform="translate(292.16875 332.637812)scale(0.14 -0.14)">
       <defs>
        <path id="DejaVuSans-34" d="M 2419 4116 
L 825 1625 
L 2419 1625 
L 2419 4116 
z
M 2253 4666 
L 3047 4666 
L 3047 1625 
L 3713 1625 
L 3713 1100 
L 3047 1100 
L 3047 0 
L 2419 0 
L 2419 1100 
L 313 1100 
L 313 1709 
L 2253 4666 
z
" transform="scale(0.015625)"/>
        <path id="DejaVuSans-6c" d="M 603 4863 
L 1178 4863 
L 1178 0 
L 603 0 
L 603 4863 
z
" transform="scale(0.015625)"/>
        <path id="DejaVuSans-61" d="M 2194 1759 
Q 1497 1759 1228 1600 
Q 959 1441 959 1056 
Q 959 750 1161 570 
Q 1363 391 1709 391 
Q 2188 391 2477 730 
Q 2766 1069 2766 1631 
L 2766 1759 
L 2194 1759 
z
M 3341 1997 
L 3341 0 
L 2766 0 
L 2766 531 
Q 2569 213 2275 61 
Q 1981 -91 1556 -91 
Q 1019 -91 701 211 
Q 384 513 384 1019 
Q 384 1609 779 1909 
Q 1175 2209 1959 2209 
L 2766 2209 
L 2766 2266 
Q 2766 2663 2505 2880 
Q 2244 3097 1772 3097 
Q 1472 3097 1187 3025 
Q 903 2953 641 2809 
L 641 3341 
Q 956 3463 1253 3523 
Q 1550 3584 1831 3584 
Q 2591 3584 2966 3190 
Q 3341 2797 3341 1997 
z
" transform="scale(0.015625)"/>
        <path id="DejaVuSans-79" d="M 2059 -325 
Q 1816 -950 1584 -1140 
Q 1353 -1331 966 -1331 
L 506 -1331 
L 506 -850 
L 844 -850 
Q 1081 -850 1212 -737 
Q 1344 -625 1503 -206 
L 1606 56 
L 191 3500 
L 800 3500 
L 1894 763 
L 2988 3500 
L 3597 3500 
L 2059 -325 
z
" transform="scale(0.015625)"/>
       </defs>
       <use xlink:href="#DejaVuSans-34"/>
       <use xlink:href="#DejaVuSans-6c" x="63.623047"/>
       <use xlink:href="#DejaVuSans-61" x="91.40625"/>
       <use xlink:href="#DejaVuSans-79" x="152.685547"/>
      </g>
     </g>
    </g>
    <g id="xtick_5">
     <g id="line2d_5">
      <g>
       <use xlink:href="#mb1d5efeeb1" x="369" y="315" style="stroke: #000000; stroke-width: 2"/>
      </g>
     </g>
     <g id="text_5">
      <!-- edge -->
      <g transform="translate(351.497813 332.637812)scale(0.14 -0.14)">
       <defs>
        <path id="DejaVuSans-64" d="M 2906 2969 
L 2906 4863 
L 3481 4863 
L 3481 0 
L 2906 0 
L 2906 525 
Q 2725 213 2448 61 
Q 2172 -91 1784 -91 
Q 1150 -91 751 415 
Q 353 922 353 1747 
Q 353 2572 751 3078 
Q 1150 3584 1784 3584 
Q 2172 3584 2448 3432 
Q 2725 3281 2906 2969 
z
M 947 1747 
Q 947 1113 1208 752 
Q 1469 391 1925 391 
Q 2381 391 2643 752 
Q 2906 1113 2906 1747 
Q 2906 2381 2643 2742 
Q 2381 3103 1925 3103 
Q 1469 3103 1208 2742 
Q 947 2381 947 1747 
z
" transform="scale(0.015625)"/>
       </defs>
       <use xlink:href="#DejaVuSans-65"/>
       <use xlink:href="#DejaVuSans-64" x="61.523438"/>
       <use xlink:href="#DejaVuSans-67" x="125"/>
       <use xlink:href="#DejaVuSans-65" x="188.476562"/>
      </g>
     </g>
    </g>
    <g id="xtick_6">
     <g id="line2d_6">
      <g>
       <use xlink:href="#mb1d5efeeb1" x="431" y="315" style="stroke: #000000; stroke-width: 2"/>
      </g>
     </g>
     <g id="text_6">
      <!-- GCN -->
      <g transform="translate(415.45125 332.637812)scale(0.14 -0.14)">
       <defs>
        <path id="DejaVuSans-43" d="M 4122 4306 
L 4122 3641 
Q 3803 3938 3442 4084 
Q 3081 4231 2675 4231 
Q 1875 4231 1450 3742 
Q 1025 3253 1025 2328 
Q 1025 1406 1450 917 
Q 1875 428 2675 428 
Q 3081 428 3442 575 
Q 3803 722 4122 1019 
L 4122 359 
Q 3791 134 3420 21 
Q 3050 -91 2638 -91 
Q 1578 -91 968 557 
Q 359 1206 359 2328 
Q 359 3453 968 4101 
Q 1578 4750 2638 4750 
Q 3056 4750 3426 4639 
Q 3797 4528 4122 4306 
z
" transform="scale(0.015625)"/>
        <path id="DejaVuSans-4e" d="M 628 4666 
L 1478 4666 
L 3547 763 
L 3547 4666 
L 4159 4666 
L 4159 0 
L 3309 0 
L 1241 3903 
L 1241 0 
L 628 0 
L 628 4666 
z
" transform="scale(0.015625)"/>
       </defs>
       <use xlink:href="#DejaVuSans-47"/>
       <use xlink:href="#DejaVuSans-43" x="77.490234"/>
       <use xlink:href="#DejaVuSans-4e" x="147.314453"/>
      </g>
     </g>
    </g>
    <g id="xtick_7">
     <g id="line2d_7">
      <g>
       <use xlink:href="#mb1d5efeeb1" x="493" y="315" style="stroke: #000000; stroke-width: 2"/>
      </g>
     </g>
     <g id="text_7">
      <!-- hdim512 -->
      <g transform="translate(461.995469 332.637812)scale(0.14 -0.14)">
       <defs>
        <path id="DejaVuSans-6d" d="M 3328 2828 
Q 3544 3216 3844 3400 
Q 4144 3584 4550 3584 
Q 5097 3584 5394 3201 
Q 5691 2819 5691 2113 
L 5691 0 
L 5113 0 
L 5113 2094 
Q 5113 2597 4934 2840 
Q 4756 3084 4391 3084 
Q 3944 3084 3684 2787 
Q 3425 2491 3425 1978 
L 3425 0 
L 2847 0 
L 2847 2094 
Q 2847 2600 2669 2842 
Q 2491 3084 2119 3084 
Q 1678 3084 1418 2786 
Q 1159 2488 1159 1978 
L 1159 0 
L 581 0 
L 581 3500 
L 1159 3500 
L 1159 2956 
Q 1356 3278 1631 3431 
Q 1906 3584 2284 3584 
Q 2666 3584 2933 3390 
Q 3200 3197 3328 2828 
z
" transform="scale(0.015625)"/>
        <path id="DejaVuSans-35" d="M 691 4666 
L 3169 4666 
L 3169 4134 
L 1269 4134 
L 1269 2991 
Q 1406 3038 1543 3061 
Q 1681 3084 1819 3084 
Q 2600 3084 3056 2656 
Q 3513 2228 3513 1497 
Q 3513 744 3044 326 
Q 2575 -91 1722 -91 
Q 1428 -91 1123 -41 
Q 819 9 494 109 
L 494 744 
Q 775 591 1075 516 
Q 1375 441 1709 441 
Q 2250 441 2565 725 
Q 2881 1009 2881 1497 
Q 2881 1984 2565 2268 
Q 2250 2553 1709 2553 
Q 1456 2553 1204 2497 
Q 953 2441 691 2322 
L 691 4666 
z
" transform="scale(0.015625)"/>
        <path id="DejaVuSans-31" d="M 794 531 
L 1825 531 
L 1825 4091 
L 703 3866 
L 703 4441 
L 1819 4666 
L 2450 4666 
L 2450 531 
L 3481 531 
L 3481 0 
L 794 0 
L 794 531 
z
" transform="scale(0.015625)"/>
        <path id="DejaVuSans-32" d="M 1228 531 
L 3431 531 
L 3431 0 
L 469 0 
L 469 531 
Q 828 903 1448 1529 
Q 2069 2156 2228 2338 
Q 2531 2678 2651 2914 
Q 2772 3150 2772 3378 
Q 2772 3750 2511 3984 
Q 2250 4219 1831 4219 
Q 1534 4219 1204 4116 
Q 875 4013 500 3803 
L 500 4441 
Q 881 4594 1212 4672 
Q 1544 4750 1819 4750 
Q 2544 4750 2975 4387 
Q 3406 4025 3406 3419 
Q 3406 3131 3298 2873 
Q 3191 2616 2906 2266 
Q 2828 2175 2409 1742 
Q 1991 1309 1228 531 
z
" transform="scale(0.015625)"/>
       </defs>
       <use xlink:href="#DejaVuSans-68"/>
       <use xlink:href="#DejaVuSans-64" x="63.378906"/>
       <use xlink:href="#DejaVuSans-69" x="126.855469"/>
       <use xlink:href="#DejaVuSans-6d" x="154.638672"/>
       <use xlink:href="#DejaVuSans-35" x="252.050781"/>
       <use xlink:href="#DejaVuSans-31" x="315.673828"/>
       <use xlink:href="#DejaVuSans-32" x="379.296875"/>
      </g>
     </g>
    </g>
    <g id="xtick_8">
     <g id="line2d_8">
      <g>
       <use xlink:href="#mb1d5efeeb1" x="555" y="315" style="stroke: #000000; stroke-width: 2"/>
      </g>
     </g>
     <g id="text_8">
      <!-- onehot -->
      <g transform="translate(530.509844 332.637812)scale(0.14 -0.14)">
       <use xlink:href="#DejaVuSans-6f"/>
       <use xlink:href="#DejaVuSans-6e" x="61.181641"/>
       <use xlink:href="#DejaVuSans-65" x="124.560547"/>
       <use xlink:href="#DejaVuSans-68" x="186.083984"/>
       <use xlink:href="#DejaVuSans-6f" x="249.462891"/>
       <use xlink:href="#DejaVuSans-74" x="310.644531"/>
      </g>
     </g>
    </g>
    <g id="xtick_9">
     <g id="line2d_9">
      <g>
       <use xlink:href="#mb1d5efeeb1" x="617" y="315" style="stroke: #000000; stroke-width: 2"/>
      </g>
     </g>
     <g id="text_9">
      <!-- VGAE -->
      <g transform="translate(597.576094 332.637812)scale(0.14 -0.14)">
       <defs>
        <path id="DejaVuSans-56" d="M 1831 0 
L 50 4666 
L 709 4666 
L 2188 738 
L 3669 4666 
L 4325 4666 
L 2547 0 
L 1831 0 
z
" transform="scale(0.015625)"/>
       </defs>
       <use xlink:href="#DejaVuSans-56"/>
       <use xlink:href="#DejaVuSans-47" x="68.408203"/>
       <use xlink:href="#DejaVuSans-41" x="145.898438"/>
       <use xlink:href="#DejaVuSans-45" x="214.306641"/>
      </g>
     </g>
    </g>
   </g>
   <g id="matplotlib.axis_2">
    <g id="ytick_1">
     <g id="line2d_10">
      <path d="M 90 270.226142 
L 648 270.226142 
" clip-path="url(#pb08652c9d5)" style="fill: none; stroke: #b0b0b0; stroke-width: 0.8; stroke-linecap: square"/>
     </g>
     <g id="line2d_11">
      <defs>
       <path id="m0a40d1dbfa" d="M 0 0 
L -3.5 0 
" style="stroke: #000000; stroke-width: 2"/>
      </defs>
      <g>
       <use xlink:href="#m0a40d1dbfa" x="90" y="270.226142" style="stroke: #000000; stroke-width: 2"/>
      </g>
     </g>
     <g id="text_10">
      <!-- 0.65 -->
      <g transform="translate(51.828125 275.545049)scale(0.14 -0.14)">
       <defs>
        <path id="DejaVuSans-30" d="M 2034 4250 
Q 1547 4250 1301 3770 
Q 1056 3291 1056 2328 
Q 1056 1369 1301 889 
Q 1547 409 2034 409 
Q 2525 409 2770 889 
Q 3016 1369 3016 2328 
Q 3016 3291 2770 3770 
Q 2525 4250 2034 4250 
z
M 2034 4750 
Q 2819 4750 3233 4129 
Q 3647 3509 3647 2328 
Q 3647 1150 3233 529 
Q 2819 -91 2034 -91 
Q 1250 -91 836 529 
Q 422 1150 422 2328 
Q 422 3509 836 4129 
Q 1250 4750 2034 4750 
z
" transform="scale(0.015625)"/>
        <path id="DejaVuSans-2e" d="M 684 794 
L 1344 794 
L 1344 0 
L 684 0 
L 684 794 
z
" transform="scale(0.015625)"/>
        <path id="DejaVuSans-36" d="M 2113 2584 
Q 1688 2584 1439 2293 
Q 1191 2003 1191 1497 
Q 1191 994 1439 701 
Q 1688 409 2113 409 
Q 2538 409 2786 701 
Q 3034 994 3034 1497 
Q 3034 2003 2786 2293 
Q 2538 2584 2113 2584 
z
M 3366 4563 
L 3366 3988 
Q 3128 4100 2886 4159 
Q 2644 4219 2406 4219 
Q 1781 4219 1451 3797 
Q 1122 3375 1075 2522 
Q 1259 2794 1537 2939 
Q 1816 3084 2150 3084 
Q 2853 3084 3261 2657 
Q 3669 2231 3669 1497 
Q 3669 778 3244 343 
Q 2819 -91 2113 -91 
Q 1303 -91 875 529 
Q 447 1150 447 2328 
Q 447 3434 972 4092 
Q 1497 4750 2381 4750 
Q 2619 4750 2861 4703 
Q 3103 4656 3366 4563 
z
" transform="scale(0.015625)"/>
       </defs>
       <use xlink:href="#DejaVuSans-30"/>
       <use xlink:href="#DejaVuSans-2e" x="63.623047"/>
       <use xlink:href="#DejaVuSans-36" x="95.410156"/>
       <use xlink:href="#DejaVuSans-35" x="159.033203"/>
      </g>
     </g>
    </g>
    <g id="ytick_2">
     <g id="line2d_12">
      <path d="M 90 211.628311 
L 648 211.628311 
" clip-path="url(#pb08652c9d5)" style="fill: none; stroke: #b0b0b0; stroke-width: 0.8; stroke-linecap: square"/>
     </g>
     <g id="line2d_13">
      <g>
       <use xlink:href="#m0a40d1dbfa" x="90" y="211.628311" style="stroke: #000000; stroke-width: 2"/>
      </g>
     </g>
     <g id="text_11">
      <!-- 0.70 -->
      <g transform="translate(51.828125 216.947217)scale(0.14 -0.14)">
       <defs>
        <path id="DejaVuSans-37" d="M 525 4666 
L 3525 4666 
L 3525 4397 
L 1831 0 
L 1172 0 
L 2766 4134 
L 525 4134 
L 525 4666 
z
" transform="scale(0.015625)"/>
       </defs>
       <use xlink:href="#DejaVuSans-30"/>
       <use xlink:href="#DejaVuSans-2e" x="63.623047"/>
       <use xlink:href="#DejaVuSans-37" x="95.410156"/>
       <use xlink:href="#DejaVuSans-30" x="159.033203"/>
      </g>
     </g>
    </g>
    <g id="ytick_3">
     <g id="line2d_14">
      <path d="M 90 153.030479 
L 648 153.030479 
" clip-path="url(#pb08652c9d5)" style="fill: none; stroke: #b0b0b0; stroke-width: 0.8; stroke-linecap: square"/>
     </g>
     <g id="line2d_15">
      <g>
       <use xlink:href="#m0a40d1dbfa" x="90" y="153.030479" style="stroke: #000000; stroke-width: 2"/>
      </g>
     </g>
     <g id="text_12">
      <!-- 0.75 -->
      <g transform="translate(51.828125 158.349386)scale(0.14 -0.14)">
       <use xlink:href="#DejaVuSans-30"/>
       <use xlink:href="#DejaVuSans-2e" x="63.623047"/>
       <use xlink:href="#DejaVuSans-37" x="95.410156"/>
       <use xlink:href="#DejaVuSans-35" x="159.033203"/>
      </g>
     </g>
    </g>
    <g id="ytick_4">
     <g id="line2d_16">
      <path d="M 90 94.432648 
L 648 94.432648 
" clip-path="url(#pb08652c9d5)" style="fill: none; stroke: #b0b0b0; stroke-width: 0.8; stroke-linecap: square"/>
     </g>
     <g id="line2d_17">
      <g>
       <use xlink:href="#m0a40d1dbfa" x="90" y="94.432648" style="stroke: #000000; stroke-width: 2"/>
      </g>
     </g>
     <g id="text_13">
      <!-- 0.80 -->
      <g transform="translate(51.828125 99.751554)scale(0.14 -0.14)">
       <defs>
        <path id="DejaVuSans-38" d="M 2034 2216 
Q 1584 2216 1326 1975 
Q 1069 1734 1069 1313 
Q 1069 891 1326 650 
Q 1584 409 2034 409 
Q 2484 409 2743 651 
Q 3003 894 3003 1313 
Q 3003 1734 2745 1975 
Q 2488 2216 2034 2216 
z
M 1403 2484 
Q 997 2584 770 2862 
Q 544 3141 544 3541 
Q 544 4100 942 4425 
Q 1341 4750 2034 4750 
Q 2731 4750 3128 4425 
Q 3525 4100 3525 3541 
Q 3525 3141 3298 2862 
Q 3072 2584 2669 2484 
Q 3125 2378 3379 2068 
Q 3634 1759 3634 1313 
Q 3634 634 3220 271 
Q 2806 -91 2034 -91 
Q 1263 -91 848 271 
Q 434 634 434 1313 
Q 434 1759 690 2068 
Q 947 2378 1403 2484 
z
M 1172 3481 
Q 1172 3119 1398 2916 
Q 1625 2713 2034 2713 
Q 2441 2713 2670 2916 
Q 2900 3119 2900 3481 
Q 2900 3844 2670 4047 
Q 2441 4250 2034 4250 
Q 1625 4250 1398 4047 
Q 1172 3844 1172 3481 
z
" transform="scale(0.015625)"/>
       </defs>
       <use xlink:href="#DejaVuSans-30"/>
       <use xlink:href="#DejaVuSans-2e" x="63.623047"/>
       <use xlink:href="#DejaVuSans-38" x="95.410156"/>
       <use xlink:href="#DejaVuSans-30" x="159.033203"/>
      </g>
     </g>
    </g>
    <g id="text_14">
     <!-- NDCG -->
     <g transform="translate(44.916562 200.03875)rotate(-90)scale(0.14 -0.14)">
      <defs>
       <path id="DejaVuSans-44" d="M 1259 4147 
L 1259 519 
L 2022 519 
Q 2988 519 3436 956 
Q 3884 1394 3884 2338 
Q 3884 3275 3436 3711 
Q 2988 4147 2022 4147 
L 1259 4147 
z
M 628 4666 
L 1925 4666 
Q 3281 4666 3915 4102 
Q 4550 3538 4550 2338 
Q 4550 1131 3912 565 
Q 3275 0 1925 0 
L 628 0 
L 628 4666 
z
" transform="scale(0.015625)"/>
      </defs>
      <use xlink:href="#DejaVuSans-4e"/>
      <use xlink:href="#DejaVuSans-44" x="74.804688"/>
      <use xlink:href="#DejaVuSans-43" x="151.806641"/>
      <use xlink:href="#DejaVuSans-47" x="221.630859"/>
     </g>
    </g>
   </g>
   <g id="line2d_18">
    <path d="M 121 251.66013 
L 121 132.657373 
" clip-path="url(#pb08652c9d5)" style="fill: none; stroke: #3d3d3d; stroke-width: 2; stroke-linecap: square"/>
   </g>
   <g id="line2d_19">
    <path d="M 121 225.980636 
L 121 186.462326 
" clip-path="url(#pb08652c9d5)" style="fill: none; stroke: #3d3d3d; stroke-width: 6; stroke-linecap: square"/>
   </g>
   <g id="line2d_20">
    <path d="M 183 240.420755 
L 183 107.864068 
" clip-path="url(#pb08652c9d5)" style="fill: none; stroke: #3d3d3d; stroke-width: 2; stroke-linecap: square"/>
   </g>
   <g id="line2d_21">
    <path d="M 183 202.550075 
L 183 163.266588 
" clip-path="url(#pb08652c9d5)" style="fill: none; stroke: #3d3d3d; stroke-width: 6; stroke-linecap: square"/>
   </g>
   <g id="line2d_22">
    <path d="M 245 247.8168 
L 245 142.355285 
" clip-path="url(#pb08652c9d5)" style="fill: none; stroke: #3d3d3d; stroke-width: 2; stroke-linecap: square"/>
   </g>
   <g id="line2d_23">
    <path d="M 245 218.772139 
L 245 181.750042 
" clip-path="url(#pb08652c9d5)" style="fill: none; stroke: #3d3d3d; stroke-width: 6; stroke-linecap: square"/>
   </g>
   <g id="line2d_24">
    <path d="M 307 274.137933 
L 307 118.905105 
" clip-path="url(#pb08652c9d5)" style="fill: none; stroke: #3d3d3d; stroke-width: 2; stroke-linecap: square"/>
   </g>
   <g id="line2d_25">
    <path d="M 307 226.282462 
L 307 176.524117 
" clip-path="url(#pb08652c9d5)" style="fill: none; stroke: #3d3d3d; stroke-width: 6; stroke-linecap: square"/>
   </g>
   <g id="line2d_26">
    <path d="M 369 253.61084 
L 369 119.02124 
" clip-path="url(#pb08652c9d5)" style="fill: none; stroke: #3d3d3d; stroke-width: 2; stroke-linecap: square"/>
   </g>
   <g id="line2d_27">
    <path d="M 369 208.994825 
L 369 168.320166 
" clip-path="url(#pb08652c9d5)" style="fill: none; stroke: #3d3d3d; stroke-width: 6; stroke-linecap: square"/>
   </g>
   <g id="line2d_28">
    <path d="M 431 243.271081 
L 431 88.374033 
" clip-path="url(#pb08652c9d5)" style="fill: none; stroke: #3d3d3d; stroke-width: 2; stroke-linecap: square"/>
   </g>
   <g id="line2d_29">
    <path d="M 431 200.34182 
L 431 154.9232 
" clip-path="url(#pb08652c9d5)" style="fill: none; stroke: #3d3d3d; stroke-width: 6; stroke-linecap: square"/>
   </g>
   <g id="line2d_30">
    <path d="M 493 250.890267 
L 493 82.009775 
" clip-path="url(#pb08652c9d5)" style="fill: none; stroke: #3d3d3d; stroke-width: 2; stroke-linecap: square"/>
   </g>
   <g id="line2d_31">
    <path d="M 493 204.534934 
L 493 154.695632 
" clip-path="url(#pb08652c9d5)" style="fill: none; stroke: #3d3d3d; stroke-width: 6; stroke-linecap: square"/>
   </g>
   <g id="line2d_32">
    <path d="M 555 280.859205 
L 555 161.434411 
" clip-path="url(#pb08652c9d5)" style="fill: none; stroke: #3d3d3d; stroke-width: 2; stroke-linecap: square"/>
   </g>
   <g id="line2d_33">
    <path d="M 555 238.534376 
L 555 197.944549 
" clip-path="url(#pb08652c9d5)" style="fill: none; stroke: #3d3d3d; stroke-width: 6; stroke-linecap: square"/>
   </g>
   <g id="line2d_34">
    <path d="M 617 260.312803 
L 617 159.420783 
" clip-path="url(#pb08652c9d5)" style="fill: none; stroke: #3d3d3d; stroke-width: 2; stroke-linecap: square"/>
   </g>
   <g id="line2d_35">
    <path d="M 617 231.611968 
L 617 199.884421 
" clip-path="url(#pb08652c9d5)" style="fill: none; stroke: #3d3d3d; stroke-width: 6; stroke-linecap: square"/>
   </g>
   <g id="patch_3">
    <path d="M 90 315 
L 90 43.2 
" style="fill: none; stroke: #000000; stroke-width: 2; stroke-linejoin: miter; stroke-linecap: square"/>
   </g>
   <g id="patch_4">
    <path d="M 648 315 
L 648 43.2 
" style="fill: none; stroke: #000000; stroke-width: 2; stroke-linejoin: miter; stroke-linecap: square"/>
   </g>
   <g id="patch_5">
    <path d="M 90 315 
L 648 315 
" style="fill: none; stroke: #000000; stroke-width: 2; stroke-linejoin: miter; stroke-linecap: square"/>
   </g>
   <g id="patch_6">
    <path d="M 90 43.2 
L 648 43.2 
" style="fill: none; stroke: #000000; stroke-width: 2; stroke-linejoin: miter; stroke-linecap: square"/>
   </g>
   <g id="PathCollection_1">
    <defs>
     <path id="me5d8a29c92" d="M 0 2 
C 0.530406 2 1.03916 1.789267 1.414214 1.414214 
C 1.789267 1.03916 2 0.530406 2 0 
C 2 -0.530406 1.789267 -1.03916 1.414214 -1.414214 
C 1.03916 -1.789267 0.530406 -2 0 -2 
C -0.530406 -2 -1.03916 -1.789267 -1.414214 -1.414214 
C -1.789267 -1.03916 -2 -0.530406 -2 0 
C -2 0.530406 -1.789267 1.03916 -1.414214 1.414214 
C -1.03916 1.789267 -0.530406 2 0 2 
z
" style="stroke: #3d3d3d"/>
    </defs>
    <g clip-path="url(#pb08652c9d5)">
     <use xlink:href="#me5d8a29c92" x="121" y="202.666313" style="fill: #ffffff; stroke: #3d3d3d"/>
    </g>
   </g>
   <g id="PathCollection_2">
    <g clip-path="url(#pb08652c9d5)">
     <use xlink:href="#me5d8a29c92" x="183" y="189.823538" style="fill: #ffffff; stroke: #3d3d3d"/>
    </g>
   </g>
   <g id="PathCollection_3">
    <g clip-path="url(#pb08652c9d5)">
     <use xlink:href="#me5d8a29c92" x="245" y="198.062224" style="fill: #ffffff; stroke: #3d3d3d"/>
    </g>
   </g>
   <g id="PathCollection_4">
    <g clip-path="url(#pb08652c9d5)">
     <use xlink:href="#me5d8a29c92" x="307" y="203.135675" style="fill: #ffffff; stroke: #3d3d3d"/>
    </g>
   </g>
   <g id="PathCollection_5">
    <g clip-path="url(#pb08652c9d5)">
     <use xlink:href="#me5d8a29c92" x="369" y="185.738055" style="fill: #ffffff; stroke: #3d3d3d"/>
    </g>
   </g>
   <g id="PathCollection_6">
    <g clip-path="url(#pb08652c9d5)">
     <use xlink:href="#me5d8a29c92" x="431" y="182.131035" style="fill: #ffffff; stroke: #3d3d3d"/>
    </g>
   </g>
   <g id="PathCollection_7">
    <g clip-path="url(#pb08652c9d5)">
     <use xlink:href="#me5d8a29c92" x="493" y="179.299663" style="fill: #ffffff; stroke: #3d3d3d"/>
    </g>
   </g>
   <g id="PathCollection_8">
    <g clip-path="url(#pb08652c9d5)">
     <use xlink:href="#me5d8a29c92" x="555" y="215.942626" style="fill: #ffffff; stroke: #3d3d3d"/>
    </g>
   </g>
   <g id="PathCollection_9">
    <g clip-path="url(#pb08652c9d5)">
     <use xlink:href="#me5d8a29c92" x="617" y="216.467513" style="fill: #ffffff; stroke: #3d3d3d"/>
    </g>
   </g>
  </g>
 </g>
 <defs>
  <clipPath id="pb08652c9d5">
   <rect x="90" y="43.2" width="558" height="271.8"/>
  </clipPath>
 </defs>
</svg>
