<?xml version="1.0" encoding="utf-8" standalone="no"?>
<!DOCTYPE svg PUBLIC "-//W3C//DTD SVG 1.1//EN"
  "http://www.w3.org/Graphics/SVG/1.1/DTD/svg11.dtd">
<svg xmlns:xlink="http://www.w3.org/1999/xlink" width="720pt" height="360pt" viewBox="0 0 720 360" xmlns="http://www.w3.org/2000/svg" version="1.1">
 <metadata>
  <rdf:RDF xmlns:dc="http://purl.org/dc/elements/1.1/" xmlns:cc="http://creativecommons.org/ns#" xmlns:rdf="http://www.w3.org/1999/02/22-rdf-syntax-ns#">
   <cc:Work>
    <dc:type rdf:resource="http://purl.org/dc/dcmitype/StillImage"/>
    <dc:date>2022-06-01T12:30:21.727508</dc:date>
    <dc:format>image/svg+xml</dc:format>
    <dc:creator>
     <cc:Agent>
      <dc:title>Matplotlib v3.5.1, https://matplotlib.org/</dc:title>
     </cc:Agent>
    </dc:creator>
   </cc:Work>
  </rdf:RDF>
 </metadata>
 <defs>
  <style type="text/css">*{stroke-linejoin: round; stroke-linecap: butt}</style>
 </defs>
 <g id="figure_1">
  <g id="patch_1">
   <path d="M 0 360 
L 720 360 
L 720 0 
L 0 0 
L 0 360 
z
" style="fill: none"/>
  </g>
  <g id="axes_1">
   <g id="patch_2">
    <path d="M 90 315 
L 648 315 
L 648 43.2 
L 90 43.2 
z
" style="fill: #ffffff"/>
   </g>
   <g id="PolyCollection_1">
    <defs>
     <path id="mf95e8d1bc9" d="M 121.247285 -106.528877 
L 120.752715 -106.528877 
L 120.646241 -108.154972 
L 120.503825 -109.781066 
L 120.317326 -111.40716 
L 120.07809 -113.033255 
L 119.777303 -114.659349 
L 119.406428 -116.285444 
L 118.957693 -117.911538 
L 118.424612 -119.537633 
L 117.802502 -121.163727 
L 117.088976 -122.789821 
L 116.28439 -124.415916 
L 115.392228 -126.04201 
L 114.419403 -127.668105 
L 113.376453 -129.294199 
L 112.277607 -130.920294 
L 111.140662 -132.546388 
L 109.986636 -134.172482 
L 108.839135 -135.798577 
L 107.723409 -137.424671 
L 106.665078 -139.050766 
L 105.688582 -140.67686 
L 104.815442 -142.302955 
L 104.062482 -143.929049 
L 103.440206 -145.555143 
L 102.951534 -147.181238 
L 102.591107 -148.807332 
L 102.345285 -150.433427 
L 102.192933 -152.059521 
L 102.106973 -153.685616 
L 102.056569 -155.31171 
L 102.009765 -156.937804 
L 101.936309 -158.563899 
L 101.810372 -160.189993 
L 101.612894 -161.816088 
L 101.333328 -163.442182 
L 100.970613 -165.068276 
L 100.53331 -166.694371 
L 100.03891 -168.320465 
L 99.512419 -169.94656 
L 98.984373 -171.572654 
L 98.488486 -173.198749 
L 98.059145 -174.824843 
L 97.728947 -176.450937 
L 97.526458 -178.077032 
L 97.47434 -179.703126 
L 97.587945 -181.329221 
L 97.874459 -182.955315 
L 98.332628 -184.58141 
L 98.953082 -186.207504 
L 99.719212 -187.833598 
L 100.608548 -189.459693 
L 101.594494 -191.085787 
L 102.648285 -192.711882 
L 103.740985 -194.337976 
L 104.845324 -195.964071 
L 105.937234 -197.590165 
L 106.996941 -199.216259 
L 108.009549 -200.842354 
L 108.965122 -202.468448 
L 109.858316 -204.094543 
L 110.68768 -205.720637 
L 111.454755 -207.346732 
L 112.163107 -208.972826 
L 112.817427 -210.59892 
L 113.422774 -212.225015 
L 113.984019 -213.851109 
L 114.505478 -215.477204 
L 114.990742 -217.103298 
L 115.442636 -218.729392 
L 115.863285 -220.355487 
L 116.254229 -221.981581 
L 116.616577 -223.607676 
L 116.951161 -225.23377 
L 117.258709 -226.859865 
L 117.540002 -228.485959 
L 117.796049 -230.112053 
L 118.028228 -231.738148 
L 118.238414 -233.364242 
L 118.429036 -234.990337 
L 118.603071 -236.616431 
L 118.76393 -238.242526 
L 118.915254 -239.86862 
L 119.060631 -241.494714 
L 119.203267 -243.120809 
L 119.345671 -244.746903 
L 119.489395 -246.372998 
L 119.634895 -247.999092 
L 119.78152 -249.625187 
L 119.927649 -251.251281 
L 120.070951 -252.877375 
L 120.208722 -254.50347 
L 120.338238 -256.129564 
L 120.457091 -257.755659 
L 120.563441 -259.381753 
L 120.656165 -261.007847 
L 120.73491 -262.633942 
L 120.800031 -264.260036 
L 120.85247 -265.886131 
L 120.893587 -267.512225 
L 121.106413 -267.512225 
L 121.106413 -267.512225 
L 121.14753 -265.886131 
L 121.199969 -264.260036 
L 121.26509 -262.633942 
L 121.343835 -261.007847 
L 121.436559 -259.381753 
L 121.542909 -257.755659 
L 121.661762 -256.129564 
L 121.791278 -254.50347 
L 121.929049 -252.877375 
L 122.072351 -251.251281 
L 122.21848 -249.625187 
L 122.365105 -247.999092 
L 122.510605 -246.372998 
L 122.654329 -244.746903 
L 122.796733 -243.120809 
L 122.939369 -241.494714 
L 123.084746 -239.86862 
L 123.23607 -238.242526 
L 123.396929 -236.616431 
L 123.570964 -234.990337 
L 123.761586 -233.364242 
L 123.971772 -231.738148 
L 124.203951 -230.112053 
L 124.459998 -228.485959 
L 124.741291 -226.859865 
L 125.048839 -225.23377 
L 125.383423 -223.607676 
L 125.745771 -221.981581 
L 126.136715 -220.355487 
L 126.557364 -218.729392 
L 127.009258 -217.103298 
L 127.494522 -215.477204 
L 128.015981 -213.851109 
L 128.577226 -212.225015 
L 129.182573 -210.59892 
L 129.836893 -208.972826 
L 130.545245 -207.346732 
L 131.31232 -205.720637 
L 132.141684 -204.094543 
L 133.034878 -202.468448 
L 133.990451 -200.842354 
L 135.003059 -199.216259 
L 136.062766 -197.590165 
L 137.154676 -195.964071 
L 138.259015 -194.337976 
L 139.351715 -192.711882 
L 140.405506 -191.085787 
L 141.391452 -189.459693 
L 142.280788 -187.833598 
L 143.046918 -186.207504 
L 143.667372 -184.58141 
L 144.125541 -182.955315 
L 144.412055 -181.329221 
L 144.52566 -179.703126 
L 144.473542 -178.077032 
L 144.271053 -176.450937 
L 143.940855 -174.824843 
L 143.511514 -173.198749 
L 143.015627 -171.572654 
L 142.487581 -169.94656 
L 141.96109 -168.320465 
L 141.46669 -166.694371 
L 141.029387 -165.068276 
L 140.666672 -163.442182 
L 140.387106 -161.816088 
L 140.189628 -160.189993 
L 140.063691 -158.563899 
L 139.990235 -156.937804 
L 139.943431 -155.31171 
L 139.893027 -153.685616 
L 139.807067 -152.059521 
L 139.654715 -150.433427 
L 139.408893 -148.807332 
L 139.048466 -147.181238 
L 138.559794 -145.555143 
L 137.937518 -143.929049 
L 137.184558 -142.302955 
L 136.311418 -140.67686 
L 135.334922 -139.050766 
L 134.276591 -137.424671 
L 133.160865 -135.798577 
L 132.013364 -134.172482 
L 130.859338 -132.546388 
L 129.722393 -130.920294 
L 128.623547 -129.294199 
L 127.580597 -127.668105 
L 126.607772 -126.04201 
L 125.71561 -124.415916 
L 124.911024 -122.789821 
L 124.197498 -121.163727 
L 123.575388 -119.537633 
L 123.042307 -117.911538 
L 122.593572 -116.285444 
L 122.222697 -114.659349 
L 121.92191 -113.033255 
L 121.682674 -111.40716 
L 121.496175 -109.781066 
L 121.353759 -108.154972 
L 121.247285 -106.528877 
z
" style="stroke: #3d3d3d; stroke-width: 2"/>
    </defs>
    <g clip-path="url(#pda28cfd434)">
     <use xlink:href="#mf95e8d1bc9" x="0" y="360" style="fill: #3274a1; stroke: #3d3d3d; stroke-width: 2"/>
    </g>
   </g>
   <g id="PolyCollection_2">
    <defs>
     <path id="mdcde4f1cad" d="M 183.315323 -113.13592 
L 182.684677 -113.13592 
L 182.565628 -114.953238 
L 182.412676 -116.770557 
L 182.220263 -118.587875 
L 181.983205 -120.405193 
L 181.697106 -122.222511 
L 181.358782 -124.03983 
L 180.966646 -125.857148 
L 180.521006 -127.674466 
L 180.024239 -129.491784 
L 179.480786 -131.309103 
L 178.896982 -133.126421 
L 178.280692 -134.943739 
L 177.640794 -136.761058 
L 176.986549 -138.578376 
L 176.326899 -140.395694 
L 175.669764 -142.213012 
L 175.021397 -144.030331 
L 174.385842 -145.847649 
L 173.764562 -147.664967 
L 173.156266 -149.482285 
L 172.556967 -151.299604 
L 171.960305 -153.116922 
L 171.358128 -154.93424 
L 170.741333 -156.751559 
L 170.100919 -158.568877 
L 169.429196 -160.386195 
L 168.721059 -162.203513 
L 167.975181 -164.020832 
L 167.195 -165.83815 
L 166.389341 -167.655468 
L 165.572556 -169.472786 
L 164.764087 -171.290105 
L 163.987437 -173.107423 
L 163.268616 -174.924741 
L 162.634171 -176.74206 
L 162.109024 -178.559378 
L 161.714347 -180.376696 
L 161.465715 -182.194014 
L 161.371769 -184.011333 
L 161.433541 -185.828651 
L 161.644512 -187.645969 
L 161.991396 -189.463287 
L 162.455516 -191.280606 
L 163.014618 -193.097924 
L 163.644858 -194.915242 
L 164.322755 -196.732561 
L 165.026864 -198.549879 
L 165.739014 -200.367197 
L 166.445019 -202.184515 
L 167.134837 -204.001834 
L 167.802248 -205.819152 
L 168.444174 -207.63647 
L 169.059804 -209.453788 
L 169.649683 -211.271107 
L 170.214929 -213.088425 
L 170.756666 -214.905743 
L 171.275735 -216.723062 
L 171.772657 -218.54038 
L 172.247797 -220.357698 
L 172.701629 -222.175016 
L 173.13501 -223.992335 
L 173.549365 -225.809653 
L 173.946731 -227.626971 
L 174.329649 -229.444289 
L 174.700916 -231.261608 
L 175.063253 -233.078926 
L 175.418957 -234.896244 
L 175.769599 -236.713563 
L 176.115838 -238.530881 
L 176.457369 -240.348199 
L 176.793016 -242.165517 
L 177.120966 -243.982836 
L 177.439083 -245.800154 
L 177.745283 -247.617472 
L 178.037887 -249.43479 
L 178.315926 -251.252109 
L 178.579351 -253.069427 
L 178.829115 -254.886745 
L 179.067117 -256.704064 
L 179.296019 -258.521382 
L 179.518949 -260.3387 
L 179.739127 -262.156018 
L 179.959459 -263.973337 
L 180.182162 -265.790655 
L 180.408456 -267.607973 
L 180.638378 -269.425291 
L 180.870742 -271.24261 
L 181.103248 -273.059928 
L 181.332726 -274.877246 
L 181.555478 -276.694565 
L 181.767675 -278.511883 
L 181.965744 -280.329201 
L 182.146701 -282.146519 
L 182.308391 -283.963838 
L 182.449623 -285.781156 
L 182.570173 -287.598474 
L 182.670708 -289.415792 
L 182.752615 -291.233111 
L 182.817803 -293.050429 
L 183.182197 -293.050429 
L 183.182197 -293.050429 
L 183.247385 -291.233111 
L 183.329292 -289.415792 
L 183.429827 -287.598474 
L 183.550377 -285.781156 
L 183.691609 -283.963838 
L 183.853299 -282.146519 
L 184.034256 -280.329201 
L 184.232325 -278.511883 
L 184.444522 -276.694565 
L 184.667274 -274.877246 
L 184.896752 -273.059928 
L 185.129258 -271.24261 
L 185.361622 -269.425291 
L 185.591544 -267.607973 
L 185.817838 -265.790655 
L 186.040541 -263.973337 
L 186.260873 -262.156018 
L 186.481051 -260.3387 
L 186.703981 -258.521382 
L 186.932883 -256.704064 
L 187.170885 -254.886745 
L 187.420649 -253.069427 
L 187.684074 -251.252109 
L 187.962113 -249.43479 
L 188.254717 -247.617472 
L 188.560917 -245.800154 
L 188.879034 -243.982836 
L 189.206984 -242.165517 
L 189.542631 -240.348199 
L 189.884162 -238.530881 
L 190.230401 -236.713563 
L 190.581043 -234.896244 
L 190.936747 -233.078926 
L 191.299084 -231.261608 
L 191.670351 -229.444289 
L 192.053269 -227.626971 
L 192.450635 -225.809653 
L 192.86499 -223.992335 
L 193.298371 -222.175016 
L 193.752203 -220.357698 
L 194.227343 -218.54038 
L 194.724265 -216.723062 
L 195.243334 -214.905743 
L 195.785071 -213.088425 
L 196.350317 -211.271107 
L 196.940196 -209.453788 
L 197.555826 -207.63647 
L 198.197752 -205.819152 
L 198.865163 -204.001834 
L 199.554981 -202.184515 
L 200.260986 -200.367197 
L 200.973136 -198.549879 
L 201.677245 -196.732561 
L 202.355142 -194.915242 
L 202.985382 -193.097924 
L 203.544484 -191.280606 
L 204.008604 -189.463287 
L 204.355488 -187.645969 
L 204.566459 -185.828651 
L 204.628231 -184.011333 
L 204.534285 -182.194014 
L 204.285653 -180.376696 
L 203.890976 -178.559378 
L 203.365829 -176.74206 
L 202.731384 -174.924741 
L 202.012563 -173.107423 
L 201.235913 -171.290105 
L 200.427444 -169.472786 
L 199.610659 -167.655468 
L 198.805 -165.83815 
L 198.024819 -164.020832 
L 197.278941 -162.203513 
L 196.570804 -160.386195 
L 195.899081 -158.568877 
L 195.258667 -156.751559 
L 194.641872 -154.93424 
L 194.039695 -153.116922 
L 193.443033 -151.299604 
L 192.843734 -149.482285 
L 192.235438 -147.664967 
L 191.614158 -145.847649 
L 190.978603 -144.030331 
L 190.330236 -142.213012 
L 189.673101 -140.395694 
L 189.013451 -138.578376 
L 188.359206 -136.761058 
L 187.719308 -134.943739 
L 187.103018 -133.126421 
L 186.519214 -131.309103 
L 185.975761 -129.491784 
L 185.478994 -127.674466 
L 185.033354 -125.857148 
L 184.641218 -124.03983 
L 184.302894 -122.222511 
L 184.016795 -120.405193 
L 183.779737 -118.587875 
L 183.587324 -116.770557 
L 183.434372 -114.953238 
L 183.315323 -113.13592 
z
" style="stroke: #3d3d3d; stroke-width: 2"/>
    </defs>
    <g clip-path="url(#pda28cfd434)">
     <use xlink:href="#mdcde4f1cad" x="0" y="360" style="fill: #e1812c; stroke: #3d3d3d; stroke-width: 2"/>
    </g>
   </g>
   <g id="PolyCollection_3">
    <defs>
     <path id="ma41a059a4a" d="M 245.252924 -113.879902 
L 244.747076 -113.879902 
L 244.630005 -115.644095 
L 244.470206 -117.408287 
L 244.257155 -119.17248 
L 243.979651 -120.936672 
L 243.626442 -122.700865 
L 243.187043 -124.465057 
L 242.652693 -126.22925 
L 242.017377 -127.993442 
L 241.278801 -129.757635 
L 240.439231 -131.521827 
L 239.506038 -133.28602 
L 238.491859 -135.050212 
L 237.414285 -136.814405 
L 236.295034 -138.578597 
L 235.158619 -140.34279 
L 234.030623 -142.106982 
L 232.935711 -143.871175 
L 231.895622 -145.635367 
L 230.927392 -147.39956 
L 230.042046 -149.163752 
L 229.244009 -150.927945 
L 228.531332 -152.692137 
L 227.896769 -154.45633 
L 227.329561 -156.220522 
L 226.817695 -157.984715 
L 226.350273 -159.748907 
L 225.919622 -161.5131 
L 225.522778 -163.277292 
L 225.162074 -165.041485 
L 224.844718 -166.805677 
L 224.581403 -168.56987 
L 224.384186 -170.334062 
L 224.263979 -172.098254 
L 224.228126 -173.862447 
L 224.27849 -175.626639 
L 224.410423 -177.390832 
L 224.612835 -179.155024 
L 224.869377 -180.919217 
L 225.160553 -182.683409 
L 225.466402 -184.447602 
L 225.769295 -186.211794 
L 226.056361 -187.975987 
L 226.32116 -189.740179 
L 226.564338 -191.504372 
L 226.7932 -193.268564 
L 227.020328 -195.032757 
L 227.261523 -196.796949 
L 227.533417 -198.561142 
L 227.851161 -200.325334 
L 228.226493 -202.089527 
L 228.666445 -203.853719 
L 229.172787 -205.617912 
L 229.742191 -207.382104 
L 230.367017 -209.146297 
L 231.036504 -210.910489 
L 231.738166 -212.674682 
L 232.459167 -214.438874 
L 233.187495 -216.203067 
L 233.912834 -217.967259 
L 234.627064 -219.731452 
L 235.324426 -221.495644 
L 236.001387 -223.259837 
L 236.65631 -225.024029 
L 237.288991 -226.788222 
L 237.900153 -228.552414 
L 238.490934 -230.316607 
L 239.062421 -232.080799 
L 239.615238 -233.844992 
L 240.149224 -235.609184 
L 240.663217 -237.373377 
L 241.154971 -239.137569 
L 241.62122 -240.901761 
L 242.05791 -242.665954 
L 242.460568 -244.430146 
L 242.824794 -246.194339 
L 243.146805 -247.958531 
L 243.423976 -249.722724 
L 243.655286 -251.486916 
L 243.841625 -253.251109 
L 243.985886 -255.015301 
L 244.092839 -256.779494 
L 244.168785 -258.543686 
L 244.22103 -260.307879 
L 244.257242 -262.072071 
L 244.284785 -263.836264 
L 244.3101 -265.600456 
L 244.338222 -267.364649 
L 244.372492 -269.128841 
L 244.414481 -270.893034 
L 244.464134 -272.657226 
L 244.520078 -274.421419 
L 244.580046 -276.185611 
L 244.641336 -277.949804 
L 244.701243 -279.713996 
L 244.757404 -281.478189 
L 244.808026 -283.242381 
L 244.851985 -285.006574 
L 244.888824 -286.770766 
L 244.918659 -288.534959 
L 245.081341 -288.534959 
L 245.081341 -288.534959 
L 245.111176 -286.770766 
L 245.148015 -285.006574 
L 245.191974 -283.242381 
L 245.242596 -281.478189 
L 245.298757 -279.713996 
L 245.358664 -277.949804 
L 245.419954 -276.185611 
L 245.479922 -274.421419 
L 245.535866 -272.657226 
L 245.585519 -270.893034 
L 245.627508 -269.128841 
L 245.661778 -267.364649 
L 245.6899 -265.600456 
L 245.715215 -263.836264 
L 245.742758 -262.072071 
L 245.77897 -260.307879 
L 245.831215 -258.543686 
L 245.907161 -256.779494 
L 246.014114 -255.015301 
L 246.158375 -253.251109 
L 246.344714 -251.486916 
L 246.576024 -249.722724 
L 246.853195 -247.958531 
L 247.175206 -246.194339 
L 247.539432 -244.430146 
L 247.94209 -242.665954 
L 248.37878 -240.901761 
L 248.845029 -239.137569 
L 249.336783 -237.373377 
L 249.850776 -235.609184 
L 250.384762 -233.844992 
L 250.937579 -232.080799 
L 251.509066 -230.316607 
L 252.099847 -228.552414 
L 252.711009 -226.788222 
L 253.34369 -225.024029 
L 253.998613 -223.259837 
L 254.675574 -221.495644 
L 255.372936 -219.731452 
L 256.087166 -217.967259 
L 256.812505 -216.203067 
L 257.540833 -214.438874 
L 258.261834 -212.674682 
L 258.963496 -210.910489 
L 259.632983 -209.146297 
L 260.257809 -207.382104 
L 260.827213 -205.617912 
L 261.333555 -203.853719 
L 261.773507 -202.089527 
L 262.148839 -200.325334 
L 262.466583 -198.561142 
L 262.738477 -196.796949 
L 262.979672 -195.032757 
L 263.2068 -193.268564 
L 263.435662 -191.504372 
L 263.67884 -189.740179 
L 263.943639 -187.975987 
L 264.230705 -186.211794 
L 264.533598 -184.447602 
L 264.839447 -182.683409 
L 265.130623 -180.919217 
L 265.387165 -179.155024 
L 265.589577 -177.390832 
L 265.72151 -175.626639 
L 265.771874 -173.862447 
L 265.736021 -172.098254 
L 265.615814 -170.334062 
L 265.418597 -168.56987 
L 265.155282 -166.805677 
L 264.837926 -165.041485 
L 264.477222 -163.277292 
L 264.080378 -161.5131 
L 263.649727 -159.748907 
L 263.182305 -157.984715 
L 262.670439 -156.220522 
L 262.103231 -154.45633 
L 261.468668 -152.692137 
L 260.755991 -150.927945 
L 259.957954 -149.163752 
L 259.072608 -147.39956 
L 258.104378 -145.635367 
L 257.064289 -143.871175 
L 255.969377 -142.106982 
L 254.841381 -140.34279 
L 253.704966 -138.578597 
L 252.585715 -136.814405 
L 251.508141 -135.050212 
L 250.493962 -133.28602 
L 249.560769 -131.521827 
L 248.721199 -129.757635 
L 247.982623 -127.993442 
L 247.347307 -126.22925 
L 246.812957 -124.465057 
L 246.373558 -122.700865 
L 246.020349 -120.936672 
L 245.742845 -119.17248 
L 245.529794 -117.408287 
L 245.369995 -115.644095 
L 245.252924 -113.879902 
z
" style="stroke: #3d3d3d; stroke-width: 2"/>
    </defs>
    <g clip-path="url(#pda28cfd434)">
     <use xlink:href="#ma41a059a4a" x="0" y="360" style="fill: #3a923a; stroke: #3d3d3d; stroke-width: 2"/>
    </g>
   </g>
   <g id="PolyCollection_4">
    <defs>
     <path id="mfba5216e60" d="M 307.083779 -82.684566 
L 306.916221 -82.684566 
L 306.883288 -84.649344 
L 306.840344 -86.614123 
L 306.785345 -88.578901 
L 306.716058 -90.54368 
L 306.630064 -92.508458 
L 306.524742 -94.473237 
L 306.397237 -96.438015 
L 306.244428 -98.402793 
L 306.062895 -100.367572 
L 305.848922 -102.33235 
L 305.598537 -104.297129 
L 305.307618 -106.261907 
L 304.97207 -108.226686 
L 304.588064 -110.191464 
L 304.15233 -112.156243 
L 303.66246 -114.121021 
L 303.117199 -116.0858 
L 302.51668 -118.050578 
L 301.862589 -120.015356 
L 301.15822 -121.980135 
L 300.40845 -123.944913 
L 299.619621 -125.909692 
L 298.799356 -127.87447 
L 297.956326 -129.839249 
L 297.099986 -131.804027 
L 296.240285 -133.768806 
L 295.387364 -135.733584 
L 294.551241 -137.698363 
L 293.741498 -139.663141 
L 292.966995 -141.627919 
L 292.235622 -143.592698 
L 291.554134 -145.557476 
L 290.928094 -147.522255 
L 290.361925 -149.487033 
L 289.859081 -151.451812 
L 289.422296 -153.41659 
L 289.053849 -155.381369 
L 288.755796 -157.346147 
L 288.530077 -159.310926 
L 288.378465 -161.275704 
L 288.302326 -163.240483 
L 288.302218 -165.205261 
L 288.377397 -167.170039 
L 288.525321 -169.134818 
L 288.741279 -171.099596 
L 289.018235 -173.064375 
L 289.346973 -175.029153 
L 289.716575 -176.993932 
L 290.115167 -178.95871 
L 290.530878 -180.923489 
L 290.952846 -182.888267 
L 291.372135 -184.853046 
L 291.782412 -186.817824 
L 292.180275 -188.782602 
L 292.565192 -190.747381 
L 292.939058 -192.712159 
L 293.305469 -194.676938 
L 293.668825 -196.641716 
L 294.033431 -198.606495 
L 294.402732 -200.571273 
L 294.77882 -202.536052 
L 295.162255 -204.50083 
L 295.552216 -206.465609 
L 295.946928 -208.430387 
L 296.34425 -210.395165 
L 296.742287 -212.359944 
L 297.139906 -214.324722 
L 297.537029 -216.289501 
L 297.934663 -218.254279 
L 298.334646 -220.219058 
L 298.739191 -222.183836 
L 299.150329 -224.148615 
L 299.569358 -226.113393 
L 299.996449 -228.078172 
L 300.430461 -230.04295 
L 300.869007 -232.007728 
L 301.308737 -233.972507 
L 301.74577 -235.937285 
L 302.176157 -237.902064 
L 302.596301 -239.866842 
L 303.003226 -241.831621 
L 303.394688 -243.796399 
L 303.769122 -245.761178 
L 304.125463 -247.725956 
L 304.462921 -249.690735 
L 304.780764 -251.655513 
L 305.07818 -253.620291 
L 305.35422 -255.58507 
L 305.60786 -257.549848 
L 305.838127 -259.514627 
L 306.044269 -261.479405 
L 306.225925 -263.444184 
L 306.383252 -265.408962 
L 306.51699 -267.373741 
L 306.628453 -269.338519 
L 306.719456 -271.303298 
L 306.792186 -273.268076 
L 306.849055 -275.232855 
L 306.892541 -277.197633 
L 307.107459 -277.197633 
L 307.107459 -277.197633 
L 307.150945 -275.232855 
L 307.207814 -273.268076 
L 307.280544 -271.303298 
L 307.371547 -269.338519 
L 307.48301 -267.373741 
L 307.616748 -265.408962 
L 307.774075 -263.444184 
L 307.955731 -261.479405 
L 308.161873 -259.514627 
L 308.39214 -257.549848 
L 308.64578 -255.58507 
L 308.92182 -253.620291 
L 309.219236 -251.655513 
L 309.537079 -249.690735 
L 309.874537 -247.725956 
L 310.230878 -245.761178 
L 310.605312 -243.796399 
L 310.996774 -241.831621 
L 311.403699 -239.866842 
L 311.823843 -237.902064 
L 312.25423 -235.937285 
L 312.691263 -233.972507 
L 313.130993 -232.007728 
L 313.569539 -230.04295 
L 314.003551 -228.078172 
L 314.430642 -226.113393 
L 314.849671 -224.148615 
L 315.260809 -222.183836 
L 315.665354 -220.219058 
L 316.065337 -218.254279 
L 316.462971 -216.289501 
L 316.860094 -214.324722 
L 317.257713 -212.359944 
L 317.65575 -210.395165 
L 318.053072 -208.430387 
L 318.447784 -206.465609 
L 318.837745 -204.50083 
L 319.22118 -202.536052 
L 319.597268 -200.571273 
L 319.966569 -198.606495 
L 320.331175 -196.641716 
L 320.694531 -194.676938 
L 321.060942 -192.712159 
L 321.434808 -190.747381 
L 321.819725 -188.782602 
L 322.217588 -186.817824 
L 322.627865 -184.853046 
L 323.047154 -182.888267 
L 323.469122 -180.923489 
L 323.884833 -178.95871 
L 324.283425 -176.993932 
L 324.653027 -175.029153 
L 324.981765 -173.064375 
L 325.258721 -171.099596 
L 325.474679 -169.134818 
L 325.622603 -167.170039 
L 325.697782 -165.205261 
L 325.697674 -163.240483 
L 325.621535 -161.275704 
L 325.469923 -159.310926 
L 325.244204 -157.346147 
L 324.946151 -155.381369 
L 324.577704 -153.41659 
L 324.140919 -151.451812 
L 323.638075 -149.487033 
L 323.071906 -147.522255 
L 322.445866 -145.557476 
L 321.764378 -143.592698 
L 321.033005 -141.627919 
L 320.258502 -139.663141 
L 319.448759 -137.698363 
L 318.612636 -135.733584 
L 317.759715 -133.768806 
L 316.900014 -131.804027 
L 316.043674 -129.839249 
L 315.200644 -127.87447 
L 314.380379 -125.909692 
L 313.59155 -123.944913 
L 312.84178 -121.980135 
L 312.137411 -120.015356 
L 311.48332 -118.050578 
L 310.882801 -116.0858 
L 310.33754 -114.121021 
L 309.84767 -112.156243 
L 309.411936 -110.191464 
L 309.02793 -108.226686 
L 308.692382 -106.261907 
L 308.401463 -104.297129 
L 308.151078 -102.33235 
L 307.937105 -100.367572 
L 307.755572 -98.402793 
L 307.602763 -96.438015 
L 307.475258 -94.473237 
L 307.369936 -92.508458 
L 307.283942 -90.54368 
L 307.214655 -88.578901 
L 307.159656 -86.614123 
L 307.116712 -84.649344 
L 307.083779 -82.684566 
z
" style="stroke: #3d3d3d; stroke-width: 2"/>
    </defs>
    <g clip-path="url(#pda28cfd434)">
     <use xlink:href="#mfba5216e60" x="0" y="360" style="fill: #c03d3e; stroke: #3d3d3d; stroke-width: 2"/>
    </g>
   </g>
   <g id="PolyCollection_5">
    <defs>
     <path id="m9da9d40f8b" d="M 369.147161 -110.139146 
L 368.852839 -110.139146 
L 368.78479 -112.01565 
L 368.690755 -113.892155 
L 368.563253 -115.768659 
L 368.393625 -117.645163 
L 368.172233 -119.521667 
L 367.888832 -121.398171 
L 367.533171 -123.274676 
L 367.0958 -125.15118 
L 366.569102 -127.027684 
L 365.948465 -128.904188 
L 365.233496 -130.780692 
L 364.429129 -132.657197 
L 363.54643 -134.533701 
L 362.602916 -136.410205 
L 361.622208 -138.286709 
L 360.632904 -140.163214 
L 359.666679 -142.039718 
L 358.75571 -143.916222 
L 357.929692 -145.792726 
L 357.212776 -147.66923 
L 356.620879 -149.545735 
L 356.159762 -151.422239 
L 355.82421 -153.298743 
L 355.598519 -155.175247 
L 355.458242 -157.051752 
L 355.372998 -158.928256 
L 355.309919 -160.80476 
L 355.237234 -162.681264 
L 355.12745 -164.557768 
L 354.959702 -166.434273 
L 354.720994 -168.310777 
L 354.406269 -170.187281 
L 354.017474 -172.063785 
L 353.561938 -173.94029 
L 353.050489 -175.816794 
L 352.495708 -177.693298 
L 351.91064 -179.569802 
L 351.308158 -181.446306 
L 350.700953 -183.322811 
L 350.102038 -185.199315 
L 349.5255 -187.075819 
L 348.987214 -188.952323 
L 348.505257 -190.828827 
L 348.099824 -192.705332 
L 347.792563 -194.581836 
L 347.605342 -196.45834 
L 347.558602 -198.334844 
L 347.669478 -200.211349 
L 347.94995 -202.087853 
L 348.40526 -203.964357 
L 349.032832 -205.840861 
L 349.821826 -207.717365 
L 350.753423 -209.59387 
L 351.801841 -211.470374 
L 352.935978 -213.346878 
L 354.121541 -215.223382 
L 355.323429 -217.099887 
L 356.508139 -218.976391 
L 357.645935 -220.852895 
L 358.712567 -222.729399 
L 359.69038 -224.605903 
L 360.56873 -226.482408 
L 361.343718 -228.358912 
L 362.017345 -230.235416 
L 362.596244 -232.11192 
L 363.090203 -233.988425 
L 363.510684 -235.864929 
L 363.869526 -237.741433 
L 364.177953 -239.617937 
L 364.445962 -241.494441 
L 364.682066 -243.370946 
L 364.893348 -245.24745 
L 365.085702 -247.123954 
L 365.264156 -249.000458 
L 365.433171 -250.876962 
L 365.596829 -252.753467 
L 365.758882 -254.629971 
L 365.922663 -256.506475 
L 366.090911 -258.382979 
L 366.265556 -260.259484 
L 366.447546 -262.135988 
L 366.636759 -264.012492 
L 366.832025 -265.888996 
L 367.031272 -267.7655 
L 367.23175 -269.642005 
L 367.430312 -271.518509 
L 367.623706 -273.395013 
L 367.808833 -275.271517 
L 367.982954 -277.148022 
L 368.143842 -279.024526 
L 368.289863 -280.90103 
L 368.420006 -282.777534 
L 368.533873 -284.654038 
L 368.631633 -286.530543 
L 368.713946 -288.407047 
L 368.781877 -290.283551 
L 368.836791 -292.160055 
L 368.880245 -294.036559 
L 368.913884 -295.913064 
L 369.086116 -295.913064 
L 369.086116 -295.913064 
L 369.119755 -294.036559 
L 369.163209 -292.160055 
L 369.218123 -290.283551 
L 369.286054 -288.407047 
L 369.368367 -286.530543 
L 369.466127 -284.654038 
L 369.579994 -282.777534 
L 369.710137 -280.90103 
L 369.856158 -279.024526 
L 370.017046 -277.148022 
L 370.191167 -275.271517 
L 370.376294 -273.395013 
L 370.569688 -271.518509 
L 370.76825 -269.642005 
L 370.968728 -267.7655 
L 371.167975 -265.888996 
L 371.363241 -264.012492 
L 371.552454 -262.135988 
L 371.734444 -260.259484 
L 371.909089 -258.382979 
L 372.077337 -256.506475 
L 372.241118 -254.629971 
L 372.403171 -252.753467 
L 372.566829 -250.876962 
L 372.735844 -249.000458 
L 372.914298 -247.123954 
L 373.106652 -245.24745 
L 373.317934 -243.370946 
L 373.554038 -241.494441 
L 373.822047 -239.617937 
L 374.130474 -237.741433 
L 374.489316 -235.864929 
L 374.909797 -233.988425 
L 375.403756 -232.11192 
L 375.982655 -230.235416 
L 376.656282 -228.358912 
L 377.43127 -226.482408 
L 378.30962 -224.605903 
L 379.287433 -222.729399 
L 380.354065 -220.852895 
L 381.491861 -218.976391 
L 382.676571 -217.099887 
L 383.878459 -215.223382 
L 385.064022 -213.346878 
L 386.198159 -211.470374 
L 387.246577 -209.59387 
L 388.178174 -207.717365 
L 388.967168 -205.840861 
L 389.59474 -203.964357 
L 390.05005 -202.087853 
L 390.330522 -200.211349 
L 390.441398 -198.334844 
L 390.394658 -196.45834 
L 390.207437 -194.581836 
L 389.900176 -192.705332 
L 389.494743 -190.828827 
L 389.012786 -188.952323 
L 388.4745 -187.075819 
L 387.897962 -185.199315 
L 387.299047 -183.322811 
L 386.691842 -181.446306 
L 386.08936 -179.569802 
L 385.504292 -177.693298 
L 384.949511 -175.816794 
L 384.438062 -173.94029 
L 383.982526 -172.063785 
L 383.593731 -170.187281 
L 383.279006 -168.310777 
L 383.040298 -166.434273 
L 382.87255 -164.557768 
L 382.762766 -162.681264 
L 382.690081 -160.80476 
L 382.627002 -158.928256 
L 382.541758 -157.051752 
L 382.401481 -155.175247 
L 382.17579 -153.298743 
L 381.840238 -151.422239 
L 381.379121 -149.545735 
L 380.787224 -147.66923 
L 380.070308 -145.792726 
L 379.24429 -143.916222 
L 378.333321 -142.039718 
L 377.367096 -140.163214 
L 376.377792 -138.286709 
L 375.397084 -136.410205 
L 374.45357 -134.533701 
L 373.570871 -132.657197 
L 372.766504 -130.780692 
L 372.051535 -128.904188 
L 371.430898 -127.027684 
L 370.9042 -125.15118 
L 370.466829 -123.274676 
L 370.111168 -121.398171 
L 369.827767 -119.521667 
L 369.606375 -117.645163 
L 369.436747 -115.768659 
L 369.309245 -113.892155 
L 369.21521 -112.01565 
L 369.147161 -110.139146 
z
" style="stroke: #3d3d3d; stroke-width: 2"/>
    </defs>
    <g clip-path="url(#pda28cfd434)">
     <use xlink:href="#m9da9d40f8b" x="0" y="360" style="fill: #9372b2; stroke: #3d3d3d; stroke-width: 2"/>
    </g>
   </g>
   <g id="PolyCollection_6">
    <defs>
     <path id="m02cfd32026" d="M 431.197295 -107.297495 
L 430.802705 -107.297495 
L 430.719321 -109.098442 
L 430.609785 -110.899389 
L 430.469708 -112.700336 
L 430.295331 -114.501283 
L 430.084012 -116.30223 
L 429.834678 -118.103177 
L 429.548134 -119.904124 
L 429.227141 -121.705071 
L 428.876182 -123.506018 
L 428.50087 -125.306964 
L 428.107034 -127.107911 
L 427.699592 -128.908858 
L 427.281368 -130.709805 
L 426.852092 -132.510752 
L 426.407817 -134.311699 
L 425.940932 -136.112646 
L 425.440892 -137.913593 
L 424.895628 -139.71454 
L 424.293468 -141.515487 
L 423.625289 -143.316433 
L 422.886523 -145.11738 
L 422.078652 -146.918327 
L 421.209875 -148.719274 
L 420.294815 -150.520221 
L 419.353251 -152.321168 
L 418.4081 -154.122115 
L 417.48297 -155.923062 
L 416.599696 -157.724009 
L 415.776258 -159.524956 
L 415.025356 -161.325902 
L 414.35382 -163.126849 
L 413.762806 -164.927796 
L 413.248629 -166.728743 
L 412.803983 -168.52969 
L 412.419273 -170.330637 
L 412.083837 -172.131584 
L 411.786941 -173.932531 
L 411.518529 -175.733478 
L 411.269802 -177.534425 
L 411.033739 -179.335372 
L 410.805684 -181.136318 
L 410.584013 -182.937265 
L 410.370834 -184.738212 
L 410.172567 -186.539159 
L 410.000181 -188.340106 
L 409.868883 -190.141053 
L 409.797122 -191.942 
L 409.804885 -193.742947 
L 409.911457 -195.543894 
L 410.132922 -197.344841 
L 410.479823 -199.145787 
L 410.95539 -200.946734 
L 411.554667 -202.747681 
L 412.264737 -204.548628 
L 413.066018 -206.349575 
L 413.934419 -208.150522 
L 414.843979 -209.951469 
L 415.76956 -211.752416 
L 416.689145 -213.553363 
L 417.585449 -215.35431 
L 418.446655 -217.155256 
L 419.266304 -218.956203 
L 420.042494 -220.75715 
L 420.776638 -222.558097 
L 421.472084 -224.359044 
L 422.132844 -226.159991 
L 422.762612 -227.960938 
L 423.364155 -229.761885 
L 423.93906 -231.562832 
L 424.487774 -233.363779 
L 425.009813 -235.164725 
L 425.504052 -236.965672 
L 425.969011 -238.766619 
L 426.403113 -240.567566 
L 426.804896 -242.368513 
L 427.173223 -244.16946 
L 427.507481 -245.970407 
L 427.807805 -247.771354 
L 428.075279 -249.572301 
L 428.312088 -251.373248 
L 428.521562 -253.174194 
L 428.70806 -254.975141 
L 428.87669 -256.776088 
L 429.032865 -258.577035 
L 429.181765 -260.377982 
L 429.327786 -262.178929 
L 429.474074 -263.979876 
L 429.622231 -265.780823 
L 429.772244 -267.58177 
L 429.92265 -269.382717 
L 430.070889 -271.183664 
L 430.213788 -272.98461 
L 430.348079 -274.785557 
L 430.470867 -276.586504 
L 430.579976 -278.387451 
L 430.674144 -280.188398 
L 430.753064 -281.989345 
L 430.817289 -283.790292 
L 430.868047 -285.591239 
L 431.131953 -285.591239 
L 431.131953 -285.591239 
L 431.182711 -283.790292 
L 431.246936 -281.989345 
L 431.325856 -280.188398 
L 431.420024 -278.387451 
L 431.529133 -276.586504 
L 431.651921 -274.785557 
L 431.786212 -272.98461 
L 431.929111 -271.183664 
L 432.07735 -269.382717 
L 432.227756 -267.58177 
L 432.377769 -265.780823 
L 432.525926 -263.979876 
L 432.672214 -262.178929 
L 432.818235 -260.377982 
L 432.967135 -258.577035 
L 433.12331 -256.776088 
L 433.29194 -254.975141 
L 433.478438 -253.174194 
L 433.687912 -251.373248 
L 433.924721 -249.572301 
L 434.192195 -247.771354 
L 434.492519 -245.970407 
L 434.826777 -244.16946 
L 435.195104 -242.368513 
L 435.596887 -240.567566 
L 436.030989 -238.766619 
L 436.495948 -236.965672 
L 436.990187 -235.164725 
L 437.512226 -233.363779 
L 438.06094 -231.562832 
L 438.635845 -229.761885 
L 439.237388 -227.960938 
L 439.867156 -226.159991 
L 440.527916 -224.359044 
L 441.223362 -222.558097 
L 441.957506 -220.75715 
L 442.733696 -218.956203 
L 443.553345 -217.155256 
L 444.414551 -215.35431 
L 445.310855 -213.553363 
L 446.23044 -211.752416 
L 447.156021 -209.951469 
L 448.065581 -208.150522 
L 448.933982 -206.349575 
L 449.735263 -204.548628 
L 450.445333 -202.747681 
L 451.04461 -200.946734 
L 451.520177 -199.145787 
L 451.867078 -197.344841 
L 452.088543 -195.543894 
L 452.195115 -193.742947 
L 452.202878 -191.942 
L 452.131117 -190.141053 
L 451.999819 -188.340106 
L 451.827433 -186.539159 
L 451.629166 -184.738212 
L 451.415987 -182.937265 
L 451.194316 -181.136318 
L 450.966261 -179.335372 
L 450.730198 -177.534425 
L 450.481471 -175.733478 
L 450.213059 -173.932531 
L 449.916163 -172.131584 
L 449.580727 -170.330637 
L 449.196017 -168.52969 
L 448.751371 -166.728743 
L 448.237194 -164.927796 
L 447.64618 -163.126849 
L 446.974644 -161.325902 
L 446.223742 -159.524956 
L 445.400304 -157.724009 
L 444.51703 -155.923062 
L 443.5919 -154.122115 
L 442.646749 -152.321168 
L 441.705185 -150.520221 
L 440.790125 -148.719274 
L 439.921348 -146.918327 
L 439.113477 -145.11738 
L 438.374711 -143.316433 
L 437.706532 -141.515487 
L 437.104372 -139.71454 
L 436.559108 -137.913593 
L 436.059068 -136.112646 
L 435.592183 -134.311699 
L 435.147908 -132.510752 
L 434.718632 -130.709805 
L 434.300408 -128.908858 
L 433.892966 -127.107911 
L 433.49913 -125.306964 
L 433.123818 -123.506018 
L 432.772859 -121.705071 
L 432.451866 -119.904124 
L 432.165322 -118.103177 
L 431.915988 -116.30223 
L 431.704669 -114.501283 
L 431.530292 -112.700336 
L 431.390215 -110.899389 
L 431.280679 -109.098442 
L 431.197295 -107.297495 
z
" style="stroke: #3d3d3d; stroke-width: 2"/>
    </defs>
    <g clip-path="url(#pda28cfd434)">
     <use xlink:href="#m02cfd32026" x="0" y="360" style="fill: #845b53; stroke: #3d3d3d; stroke-width: 2"/>
    </g>
   </g>
   <g id="PolyCollection_7">
    <defs>
     <path id="me357991529" d="M 493.085017 -104.416486 
L 492.914983 -104.416486 
L 492.878786 -106.436981 
L 492.830479 -108.457475 
L 492.767128 -110.47797 
L 492.685321 -112.498465 
L 492.581099 -114.518959 
L 492.449877 -116.539454 
L 492.286392 -118.559948 
L 492.084712 -120.580443 
L 491.838371 -122.600938 
L 491.540649 -124.621432 
L 491.185056 -126.641927 
L 490.765966 -128.662422 
L 490.279379 -130.682916 
L 489.723653 -132.703411 
L 489.100109 -134.723906 
L 488.413322 -136.7444 
L 487.671038 -138.764895 
L 486.883645 -140.785389 
L 486.063312 -142.805884 
L 485.222902 -144.826379 
L 484.374914 -146.846873 
L 483.530626 -148.867368 
L 482.699626 -150.887863 
L 481.88975 -152.908357 
L 481.107385 -154.928852 
L 480.357948 -156.949346 
L 479.646336 -158.969841 
L 478.977155 -160.990336 
L 478.35464 -163.01083 
L 477.782296 -165.031325 
L 477.262403 -167.05182 
L 476.795623 -169.072314 
L 476.3809 -171.092809 
L 476.015766 -173.113304 
L 475.697038 -175.133798 
L 475.421715 -177.154293 
L 475.187813 -179.174787 
L 474.994864 -181.195282 
L 474.843904 -183.215777 
L 474.73691 -185.236271 
L 474.675871 -187.256766 
L 474.661764 -189.277261 
L 474.693779 -191.297755 
L 474.769071 -193.31825 
L 474.883147 -195.338744 
L 475.030805 -197.359239 
L 475.207376 -199.379734 
L 475.409911 -201.400228 
L 475.637967 -203.420723 
L 475.893766 -205.441218 
L 476.181682 -207.461712 
L 476.507182 -209.482207 
L 476.875508 -211.502702 
L 477.290439 -213.523196 
L 477.753396 -215.543691 
L 478.263082 -217.564185 
L 478.815661 -219.58468 
L 479.405346 -221.605175 
L 480.025214 -223.625669 
L 480.667992 -225.646164 
L 481.326684 -227.666659 
L 481.994916 -229.687153 
L 482.667028 -231.707648 
L 483.337972 -233.728142 
L 484.003128 -235.748637 
L 484.658117 -237.769132 
L 485.298692 -239.789626 
L 485.920712 -241.810121 
L 486.520215 -243.830616 
L 487.09353 -245.85111 
L 487.637425 -247.871605 
L 488.149234 -249.8921 
L 488.626966 -251.912594 
L 489.069351 -253.933089 
L 489.475854 -255.953583 
L 489.84663 -257.974078 
L 490.182452 -259.994573 
L 490.48463 -262.015067 
L 490.754918 -264.035562 
L 490.995458 -266.056057 
L 491.20873 -268.076551 
L 491.397514 -270.097046 
L 491.564835 -272.11754 
L 491.713876 -274.138035 
L 491.84784 -276.15853 
L 491.969765 -278.179024 
L 492.082324 -280.199519 
L 492.187628 -282.220014 
L 492.287099 -284.240508 
L 492.381424 -286.261003 
L 492.470614 -288.281497 
L 492.554159 -290.301992 
L 492.631243 -292.322487 
L 492.700981 -294.342981 
L 492.762633 -296.363476 
L 492.815762 -298.383971 
L 492.860316 -300.404465 
L 492.896634 -302.42496 
L 492.925391 -304.445455 
L 493.074609 -304.445455 
L 493.074609 -304.445455 
L 493.103366 -302.42496 
L 493.139684 -300.404465 
L 493.184238 -298.383971 
L 493.237367 -296.363476 
L 493.299019 -294.342981 
L 493.368757 -292.322487 
L 493.445841 -290.301992 
L 493.529386 -288.281497 
L 493.618576 -286.261003 
L 493.712901 -284.240508 
L 493.812372 -282.220014 
L 493.917676 -280.199519 
L 494.030235 -278.179024 
L 494.15216 -276.15853 
L 494.286124 -274.138035 
L 494.435165 -272.11754 
L 494.602486 -270.097046 
L 494.79127 -268.076551 
L 495.004542 -266.056057 
L 495.245082 -264.035562 
L 495.51537 -262.015067 
L 495.817548 -259.994573 
L 496.15337 -257.974078 
L 496.524146 -255.953583 
L 496.930649 -253.933089 
L 497.373034 -251.912594 
L 497.850766 -249.8921 
L 498.362575 -247.871605 
L 498.90647 -245.85111 
L 499.479785 -243.830616 
L 500.079288 -241.810121 
L 500.701308 -239.789626 
L 501.341883 -237.769132 
L 501.996872 -235.748637 
L 502.662028 -233.728142 
L 503.332972 -231.707648 
L 504.005084 -229.687153 
L 504.673316 -227.666659 
L 505.332008 -225.646164 
L 505.974786 -223.625669 
L 506.594654 -221.605175 
L 507.184339 -219.58468 
L 507.736918 -217.564185 
L 508.246604 -215.543691 
L 508.709561 -213.523196 
L 509.124492 -211.502702 
L 509.492818 -209.482207 
L 509.818318 -207.461712 
L 510.106234 -205.441218 
L 510.362033 -203.420723 
L 510.590089 -201.400228 
L 510.792624 -199.379734 
L 510.969195 -197.359239 
L 511.116853 -195.338744 
L 511.230929 -193.31825 
L 511.306221 -191.297755 
L 511.338236 -189.277261 
L 511.324129 -187.256766 
L 511.26309 -185.236271 
L 511.156096 -183.215777 
L 511.005136 -181.195282 
L 510.812187 -179.174787 
L 510.578285 -177.154293 
L 510.302962 -175.133798 
L 509.984234 -173.113304 
L 509.6191 -171.092809 
L 509.204377 -169.072314 
L 508.737597 -167.05182 
L 508.217704 -165.031325 
L 507.64536 -163.01083 
L 507.022845 -160.990336 
L 506.353664 -158.969841 
L 505.642052 -156.949346 
L 504.892615 -154.928852 
L 504.11025 -152.908357 
L 503.300374 -150.887863 
L 502.469374 -148.867368 
L 501.625086 -146.846873 
L 500.777098 -144.826379 
L 499.936688 -142.805884 
L 499.116355 -140.785389 
L 498.328962 -138.764895 
L 497.586678 -136.7444 
L 496.899891 -134.723906 
L 496.276347 -132.703411 
L 495.720621 -130.682916 
L 495.234034 -128.662422 
L 494.814944 -126.641927 
L 494.459351 -124.621432 
L 494.161629 -122.600938 
L 493.915288 -120.580443 
L 493.713608 -118.559948 
L 493.550123 -116.539454 
L 493.418901 -114.518959 
L 493.314679 -112.498465 
L 493.232872 -110.47797 
L 493.169521 -108.457475 
L 493.121214 -106.436981 
L 493.085017 -104.416486 
z
" style="stroke: #3d3d3d; stroke-width: 2"/>
    </defs>
    <g clip-path="url(#pda28cfd434)">
     <use xlink:href="#me357991529" x="0" y="360" style="fill: #d684bd; stroke: #3d3d3d; stroke-width: 2"/>
    </g>
   </g>
   <g id="PolyCollection_8">
    <defs>
     <path id="m725681417a" d="M 555.124018 -57.354545 
L 554.875982 -57.354545 
L 554.820671 -59.148359 
L 554.745484 -60.942172 
L 554.645246 -62.735986 
L 554.514127 -64.529799 
L 554.345784 -66.323613 
L 554.133595 -68.117426 
L 553.870995 -69.91124 
L 553.551912 -71.705053 
L 553.171296 -73.498867 
L 552.725693 -75.29268 
L 552.213826 -77.086494 
L 551.637087 -78.880308 
L 550.999863 -80.674121 
L 550.309607 -82.467935 
L 549.576588 -84.261748 
L 548.813313 -86.055562 
L 548.033644 -87.849375 
L 547.251727 -89.643189 
L 546.480857 -91.437002 
L 545.732455 -93.230816 
L 545.015304 -95.024629 
L 544.33513 -96.818443 
L 543.694584 -98.612256 
L 543.093542 -100.40607 
L 542.529643 -102.199883 
L 541.998909 -103.993697 
L 541.496333 -105.78751 
L 541.016322 -107.581324 
L 540.553009 -109.375137 
L 540.10044 -111.168951 
L 539.652741 -112.962764 
L 539.20435 -114.756578 
L 538.750387 -116.550391 
L 538.287182 -118.344205 
L 537.812912 -120.138018 
L 537.32826 -121.931832 
L 536.836956 -123.725645 
L 536.346078 -125.519459 
L 535.866013 -127.313272 
L 535.410035 -129.107086 
L 534.993511 -130.900899 
L 534.632822 -132.694713 
L 534.344098 -134.488526 
L 534.141913 -136.28234 
L 534.038064 -138.076153 
L 534.040557 -139.869967 
L 534.152885 -141.66378 
L 534.373649 -143.457594 
L 534.69657 -145.251407 
L 535.110879 -147.045221 
L 535.602087 -148.839034 
L 536.15308 -150.632848 
L 536.745466 -152.426661 
L 537.361082 -154.220475 
L 537.98351 -156.014288 
L 538.599455 -157.808102 
L 539.199807 -159.601915 
L 539.78025 -161.395729 
L 540.341299 -163.189542 
L 540.887761 -164.983356 
L 541.427647 -166.777169 
L 541.970708 -168.570983 
L 542.526789 -170.364796 
L 543.104272 -172.15861 
L 543.708817 -173.952423 
L 544.342598 -175.746237 
L 545.00409 -177.54005 
L 545.688407 -179.333864 
L 546.388035 -181.127677 
L 547.093801 -182.921491 
L 547.795867 -184.715304 
L 548.484576 -186.509118 
L 549.151059 -188.302931 
L 549.787569 -190.096745 
L 550.387604 -191.890558 
L 550.945895 -193.684372 
L 551.45837 -195.478185 
L 551.922162 -197.271999 
L 552.335689 -199.065812 
L 552.698775 -200.859626 
L 553.012773 -202.653439 
L 553.28058 -204.447253 
L 553.506524 -206.241066 
L 553.696066 -208.03488 
L 553.855357 -209.828693 
L 553.990699 -211.622507 
L 554.107995 -213.41632 
L 554.212284 -215.210134 
L 554.307425 -217.003947 
L 554.395975 -218.797761 
L 554.479249 -220.591574 
L 554.557546 -222.385388 
L 554.630459 -224.179201 
L 554.697227 -225.973015 
L 554.757045 -227.766828 
L 554.809302 -229.560642 
L 554.853728 -231.354455 
L 554.890438 -233.148269 
L 554.919905 -234.942082 
L 555.080095 -234.942082 
L 555.080095 -234.942082 
L 555.109562 -233.148269 
L 555.146272 -231.354455 
L 555.190698 -229.560642 
L 555.242955 -227.766828 
L 555.302773 -225.973015 
L 555.369541 -224.179201 
L 555.442454 -222.385388 
L 555.520751 -220.591574 
L 555.604025 -218.797761 
L 555.692575 -217.003947 
L 555.787716 -215.210134 
L 555.892005 -213.41632 
L 556.009301 -211.622507 
L 556.144643 -209.828693 
L 556.303934 -208.03488 
L 556.493476 -206.241066 
L 556.71942 -204.447253 
L 556.987227 -202.653439 
L 557.301225 -200.859626 
L 557.664311 -199.065812 
L 558.077838 -197.271999 
L 558.54163 -195.478185 
L 559.054105 -193.684372 
L 559.612396 -191.890558 
L 560.212431 -190.096745 
L 560.848941 -188.302931 
L 561.515424 -186.509118 
L 562.204133 -184.715304 
L 562.906199 -182.921491 
L 563.611965 -181.127677 
L 564.311593 -179.333864 
L 564.99591 -177.54005 
L 565.657402 -175.746237 
L 566.291183 -173.952423 
L 566.895728 -172.15861 
L 567.473211 -170.364796 
L 568.029292 -168.570983 
L 568.572353 -166.777169 
L 569.112239 -164.983356 
L 569.658701 -163.189542 
L 570.21975 -161.395729 
L 570.800193 -159.601915 
L 571.400545 -157.808102 
L 572.01649 -156.014288 
L 572.638918 -154.220475 
L 573.254534 -152.426661 
L 573.84692 -150.632848 
L 574.397913 -148.839034 
L 574.889121 -147.045221 
L 575.30343 -145.251407 
L 575.626351 -143.457594 
L 575.847115 -141.66378 
L 575.959443 -139.869967 
L 575.961936 -138.076153 
L 575.858087 -136.28234 
L 575.655902 -134.488526 
L 575.367178 -132.694713 
L 575.006489 -130.900899 
L 574.589965 -129.107086 
L 574.133987 -127.313272 
L 573.653922 -125.519459 
L 573.163044 -123.725645 
L 572.67174 -121.931832 
L 572.187088 -120.138018 
L 571.712818 -118.344205 
L 571.249613 -116.550391 
L 570.79565 -114.756578 
L 570.347259 -112.962764 
L 569.89956 -111.168951 
L 569.446991 -109.375137 
L 568.983678 -107.581324 
L 568.503667 -105.78751 
L 568.001091 -103.993697 
L 567.470357 -102.199883 
L 566.906458 -100.40607 
L 566.305416 -98.612256 
L 565.66487 -96.818443 
L 564.984696 -95.024629 
L 564.267545 -93.230816 
L 563.519143 -91.437002 
L 562.748273 -89.643189 
L 561.966356 -87.849375 
L 561.186687 -86.055562 
L 560.423412 -84.261748 
L 559.690393 -82.467935 
L 559.000137 -80.674121 
L 558.362913 -78.880308 
L 557.786174 -77.086494 
L 557.274307 -75.29268 
L 556.828704 -73.498867 
L 556.448088 -71.705053 
L 556.129005 -69.91124 
L 555.866405 -68.117426 
L 555.654216 -66.323613 
L 555.485873 -64.529799 
L 555.354754 -62.735986 
L 555.254516 -60.942172 
L 555.179329 -59.148359 
L 555.124018 -57.354545 
z
" style="stroke: #3d3d3d; stroke-width: 2"/>
    </defs>
    <g clip-path="url(#pda28cfd434)">
     <use xlink:href="#m725681417a" x="0" y="360" style="fill: #7f7f7f; stroke: #3d3d3d; stroke-width: 2"/>
    </g>
   </g>
   <g id="PolyCollection_9">
    <defs>
     <path id="meee3f34858" d="M 617.100235 -82.09418 
L 616.899765 -82.09418 
L 616.857827 -83.733783 
L 616.803345 -85.373387 
L 616.734416 -87.01299 
L 616.649293 -88.652594 
L 616.54637 -90.292197 
L 616.424042 -91.9318 
L 616.280433 -93.571404 
L 616.11299 -95.211007 
L 615.918003 -96.85061 
L 615.690114 -98.490214 
L 615.421929 -100.129817 
L 615.103831 -101.769421 
L 614.72409 -103.409024 
L 614.269302 -105.048627 
L 613.725186 -106.688231 
L 613.077678 -108.327834 
L 612.314239 -109.967438 
L 611.425259 -111.607041 
L 610.405423 -113.246644 
L 609.254892 -114.886248 
L 607.980189 -116.525851 
L 606.594676 -118.165455 
L 605.118574 -119.805058 
L 603.578498 -121.444661 
L 602.006542 -123.084265 
L 600.438963 -124.723868 
L 598.914548 -126.363472 
L 597.472743 -128.003075 
L 596.151617 -129.642678 
L 594.985748 -131.282282 
L 594.004101 -132.921885 
L 593.228029 -134.561489 
L 592.669548 -136.201092 
L 592.330094 -137.840695 
L 592.2 -139.480299 
L 592.25886 -141.119902 
L 592.476918 -142.759505 
L 592.817446 -144.399109 
L 593.239915 -146.038712 
L 593.703644 -147.678316 
L 594.171451 -149.317919 
L 594.612854 -150.957522 
L 595.006396 -152.597126 
L 595.340791 -154.236729 
L 595.614797 -155.876333 
L 595.835922 -157.515936 
L 596.018233 -159.155539 
L 596.17973 -160.795143 
L 596.339719 -162.434746 
L 596.51667 -164.07435 
L 596.726824 -165.713953 
L 596.983656 -167.353556 
L 597.298074 -168.99316 
L 597.679007 -170.632763 
L 598.133982 -172.272367 
L 598.669302 -173.91197 
L 599.289593 -175.551573 
L 599.996748 -177.191177 
L 600.788525 -178.83078 
L 601.657269 -180.470384 
L 602.589237 -182.109987 
L 603.564921 -183.74959 
L 604.560516 -185.389194 
L 605.550361 -187.028797 
L 606.50994 -188.668401 
L 607.418839 -190.308004 
L 608.263062 -191.947607 
L 609.036242 -193.587211 
L 609.73953 -195.226814 
L 610.380247 -196.866417 
L 610.969613 -198.506021 
L 611.52005 -200.145624 
L 612.042594 -201.785228 
L 612.544889 -203.424831 
L 613.030074 -205.064434 
L 613.496679 -206.704038 
L 613.939445 -208.343641 
L 614.350823 -209.983245 
L 614.722798 -211.622848 
L 615.048675 -213.262451 
L 615.324503 -214.902055 
L 615.549894 -216.541658 
L 615.728173 -218.181262 
L 615.865864 -219.820865 
L 615.971696 -221.460468 
L 616.055325 -223.100072 
L 616.126038 -224.739675 
L 616.191658 -226.379279 
L 616.25781 -228.018882 
L 616.327623 -229.658485 
L 616.401853 -231.298089 
L 616.479342 -232.937692 
L 616.55768 -234.577296 
L 616.633912 -236.216899 
L 616.705173 -237.856502 
L 616.769155 -239.496106 
L 616.824369 -241.135709 
L 616.870209 -242.775312 
L 616.90686 -244.414916 
L 617.09314 -244.414916 
L 617.09314 -244.414916 
L 617.129791 -242.775312 
L 617.175631 -241.135709 
L 617.230845 -239.496106 
L 617.294827 -237.856502 
L 617.366088 -236.216899 
L 617.44232 -234.577296 
L 617.520658 -232.937692 
L 617.598147 -231.298089 
L 617.672377 -229.658485 
L 617.74219 -228.018882 
L 617.808342 -226.379279 
L 617.873962 -224.739675 
L 617.944675 -223.100072 
L 618.028304 -221.460468 
L 618.134136 -219.820865 
L 618.271827 -218.181262 
L 618.450106 -216.541658 
L 618.675497 -214.902055 
L 618.951325 -213.262451 
L 619.277202 -211.622848 
L 619.649177 -209.983245 
L 620.060555 -208.343641 
L 620.503321 -206.704038 
L 620.969926 -205.064434 
L 621.455111 -203.424831 
L 621.957406 -201.785228 
L 622.47995 -200.145624 
L 623.030387 -198.506021 
L 623.619753 -196.866417 
L 624.26047 -195.226814 
L 624.963758 -193.587211 
L 625.736938 -191.947607 
L 626.581161 -190.308004 
L 627.49006 -188.668401 
L 628.449639 -187.028797 
L 629.439484 -185.389194 
L 630.435079 -183.74959 
L 631.410763 -182.109987 
L 632.342731 -180.470384 
L 633.211475 -178.83078 
L 634.003252 -177.191177 
L 634.710407 -175.551573 
L 635.330698 -173.91197 
L 635.866018 -172.272367 
L 636.320993 -170.632763 
L 636.701926 -168.99316 
L 637.016344 -167.353556 
L 637.273176 -165.713953 
L 637.48333 -164.07435 
L 637.660281 -162.434746 
L 637.82027 -160.795143 
L 637.981767 -159.155539 
L 638.164078 -157.515936 
L 638.385203 -155.876333 
L 638.659209 -154.236729 
L 638.993604 -152.597126 
L 639.387146 -150.957522 
L 639.828549 -149.317919 
L 640.296356 -147.678316 
L 640.760085 -146.038712 
L 641.182554 -144.399109 
L 641.523082 -142.759505 
L 641.74114 -141.119902 
L 641.8 -139.480299 
L 641.669906 -137.840695 
L 641.330452 -136.201092 
L 640.771971 -134.561489 
L 639.995899 -132.921885 
L 639.014252 -131.282282 
L 637.848383 -129.642678 
L 636.527257 -128.003075 
L 635.085452 -126.363472 
L 633.561037 -124.723868 
L 631.993458 -123.084265 
L 630.421502 -121.444661 
L 628.881426 -119.805058 
L 627.405324 -118.165455 
L 626.019811 -116.525851 
L 624.745108 -114.886248 
L 623.594577 -113.246644 
L 622.574741 -111.607041 
L 621.685761 -109.967438 
L 620.922322 -108.327834 
L 620.274814 -106.688231 
L 619.730698 -105.048627 
L 619.27591 -103.409024 
L 618.896169 -101.769421 
L 618.578071 -100.129817 
L 618.309886 -98.490214 
L 618.081997 -96.85061 
L 617.88701 -95.211007 
L 617.719567 -93.571404 
L 617.575958 -91.9318 
L 617.45363 -90.292197 
L 617.350707 -88.652594 
L 617.265584 -87.01299 
L 617.196655 -85.373387 
L 617.142173 -83.733783 
L 617.100235 -82.09418 
z
" style="stroke: #3d3d3d; stroke-width: 2"/>
    </defs>
    <g clip-path="url(#pda28cfd434)">
     <use xlink:href="#meee3f34858" x="0" y="360" style="fill: #a9aa35; stroke: #3d3d3d; stroke-width: 2"/>
    </g>
   </g>
   <g id="matplotlib.axis_1">
    <g id="xtick_1">
     <g id="line2d_1">
      <defs>
       <path id="m6509d6069e" d="M 0 0 
L 0 3.5 
" style="stroke: #000000; stroke-width: 2"/>
      </defs>
      <g>
       <use xlink:href="#m6509d6069e" x="121" y="315" style="stroke: #000000; stroke-width: 2"/>
      </g>
     </g>
     <g id="text_1">
      <!-- onehot -->
      <g transform="translate(96.509844 332.637812)scale(0.14 -0.14)">
       <defs>
        <path id="DejaVuSans-6f" d="M 1959 3097 
Q 1497 3097 1228 2736 
Q 959 2375 959 1747 
Q 959 1119 1226 758 
Q 1494 397 1959 397 
Q 2419 397 2687 759 
Q 2956 1122 2956 1747 
Q 2956 2369 2687 2733 
Q 2419 3097 1959 3097 
z
M 1959 3584 
Q 2709 3584 3137 3096 
Q 3566 2609 3566 1747 
Q 3566 888 3137 398 
Q 2709 -91 1959 -91 
Q 1206 -91 779 398 
Q 353 888 353 1747 
Q 353 2609 779 3096 
Q 1206 3584 1959 3584 
z
" transform="scale(0.015625)"/>
        <path id="DejaVuSans-6e" d="M 3513 2113 
L 3513 0 
L 2938 0 
L 2938 2094 
Q 2938 2591 2744 2837 
Q 2550 3084 2163 3084 
Q 1697 3084 1428 2787 
Q 1159 2491 1159 1978 
L 1159 0 
L 581 0 
L 581 3500 
L 1159 3500 
L 1159 2956 
Q 1366 3272 1645 3428 
Q 1925 3584 2291 3584 
Q 2894 3584 3203 3211 
Q 3513 2838 3513 2113 
z
" transform="scale(0.015625)"/>
        <path id="DejaVuSans-65" d="M 3597 1894 
L 3597 1613 
L 953 1613 
Q 991 1019 1311 708 
Q 1631 397 2203 397 
Q 2534 397 2845 478 
Q 3156 559 3463 722 
L 3463 178 
Q 3153 47 2828 -22 
Q 2503 -91 2169 -91 
Q 1331 -91 842 396 
Q 353 884 353 1716 
Q 353 2575 817 3079 
Q 1281 3584 2069 3584 
Q 2775 3584 3186 3129 
Q 3597 2675 3597 1894 
z
M 3022 2063 
Q 3016 2534 2758 2815 
Q 2500 3097 2075 3097 
Q 1594 3097 1305 2825 
Q 1016 2553 972 2059 
L 3022 2063 
z
" transform="scale(0.015625)"/>
        <path id="DejaVuSans-68" d="M 3513 2113 
L 3513 0 
L 2938 0 
L 2938 2094 
Q 2938 2591 2744 2837 
Q 2550 3084 2163 3084 
Q 1697 3084 1428 2787 
Q 1159 2491 1159 1978 
L 1159 0 
L 581 0 
L 581 4863 
L 1159 4863 
L 1159 2956 
Q 1366 3272 1645 3428 
Q 1925 3584 2291 3584 
Q 2894 3584 3203 3211 
Q 3513 2838 3513 2113 
z
" transform="scale(0.015625)"/>
        <path id="DejaVuSans-74" d="M 1172 4494 
L 1172 3500 
L 2356 3500 
L 2356 3053 
L 1172 3053 
L 1172 1153 
Q 1172 725 1289 603 
Q 1406 481 1766 481 
L 2356 481 
L 2356 0 
L 1766 0 
Q 1100 0 847 248 
Q 594 497 594 1153 
L 594 3053 
L 172 3053 
L 172 3500 
L 594 3500 
L 594 4494 
L 1172 4494 
z
" transform="scale(0.015625)"/>
       </defs>
       <use xlink:href="#DejaVuSans-6f"/>
       <use xlink:href="#DejaVuSans-6e" x="61.181641"/>
       <use xlink:href="#DejaVuSans-65" x="124.560547"/>
       <use xlink:href="#DejaVuSans-68" x="186.083984"/>
       <use xlink:href="#DejaVuSans-6f" x="249.462891"/>
       <use xlink:href="#DejaVuSans-74" x="310.644531"/>
      </g>
     </g>
    </g>
    <g id="xtick_2">
     <g id="line2d_2">
      <g>
       <use xlink:href="#m6509d6069e" x="183" y="315" style="stroke: #000000; stroke-width: 2"/>
      </g>
     </g>
     <g id="text_2">
      <!-- ESM -->
      <g transform="translate(168.093281 332.637812)scale(0.14 -0.14)">
       <defs>
        <path id="DejaVuSans-45" d="M 628 4666 
L 3578 4666 
L 3578 4134 
L 1259 4134 
L 1259 2753 
L 3481 2753 
L 3481 2222 
L 1259 2222 
L 1259 531 
L 3634 531 
L 3634 0 
L 628 0 
L 628 4666 
z
" transform="scale(0.015625)"/>
        <path id="DejaVuSans-53" d="M 3425 4513 
L 3425 3897 
Q 3066 4069 2747 4153 
Q 2428 4238 2131 4238 
Q 1616 4238 1336 4038 
Q 1056 3838 1056 3469 
Q 1056 3159 1242 3001 
Q 1428 2844 1947 2747 
L 2328 2669 
Q 3034 2534 3370 2195 
Q 3706 1856 3706 1288 
Q 3706 609 3251 259 
Q 2797 -91 1919 -91 
Q 1588 -91 1214 -16 
Q 841 59 441 206 
L 441 856 
Q 825 641 1194 531 
Q 1563 422 1919 422 
Q 2459 422 2753 634 
Q 3047 847 3047 1241 
Q 3047 1584 2836 1778 
Q 2625 1972 2144 2069 
L 1759 2144 
Q 1053 2284 737 2584 
Q 422 2884 422 3419 
Q 422 4038 858 4394 
Q 1294 4750 2059 4750 
Q 2388 4750 2728 4690 
Q 3069 4631 3425 4513 
z
" transform="scale(0.015625)"/>
        <path id="DejaVuSans-4d" d="M 628 4666 
L 1569 4666 
L 2759 1491 
L 3956 4666 
L 4897 4666 
L 4897 0 
L 4281 0 
L 4281 4097 
L 3078 897 
L 2444 897 
L 1241 4097 
L 1241 0 
L 628 0 
L 628 4666 
z
" transform="scale(0.015625)"/>
       </defs>
       <use xlink:href="#DejaVuSans-45"/>
       <use xlink:href="#DejaVuSans-53" x="63.183594"/>
       <use xlink:href="#DejaVuSans-4d" x="126.660156"/>
      </g>
     </g>
    </g>
    <g id="xtick_3">
     <g id="line2d_3">
      <g>
       <use xlink:href="#m6509d6069e" x="245" y="315" style="stroke: #000000; stroke-width: 2"/>
      </g>
     </g>
     <g id="text_3">
      <!-- GAE (orig) -->
      <g transform="translate(209.128281 332.637812)scale(0.14 -0.14)">
       <defs>
        <path id="DejaVuSans-47" d="M 3809 666 
L 3809 1919 
L 2778 1919 
L 2778 2438 
L 4434 2438 
L 4434 434 
Q 4069 175 3628 42 
Q 3188 -91 2688 -91 
Q 1594 -91 976 548 
Q 359 1188 359 2328 
Q 359 3472 976 4111 
Q 1594 4750 2688 4750 
Q 3144 4750 3555 4637 
Q 3966 4525 4313 4306 
L 4313 3634 
Q 3963 3931 3569 4081 
Q 3175 4231 2741 4231 
Q 1884 4231 1454 3753 
Q 1025 3275 1025 2328 
Q 1025 1384 1454 906 
Q 1884 428 2741 428 
Q 3075 428 3337 486 
Q 3600 544 3809 666 
z
" transform="scale(0.015625)"/>
        <path id="DejaVuSans-41" d="M 2188 4044 
L 1331 1722 
L 3047 1722 
L 2188 4044 
z
M 1831 4666 
L 2547 4666 
L 4325 0 
L 3669 0 
L 3244 1197 
L 1141 1197 
L 716 0 
L 50 0 
L 1831 4666 
z
" transform="scale(0.015625)"/>
        <path id="DejaVuSans-20" transform="scale(0.015625)"/>
        <path id="DejaVuSans-28" d="M 1984 4856 
Q 1566 4138 1362 3434 
Q 1159 2731 1159 2009 
Q 1159 1288 1364 580 
Q 1569 -128 1984 -844 
L 1484 -844 
Q 1016 -109 783 600 
Q 550 1309 550 2009 
Q 550 2706 781 3412 
Q 1013 4119 1484 4856 
L 1984 4856 
z
" transform="scale(0.015625)"/>
        <path id="DejaVuSans-72" d="M 2631 2963 
Q 2534 3019 2420 3045 
Q 2306 3072 2169 3072 
Q 1681 3072 1420 2755 
Q 1159 2438 1159 1844 
L 1159 0 
L 581 0 
L 581 3500 
L 1159 3500 
L 1159 2956 
Q 1341 3275 1631 3429 
Q 1922 3584 2338 3584 
Q 2397 3584 2469 3576 
Q 2541 3569 2628 3553 
L 2631 2963 
z
" transform="scale(0.015625)"/>
        <path id="DejaVuSans-69" d="M 603 3500 
L 1178 3500 
L 1178 0 
L 603 0 
L 603 3500 
z
M 603 4863 
L 1178 4863 
L 1178 4134 
L 603 4134 
L 603 4863 
z
" transform="scale(0.015625)"/>
        <path id="DejaVuSans-67" d="M 2906 1791 
Q 2906 2416 2648 2759 
Q 2391 3103 1925 3103 
Q 1463 3103 1205 2759 
Q 947 2416 947 1791 
Q 947 1169 1205 825 
Q 1463 481 1925 481 
Q 2391 481 2648 825 
Q 2906 1169 2906 1791 
z
M 3481 434 
Q 3481 -459 3084 -895 
Q 2688 -1331 1869 -1331 
Q 1566 -1331 1297 -1286 
Q 1028 -1241 775 -1147 
L 775 -588 
Q 1028 -725 1275 -790 
Q 1522 -856 1778 -856 
Q 2344 -856 2625 -561 
Q 2906 -266 2906 331 
L 2906 616 
Q 2728 306 2450 153 
Q 2172 0 1784 0 
Q 1141 0 747 490 
Q 353 981 353 1791 
Q 353 2603 747 3093 
Q 1141 3584 1784 3584 
Q 2172 3584 2450 3431 
Q 2728 3278 2906 2969 
L 2906 3500 
L 3481 3500 
L 3481 434 
z
" transform="scale(0.015625)"/>
        <path id="DejaVuSans-29" d="M 513 4856 
L 1013 4856 
Q 1481 4119 1714 3412 
Q 1947 2706 1947 2009 
Q 1947 1309 1714 600 
Q 1481 -109 1013 -844 
L 513 -844 
Q 928 -128 1133 580 
Q 1338 1288 1338 2009 
Q 1338 2731 1133 3434 
Q 928 4138 513 4856 
z
" transform="scale(0.015625)"/>
       </defs>
       <use xlink:href="#DejaVuSans-47"/>
       <use xlink:href="#DejaVuSans-41" x="77.490234"/>
       <use xlink:href="#DejaVuSans-45" x="145.898438"/>
       <use xlink:href="#DejaVuSans-20" x="209.082031"/>
       <use xlink:href="#DejaVuSans-28" x="240.869141"/>
       <use xlink:href="#DejaVuSans-6f" x="279.882812"/>
       <use xlink:href="#DejaVuSans-72" x="341.064453"/>
       <use xlink:href="#DejaVuSans-69" x="382.177734"/>
       <use xlink:href="#DejaVuSans-67" x="409.960938"/>
       <use xlink:href="#DejaVuSans-29" x="473.4375"/>
      </g>
     </g>
    </g>
    <g id="xtick_4">
     <g id="line2d_4">
      <g>
       <use xlink:href="#m6509d6069e" x="307" y="315" style="stroke: #000000; stroke-width: 2"/>
      </g>
     </g>
     <g id="text_4">
      <!-- 4lay -->
      <g transform="translate(292.16875 332.637812)scale(0.14 -0.14)">
       <defs>
        <path id="DejaVuSans-34" d="M 2419 4116 
L 825 1625 
L 2419 1625 
L 2419 4116 
z
M 2253 4666 
L 3047 4666 
L 3047 1625 
L 3713 1625 
L 3713 1100 
L 3047 1100 
L 3047 0 
L 2419 0 
L 2419 1100 
L 313 1100 
L 313 1709 
L 2253 4666 
z
" transform="scale(0.015625)"/>
        <path id="DejaVuSans-6c" d="M 603 4863 
L 1178 4863 
L 1178 0 
L 603 0 
L 603 4863 
z
" transform="scale(0.015625)"/>
        <path id="DejaVuSans-61" d="M 2194 1759 
Q 1497 1759 1228 1600 
Q 959 1441 959 1056 
Q 959 750 1161 570 
Q 1363 391 1709 391 
Q 2188 391 2477 730 
Q 2766 1069 2766 1631 
L 2766 1759 
L 2194 1759 
z
M 3341 1997 
L 3341 0 
L 2766 0 
L 2766 531 
Q 2569 213 2275 61 
Q 1981 -91 1556 -91 
Q 1019 -91 701 211 
Q 384 513 384 1019 
Q 384 1609 779 1909 
Q 1175 2209 1959 2209 
L 2766 2209 
L 2766 2266 
Q 2766 2663 2505 2880 
Q 2244 3097 1772 3097 
Q 1472 3097 1187 3025 
Q 903 2953 641 2809 
L 641 3341 
Q 956 3463 1253 3523 
Q 1550 3584 1831 3584 
Q 2591 3584 2966 3190 
Q 3341 2797 3341 1997 
z
" transform="scale(0.015625)"/>
        <path id="DejaVuSans-79" d="M 2059 -325 
Q 1816 -950 1584 -1140 
Q 1353 -1331 966 -1331 
L 506 -1331 
L 506 -850 
L 844 -850 
Q 1081 -850 1212 -737 
Q 1344 -625 1503 -206 
L 1606 56 
L 191 3500 
L 800 3500 
L 1894 763 
L 2988 3500 
L 3597 3500 
L 2059 -325 
z
" transform="scale(0.015625)"/>
       </defs>
       <use xlink:href="#DejaVuSans-34"/>
       <use xlink:href="#DejaVuSans-6c" x="63.623047"/>
       <use xlink:href="#DejaVuSans-61" x="91.40625"/>
       <use xlink:href="#DejaVuSans-79" x="152.685547"/>
      </g>
     </g>
    </g>
    <g id="xtick_5">
     <g id="line2d_5">
      <g>
       <use xlink:href="#m6509d6069e" x="369" y="315" style="stroke: #000000; stroke-width: 2"/>
      </g>
     </g>
     <g id="text_5">
      <!-- edge -->
      <g transform="translate(351.497813 332.637812)scale(0.14 -0.14)">
       <defs>
        <path id="DejaVuSans-64" d="M 2906 2969 
L 2906 4863 
L 3481 4863 
L 3481 0 
L 2906 0 
L 2906 525 
Q 2725 213 2448 61 
Q 2172 -91 1784 -91 
Q 1150 -91 751 415 
Q 353 922 353 1747 
Q 353 2572 751 3078 
Q 1150 3584 1784 3584 
Q 2172 3584 2448 3432 
Q 2725 3281 2906 2969 
z
M 947 1747 
Q 947 1113 1208 752 
Q 1469 391 1925 391 
Q 2381 391 2643 752 
Q 2906 1113 2906 1747 
Q 2906 2381 2643 2742 
Q 2381 3103 1925 3103 
Q 1469 3103 1208 2742 
Q 947 2381 947 1747 
z
" transform="scale(0.015625)"/>
       </defs>
       <use xlink:href="#DejaVuSans-65"/>
       <use xlink:href="#DejaVuSans-64" x="61.523438"/>
       <use xlink:href="#DejaVuSans-67" x="125"/>
       <use xlink:href="#DejaVuSans-65" x="188.476562"/>
      </g>
     </g>
    </g>
    <g id="xtick_6">
     <g id="line2d_6">
      <g>
       <use xlink:href="#m6509d6069e" x="431" y="315" style="stroke: #000000; stroke-width: 2"/>
      </g>
     </g>
     <g id="text_6">
      <!-- GCN -->
      <g transform="translate(415.45125 332.637812)scale(0.14 -0.14)">
       <defs>
        <path id="DejaVuSans-43" d="M 4122 4306 
L 4122 3641 
Q 3803 3938 3442 4084 
Q 3081 4231 2675 4231 
Q 1875 4231 1450 3742 
Q 1025 3253 1025 2328 
Q 1025 1406 1450 917 
Q 1875 428 2675 428 
Q 3081 428 3442 575 
Q 3803 722 4122 1019 
L 4122 359 
Q 3791 134 3420 21 
Q 3050 -91 2638 -91 
Q 1578 -91 968 557 
Q 359 1206 359 2328 
Q 359 3453 968 4101 
Q 1578 4750 2638 4750 
Q 3056 4750 3426 4639 
Q 3797 4528 4122 4306 
z
" transform="scale(0.015625)"/>
        <path id="DejaVuSans-4e" d="M 628 4666 
L 1478 4666 
L 3547 763 
L 3547 4666 
L 4159 4666 
L 4159 0 
L 3309 0 
L 1241 3903 
L 1241 0 
L 628 0 
L 628 4666 
z
" transform="scale(0.015625)"/>
       </defs>
       <use xlink:href="#DejaVuSans-47"/>
       <use xlink:href="#DejaVuSans-43" x="77.490234"/>
       <use xlink:href="#DejaVuSans-4e" x="147.314453"/>
      </g>
     </g>
    </g>
    <g id="xtick_7">
     <g id="line2d_7">
      <g>
       <use xlink:href="#m6509d6069e" x="493" y="315" style="stroke: #000000; stroke-width: 2"/>
      </g>
     </g>
     <g id="text_7">
      <!-- hdim512 -->
      <g transform="translate(461.995469 332.637812)scale(0.14 -0.14)">
       <defs>
        <path id="DejaVuSans-6d" d="M 3328 2828 
Q 3544 3216 3844 3400 
Q 4144 3584 4550 3584 
Q 5097 3584 5394 3201 
Q 5691 2819 5691 2113 
L 5691 0 
L 5113 0 
L 5113 2094 
Q 5113 2597 4934 2840 
Q 4756 3084 4391 3084 
Q 3944 3084 3684 2787 
Q 3425 2491 3425 1978 
L 3425 0 
L 2847 0 
L 2847 2094 
Q 2847 2600 2669 2842 
Q 2491 3084 2119 3084 
Q 1678 3084 1418 2786 
Q 1159 2488 1159 1978 
L 1159 0 
L 581 0 
L 581 3500 
L 1159 3500 
L 1159 2956 
Q 1356 3278 1631 3431 
Q 1906 3584 2284 3584 
Q 2666 3584 2933 3390 
Q 3200 3197 3328 2828 
z
" transform="scale(0.015625)"/>
        <path id="DejaVuSans-35" d="M 691 4666 
L 3169 4666 
L 3169 4134 
L 1269 4134 
L 1269 2991 
Q 1406 3038 1543 3061 
Q 1681 3084 1819 3084 
Q 2600 3084 3056 2656 
Q 3513 2228 3513 1497 
Q 3513 744 3044 326 
Q 2575 -91 1722 -91 
Q 1428 -91 1123 -41 
Q 819 9 494 109 
L 494 744 
Q 775 591 1075 516 
Q 1375 441 1709 441 
Q 2250 441 2565 725 
Q 2881 1009 2881 1497 
Q 2881 1984 2565 2268 
Q 2250 2553 1709 2553 
Q 1456 2553 1204 2497 
Q 953 2441 691 2322 
L 691 4666 
z
" transform="scale(0.015625)"/>
        <path id="DejaVuSans-31" d="M 794 531 
L 1825 531 
L 1825 4091 
L 703 3866 
L 703 4441 
L 1819 4666 
L 2450 4666 
L 2450 531 
L 3481 531 
L 3481 0 
L 794 0 
L 794 531 
z
" transform="scale(0.015625)"/>
        <path id="DejaVuSans-32" d="M 1228 531 
L 3431 531 
L 3431 0 
L 469 0 
L 469 531 
Q 828 903 1448 1529 
Q 2069 2156 2228 2338 
Q 2531 2678 2651 2914 
Q 2772 3150 2772 3378 
Q 2772 3750 2511 3984 
Q 2250 4219 1831 4219 
Q 1534 4219 1204 4116 
Q 875 4013 500 3803 
L 500 4441 
Q 881 4594 1212 4672 
Q 1544 4750 1819 4750 
Q 2544 4750 2975 4387 
Q 3406 4025 3406 3419 
Q 3406 3131 3298 2873 
Q 3191 2616 2906 2266 
Q 2828 2175 2409 1742 
Q 1991 1309 1228 531 
z
" transform="scale(0.015625)"/>
       </defs>
       <use xlink:href="#DejaVuSans-68"/>
       <use xlink:href="#DejaVuSans-64" x="63.378906"/>
       <use xlink:href="#DejaVuSans-69" x="126.855469"/>
       <use xlink:href="#DejaVuSans-6d" x="154.638672"/>
       <use xlink:href="#DejaVuSans-35" x="252.050781"/>
       <use xlink:href="#DejaVuSans-31" x="315.673828"/>
       <use xlink:href="#DejaVuSans-32" x="379.296875"/>
      </g>
     </g>
    </g>
    <g id="xtick_8">
     <g id="line2d_8">
      <g>
       <use xlink:href="#m6509d6069e" x="555" y="315" style="stroke: #000000; stroke-width: 2"/>
      </g>
     </g>
     <g id="text_8">
      <!-- onehot -->
      <g transform="translate(530.509844 332.637812)scale(0.14 -0.14)">
       <use xlink:href="#DejaVuSans-6f"/>
       <use xlink:href="#DejaVuSans-6e" x="61.181641"/>
       <use xlink:href="#DejaVuSans-65" x="124.560547"/>
       <use xlink:href="#DejaVuSans-68" x="186.083984"/>
       <use xlink:href="#DejaVuSans-6f" x="249.462891"/>
       <use xlink:href="#DejaVuSans-74" x="310.644531"/>
      </g>
     </g>
    </g>
    <g id="xtick_9">
     <g id="line2d_9">
      <g>
       <use xlink:href="#m6509d6069e" x="617" y="315" style="stroke: #000000; stroke-width: 2"/>
      </g>
     </g>
     <g id="text_9">
      <!-- VGAE -->
      <g transform="translate(597.576094 332.637812)scale(0.14 -0.14)">
       <defs>
        <path id="DejaVuSans-56" d="M 1831 0 
L 50 4666 
L 709 4666 
L 2188 738 
L 3669 4666 
L 4325 4666 
L 2547 0 
L 1831 0 
z
" transform="scale(0.015625)"/>
       </defs>
       <use xlink:href="#DejaVuSans-56"/>
       <use xlink:href="#DejaVuSans-47" x="68.408203"/>
       <use xlink:href="#DejaVuSans-41" x="145.898438"/>
       <use xlink:href="#DejaVuSans-45" x="214.306641"/>
      </g>
     </g>
    </g>
   </g>
   <g id="matplotlib.axis_2">
    <g id="ytick_1">
     <g id="line2d_10">
      <path d="M 90 306.592057 
L 648 306.592057 
" clip-path="url(#pda28cfd434)" style="fill: none; stroke: #b0b0b0; stroke-width: 0.8; stroke-linecap: square"/>
     </g>
     <g id="line2d_11">
      <defs>
       <path id="m951eefbdac" d="M 0 0 
L -3.5 0 
" style="stroke: #000000; stroke-width: 2"/>
      </defs>
      <g>
       <use xlink:href="#m951eefbdac" x="90" y="306.592057" style="stroke: #000000; stroke-width: 2"/>
      </g>
     </g>
     <g id="text_10">
      <!-- 0.60 -->
      <g transform="translate(51.828125 311.910964)scale(0.14 -0.14)">
       <defs>
        <path id="DejaVuSans-30" d="M 2034 4250 
Q 1547 4250 1301 3770 
Q 1056 3291 1056 2328 
Q 1056 1369 1301 889 
Q 1547 409 2034 409 
Q 2525 409 2770 889 
Q 3016 1369 3016 2328 
Q 3016 3291 2770 3770 
Q 2525 4250 2034 4250 
z
M 2034 4750 
Q 2819 4750 3233 4129 
Q 3647 3509 3647 2328 
Q 3647 1150 3233 529 
Q 2819 -91 2034 -91 
Q 1250 -91 836 529 
Q 422 1150 422 2328 
Q 422 3509 836 4129 
Q 1250 4750 2034 4750 
z
" transform="scale(0.015625)"/>
        <path id="DejaVuSans-2e" d="M 684 794 
L 1344 794 
L 1344 0 
L 684 0 
L 684 794 
z
" transform="scale(0.015625)"/>
        <path id="DejaVuSans-36" d="M 2113 2584 
Q 1688 2584 1439 2293 
Q 1191 2003 1191 1497 
Q 1191 994 1439 701 
Q 1688 409 2113 409 
Q 2538 409 2786 701 
Q 3034 994 3034 1497 
Q 3034 2003 2786 2293 
Q 2538 2584 2113 2584 
z
M 3366 4563 
L 3366 3988 
Q 3128 4100 2886 4159 
Q 2644 4219 2406 4219 
Q 1781 4219 1451 3797 
Q 1122 3375 1075 2522 
Q 1259 2794 1537 2939 
Q 1816 3084 2150 3084 
Q 2853 3084 3261 2657 
Q 3669 2231 3669 1497 
Q 3669 778 3244 343 
Q 2819 -91 2113 -91 
Q 1303 -91 875 529 
Q 447 1150 447 2328 
Q 447 3434 972 4092 
Q 1497 4750 2381 4750 
Q 2619 4750 2861 4703 
Q 3103 4656 3366 4563 
z
" transform="scale(0.015625)"/>
       </defs>
       <use xlink:href="#DejaVuSans-30"/>
       <use xlink:href="#DejaVuSans-2e" x="63.623047"/>
       <use xlink:href="#DejaVuSans-36" x="95.410156"/>
       <use xlink:href="#DejaVuSans-30" x="159.033203"/>
      </g>
     </g>
    </g>
    <g id="ytick_2">
     <g id="line2d_12">
      <path d="M 90 250.686387 
L 648 250.686387 
" clip-path="url(#pda28cfd434)" style="fill: none; stroke: #b0b0b0; stroke-width: 0.8; stroke-linecap: square"/>
     </g>
     <g id="line2d_13">
      <g>
       <use xlink:href="#m951eefbdac" x="90" y="250.686387" style="stroke: #000000; stroke-width: 2"/>
      </g>
     </g>
     <g id="text_11">
      <!-- 0.65 -->
      <g transform="translate(51.828125 256.005293)scale(0.14 -0.14)">
       <use xlink:href="#DejaVuSans-30"/>
       <use xlink:href="#DejaVuSans-2e" x="63.623047"/>
       <use xlink:href="#DejaVuSans-36" x="95.410156"/>
       <use xlink:href="#DejaVuSans-35" x="159.033203"/>
      </g>
     </g>
    </g>
    <g id="ytick_3">
     <g id="line2d_14">
      <path d="M 90 194.780717 
L 648 194.780717 
" clip-path="url(#pda28cfd434)" style="fill: none; stroke: #b0b0b0; stroke-width: 0.8; stroke-linecap: square"/>
     </g>
     <g id="line2d_15">
      <g>
       <use xlink:href="#m951eefbdac" x="90" y="194.780717" style="stroke: #000000; stroke-width: 2"/>
      </g>
     </g>
     <g id="text_12">
      <!-- 0.70 -->
      <g transform="translate(51.828125 200.099623)scale(0.14 -0.14)">
       <defs>
        <path id="DejaVuSans-37" d="M 525 4666 
L 3525 4666 
L 3525 4397 
L 1831 0 
L 1172 0 
L 2766 4134 
L 525 4134 
L 525 4666 
z
" transform="scale(0.015625)"/>
       </defs>
       <use xlink:href="#DejaVuSans-30"/>
       <use xlink:href="#DejaVuSans-2e" x="63.623047"/>
       <use xlink:href="#DejaVuSans-37" x="95.410156"/>
       <use xlink:href="#DejaVuSans-30" x="159.033203"/>
      </g>
     </g>
    </g>
    <g id="ytick_4">
     <g id="line2d_16">
      <path d="M 90 138.875047 
L 648 138.875047 
" clip-path="url(#pda28cfd434)" style="fill: none; stroke: #b0b0b0; stroke-width: 0.8; stroke-linecap: square"/>
     </g>
     <g id="line2d_17">
      <g>
       <use xlink:href="#m951eefbdac" x="90" y="138.875047" style="stroke: #000000; stroke-width: 2"/>
      </g>
     </g>
     <g id="text_13">
      <!-- 0.75 -->
      <g transform="translate(51.828125 144.193953)scale(0.14 -0.14)">
       <use xlink:href="#DejaVuSans-30"/>
       <use xlink:href="#DejaVuSans-2e" x="63.623047"/>
       <use xlink:href="#DejaVuSans-37" x="95.410156"/>
       <use xlink:href="#DejaVuSans-35" x="159.033203"/>
      </g>
     </g>
    </g>
    <g id="ytick_5">
     <g id="line2d_18">
      <path d="M 90 82.969376 
L 648 82.969376 
" clip-path="url(#pda28cfd434)" style="fill: none; stroke: #b0b0b0; stroke-width: 0.8; stroke-linecap: square"/>
     </g>
     <g id="line2d_19">
      <g>
       <use xlink:href="#m951eefbdac" x="90" y="82.969376" style="stroke: #000000; stroke-width: 2"/>
      </g>
     </g>
     <g id="text_14">
      <!-- 0.80 -->
      <g transform="translate(51.828125 88.288282)scale(0.14 -0.14)">
       <defs>
        <path id="DejaVuSans-38" d="M 2034 2216 
Q 1584 2216 1326 1975 
Q 1069 1734 1069 1313 
Q 1069 891 1326 650 
Q 1584 409 2034 409 
Q 2484 409 2743 651 
Q 3003 894 3003 1313 
Q 3003 1734 2745 1975 
Q 2488 2216 2034 2216 
z
M 1403 2484 
Q 997 2584 770 2862 
Q 544 3141 544 3541 
Q 544 4100 942 4425 
Q 1341 4750 2034 4750 
Q 2731 4750 3128 4425 
Q 3525 4100 3525 3541 
Q 3525 3141 3298 2862 
Q 3072 2584 2669 2484 
Q 3125 2378 3379 2068 
Q 3634 1759 3634 1313 
Q 3634 634 3220 271 
Q 2806 -91 2034 -91 
Q 1263 -91 848 271 
Q 434 634 434 1313 
Q 434 1759 690 2068 
Q 947 2378 1403 2484 
z
M 1172 3481 
Q 1172 3119 1398 2916 
Q 1625 2713 2034 2713 
Q 2441 2713 2670 2916 
Q 2900 3119 2900 3481 
Q 2900 3844 2670 4047 
Q 2441 4250 2034 4250 
Q 1625 4250 1398 4047 
Q 1172 3844 1172 3481 
z
" transform="scale(0.015625)"/>
       </defs>
       <use xlink:href="#DejaVuSans-30"/>
       <use xlink:href="#DejaVuSans-2e" x="63.623047"/>
       <use xlink:href="#DejaVuSans-38" x="95.410156"/>
       <use xlink:href="#DejaVuSans-30" x="159.033203"/>
      </g>
     </g>
    </g>
    <g id="text_15">
     <!-- NDCG -->
     <g transform="translate(44.916562 200.03875)rotate(-90)scale(0.14 -0.14)">
      <defs>
       <path id="DejaVuSans-44" d="M 1259 4147 
L 1259 519 
L 2022 519 
Q 2988 519 3436 956 
Q 3884 1394 3884 2338 
Q 3884 3275 3436 3711 
Q 2988 4147 2022 4147 
L 1259 4147 
z
M 628 4666 
L 1925 4666 
Q 3281 4666 3915 4102 
Q 4550 3538 4550 2338 
Q 4550 1131 3912 565 
Q 3275 0 1925 0 
L 628 0 
L 628 4666 
z
" transform="scale(0.015625)"/>
      </defs>
      <use xlink:href="#DejaVuSans-4e"/>
      <use xlink:href="#DejaVuSans-44" x="74.804688"/>
      <use xlink:href="#DejaVuSans-43" x="151.806641"/>
      <use xlink:href="#DejaVuSans-47" x="221.630859"/>
     </g>
    </g>
   </g>
   <g id="line2d_20">
    <path d="M 121 232.935775 
L 121 119.584443 
" clip-path="url(#pda28cfd434)" style="fill: none; stroke: #3d3d3d; stroke-width: 2; stroke-linecap: square"/>
   </g>
   <g id="line2d_21">
    <path d="M 121 208.510148 
L 121 170.89714 
" clip-path="url(#pda28cfd434)" style="fill: none; stroke: #3d3d3d; stroke-width: 6; stroke-linecap: square"/>
   </g>
   <g id="line2d_22">
    <path d="M 183 222.258442 
L 183 95.722312 
" clip-path="url(#pda28cfd434)" style="fill: none; stroke: #3d3d3d; stroke-width: 2; stroke-linecap: square"/>
   </g>
   <g id="line2d_23">
    <path d="M 183 186.142277 
L 183 148.533193 
" clip-path="url(#pda28cfd434)" style="fill: none; stroke: #3d3d3d; stroke-width: 6; stroke-linecap: square"/>
   </g>
   <g id="line2d_24">
    <path d="M 245 224.425164 
L 245 118.165215 
" clip-path="url(#pda28cfd434)" style="fill: none; stroke: #3d3d3d; stroke-width: 2; stroke-linecap: square"/>
   </g>
   <g id="line2d_25">
    <path d="M 245 197.063165 
L 245 157.413094 
" clip-path="url(#pda28cfd434)" style="fill: none; stroke: #3d3d3d; stroke-width: 6; stroke-linecap: square"/>
   </g>
   <g id="line2d_26">
    <path d="M 307 252.001374 
L 307 108.116427 
" clip-path="url(#pda28cfd434)" style="fill: none; stroke: #3d3d3d; stroke-width: 2; stroke-linecap: square"/>
   </g>
   <g id="line2d_27">
    <path d="M 307 209.57969 
L 307 162.891988 
" clip-path="url(#pda28cfd434)" style="fill: none; stroke: #3d3d3d; stroke-width: 6; stroke-linecap: square"/>
   </g>
   <g id="line2d_28">
    <path d="M 369 225.996731 
L 369 100.945376 
" clip-path="url(#pda28cfd434)" style="fill: none; stroke: #3d3d3d; stroke-width: 2; stroke-linecap: square"/>
   </g>
   <g id="line2d_29">
    <path d="M 369 188.47359 
L 369 151.943495 
" clip-path="url(#pda28cfd434)" style="fill: none; stroke: #3d3d3d; stroke-width: 6; stroke-linecap: square"/>
   </g>
   <g id="line2d_30">
    <path d="M 431 230.242827 
L 431 112.983995 
" clip-path="url(#pda28cfd434)" style="fill: none; stroke: #3d3d3d; stroke-width: 2; stroke-linecap: square"/>
   </g>
   <g id="line2d_31">
    <path d="M 431 192.465117 
L 431 155.701576 
" clip-path="url(#pda28cfd434)" style="fill: none; stroke: #3d3d3d; stroke-width: 6; stroke-linecap: square"/>
   </g>
   <g id="line2d_32">
    <path d="M 493 231.140401 
L 493 96.649679 
" clip-path="url(#pda28cfd434)" style="fill: none; stroke: #3d3d3d; stroke-width: 2; stroke-linecap: square"/>
   </g>
   <g id="line2d_33">
    <path d="M 493 189.355152 
L 493 145.707904 
" clip-path="url(#pda28cfd434)" style="fill: none; stroke: #3d3d3d; stroke-width: 6; stroke-linecap: square"/>
   </g>
   <g id="line2d_34">
    <path d="M 555 280.338346 
L 555 147.365026 
" clip-path="url(#pda28cfd434)" style="fill: none; stroke: #3d3d3d; stroke-width: 2; stroke-linecap: square"/>
   </g>
   <g id="line2d_35">
    <path d="M 555 243.746956 
L 555 203.371293 
" clip-path="url(#pda28cfd434)" style="fill: none; stroke: #3d3d3d; stroke-width: 6; stroke-linecap: square"/>
   </g>
   <g id="line2d_36">
    <path d="M 617 258.933388 
L 617 155.025017 
" clip-path="url(#pda28cfd434)" style="fill: none; stroke: #3d3d3d; stroke-width: 2; stroke-linecap: square"/>
   </g>
   <g id="line2d_37">
    <path d="M 617 224.122734 
L 617 188.714867 
" clip-path="url(#pda28cfd434)" style="fill: none; stroke: #3d3d3d; stroke-width: 6; stroke-linecap: square"/>
   </g>
   <g id="patch_3">
    <path d="M 90 315 
L 90 43.2 
" style="fill: none; stroke: #000000; stroke-width: 2; stroke-linejoin: miter; stroke-linecap: square"/>
   </g>
   <g id="patch_4">
    <path d="M 648 315 
L 648 43.2 
" style="fill: none; stroke: #000000; stroke-width: 2; stroke-linejoin: miter; stroke-linecap: square"/>
   </g>
   <g id="patch_5">
    <path d="M 90 315 
L 648 315 
" style="fill: none; stroke: #000000; stroke-width: 2; stroke-linejoin: miter; stroke-linecap: square"/>
   </g>
   <g id="patch_6">
    <path d="M 90 43.2 
L 648 43.2 
" style="fill: none; stroke: #000000; stroke-width: 2; stroke-linejoin: miter; stroke-linecap: square"/>
   </g>
   <g id="PathCollection_1">
    <defs>
     <path id="m1c729bfe51" d="M 0 2 
C 0.530406 2 1.03916 1.789267 1.414214 1.414214 
C 1.789267 1.03916 2 0.530406 2 0 
C 2 -0.530406 1.789267 -1.03916 1.414214 -1.414214 
C 1.03916 -1.789267 0.530406 -2 0 -2 
C -0.530406 -2 -1.03916 -1.789267 -1.414214 -1.414214 
C -1.789267 -1.03916 -2 -0.530406 -2 0 
C -2 0.530406 -1.789267 1.03916 -1.414214 1.414214 
C -1.03916 1.789267 -0.530406 2 0 2 
z
" style="stroke: #3d3d3d"/>
    </defs>
    <g clip-path="url(#pda28cfd434)">
     <use xlink:href="#m1c729bfe51" x="121" y="186.149231" style="fill: #ffffff; stroke: #3d3d3d"/>
    </g>
   </g>
   <g id="PathCollection_2">
    <g clip-path="url(#pda28cfd434)">
     <use xlink:href="#m1c729bfe51" x="183" y="173.932529" style="fill: #ffffff; stroke: #3d3d3d"/>
    </g>
   </g>
   <g id="PathCollection_3">
    <g clip-path="url(#pda28cfd434)">
     <use xlink:href="#m1c729bfe51" x="245" y="180.627621" style="fill: #ffffff; stroke: #3d3d3d"/>
    </g>
   </g>
   <g id="PathCollection_4">
    <g clip-path="url(#pda28cfd434)">
     <use xlink:href="#m1c729bfe51" x="307" y="187.849378" style="fill: #ffffff; stroke: #3d3d3d"/>
    </g>
   </g>
   <g id="PathCollection_5">
    <g clip-path="url(#pda28cfd434)">
     <use xlink:href="#m1c729bfe51" x="369" y="169.082875" style="fill: #ffffff; stroke: #3d3d3d"/>
    </g>
   </g>
   <g id="PathCollection_6">
    <g clip-path="url(#pda28cfd434)">
     <use xlink:href="#m1c729bfe51" x="431" y="173.032293" style="fill: #ffffff; stroke: #3d3d3d"/>
    </g>
   </g>
   <g id="PathCollection_7">
    <g clip-path="url(#pda28cfd434)">
     <use xlink:href="#m1c729bfe51" x="493" y="168.197544" style="fill: #ffffff; stroke: #3d3d3d"/>
    </g>
   </g>
   <g id="PathCollection_8">
    <g clip-path="url(#pda28cfd434)">
     <use xlink:href="#m1c729bfe51" x="555" y="222.168878" style="fill: #ffffff; stroke: #3d3d3d"/>
    </g>
   </g>
   <g id="PathCollection_9">
    <g clip-path="url(#pda28cfd434)">
     <use xlink:href="#m1c729bfe51" x="617" y="208.124246" style="fill: #ffffff; stroke: #3d3d3d"/>
    </g>
   </g>
  </g>
 </g>
 <defs>
  <clipPath id="pda28cfd434">
   <rect x="90" y="43.2" width="558" height="271.8"/>
  </clipPath>
 </defs>
</svg>
